<svg width="85" height="94" viewBox="0 0 85 94" fill="none" xmlns="http://www.w3.org/2000/svg">
<g clip-path="url(#clip0)">
<path d="M24.2811 51.867C24.6146 48.5325 25.4937 31.102 11.1855 13.9747L23.0989 17.7336C23.0989 17.7336 28.616 10.8827 37.0129 11.0949L34.5878 0.272827C34.5878 0.272827 46.5315 7.79066 56.6866 26.3427C56.6866 26.3427 56.7776 26.5852 56.9898 27.0399C52.8671 28.3738 48.4109 31.6477 47.6228 36.1947C47.2287 38.5895 48.4109 41.0146 50.6542 41.9847C52.9277 42.9547 55.6559 42.4394 57.9295 41.7118C59.0814 41.3481 60.294 40.8934 61.5065 40.5296C62.4462 44.1066 63.2647 48.0171 63.6588 51.8367H24.2811V51.867Z" fill="#FA6456" stroke="black"/>
<path d="M63.6594 52.1701H24.2817C24.1908 52.1701 24.0999 52.1398 24.0696 52.0792C24.0089 52.0185 23.9786 51.9276 23.9786 51.8367C24.3121 48.5324 25.1609 31.1626 10.9437 14.1869C10.8527 14.0959 10.8527 13.9443 10.9133 13.8231C10.974 13.7018 11.1255 13.6715 11.2468 13.7018L23.0389 17.4001C23.918 16.3695 29.1623 10.822 36.6801 10.822L34.3459 0.363746C34.3156 0.242491 34.3763 0.121235 34.4672 0.0606075C34.5581 -2.02022e-05 34.7097 -2.02022e-05 34.8007 0.0606075C34.9219 0.121235 46.9262 7.82095 56.9904 26.2518C56.9904 26.2821 57.1116 26.5246 57.2935 26.9793C57.3238 27.0702 57.3238 27.1309 57.2935 27.2218C57.2632 27.3128 57.2026 27.3431 57.1116 27.3734C53.0799 28.6769 48.7147 31.9205 47.9569 36.2856C47.5628 38.5895 48.745 40.863 50.8367 41.7421C52.6252 42.5 54.929 42.4394 57.8998 41.4693C58.3242 41.3177 58.7789 41.1662 59.2033 41.0146C59.9308 40.7721 60.719 40.4993 61.4768 40.2871C61.5678 40.2568 61.6284 40.2871 61.7193 40.3174C61.78 40.3477 61.8406 40.4386 61.8709 40.4993C62.9622 44.622 63.6897 48.4415 64.0232 51.8367C64.0232 51.9276 63.9929 52.0185 63.9322 52.0792C63.8413 52.1398 63.7504 52.1701 63.6594 52.1701ZM24.6152 51.5638H63.326C62.9925 48.3506 62.2953 44.7735 61.2949 40.954C60.628 41.1359 59.9915 41.3784 59.3549 41.5906C58.9002 41.7421 58.4758 41.8937 58.021 42.0453C54.8987 43.0456 52.4736 43.1366 50.5335 42.2878C48.1994 41.2874 46.8656 38.7714 47.3203 36.1644C47.8356 33.133 50.5639 28.9194 56.566 26.858C56.475 26.6155 56.4144 26.464 56.4144 26.464C51.2004 16.9454 45.5014 10.3976 41.6516 6.57808C38.5899 3.5467 36.1648 1.72787 35.0735 0.939709L37.347 11.0039C37.3773 11.0948 37.347 11.1858 37.2864 11.2767C37.2258 11.3374 37.1348 11.398 37.0439 11.398C28.8895 11.2161 23.4026 17.8851 23.3723 17.9458C23.2814 18.0367 23.1601 18.0973 23.0389 18.0367L12.0653 14.6113C25.373 31.011 24.9487 47.5927 24.6152 51.5638Z" fill="black" stroke="black"/>
<path d="M35.7104 78.0582C34.225 81.2411 29.6476 82.1202 26.5253 82.484C23.312 82.8781 20.0684 82.8477 16.8551 82.7265C8.51884 82.393 -0.423744 80.2711 0.334102 72.4804C1.33446 62.295 13.0053 57.7176 16.8551 56.505V70.1462C17.7039 70.0856 18.583 70.0856 19.4318 70.0856C23.4636 70.0856 27.6772 70.3281 31.4967 71.6013C33.2246 72.1773 35.3466 73.0261 35.9225 74.9358C36.2257 75.9665 36.1347 77.1184 35.7104 78.0582Z" fill="#FA6456" stroke="black"/>
<path d="M20.4323 83.1508C19.3107 83.1508 18.1285 83.1205 16.825 83.0599C9.33748 82.7568 4.27507 81.1804 1.75902 78.3006C0.394895 76.7243 -0.181068 74.7842 0.0311287 72.4804C1.0618 62.0524 13.0964 57.4144 16.7341 56.2322C16.825 56.2018 16.9159 56.2322 17.0069 56.2625C17.0978 56.3231 17.1281 56.414 17.1281 56.505V69.8128C17.9163 69.7824 18.6741 69.7521 19.4017 69.7521C22.8878 69.7521 27.4348 69.9037 31.5575 71.2981C32.952 71.7528 35.5286 72.6319 36.1652 74.8449C36.4684 75.9362 36.3774 77.1487 35.9227 78.1491C34.3767 81.4533 29.8296 82.3627 26.5254 82.7568C24.7066 83.0296 22.7362 83.1508 20.4323 83.1508ZM16.5522 56.9597C12.5811 58.2935 1.60745 62.8406 0.637405 72.541C0.425209 74.663 0.970858 76.4515 2.21373 77.9066C4.5782 80.6045 9.64062 82.1808 16.8553 82.4536C20.7658 82.6052 23.7366 82.5446 26.4648 82.2111C29.6174 81.8474 33.9826 80.9986 35.4074 77.9369C35.8015 77.0578 35.8924 75.9968 35.6196 75.0571C35.1042 73.2989 33.1642 72.5107 31.406 71.9044C27.3742 70.5403 22.8878 70.3887 19.432 70.3887C18.6135 70.3887 17.7344 70.3887 16.8553 70.4493C16.7644 70.4493 16.7037 70.419 16.6431 70.3584C16.5825 70.2978 16.5522 70.2068 16.5522 70.1462V56.9597Z" fill="black" stroke="black"/>
<path d="M72.2085 51.8669V93.1241H16.8555V82.7567C20.0687 82.878 23.3123 82.878 26.5256 82.5142C29.6479 82.1505 34.2253 81.2714 35.7107 78.0884C36.1654 77.1487 36.226 75.9968 35.9532 74.9964C35.4075 73.0563 33.2553 72.2378 31.5274 71.6619C27.6775 70.3584 23.4942 70.1159 19.4625 70.1462C18.6137 70.1462 17.7346 70.1765 16.8858 70.2068V51.9276H72.2085V51.8669Z" fill="#73B7EA" stroke="black"/>
<path d="M72.2089 93.4576H16.8559C16.674 93.4576 16.5527 93.3363 16.5527 93.1545V82.7568C16.5527 82.6659 16.583 82.6052 16.6437 82.5446C16.7043 82.484 16.7952 82.4537 16.8559 82.4537C20.7664 82.6052 23.7371 82.5446 26.4654 82.2112C29.618 81.8474 33.9832 80.9986 35.4079 77.9369C35.802 77.0578 35.893 75.9968 35.6201 75.0571C35.1048 73.2989 33.1647 72.5107 31.4065 71.9044C27.3748 70.5403 22.8883 70.3887 19.4325 70.3887C18.6141 70.3887 17.735 70.3887 16.8559 70.4494C16.7649 70.4494 16.7043 70.4191 16.6437 70.3584C16.583 70.2978 16.5527 70.2069 16.5527 70.1462V51.867C16.5527 51.6851 16.674 51.5638 16.8559 51.5638H72.2089C72.3908 51.5638 72.5121 51.6851 72.5121 51.867V93.1241C72.5121 93.306 72.3908 93.4576 72.2089 93.4576ZM17.159 92.8513H71.9058V52.1701H17.159V69.8431C17.9472 69.8128 18.705 69.7825 19.4325 69.7825C22.9186 69.7825 27.4657 69.934 31.5884 71.3285C32.9828 71.7832 35.5595 72.6623 36.1961 74.8752C36.4992 75.9665 36.4083 77.1791 35.9536 78.1794C34.4076 81.4836 29.8605 82.393 26.5563 82.7871C23.8584 83.1206 20.9482 83.1812 17.159 83.0599V92.8513Z" fill="black" stroke="black"/>
<path d="M53.3534 58.5662H33.9223C33.7404 58.5662 33.6191 58.445 33.6191 58.2631C33.6191 58.0812 33.7404 57.96 33.9223 57.96H53.3534C53.5353 57.96 53.6566 58.0812 53.6566 58.2631C53.6566 58.445 53.505 58.5662 53.3534 58.5662Z" fill="black" stroke="black"/>
<path d="M16.8569 70.1765L13.5527 70.6615" stroke="black"/>
<path d="M13.552 70.9646C13.4004 70.9646 13.2791 70.8434 13.2488 70.6918C13.2185 70.5402 13.3398 70.3584 13.4913 70.3584L16.7955 69.8733C16.9471 69.843 17.129 69.9643 17.129 70.1158C17.129 70.2674 17.038 70.4493 16.8865 70.4493L13.5823 70.9343C13.5823 70.9646 13.5823 70.9646 13.552 70.9646Z" fill="black" stroke="black"/>
<path d="M43.775 41.7422C43.0475 42.2575 42.5018 43.076 42.3806 44.0764C42.1381 45.9255 43.4416 47.6534 45.321 47.8959C46.8973 48.1081 48.3524 47.1987 48.8981 45.8043C49.2921 46.0468 49.7468 46.2286 50.2622 46.2893C52.1113 46.5318 53.8392 45.2283 54.0817 43.3488C54.3242 41.4997 53.0207 39.7718 51.1413 39.5293C50.6866 39.4686 50.2319 39.499 49.8075 39.6202C49.8378 37.9226 48.5646 36.4373 46.867 36.2251C45.0179 35.9826 43.29 37.286 43.0475 39.1655C42.9262 40.1052 43.1991 41.045 43.775 41.7422Z" fill="#FCD844" stroke="black"/>
<path d="M45.7757 48.199C45.6241 48.199 45.4422 48.199 45.2906 48.1687C43.2596 47.8959 41.8349 46.0467 42.1077 44.0157C42.2289 43.1063 42.6837 42.2878 43.3809 41.6815C42.8655 40.9237 42.623 40.0143 42.7443 39.1049C43.0171 37.0738 44.8663 35.6491 46.8973 35.9219C48.6252 36.1341 49.959 37.5589 50.1105 39.2564C50.4743 39.1958 50.8381 39.1958 51.2018 39.2261C52.1719 39.3474 53.051 39.8627 53.6573 40.6509C54.2635 41.439 54.5364 42.4091 54.3848 43.3791C54.112 45.4101 52.2628 46.8349 50.2318 46.5621C49.8074 46.5014 49.4133 46.3802 49.0496 46.1983C48.413 47.4109 47.1398 48.199 45.7757 48.199ZM46.4123 36.4979C44.8966 36.4979 43.5628 37.6498 43.3506 39.1958C43.2293 40.0446 43.4718 40.8934 44.0478 41.5603C44.1084 41.6209 44.1387 41.7118 44.1084 41.8028C44.1084 41.8937 44.0478 41.9544 43.9872 42.015C43.2899 42.5303 42.8352 43.2579 42.714 44.137C42.5018 45.8345 43.684 47.3805 45.3816 47.5927C46.776 47.7746 48.1098 46.9865 48.6555 45.683C48.6858 45.592 48.7464 45.5314 48.8374 45.5011C48.9283 45.4708 49.0192 45.4708 49.0799 45.5314C49.474 45.7739 49.868 45.9255 50.3227 45.9861C52.0203 46.1983 53.5663 45.0161 53.7785 43.3185C53.8998 42.5 53.6573 41.6815 53.1722 41.0449C52.6569 40.378 51.9294 39.984 51.1109 39.8627C50.6865 39.8021 50.2924 39.8324 49.8984 39.9536C49.8074 39.984 49.7165 39.9536 49.6255 39.893C49.5649 39.8324 49.5043 39.7414 49.5043 39.6505C49.5346 38.0742 48.3523 36.7707 46.8063 36.5585C46.6851 36.4979 46.5335 36.4979 46.4123 36.4979Z" fill="black" stroke="black"/>
<path d="M72.2075 71.7831V51.8972H69.1761C70.1764 49.8056 71.1465 46.9864 70.8737 44.2581C70.6312 41.7724 68.3273 40.4083 66.0538 40.1051C64.5078 39.8929 62.9921 40.1658 61.5067 40.5902C60.2941 40.9539 59.0816 41.3783 57.9297 41.7724C55.6561 42.4999 52.9279 43.0153 50.6543 42.0452C48.4111 41.0752 47.1986 38.6198 47.623 36.2553C48.4111 31.7082 52.8672 28.4343 56.9899 27.1005C57.0506 27.0702 57.1112 27.0702 57.1415 27.0399C61.2945 25.7667 65.9022 25.8273 70.0552 27.0702C78.1187 29.465 82.9992 36.4372 84.3027 44.531C86.8794 60.3245 75.9058 69.2671 72.2075 71.7831Z" fill="#FA6456" stroke="black"/>
<path d="M72.2075 72.0863C72.1469 72.0863 72.1166 72.0863 72.056 72.056C71.965 71.9953 71.9044 71.9044 71.9044 71.7831V52.2004H69.1762C69.0852 52.2004 68.964 52.1398 68.9336 52.0488C68.873 51.9579 68.873 51.8366 68.9033 51.7457C69.8127 49.8359 70.8434 46.9864 70.5706 44.2885C70.419 42.6819 69.1458 40.8327 65.9932 40.4083C64.72 40.2264 63.3256 40.378 61.5674 40.8933C60.8095 41.1055 60.0517 41.3784 59.3242 41.6209C58.8694 41.7724 58.4451 41.924 57.9903 42.0756C54.868 43.0759 52.4429 43.1669 50.5028 42.3181C48.1687 41.3177 46.8349 38.8017 47.2896 36.1947C47.8049 33.1027 50.6241 28.7981 56.8687 26.7974C56.9294 26.7671 56.99 26.7671 57.0203 26.7368C61.1127 25.4636 65.781 25.4636 70.0856 26.7671C77.6943 29.0406 83.1205 35.649 84.5453 44.4704C87.1523 60.5367 75.8452 69.6309 72.3288 72.056C72.3288 72.056 72.2682 72.0863 72.2075 72.0863ZM69.6612 51.5638H72.2379C72.4197 51.5638 72.541 51.6851 72.541 51.867V71.1769C76.4212 68.388 86.4854 59.597 84.0299 44.531C82.6355 35.9522 77.3912 29.4953 69.9946 27.3127C65.781 26.0699 61.2642 26.0396 57.2628 27.2824C57.2022 27.2824 57.1719 27.3127 57.1112 27.3431C53.0795 28.6465 48.684 31.8901 47.9565 36.2553C47.5624 38.5592 48.7446 40.8327 50.8363 41.7118C52.6248 42.4697 54.9287 42.409 57.8994 41.439C58.3238 41.2874 58.7785 41.1359 59.2029 40.9843C59.9304 40.7418 60.7186 40.4689 61.4764 40.2568C62.6284 39.9233 64.3563 39.5292 66.1448 39.7717C68.3274 40.0749 70.9647 41.4087 71.2375 44.1976C71.4497 46.8652 70.5403 49.6237 69.6612 51.5638Z" fill="black" stroke="black"/>
<path d="M37.9233 30.3441C38.9111 30.3441 39.7118 29.5434 39.7118 28.5556C39.7118 27.5678 38.9111 26.7671 37.9233 26.7671C36.9355 26.7671 36.1348 27.5678 36.1348 28.5556C36.1348 29.5434 36.9355 30.3441 37.9233 30.3441Z" fill="black" stroke="black"/>
<path d="M30.3448 28.3434C30.7801 28.3434 31.133 27.9905 31.133 27.5552C31.133 27.12 30.7801 26.7671 30.3448 26.7671C29.9095 26.7671 29.5566 27.12 29.5566 27.5552C29.5566 27.9905 29.9095 28.3434 30.3448 28.3434Z" fill="black" stroke="black"/>
<path d="M40.7725 22.8263C41.2078 22.8263 41.5607 22.4734 41.5607 22.0382C41.5607 21.6029 41.2078 21.25 40.7725 21.25C40.3372 21.25 39.9844 21.6029 39.9844 22.0382C39.9844 22.4734 40.3372 22.8263 40.7725 22.8263Z" fill="black" stroke="black"/>
<path d="M42.3485 31.4354C42.2272 31.4354 42.1059 31.3444 42.0756 31.2232C42.015 31.0716 42.1059 30.8897 42.2575 30.8291C42.2878 30.8291 43.4398 30.4047 43.8945 29.3437C44.1976 28.6465 44.137 27.828 43.7429 26.858C43.6823 26.7064 43.7429 26.5245 43.8945 26.4639C44.046 26.4033 44.2279 26.4639 44.2885 26.6155C44.7736 27.7371 44.8342 28.7374 44.4401 29.5862C43.8642 30.8897 42.5 31.3747 42.4394 31.3747C42.4091 31.4051 42.3788 31.4354 42.3485 31.4354Z" fill="black" stroke="black"/>
<path d="M29.0331 25.8591C29.7994 24.9724 30.0715 23.9519 29.6409 23.5797C29.2102 23.2075 28.2398 23.6245 27.4735 24.5112C26.7072 25.3979 26.4351 26.4184 26.8657 26.7907C27.2964 27.1629 28.2668 26.7458 29.0331 25.8591Z" fill="black" stroke="black"/>
<path d="M43.6582 18.8668C43.7692 18.3085 42.9273 17.6708 41.7779 17.4423C40.6285 17.2139 39.6067 17.4814 39.4958 18.0397C39.3849 18.598 40.2267 19.2357 41.3761 19.4641C42.5256 19.6925 43.5473 19.4251 43.6582 18.8668Z" fill="black" stroke="black"/>
<path d="M50.23 16.1572L46.168 22.0381L52.6551 19.6433" fill="black"/>
<path d="M50.23 16.1572L46.168 22.0381L52.6551 19.6433" stroke="black"/>
<path d="M46.1681 22.3413C46.0772 22.3413 45.9863 22.3109 45.9256 22.22C45.8347 22.1291 45.8347 21.9775 45.9256 21.8562L49.9574 15.9753C50.0483 15.8238 50.2302 15.7935 50.3818 15.8844C50.5333 15.9753 50.5636 16.1572 50.4727 16.3088L46.9866 21.4015L52.5643 19.3402C52.7159 19.2796 52.8978 19.3705 52.9584 19.5221C53.0191 19.6736 52.9281 19.8555 52.7765 19.9161L46.3197 22.3109C46.2591 22.3413 46.2288 22.3413 46.1681 22.3413Z" fill="black" stroke="black"/>
<path d="M54.1094 22.0382L48.2285 26.07L56.4133 25.8274" fill="black"/>
<path d="M54.1094 22.0382L48.2285 26.07L56.4133 25.8274" stroke="black"/>
<path d="M48.2291 26.3731C48.1078 26.3731 47.9866 26.2821 47.9562 26.1609C47.9259 26.0396 47.9562 25.888 48.0775 25.8274L53.9584 21.7957C54.11 21.7047 54.2918 21.735 54.3828 21.8866C54.4737 22.0382 54.4434 22.2201 54.2918 22.311L49.2597 25.7668L56.3835 25.5546C56.5654 25.5546 56.6866 25.6758 56.6866 25.8577C56.6866 26.0396 56.5654 26.1609 56.3835 26.1609L48.2291 26.3731Z" fill="black" stroke="black"/>
<path d="M21.0996 30.8594L28.5871 31.1322L22.6153 35.5883" fill="black"/>
<path d="M21.0996 30.8594L28.5871 31.1322L22.6153 35.5883" stroke="black"/>
<path d="M22.6148 35.8915C22.5238 35.8915 22.4329 35.8612 22.3723 35.7703C22.2813 35.649 22.3116 35.4368 22.4329 35.3459L27.7075 31.4051L21.0688 31.1626C20.8869 31.1626 20.7656 31.011 20.7656 30.8594C20.7656 30.6775 20.9172 30.5563 21.0688 30.5563L28.5563 30.8291C28.6775 30.8291 28.7988 30.92 28.8291 31.0413C28.8594 31.1626 28.8291 31.2838 28.7078 31.3747L22.736 35.8309C22.736 35.8612 22.6754 35.8915 22.6148 35.8915Z" fill="black" stroke="black"/>
<path d="M23.1309 37.5892L31.1337 34.9822L24.1615 43.7126" fill="black"/>
<path d="M23.1309 37.5892L31.1337 34.9822L24.1615 43.7126" stroke="black"/>
<path d="M24.1614 44.0156C24.1008 44.0156 24.0401 43.9853 23.9795 43.955C23.8583 43.8641 23.8279 43.6519 23.9189 43.5306L30.2545 35.6187L23.2217 37.8923C23.0701 37.9529 22.8882 37.8619 22.8276 37.7104C22.767 37.5588 22.8579 37.3769 23.0095 37.3163L31.0123 34.7093C31.1336 34.679 31.2851 34.7093 31.3458 34.8306C31.4367 34.9518 31.4064 35.0731 31.3458 35.1943L24.3736 43.8944C24.3433 43.9853 24.2523 44.0156 24.1614 44.0156Z" fill="black" stroke="black"/>
<path d="M57.8412 86.0913H57.6896C55.2039 84.6059 50.3234 81.6958 51.0206 78.1491C51.7481 74.4811 55.598 74.7236 57.7502 76.7546C59.9025 74.7236 63.7524 74.4811 64.4799 78.1491C65.2378 81.6958 60.3269 84.6059 57.8412 86.0913Z" fill="#73B7EA" stroke="black"/>
<path d="M57.8404 86.3944H57.6888C57.6282 86.3944 57.5676 86.3944 57.5373 86.3641L57.4766 86.3338C54.8696 84.7575 49.9891 81.817 50.747 78.1188C51.0501 76.6334 51.8989 75.6027 53.1418 75.2086C54.5968 74.7539 56.4156 75.2086 57.8101 76.3909C59.1742 75.2086 61.0234 74.7539 62.4481 75.2086C63.691 75.6027 64.5398 76.6334 64.8429 78.1188C65.6007 81.8474 60.7202 84.7575 58.1132 86.3338L58.0526 86.3641C57.9617 86.3944 57.901 86.3944 57.8404 86.3944ZM54.2937 75.6027C53.9602 75.6027 53.6268 75.6633 53.3236 75.7543C52.293 76.0877 51.6261 76.9365 51.3532 78.2097C50.6863 81.5139 55.294 84.2725 57.7798 85.7882C60.2655 84.2725 64.8732 81.5139 64.2063 78.2097C63.9335 76.9365 63.2666 76.0877 62.2359 75.7543C60.9324 75.3299 59.1742 75.8452 57.9617 76.9971C57.8404 77.1184 57.6585 77.1184 57.5373 76.9971C56.6582 76.118 55.385 75.6027 54.2937 75.6027Z" fill="#FCD844" stroke="black"/>
</g>
<defs>
<clipPath id="clip0">
<rect width="85" height="93.4576" fill="white"/>
</clipPath>
</defs>
</svg>
