<svg width="87" height="95" viewBox="0 0 87 95" fill="none" xmlns="http://www.w3.org/2000/svg">
<path d="M25.2811 52.867C25.6146 49.5325 26.4937 32.102 12.1855 14.9747L24.0989 18.7336C24.0989 18.7336 29.616 11.8827 38.0129 12.0949L35.5878 1.27283C35.5878 1.27283 47.5315 8.79066 57.6866 27.3427C57.6866 27.3427 57.7776 27.5852 57.9898 28.0399C53.8671 29.3738 49.4109 32.6477 48.6228 37.1947C48.2287 39.5895 49.4109 42.0146 51.6542 42.9847C53.9277 43.9547 56.6559 43.4394 58.9295 42.7118C60.0814 42.3481 61.294 41.8934 62.5065 41.5296C63.4462 45.1066 64.2647 49.0171 64.6588 52.8367H25.2811V52.867Z" fill="#FA6456" stroke="black"/>
<path d="M64.6594 53.1701H25.2817C25.1908 53.1701 25.0999 53.1398 25.0696 53.0792C25.0089 53.0185 24.9786 52.9276 24.9786 52.8367C25.3121 49.5324 26.1609 32.1626 11.9437 15.1869C11.8527 15.0959 11.8527 14.9443 11.9133 14.8231C11.974 14.7018 12.1255 14.6715 12.2468 14.7018L24.0389 18.4001C24.918 17.3695 30.1623 11.822 37.6801 11.822L35.3459 1.36375C35.3156 1.24249 35.3763 1.12124 35.4672 1.06061C35.5581 0.99998 35.7097 0.99998 35.8007 1.06061C35.9219 1.12124 47.9262 8.82095 57.9904 27.2518C57.9904 27.2821 58.1116 27.5246 58.2935 27.9793C58.3238 28.0702 58.3238 28.1309 58.2935 28.2218C58.2632 28.3128 58.2026 28.3431 58.1116 28.3734C54.0799 29.6769 49.7147 32.9205 48.9569 37.2856C48.5628 39.5895 49.745 41.863 51.8367 42.7421C53.6252 43.5 55.929 43.4394 58.8998 42.4693C59.3242 42.3177 59.7789 42.1662 60.2033 42.0146C60.9308 41.7721 61.719 41.4993 62.4768 41.2871C62.5678 41.2568 62.6284 41.2871 62.7193 41.3174C62.78 41.3477 62.8406 41.4386 62.8709 41.4993C63.9622 45.622 64.6897 49.4415 65.0232 52.8367C65.0232 52.9276 64.9929 53.0185 64.9322 53.0792C64.8413 53.1398 64.7504 53.1701 64.6594 53.1701ZM25.6152 52.5638H64.326C63.9925 49.3506 63.2953 45.7735 62.2949 41.954C61.628 42.1359 60.9915 42.3784 60.3549 42.5906C59.9002 42.7421 59.4758 42.8937 59.021 43.0453C55.8987 44.0456 53.4736 44.1366 51.5335 43.2878C49.1994 42.2874 47.8656 39.7714 48.3203 37.1644C48.8356 34.133 51.5639 29.9194 57.566 27.858C57.475 27.6155 57.4144 27.464 57.4144 27.464C52.2004 17.9454 46.5014 11.3976 42.6516 7.57808C39.5899 4.5467 37.1648 2.72787 36.0735 1.93971L38.347 12.0039C38.3773 12.0948 38.347 12.1858 38.2864 12.2767C38.2258 12.3374 38.1348 12.398 38.0439 12.398C29.8895 12.2161 24.4026 18.8851 24.3723 18.9458C24.2814 19.0367 24.1601 19.0973 24.0389 19.0367L13.0653 15.6113C26.373 32.011 25.9487 48.5927 25.6152 52.5638Z" fill="black" stroke="black"/>
<path d="M36.7104 79.0582C35.225 82.2411 30.6476 83.1202 27.5253 83.484C24.312 83.8781 21.0684 83.8477 17.8551 83.7265C9.51884 83.393 0.576256 81.2711 1.3341 73.4804C2.33446 63.295 14.0053 58.7176 17.8551 57.505V71.1462C18.7039 71.0856 19.583 71.0856 20.4318 71.0856C24.4636 71.0856 28.6772 71.3281 32.4967 72.6013C34.2246 73.1773 36.3466 74.0261 36.9225 75.9358C37.2257 76.9665 37.1347 78.1184 36.7104 79.0582Z" fill="#FA6456" stroke="black"/>
<path d="M21.4323 84.1508C20.3107 84.1508 19.1285 84.1205 17.825 84.0599C10.3375 83.7568 5.27507 82.1804 2.75902 79.3006C1.39489 77.7243 0.818932 75.7842 1.03113 73.4804C2.0618 63.0524 14.0964 58.4144 17.7341 57.2322C17.825 57.2018 17.9159 57.2322 18.0069 57.2625C18.0978 57.3231 18.1281 57.414 18.1281 57.505V70.8128C18.9163 70.7824 19.6741 70.7521 20.4017 70.7521C23.8878 70.7521 28.4348 70.9037 32.5575 72.2981C33.952 72.7528 36.5286 73.6319 37.1652 75.8449C37.4684 76.9362 37.3774 78.1487 36.9227 79.1491C35.3767 82.4533 30.8296 83.3627 27.5254 83.7568C25.7066 84.0296 23.7362 84.1508 21.4323 84.1508ZM17.5522 57.9597C13.5811 59.2935 2.60745 63.8406 1.63741 73.541C1.42521 75.663 1.97086 77.4515 3.21373 78.9066C5.5782 81.6045 10.6406 83.1808 17.8553 83.4536C21.7658 83.6052 24.7366 83.5446 27.4648 83.2111C30.6174 82.8474 34.9826 81.9986 36.4074 78.9369C36.8015 78.0578 36.8924 76.9968 36.6196 76.0571C36.1042 74.2989 34.1642 73.5107 32.406 72.9044C28.3742 71.5403 23.8878 71.3887 20.432 71.3887C19.6135 71.3887 18.7344 71.3887 17.8553 71.4493C17.7644 71.4493 17.7037 71.419 17.6431 71.3584C17.5825 71.2978 17.5522 71.2068 17.5522 71.1462V57.9597Z" fill="black" stroke="black"/>
<path d="M73.2085 52.8669V94.1241H17.8555V83.7567C21.0687 83.878 24.3123 83.878 27.5256 83.5142C30.6479 83.1505 35.2253 82.2714 36.7107 79.0884C37.1654 78.1487 37.226 76.9968 36.9532 75.9964C36.4075 74.0563 34.2553 73.2378 32.5274 72.6619C28.6775 71.3584 24.4942 71.1159 20.4625 71.1462C19.6137 71.1462 18.7346 71.1765 17.8858 71.2068V52.9276H73.2085V52.8669Z" fill="#73B7EA" stroke="black"/>
<path d="M73.2089 94.4576H17.8559C17.674 94.4576 17.5527 94.3363 17.5527 94.1545V83.7568C17.5527 83.6659 17.583 83.6052 17.6437 83.5446C17.7043 83.484 17.7952 83.4537 17.8559 83.4537C21.7664 83.6052 24.7371 83.5446 27.4654 83.2112C30.618 82.8474 34.9832 81.9986 36.4079 78.9369C36.802 78.0578 36.893 76.9968 36.6201 76.0571C36.1048 74.2989 34.1647 73.5107 32.4065 72.9044C28.3748 71.5403 23.8883 71.3887 20.4325 71.3887C19.6141 71.3887 18.735 71.3887 17.8559 71.4494C17.7649 71.4494 17.7043 71.4191 17.6437 71.3584C17.583 71.2978 17.5527 71.2069 17.5527 71.1462V52.867C17.5527 52.6851 17.674 52.5638 17.8559 52.5638H73.2089C73.3908 52.5638 73.5121 52.6851 73.5121 52.867V94.1241C73.5121 94.306 73.3908 94.4576 73.2089 94.4576ZM18.159 93.8513H72.9058V53.1701H18.159V70.8431C18.9472 70.8128 19.705 70.7825 20.4325 70.7825C23.9186 70.7825 28.4657 70.934 32.5884 72.3285C33.9828 72.7832 36.5595 73.6623 37.1961 75.8752C37.4992 76.9665 37.4083 78.1791 36.9536 79.1794C35.4076 82.4836 30.8605 83.393 27.5563 83.7871C24.8584 84.1206 21.9482 84.1812 18.159 84.0599V93.8513Z" fill="black" stroke="black"/>
<path d="M54.3534 59.5662H34.9223C34.7404 59.5662 34.6191 59.445 34.6191 59.2631C34.6191 59.0812 34.7404 58.96 34.9223 58.96H54.3534C54.5353 58.96 54.6566 59.0812 54.6566 59.2631C54.6566 59.445 54.505 59.5662 54.3534 59.5662Z" fill="black" stroke="black"/>
<path d="M17.8569 71.1765L14.5527 71.6615" stroke="black"/>
<path d="M14.552 71.9646C14.4004 71.9646 14.2791 71.8434 14.2488 71.6918C14.2185 71.5402 14.3398 71.3584 14.4913 71.3584L17.7955 70.8733C17.9471 70.843 18.129 70.9643 18.129 71.1158C18.129 71.2674 18.038 71.4493 17.8865 71.4493L14.5823 71.9343C14.5823 71.9646 14.5823 71.9646 14.552 71.9646Z" fill="black" stroke="black"/>
<path d="M44.775 42.7422C44.0475 43.2575 43.5018 44.076 43.3806 45.0764C43.1381 46.9255 44.4416 48.6534 46.321 48.8959C47.8973 49.1081 49.3524 48.1987 49.8981 46.8043C50.2921 47.0468 50.7468 47.2286 51.2622 47.2893C53.1113 47.5318 54.8392 46.2283 55.0817 44.3488C55.3242 42.4997 54.0207 40.7718 52.1413 40.5293C51.6866 40.4686 51.2319 40.499 50.8075 40.6202C50.8378 38.9226 49.5646 37.4373 47.867 37.2251C46.0179 36.9826 44.29 38.286 44.0475 40.1655C43.9262 41.1052 44.1991 42.045 44.775 42.7422Z" fill="#FEFFFA" stroke="black"/>
<path d="M46.7757 49.199C46.6241 49.199 46.4422 49.199 46.2906 49.1687C44.2596 48.8959 42.8349 47.0467 43.1077 45.0157C43.2289 44.1063 43.6837 43.2878 44.3809 42.6815C43.8655 41.9237 43.623 41.0143 43.7443 40.1049C44.0171 38.0738 45.8663 36.6491 47.8973 36.9219C49.6252 37.1341 50.959 38.5589 51.1105 40.2564C51.4743 40.1958 51.8381 40.1958 52.2018 40.2261C53.1719 40.3474 54.051 40.8627 54.6573 41.6509C55.2635 42.439 55.5364 43.4091 55.3848 44.3791C55.112 46.4101 53.2628 47.8349 51.2318 47.5621C50.8074 47.5014 50.4133 47.3802 50.0496 47.1983C49.413 48.4109 48.1398 49.199 46.7757 49.199ZM47.4123 37.4979C45.8966 37.4979 44.5628 38.6498 44.3506 40.1958C44.2293 41.0446 44.4718 41.8934 45.0478 42.5603C45.1084 42.6209 45.1387 42.7118 45.1084 42.8028C45.1084 42.8937 45.0478 42.9544 44.9872 43.015C44.2899 43.5303 43.8352 44.2579 43.714 45.137C43.5018 46.8345 44.684 48.3805 46.3816 48.5927C47.776 48.7746 49.1098 47.9865 49.6555 46.683C49.6858 46.592 49.7464 46.5314 49.8374 46.5011C49.9283 46.4708 50.0192 46.4708 50.0799 46.5314C50.474 46.7739 50.868 46.9255 51.3227 46.9861C53.0203 47.1983 54.5663 46.0161 54.7785 44.3185C54.8998 43.5 54.6573 42.6815 54.1722 42.0449C53.6569 41.378 52.9294 40.984 52.1109 40.8627C51.6865 40.8021 51.2924 40.8324 50.8984 40.9536C50.8074 40.984 50.7165 40.9536 50.6255 40.893C50.5649 40.8324 50.5043 40.7414 50.5043 40.6505C50.5346 39.0742 49.3523 37.7707 47.8063 37.5585C47.6851 37.4979 47.5335 37.4979 47.4123 37.4979Z" fill="black" stroke="black"/>
<path d="M73.2075 72.7831V52.8972H70.1761C71.1764 50.8056 72.1465 47.9864 71.8737 45.2581C71.6312 42.7724 69.3273 41.4083 67.0538 41.1051C65.5078 40.8929 63.9921 41.1658 62.5067 41.5902C61.2941 41.9539 60.0816 42.3783 58.9297 42.7724C56.6561 43.4999 53.9279 44.0153 51.6543 43.0452C49.4111 42.0752 48.1986 39.6198 48.623 37.2553C49.4111 32.7082 53.8672 29.4343 57.9899 28.1005C58.0506 28.0702 58.1112 28.0702 58.1415 28.0399C62.2945 26.7667 66.9022 26.8273 71.0552 28.0702C79.1187 30.465 83.9992 37.4372 85.3027 45.531C87.8794 61.3245 76.9058 70.2671 73.2075 72.7831Z" fill="#FA6456" stroke="black"/>
<path d="M73.2075 73.0863C73.1469 73.0863 73.1166 73.0863 73.056 73.056C72.965 72.9953 72.9044 72.9044 72.9044 72.7831V53.2004H70.1762C70.0852 53.2004 69.964 53.1398 69.9336 53.0488C69.873 52.9579 69.873 52.8366 69.9033 52.7457C70.8127 50.8359 71.8434 47.9864 71.5706 45.2885C71.419 43.6819 70.1458 41.8327 66.9932 41.4083C65.72 41.2264 64.3256 41.378 62.5674 41.8933C61.8095 42.1055 61.0517 42.3784 60.3242 42.6209C59.8694 42.7724 59.4451 42.924 58.9903 43.0756C55.868 44.0759 53.4429 44.1669 51.5028 43.3181C49.1687 42.3177 47.8349 39.8017 48.2896 37.1947C48.8049 34.1027 51.6241 29.7981 57.8687 27.7974C57.9294 27.7671 57.99 27.7671 58.0203 27.7368C62.1127 26.4636 66.781 26.4636 71.0856 27.7671C78.6943 30.0406 84.1205 36.649 85.5453 45.4704C88.1523 61.5367 76.8452 70.6309 73.3288 73.056C73.3288 73.056 73.2682 73.0863 73.2075 73.0863ZM70.6612 52.5638H73.2379C73.4197 52.5638 73.541 52.6851 73.541 52.867V72.1769C77.4212 69.388 87.4854 60.597 85.0299 45.531C83.6355 36.9522 78.3912 30.4953 70.9946 28.3127C66.781 27.0699 62.2642 27.0396 58.2628 28.2824C58.2022 28.2824 58.1719 28.3127 58.1112 28.3431C54.0795 29.6465 49.684 32.8901 48.9565 37.2553C48.5624 39.5592 49.7446 41.8327 51.8363 42.7118C53.6248 43.4697 55.9287 43.409 58.8994 42.439C59.3238 42.2874 59.7785 42.1359 60.2029 41.9843C60.9304 41.7418 61.7186 41.4689 62.4764 41.2568C63.6284 40.9233 65.3563 40.5292 67.1448 40.7717C69.3274 41.0749 71.9647 42.4087 72.2375 45.1976C72.4497 47.8652 71.5403 50.6237 70.6612 52.5638Z" fill="black" stroke="black"/>
<path d="M38.9233 31.3441C39.9111 31.3441 40.7118 30.5434 40.7118 29.5556C40.7118 28.5678 39.9111 27.7671 38.9233 27.7671C37.9355 27.7671 37.1348 28.5678 37.1348 29.5556C37.1348 30.5434 37.9355 31.3441 38.9233 31.3441Z" fill="black" stroke="black"/>
<path d="M31.3448 29.3434C31.7801 29.3434 32.133 28.9905 32.133 28.5552C32.133 28.12 31.7801 27.7671 31.3448 27.7671C30.9095 27.7671 30.5566 28.12 30.5566 28.5552C30.5566 28.9905 30.9095 29.3434 31.3448 29.3434Z" fill="black" stroke="black"/>
<path d="M41.7725 23.8263C42.2078 23.8263 42.5607 23.4734 42.5607 23.0382C42.5607 22.6029 42.2078 22.25 41.7725 22.25C41.3372 22.25 40.9844 22.6029 40.9844 23.0382C40.9844 23.4734 41.3372 23.8263 41.7725 23.8263Z" fill="black" stroke="black"/>
<path d="M43.3485 32.4354C43.2272 32.4354 43.1059 32.3444 43.0756 32.2232C43.015 32.0716 43.1059 31.8897 43.2575 31.8291C43.2878 31.8291 44.4398 31.4047 44.8945 30.3437C45.1976 29.6465 45.137 28.828 44.7429 27.858C44.6823 27.7064 44.7429 27.5245 44.8945 27.4639C45.046 27.4033 45.2279 27.4639 45.2885 27.6155C45.7736 28.7371 45.8342 29.7374 45.4401 30.5862C44.8642 31.8897 43.5 32.3747 43.4394 32.3747C43.4091 32.4051 43.3788 32.4354 43.3485 32.4354Z" fill="black" stroke="black"/>
<path d="M30.0331 26.8591C30.7994 25.9724 31.0715 24.9519 30.6409 24.5797C30.2102 24.2075 29.2398 24.6245 28.4735 25.5112C27.7072 26.3979 27.4351 27.4184 27.8657 27.7907C28.2964 28.1629 29.2668 27.7458 30.0331 26.8591Z" fill="black" stroke="black"/>
<path d="M44.6582 19.8668C44.7692 19.3085 43.9273 18.6708 42.7779 18.4423C41.6285 18.2139 40.6067 18.4814 40.4958 19.0397C40.3849 19.598 41.2267 20.2357 42.3761 20.4641C43.5256 20.6925 44.5473 20.4251 44.6582 19.8668Z" fill="black" stroke="black"/>
<path d="M51.23 17.1572L47.168 23.0381L53.6551 20.6433" fill="black"/>
<path d="M51.23 17.1572L47.168 23.0381L53.6551 20.6433" stroke="black"/>
<path d="M47.1681 23.3413C47.0772 23.3413 46.9863 23.3109 46.9256 23.22C46.8347 23.1291 46.8347 22.9775 46.9256 22.8562L50.9574 16.9753C51.0483 16.8238 51.2302 16.7935 51.3818 16.8844C51.5333 16.9753 51.5636 17.1572 51.4727 17.3088L47.9866 22.4015L53.5643 20.3402C53.7159 20.2796 53.8978 20.3705 53.9584 20.5221C54.0191 20.6736 53.9281 20.8555 53.7765 20.9161L47.3197 23.3109C47.2591 23.3413 47.2288 23.3413 47.1681 23.3413Z" fill="black" stroke="black"/>
<path d="M55.1094 23.0382L49.2285 27.07L57.4133 26.8274" fill="black"/>
<path d="M55.1094 23.0382L49.2285 27.07L57.4133 26.8274" stroke="black"/>
<path d="M49.2291 27.3731C49.1078 27.3731 48.9866 27.2821 48.9562 27.1609C48.9259 27.0396 48.9562 26.888 49.0775 26.8274L54.9584 22.7957C55.11 22.7047 55.2918 22.735 55.3828 22.8866C55.4737 23.0382 55.4434 23.2201 55.2918 23.311L50.2597 26.7668L57.3835 26.5546C57.5654 26.5546 57.6866 26.6758 57.6866 26.8577C57.6866 27.0396 57.5654 27.1609 57.3835 27.1609L49.2291 27.3731Z" fill="black" stroke="black"/>
<path d="M22.0996 31.8594L29.5871 32.1322L23.6153 36.5883" fill="black"/>
<path d="M22.0996 31.8594L29.5871 32.1322L23.6153 36.5883" stroke="black"/>
<path d="M23.6148 36.8915C23.5238 36.8915 23.4329 36.8612 23.3723 36.7703C23.2813 36.649 23.3116 36.4368 23.4329 36.3459L28.7075 32.4051L22.0688 32.1626C21.8869 32.1626 21.7656 32.011 21.7656 31.8594C21.7656 31.6775 21.9172 31.5563 22.0688 31.5563L29.5563 31.8291C29.6775 31.8291 29.7988 31.92 29.8291 32.0413C29.8594 32.1626 29.8291 32.2838 29.7078 32.3747L23.736 36.8309C23.736 36.8612 23.6754 36.8915 23.6148 36.8915Z" fill="black" stroke="black"/>
<path d="M24.1309 38.5892L32.1337 35.9822L25.1615 44.7126" fill="black"/>
<path d="M24.1309 38.5892L32.1337 35.9822L25.1615 44.7126" stroke="black"/>
<path d="M25.1614 45.0156C25.1008 45.0156 25.0401 44.9853 24.9795 44.955C24.8583 44.8641 24.8279 44.6519 24.9189 44.5306L31.2545 36.6187L24.2217 38.8923C24.0701 38.9529 23.8882 38.8619 23.8276 38.7104C23.767 38.5588 23.8579 38.3769 24.0095 38.3163L32.0123 35.7093C32.1336 35.679 32.2851 35.7093 32.3458 35.8306C32.4367 35.9518 32.4064 36.0731 32.3458 36.1943L25.3736 44.8944C25.3433 44.9853 25.2523 45.0156 25.1614 45.0156Z" fill="black" stroke="black"/>
<path d="M58.8412 87.0913H58.6896C56.2039 85.6059 51.3234 82.6958 52.0206 79.1491C52.7481 75.4811 56.598 75.7236 58.7502 77.7546C60.9025 75.7236 64.7524 75.4811 65.4799 79.1491C66.2378 82.6958 61.3269 85.6059 58.8412 87.0913Z" fill="#FA6456" stroke="black"/>
<path d="M58.8404 87.3944H58.6888C58.6282 87.3944 58.5676 87.3944 58.5373 87.3641L58.4766 87.3338C55.8696 85.7575 50.9891 82.817 51.747 79.1188C52.0501 77.6334 52.8989 76.6027 54.1418 76.2086C55.5968 75.7539 57.4156 76.2086 58.8101 77.3909C60.1742 76.2086 62.0234 75.7539 63.4481 76.2086C64.691 76.6027 65.5398 77.6334 65.8429 79.1188C66.6007 82.8474 61.7202 85.7575 59.1132 87.3338L59.0526 87.3641C58.9617 87.3944 58.901 87.3944 58.8404 87.3944ZM55.2937 76.6027C54.9602 76.6027 54.6268 76.6633 54.3236 76.7543C53.293 77.0877 52.6261 77.9365 52.3532 79.2097C51.6863 82.5139 56.294 85.2725 58.7798 86.7882C61.2655 85.2725 65.8732 82.5139 65.2063 79.2097C64.9335 77.9365 64.2666 77.0877 63.2359 76.7543C61.9324 76.3299 60.1742 76.8452 58.9617 77.9971C58.8404 78.1184 58.6585 78.1184 58.5373 77.9971C57.6582 77.118 56.385 76.6027 55.2937 76.6027Z" fill="#FEFFFA" stroke="black"/>
</svg>
