<svg width="80" height="98" viewBox="0 0 80 98" fill="none" xmlns="http://www.w3.org/2000/svg">
<g clip-path="url(#clip0)">
<path d="M15.2269 49.2899C15.1357 49.2899 15.0749 49.2593 15.0142 49.1982C14.923 49.137 14.8926 49.0147 14.8926 48.923C14.8926 48.8007 14.9838 48.7395 15.0749 48.6783C15.1053 48.6783 15.1357 48.6478 15.1661 48.6478C15.2877 48.5866 15.4397 48.6478 15.5309 48.7701C15.6221 48.8924 15.5917 49.0453 15.5309 49.137L15.4701 49.1982C15.4093 49.2593 15.3181 49.2899 15.2269 49.2899Z" fill="black" stroke="black"/>
<path d="M65.107 39.5053C65.107 46.9049 61.5508 53.0508 61.5508 53.0508C60.031 53.9681 58.2681 54.8854 56.2924 55.8027C52.8273 57.4233 48.8152 59.0745 44.6815 60.6339C44.4687 60.7256 44.2255 60.8174 44.0128 60.8785C42.7362 61.3677 41.4596 61.8264 40.1526 62.285C34.8334 64.1808 29.5751 65.8931 25.3502 67.2079C22.8881 67.9723 20.7605 68.6144 19.1799 69.0731C25.6845 57.9737 25.3502 48.7701 18.0857 48.4337C17.1131 48.3726 16.1708 48.556 15.2286 48.923L28.3897 32.7784C21.034 25.8374 8.08572 22.0765 0.578125 20.3947C14.7119 17.5511 22.2195 21.8624 22.2195 21.8624C25.6237 16.328 35.107 13.729 35.107 13.729C36.262 7.91939 42.797 2.56845 45.0766 0.886719C43.0705 6.02363 40.3653 14.1571 40.6085 20.2113L49.9702 20.4559L62.3106 30.3628C61.9459 30.6074 61.6115 30.8826 61.3076 31.2495C58.4201 34.6436 61.1252 36.5393 63.952 38.6186C64.1343 38.7714 64.3167 38.8937 64.4991 39.0161C64.5903 39.0772 64.6814 39.1384 64.7726 39.2301C64.8942 39.3218 64.9854 39.4136 65.107 39.5053Z" fill="#FE9B5D" stroke="black"/>
<path d="M19.2096 69.4094C19.1184 69.4094 19.0272 69.3789 18.9664 69.2871C18.8753 69.1954 18.8753 69.0425 18.9361 68.9508C23.1914 61.7347 24.6199 55.0077 22.705 51.4303C21.8236 49.7791 20.2734 48.8618 18.1154 48.7701C17.2035 48.7395 16.2917 48.8924 15.3798 49.2287C15.2582 49.2899 15.1063 49.2287 15.0151 49.137C14.9239 49.0147 14.9543 48.8618 15.0151 48.7701L27.9938 32.8395C20.547 25.9597 7.59866 22.2905 0.516599 20.6699C0.364623 20.6394 0.273438 20.5171 0.273438 20.3642C0.273438 20.2113 0.364623 20.089 0.516599 20.0584C13.313 17.4899 20.6686 20.7005 22.0971 21.4038C23.5561 19.1411 26.1397 17.123 29.7871 15.3801C32.1275 14.2488 34.2248 13.6067 34.8327 13.4232C36.0789 7.70535 42.2795 2.53786 44.8935 0.580944C45.0151 0.489213 45.1671 0.489213 45.2582 0.580944C45.3798 0.672674 45.4102 0.794982 45.3494 0.947866C43.2218 6.39055 40.7598 14.0348 40.8813 19.8749L49.9695 20.089C50.0303 20.089 50.0911 20.1196 50.1519 20.1501L62.4923 30.0876C62.5835 30.1488 62.6139 30.2405 62.6139 30.3322C62.6139 30.424 62.5531 30.5157 62.4619 30.5768C62.1275 30.7909 61.8236 31.0661 61.5196 31.4024C60.6382 32.442 60.2734 33.3288 60.3646 34.1849C60.547 35.6832 62.1883 36.9062 63.9512 38.1905L64.1032 38.2822C64.2856 38.4351 64.468 38.5574 64.6503 38.7103C64.7415 38.7714 64.8327 38.8632 64.9239 38.9243C65.0151 39.0161 65.1367 39.0772 65.2582 39.1689C65.319 39.2301 65.3798 39.3218 65.3798 39.4135C65.3798 46.8131 61.8236 53.0508 61.7932 53.112C61.7628 53.1426 61.7324 53.2037 61.6716 53.2343C60.2126 54.121 58.4193 55.0383 56.3829 56.0168C53.1914 57.5456 49.2704 59.1662 44.7719 60.8479L44.1032 61.0925C42.8874 61.5512 41.6412 62.0098 40.243 62.4991C35.7446 64.0891 30.7598 65.7708 25.4406 67.422C22.5531 68.3393 20.4862 68.9508 19.2704 69.2871C19.2704 69.3789 19.24 69.4094 19.2096 69.4094ZM17.8418 48.1279C17.933 48.1279 18.0546 48.1279 18.1458 48.1279C20.4862 48.2503 22.2491 49.2593 23.2522 51.0939C24.2552 52.9591 24.4376 55.5887 23.7993 58.7381C23.1914 61.7347 21.8236 65.0981 19.8783 68.5533C21.1245 68.1864 22.9178 67.636 25.2886 66.9021C30.6078 65.2204 35.5926 63.5693 40.0607 61.9793C41.4285 61.49 42.705 61.0314 43.8905 60.5727L44.5592 60.3281C49.0576 58.6464 52.9482 57.0258 56.1397 55.497C58.1154 54.5491 59.8479 53.6624 61.3069 52.8062C61.6716 52.1335 64.7415 46.3851 64.7719 39.6276C64.7111 39.5664 64.6503 39.5359 64.5592 39.4747C64.468 39.4136 64.3768 39.3218 64.2856 39.2607C64.1032 39.1078 63.9209 38.9855 63.7081 38.8326L63.5561 38.7409C61.702 37.3649 59.9391 36.0807 59.7263 34.3072C59.6047 33.2676 60.0303 32.1974 61.0333 31.0661C61.2461 30.7909 61.4892 30.5768 61.7628 30.3628L49.8479 20.7311L40.5774 20.4865C40.4254 20.4865 40.2734 20.3642 40.2734 20.1807C40.0607 14.5546 42.3099 7.2467 44.3768 1.74286C41.7628 3.82209 36.3829 8.65323 35.3798 13.7596C35.3494 13.8819 35.2582 13.9736 35.1671 14.0042C35.0759 14.0348 25.775 16.6338 22.4923 22.0153C22.4011 22.1682 22.2187 22.1988 22.0971 22.107C22.0364 22.0765 15.0151 18.1932 2.09715 20.4253C17.933 24.1863 25.5014 29.629 28.6321 32.5643C28.7537 32.6866 28.7537 32.8701 28.6625 32.9924L16.1397 48.342C16.7172 48.2197 17.2643 48.1279 17.8418 48.1279Z" fill="black" stroke="black"/>
<path d="M15.2269 49.2899C15.1357 49.2899 15.0749 49.2593 15.0142 49.1982C14.923 49.137 14.8926 49.0147 14.8926 48.923C14.8926 48.8007 14.9838 48.7395 15.0749 48.6783C15.1053 48.6783 15.1357 48.6478 15.1661 48.6478C15.2877 48.5866 15.4397 48.6478 15.5309 48.7701C15.6221 48.8924 15.5917 49.0453 15.5309 49.137L15.4701 49.1982C15.4093 49.2593 15.3181 49.2899 15.2269 49.2899Z" fill="black" stroke="black"/>
<path d="M49.9691 20.7311C49.9691 20.7311 49.9387 20.7311 49.9691 20.7311L40.6074 20.4865C40.4555 20.4865 40.3035 20.3642 40.3035 20.1807C40.0907 14.2182 42.6439 6.29884 44.802 0.733848C44.8324 0.672695 44.8628 0.611541 44.9235 0.580964C45.4099 0.214042 45.6834 0.0305808 45.6834 0.0305808C45.7746 -0.0305729 45.8658 -0.0305729 45.957 3.96743e-06C46.0482 0.0305808 46.109 0.122311 46.1394 0.214042L50.2427 20.3336C50.2731 20.4253 50.2427 20.5171 50.1819 20.5782C50.1211 20.7005 50.0603 20.7311 49.9691 20.7311ZM40.881 19.9055L49.574 20.1196L45.653 0.825579C45.5618 0.886733 45.4403 0.978463 45.3187 1.07019C43.2214 6.4823 40.7594 14.0959 40.881 19.9055Z" fill="black" stroke="black"/>
<path d="M28.4193 32.7783L15.2582 48.9229C15.2278 48.9229 15.1974 48.9535 15.1974 48.9535C-1.15517 35.1022 0.33419 20.4253 0.33419 20.4253C0.425376 20.3947 0.486166 20.3947 0.577351 20.3641C8.08495 22.0764 21.0333 25.8374 28.4193 32.7783Z" fill="black" stroke="black"/>
<path d="M15.1969 49.2899C15.1361 49.2899 15.045 49.2593 15.0146 49.2287C6.47353 41.982 2.8869 34.5518 1.33675 29.5984C-0.334985 24.1863 0.0297568 20.5782 0.0297568 20.4253C0.0297568 20.303 0.151337 20.1807 0.272918 20.1501L0.516079 20.089C0.546474 20.089 0.607264 20.089 0.637659 20.089C7.8717 21.7096 21.0936 25.5011 28.6316 32.5643C28.7532 32.6866 28.7532 32.8701 28.662 32.9924L15.5009 49.137C15.4705 49.1676 15.4097 49.1981 15.3793 49.2287C15.3489 49.2287 15.3489 49.2287 15.3185 49.2593C15.2577 49.2593 15.2273 49.2899 15.1969 49.2899ZM0.637659 20.7005C0.546474 22.6574 0.516079 35.9584 15.1969 48.556L28.0237 32.809C20.6073 25.9903 7.75012 22.3211 0.637659 20.7005Z" fill="black" stroke="black"/>
<path d="M15.2269 49.2899C15.1357 49.2899 15.0749 49.2593 15.0142 49.1982C14.923 49.137 14.8926 49.0147 14.8926 48.923C14.8926 48.8007 14.9838 48.7395 15.0749 48.6783C15.1053 48.6783 15.1357 48.6478 15.1661 48.6478C15.2877 48.5866 15.4397 48.6478 15.5309 48.7701C15.6221 48.8924 15.5917 49.0453 15.5309 49.137L15.4701 49.1982C15.4093 49.2593 15.3181 49.2899 15.2269 49.2899Z" fill="black" stroke="black"/>
<path d="M49.9692 20.4253L40.6075 20.1807C40.3948 14.1265 43.0999 5.99308 45.0756 0.856169C45.5619 0.489247 45.8659 0.305786 45.8659 0.305786L49.9692 20.4253Z" fill="black" stroke="black"/>
<path d="M49.9691 20.7311C49.9691 20.7311 49.9387 20.7311 49.9691 20.7311L40.6074 20.4865C40.4555 20.4865 40.3035 20.3642 40.3035 20.1807C40.0907 14.2182 42.6439 6.29884 44.802 0.733848C44.8324 0.672695 44.8628 0.611541 44.9235 0.580964C45.4099 0.214042 45.6834 0.0305808 45.6834 0.0305808C45.7746 -0.0305729 45.8658 -0.0305729 45.957 3.96743e-06C46.0482 0.0305808 46.109 0.122311 46.1394 0.214042L50.2427 20.3336C50.2731 20.4253 50.2427 20.5171 50.1819 20.5782C50.1211 20.7005 50.0603 20.7311 49.9691 20.7311ZM40.881 19.9055L49.574 20.1196L45.653 0.825579C45.5618 0.886733 45.4403 0.978463 45.3187 1.07019C43.2214 6.4823 40.7594 14.0959 40.881 19.9055Z" fill="black" stroke="black"/>
<path d="M73.921 63.4469C63.7995 78.5213 59.9393 83.5053 59.9393 83.5053L60.0305 97.1732H21.763L22.3405 87.3886C22.3405 87.3886 1.91499 80.0501 3.25237 69.0731C4.40739 59.6554 8.29797 54.7019 13.3436 49.932C13.8603 49.4427 14.5594 49.1981 15.1673 48.9535C15.1673 48.9535 15.1977 48.9535 15.1977 48.9841L15.2585 48.9229C16.2007 48.556 17.1733 48.3725 18.1156 48.4337C25.38 48.77 25.7144 57.9737 19.2098 69.0731C19.0274 69.4094 18.8147 69.7458 18.6019 70.0821L24.9241 73.2927L25.38 67.2079C30.608 65.5567 37.4469 63.3246 44.0122 60.8785C48.3891 59.2579 52.6445 57.515 56.2919 55.8027L56.839 58.891L57.69 63.875C57.69 63.875 68.8147 49.2898 68.2068 43.8777C68.0852 42.8076 67.5381 41.8597 66.8086 41.0341C66.3223 40.4837 65.7144 39.9945 65.1065 39.5053C64.8937 39.3524 64.7113 39.1995 64.4986 39.0466C61.4894 36.7839 58.2372 34.8882 61.3071 31.2801C61.611 30.9132 61.9454 30.6074 62.3101 30.3934C67.4773 27.0299 76.4134 37.8847 76.4134 37.8847C76.4134 37.8847 85.2888 46.5074 73.921 63.4469Z" fill="#73B7EA" stroke="black"/>
<path d="M60.0303 97.479H21.7628C21.6716 97.479 21.6109 97.4484 21.5501 97.3872C21.4893 97.3261 21.4589 97.2343 21.4589 97.1732L22.0364 87.6332C21.0029 87.2357 16.4741 85.4623 12.158 82.6492C5.59261 78.3684 2.43152 73.6902 2.97863 69.0731C4.10325 59.9612 7.68988 54.916 13.161 49.7179C13.6777 49.2287 14.316 48.9841 14.8935 48.77L15.1063 48.6783H15.1367C15.1367 48.6783 15.1671 48.6783 15.1671 48.6477C16.1701 48.2502 17.1732 48.0974 18.1458 48.1279C20.4862 48.2502 22.2491 49.2593 23.2522 51.0939C25.3191 54.916 23.8905 61.704 19.4832 69.226C19.3312 69.4706 19.1792 69.7152 19.0273 69.9598L24.6504 72.7729L25.0759 67.1467C25.0759 67.0244 25.1671 66.9021 25.2887 66.8715C32.2188 64.7006 38.4801 62.5908 43.9209 60.5421C48.7233 58.7687 52.8267 57.0564 56.1701 55.4664C56.2613 55.4358 56.3525 55.4358 56.4437 55.4664C56.5349 55.4969 56.5956 55.5887 56.5956 55.6804L57.8722 63.0494C59.8783 60.3281 68.4194 48.4643 67.933 43.8166C67.8419 42.8993 67.3859 42.0431 66.5957 41.1564C66.1701 40.6978 65.6534 40.2085 64.9239 39.6581C64.7416 39.5053 64.5288 39.3524 64.316 39.1995C64.0729 39.016 63.8601 38.8631 63.6169 38.6797C61.7324 37.3037 59.9695 36.0195 59.7871 34.246C59.6656 33.2064 60.0911 32.1362 61.0941 30.9743C61.4285 30.6074 61.7628 30.2711 62.158 30.0264C67.4467 26.6018 76.1397 36.9674 76.626 37.5483C76.8388 37.7624 78.9361 39.9333 79.7263 44.1529C81.0637 51.3385 77.4467 58.6464 74.164 63.5387C64.8631 77.4205 60.7902 82.8021 60.2127 83.5053L60.3039 97.0815C60.3039 97.1732 60.2735 97.2343 60.2127 97.2955C60.1823 97.4484 60.0911 97.479 60.0303 97.479ZM22.0668 96.8674H59.696L59.6048 83.5053C59.6048 83.4442 59.6352 83.383 59.6656 83.3219C59.696 83.2607 63.6473 78.185 73.6473 63.294L73.8905 63.4775L73.6473 63.294C76.8388 58.5241 80.395 51.3691 79.1184 44.3976C78.3586 40.2391 76.2005 38.0987 76.1701 38.0681L76.1397 38.0376C76.0485 37.9458 67.3251 27.458 62.4315 30.6074C62.0972 30.8214 61.7932 31.0966 61.4893 31.433C60.6078 32.4726 60.2431 33.3593 60.3343 34.2155C60.5166 35.7137 62.158 36.9368 63.9209 38.221C64.164 38.4045 64.3768 38.5574 64.62 38.7408C64.8327 38.8937 65.0151 39.0466 65.2279 39.1995C65.9574 39.7804 66.5045 40.2697 66.9604 40.7589C67.8419 41.7374 68.3282 42.7158 68.4498 43.7554C69.0577 49.2287 58.3282 63.3858 57.8722 63.9973C57.8115 64.089 57.6899 64.1502 57.5683 64.1196C57.4467 64.089 57.3555 63.9973 57.3555 63.875L56.0181 56.2002C52.7355 57.7291 48.7233 59.3802 44.0729 61.1231C38.6625 63.1412 32.4619 65.251 25.623 67.3913L25.2279 73.3232C25.2279 73.415 25.1671 73.5067 25.0759 73.5679C24.9847 73.629 24.8935 73.629 24.8023 73.5679L18.4802 70.3879C18.389 70.3573 18.3586 70.2656 18.3282 70.2044C18.2978 70.1127 18.3282 70.021 18.3586 69.9598C18.5713 69.6235 18.7841 69.2871 18.9665 68.9508C23.2218 61.7346 24.6504 55.0077 22.7355 51.4302C21.854 49.7791 20.3039 48.8618 18.1458 48.77C17.2643 48.7395 16.3829 48.8923 15.471 49.2287C15.4102 49.2898 15.3495 49.3204 15.2583 49.3204H15.2279L15.1367 49.351C14.5896 49.565 14.0425 49.7791 13.6169 50.1766C8.26739 55.2523 4.71115 60.2058 3.61693 69.1342C2.30994 79.7444 22.2795 87.0523 22.4923 87.144C22.6139 87.1746 22.7051 87.3274 22.7051 87.4498L22.0668 96.8674Z" fill="black" stroke="black"/>
<path d="M64.7724 39.2301C64.894 39.3219 64.9852 39.383 65.1067 39.4747C65.1067 46.8743 61.5505 53.0203 61.5505 53.0203C60.0308 53.9376 58.2678 54.8549 56.2922 55.7722C52.8271 57.3928 48.815 59.0439 44.6812 60.6033C44.4685 60.6951 44.2253 60.7868 44.0125 60.848C42.7359 61.3372 41.4593 61.7958 40.1523 62.2545L63.9213 38.588C64.1037 38.7409 64.2861 38.8632 64.4684 38.9855C64.59 39.1078 64.6812 39.169 64.7724 39.2301Z" fill="#FFEDAD" stroke="black"/>
<path d="M19.2096 69.4094C19.1184 69.4094 19.0272 69.3789 18.9664 69.2871C18.8753 69.1954 18.8753 69.0425 18.9361 68.9508C23.1914 61.7347 24.6199 55.0077 22.705 51.4303C21.8236 49.7791 20.2734 48.8618 18.1154 48.7701C17.2035 48.7395 16.2917 48.8924 15.3798 49.2287C15.2582 49.2899 15.1063 49.2287 15.0151 49.137C14.9239 49.0147 14.9543 48.8618 15.0151 48.7701L27.9938 32.8395C20.547 25.9597 7.59866 22.2905 0.516599 20.6699C0.364623 20.6394 0.273438 20.5171 0.273438 20.3642C0.273438 20.2113 0.364623 20.089 0.516599 20.0584C13.313 17.4899 20.6686 20.7005 22.0971 21.4038C23.5561 19.1411 26.1397 17.123 29.7871 15.3801C32.1275 14.2488 34.2248 13.6067 34.8327 13.4232C36.0789 7.70535 42.2795 2.53786 44.8935 0.580944C45.0151 0.489213 45.1671 0.489213 45.2582 0.580944C45.3798 0.672674 45.4102 0.794982 45.3494 0.947866C43.2218 6.39055 40.7598 14.0348 40.8813 19.8749L49.9695 20.089C50.0303 20.089 50.0911 20.1196 50.1519 20.1501L62.4923 30.0876C62.5835 30.1488 62.6139 30.2405 62.6139 30.3322C62.6139 30.424 62.5531 30.5157 62.4619 30.5768C62.1275 30.7909 61.8236 31.0661 61.5196 31.4024C60.6382 32.442 60.2734 33.3288 60.3646 34.1849C60.547 35.6832 62.1883 36.9062 63.9512 38.1905C64.1944 38.3739 64.4072 38.5268 64.6503 38.7103C64.8631 38.8632 65.0455 39.0161 65.2582 39.1689C65.319 39.2301 65.3798 39.3218 65.3798 39.4135C65.3798 46.8131 61.8236 53.0508 61.7932 53.112C61.7628 53.1426 61.7324 53.2037 61.6716 53.2343C60.2126 54.121 58.4193 55.0383 56.3829 56.0168C53.0394 57.6068 48.9057 59.3191 44.0728 61.1231C38.6321 63.1718 32.3403 65.2816 25.4102 67.4525C22.5227 68.3698 20.4558 68.9814 19.24 69.3177C19.2704 69.3789 19.24 69.4094 19.2096 69.4094ZM17.8418 48.1279C17.933 48.1279 18.0546 48.1279 18.1458 48.1279C20.4862 48.2503 22.2491 49.2593 23.2522 51.0939C24.2552 52.9591 24.4376 55.5887 23.7993 58.7381C23.1914 61.7347 21.8236 65.0981 19.8783 68.5533C21.1245 68.1864 22.9178 67.636 25.2886 66.9021C32.2187 64.7312 38.4801 62.6214 43.9209 60.5727C48.7233 58.7993 52.8266 57.087 56.1701 55.497C58.1458 54.5491 59.8783 53.6624 61.3373 52.8062C61.702 52.1335 64.7719 46.3851 64.8023 39.6276C64.6503 39.5053 64.4984 39.383 64.316 39.2607C64.0728 39.0772 63.8601 38.9243 63.6169 38.7409C61.7324 37.3649 59.9695 36.0807 59.7871 34.3072C59.6655 33.2676 60.0911 32.1974 61.0941 31.0355C61.3069 30.7603 61.55 30.5463 61.8236 30.3322L49.8479 20.7311L40.5774 20.4865C40.4254 20.4865 40.2734 20.3642 40.2734 20.1807C40.0607 14.5546 42.3099 7.2467 44.3768 1.74286C41.7628 3.82209 36.3829 8.65323 35.3798 13.7596C35.3494 13.8819 35.2582 13.9736 35.1671 14.0042C35.0759 14.0348 25.775 16.6338 22.4923 22.0153C22.4011 22.1682 22.2187 22.1988 22.0971 22.107C22.0364 22.0765 15.0151 18.1932 2.09715 20.4253C17.933 24.1863 25.5014 29.629 28.6321 32.5643C28.7537 32.6866 28.7537 32.8701 28.6625 32.9924L16.1397 48.342C16.7172 48.2197 17.2643 48.1279 17.8418 48.1279Z" fill="black" stroke="black"/>
<path d="M56.2008 50.4519C58.1648 50.4519 59.757 48.8502 59.757 46.8744C59.757 44.8986 58.1648 43.2969 56.2008 43.2969C54.2367 43.2969 52.6445 44.8986 52.6445 46.8744C52.6445 48.8502 54.2367 50.4519 56.2008 50.4519Z" fill="black" stroke="black"/>
<path d="M38.4803 45.529C39.4036 45.529 40.1521 44.776 40.1521 43.8472C40.1521 42.9185 39.4036 42.1655 38.4803 42.1655C37.5571 42.1655 36.8086 42.9185 36.8086 43.8472C36.8086 44.776 37.5571 45.529 38.4803 45.529Z" fill="black" stroke="black"/>
<path d="M51.4276 35.8055C52.3509 35.8055 53.0993 35.0525 53.0993 34.1237C53.0993 33.195 52.3509 32.442 51.4276 32.442C50.5043 32.442 49.7559 33.195 49.7559 34.1237C49.7559 35.0525 50.5043 35.8055 51.4276 35.8055Z" fill="black" stroke="black"/>
<path d="M35.4398 72.9564C35.4094 72.9564 35.3486 72.9564 35.3182 72.9564C29.2088 72.9258 25.1358 71.1829 24.9839 71.1217C24.8319 71.0606 24.7711 70.8771 24.8319 70.7242C24.8927 70.5714 25.0751 70.5102 25.227 70.5714C25.2574 70.6019 29.3608 72.3448 35.3486 72.3754C35.379 72.3754 35.4094 72.3754 35.4398 72.3754C40.9717 72.3754 49.2392 70.8466 57.4763 63.661C57.5978 63.5387 57.7802 63.5693 57.9018 63.6916C58.0234 63.8139 57.993 63.9973 57.8714 64.1196C49.5127 71.3969 41.0629 72.9564 35.4398 72.9564Z" fill="#FFEDAD" stroke="black"/>
<path d="M42.2786 76.1058C42.0962 76.1058 41.9746 75.9835 41.9746 75.8V72.1002C41.9746 71.9167 42.0962 71.7944 42.2786 71.7944C42.4609 71.7944 42.5825 71.9167 42.5825 72.1002V75.8C42.5825 75.9835 42.4609 76.1058 42.2786 76.1058Z" fill="#FFEDAD" stroke="black"/>
<path d="M44.1041 78.1544C44.2257 77.6651 44.1345 77.1148 43.8306 76.6561C43.2227 75.7694 42.0373 75.5553 41.1862 76.1363C40.4567 76.6255 40.1832 77.5734 40.4567 78.3684C40.1832 78.399 39.94 78.5213 39.6969 78.6742C38.8154 79.2857 38.6026 80.4782 39.1801 81.3344C39.788 82.2211 40.9735 82.4351 41.8245 81.8542C42.0373 81.7013 42.2196 81.5178 42.3412 81.3038C42.9795 82.0376 44.0434 82.1905 44.864 81.6401C45.7455 81.0286 45.9583 79.8361 45.3807 78.9799C45.0768 78.5213 44.5905 78.2155 44.1041 78.1544Z" fill="#FFD744" stroke="black"/>
<path d="M40.7599 82.4963C40.6079 82.4963 40.4864 82.4963 40.3344 82.4658C39.7569 82.3435 39.2402 82.0377 38.9058 81.5179C38.5715 81.0286 38.4499 80.4477 38.5715 79.8361C38.6931 79.2246 38.997 78.7354 39.5137 78.399C39.6961 78.2767 39.8785 78.185 40.0608 78.1238C39.8785 77.2677 40.2432 76.3504 40.9727 75.8612C41.9757 75.1579 43.3739 75.4331 44.0426 76.4421C44.3161 76.8702 44.4681 77.39 44.4073 77.8792C44.8937 78.0321 45.3192 78.3379 45.5927 78.766C45.9271 79.2552 46.0487 79.8361 45.9271 80.4477C45.8055 81.0286 45.5016 81.5484 44.9848 81.8848C44.1642 82.4352 43.07 82.374 42.3405 81.7625C42.2189 81.8848 42.0973 82.0071 41.9453 82.0988C41.6414 82.374 41.2158 82.4963 40.7599 82.4963ZM42.2189 76.1058C41.9149 76.1058 41.5806 76.1975 41.307 76.381C40.6991 76.809 40.456 77.5735 40.6991 78.2461C40.7295 78.3379 40.7295 78.4296 40.6687 78.4908C40.6383 78.5825 40.5472 78.6131 40.456 78.6436C40.2128 78.6742 40 78.766 39.8177 78.8883C39.4529 79.1329 39.2098 79.4998 39.149 79.9279C39.0578 80.3559 39.149 80.784 39.3921 81.1509C39.6353 81.5179 40 81.7625 40.4256 81.8236C40.8511 81.9154 41.2766 81.8236 41.6414 81.579C41.8237 81.4567 41.9757 81.3038 42.0973 81.1204C42.1581 81.0286 42.2493 80.9981 42.3405 80.9675C42.4317 80.9675 42.5228 80.9981 42.5836 81.0592C43.1307 81.6708 44.0122 81.7931 44.6809 81.3344C45.0456 81.0898 45.2888 80.7229 45.3496 80.2948C45.4104 79.8667 45.3496 79.4386 45.1064 79.0717C44.8633 78.7048 44.4681 78.4602 44.0122 78.399C43.921 78.399 43.8602 78.3379 43.7994 78.2767C43.7386 78.2156 43.7386 78.1238 43.769 78.0321C43.8602 77.604 43.7994 77.1454 43.5259 76.7785C43.2523 76.3504 42.7356 76.1058 42.2189 76.1058Z" fill="black" stroke="black"/>
</g>
<defs>
<clipPath id="clip0">
<rect width="80" height="97.479" fill="white"/>
</clipPath>
</defs>
</svg>
