<svg width="91" height="81" viewBox="0 0 91 81" fill="none" xmlns="http://www.w3.org/2000/svg">
<path d="M80.2396 1.28625H13.4824V61.4307H80.2396V1.28625Z" fill="#73B7EA" stroke="black" stroke-width="0.5"/>
<path d="M80.2387 61.7169H13.4816C13.3098 61.7169 13.1953 61.6024 13.1953 61.4307V1.28627C13.1953 1.11451 13.3098 1 13.4816 1H80.2387C80.4105 1 80.525 1.11451 80.525 1.28627V61.4307C80.525 61.5738 80.3818 61.7169 80.2387 61.7169ZM13.7678 61.1444H79.9524V1.57253H13.7678V61.1444Z" fill="black" stroke="black" stroke-width="0.5"/>
<path d="M23.8153 40.3042L31.0292 38.7584V8.84363H73.3106V23.6149V26.1627V28.4242C73.3106 28.4242 74.8279 28.5387 75.5435 28.9109C78.4348 30.4567 77.4329 33.4052 77.4329 33.4052C77.4329 33.4052 79.1218 32.0025 80.7822 33.1762C82.4425 34.3499 82.328 36.3824 82.328 36.3824C82.328 36.3824 84.6181 35.9816 86.0208 39.0447C86.0208 39.0447 87.6812 38.0714 88.3682 39.5313C89.0553 40.9913 87.9961 42.2795 86.6792 42.852C86.6792 42.852 89.6278 43.1383 88.9121 45.915C88.9121 45.915 88.3968 47.4036 87.7098 48.0907C87.7098 48.0907 90.1431 48.3197 89.7423 50.438C89.3415 52.5278 86.1353 52.7854 86.1353 52.7854C86.1353 52.7854 88.082 55.4477 84.933 56.5069C84.933 56.5069 87.7957 58.1672 86.4789 59.9421C85.1334 61.7169 82.1562 59.713 82.1562 59.713C82.1562 59.713 79.2936 61.5451 78.8069 57.4802C78.8069 57.4802 77.5474 58.1672 75.6866 57.4802C75.6866 57.4802 77.5474 59.5699 74.971 60.2569C74.971 60.2569 73.7114 60.6291 72.5091 59.7703C72.5091 59.7703 72.8812 61.5165 71.1637 62.2036C71.1637 62.2036 74.3698 63.2055 73.7114 65.4384C73.053 67.6712 70.2762 66.3258 70.2762 66.3258C70.2762 66.3258 71.135 68.5014 68.988 68.6732C67.0414 68.8449 66.7265 66.7266 66.7265 66.7266C66.7265 66.7266 65.7246 67.9861 63.8925 66.8411C63.8925 66.8411 64.3505 68.7018 62.3467 68.9308C62.3467 68.9308 61.4879 69.3029 60.1138 67.5567C60.1138 67.5567 60.4287 69.2743 59.1119 69.99C58.3676 70.3908 57.4515 70.3335 56.8217 69.7896C56.3923 69.4174 56.0202 68.759 56.1347 67.614C56.1347 67.614 52.4419 69.1598 52.8999 63.6635C52.8999 63.6635 51.7548 64.0643 50.6384 62.4898C50.6384 62.4898 51.7835 65.3238 48.6345 65.2093C48.6345 65.2093 49.3216 67.5567 46.6021 66.9556C46.6021 66.9556 46.8311 69.99 43.8825 69.0167C43.8825 69.0167 43.7108 71.3927 41.4493 69.532C41.4493 69.532 40.4473 71.2209 38.558 69.9041C38.558 69.9041 37.4988 73.0244 35.4949 70.1045C35.4949 70.1045 33.6915 71.6503 32.3746 69.9613C32.0025 69.4747 31.5158 69.1026 30.9433 68.9022C30.3422 68.7018 29.7124 68.7018 29.5979 69.5892C29.1112 72.7954 26.1627 71.3641 26.1627 71.3641C25.9337 74.5416 21.9546 72.8526 21.9546 72.8526C20.924 74.5989 19.1205 73.8259 19.1205 73.8259C18.6339 77.8623 15.7712 76.0588 15.7712 76.0588C15.7712 76.0588 12.7654 78.0913 11.4486 76.2878C10.1032 74.513 12.9945 72.8526 12.9945 72.8526C9.84553 71.7934 11.7921 69.1312 11.7921 69.1312C11.7921 69.1312 8.72909 69.3029 8.32832 67.1846C7.92755 65.0662 10.2177 64.4364 10.2177 64.4364C10.0745 64.2933 9.90278 64.1215 9.73102 63.9498C8.09931 62.3467 8.95811 59.5699 11.191 59.1978C11.2196 59.1978 11.2196 59.1978 11.2196 59.1978C9.87416 58.6252 8.8436 57.337 9.53064 55.8771C10.2177 54.4171 11.878 55.3904 11.878 55.3904C13.2521 52.3274 15.5708 52.7282 15.5708 52.7282C15.5708 52.7282 15.4563 50.6957 17.1167 49.522C18.777 48.3483 20.466 49.751 20.466 49.751C20.466 49.751 19.4641 46.8025 22.3553 45.2566L23.8153 40.3042Z" fill="#FEFFFA" stroke="black" stroke-width="0.5"/>
<path d="M12.9369 77.2611C12.2785 77.2611 11.6488 77.0321 11.1621 76.4023C10.8186 75.9157 10.6755 75.4004 10.79 74.8851C10.9617 73.9977 11.7919 73.2534 12.3072 72.8526C11.5915 72.5091 11.1335 72.0511 10.9331 71.4213C10.6755 70.6198 10.9617 69.8182 11.2194 69.3316C10.2747 69.2743 8.29945 68.9594 7.95593 67.156C7.64103 65.5815 8.72884 64.6368 9.61627 64.236C9.55901 64.1788 9.50176 64.1215 9.44451 64.0643C8.61434 63.2341 8.32807 62.0604 8.67159 60.944C8.95786 60.0566 9.55901 59.3695 10.3892 59.026C9.78803 58.6252 9.33 58.11 9.10099 57.5374C8.87198 56.9363 8.9006 56.3065 9.18687 55.6767C9.41588 55.2187 9.73077 54.9038 10.1602 54.7893C10.7327 54.6175 11.3052 54.7893 11.6488 54.9324C12.7938 52.6137 14.4828 52.356 15.1698 52.356C15.1984 51.6976 15.4561 50.209 16.8302 49.2357C18.0325 48.3769 19.2348 48.7491 19.9505 49.1212C19.836 48.1193 19.9218 46.2013 22.0116 45.0276L23.5574 40.1897C23.586 40.1038 23.6719 40.018 23.7578 39.9893L30.7427 38.5008V8.84364C30.7427 8.67188 30.8572 8.55737 31.0289 8.55737H73.3104C73.4821 8.55737 73.5966 8.67188 73.5966 8.84364V28.1666C74.0833 28.2238 75.1139 28.367 75.6864 28.6532C77.8906 29.8269 77.9765 31.7735 77.862 32.8041C78.549 32.4606 79.78 32.0884 80.9823 32.9186C82.3564 33.8919 82.5854 35.3805 82.6427 36.0389C83.3583 36.0389 85.0187 36.2965 86.1637 38.6153C86.5072 38.4721 87.1084 38.3004 87.6523 38.4721C88.0817 38.6153 88.3966 38.9015 88.6256 39.3596C88.9119 39.9607 88.9405 40.6191 88.7115 41.2203C88.4825 41.7928 88.0531 42.3081 87.4519 42.7089C87.9099 42.8806 88.4825 43.1669 88.8832 43.7108C89.3126 44.312 89.3985 45.0562 89.1695 45.9437C89.1409 46.0295 88.7687 47.0887 88.1962 47.8616C88.6256 47.9762 89.2554 48.2338 89.6562 48.7777C89.9997 49.2357 90.1142 49.8083 89.971 50.4667C89.6275 52.2701 87.5092 52.814 86.5645 52.9858C86.8221 53.4725 87.137 54.3026 86.8794 55.1328C86.679 55.734 86.221 56.2206 85.5053 56.5641C86.0492 56.9649 86.8508 57.6806 87.0225 58.5966C87.137 59.1405 86.9939 59.6558 86.6504 60.1138C85.3335 61.86 82.7572 60.4287 82.0987 60.0279C81.7266 60.2283 80.7819 60.6291 79.8945 60.1997C79.1788 59.8562 78.7208 59.0833 78.5204 57.8523C78.091 57.9955 77.3181 58.1386 76.3162 57.9382C76.5166 58.339 76.6597 58.8256 76.5166 59.3409C76.3448 59.9134 75.8295 60.3142 74.9994 60.5146C74.9421 60.5146 73.9115 60.8295 72.7951 60.2856C72.7665 60.8867 72.5375 61.631 71.8218 62.1463C72.9955 62.6902 74.4554 63.8353 73.9688 65.4956C73.797 66.1254 73.4249 66.5548 72.9096 66.8124C72.1653 67.1559 71.2493 66.9556 70.6767 66.7838C70.734 67.1846 70.7626 67.7285 70.4764 68.1865C70.1901 68.6445 69.7034 68.9022 68.9878 68.9594C67.5278 69.0739 66.8122 68.072 66.5259 67.2418C66.0965 67.5281 65.2949 67.843 64.1785 67.3563C64.1785 67.6712 64.0926 68.072 63.835 68.4441C63.5201 68.8735 63.0334 69.1598 62.375 69.2457C62.1746 69.3029 61.459 69.4174 60.3998 68.3869C60.3425 69.0167 60.0849 69.8182 59.2261 70.3049C58.3673 70.7629 57.3081 70.677 56.6211 70.0759C56.2203 69.7323 55.7909 69.1312 55.8195 68.1006C55.3043 68.2151 54.4455 68.301 53.7298 67.7857C52.871 67.1846 52.4989 65.925 52.6134 64.0929C52.2699 64.0929 51.7259 64.007 51.1534 63.549C51.182 63.9498 51.0962 64.4078 50.8385 64.8086C50.495 65.3238 49.8652 65.5815 49.0064 65.6101C49.0637 65.9823 49.0351 66.5834 48.6343 67.0128C48.2621 67.385 47.6896 67.5281 46.9167 67.4136C46.8881 67.9002 46.7449 68.759 46.1151 69.2457C45.6285 69.6178 44.9701 69.7037 44.1399 69.5033C44.054 69.8469 43.8536 70.3621 43.367 70.5625C42.8803 70.7629 42.2792 70.5911 41.5349 70.0472C41.3345 70.3049 40.9337 70.6484 40.3898 70.7629C39.8746 70.8774 39.302 70.7629 38.7295 70.4194C38.5291 70.8774 38.0711 71.6217 37.3268 71.7076C36.7256 71.7935 36.0958 71.4213 35.4661 70.5911C35.1225 70.8202 34.4355 71.1923 33.6912 71.1064C33.1187 71.0492 32.6034 70.7629 32.174 70.219C31.8019 69.761 31.3725 69.4174 30.8572 69.2457C30.6282 69.1598 30.3133 69.1026 30.1415 69.2171C30.027 69.3029 29.9411 69.4461 29.8839 69.7037C29.7407 70.7343 29.3113 71.4499 28.6529 71.7935C27.8514 72.2229 26.9353 71.9938 26.4201 71.8221C26.3056 72.5091 25.9907 72.9958 25.4754 73.3107C24.359 73.9977 22.6986 73.4824 22.0975 73.2534C21.3245 74.3985 20.1222 74.4271 19.3779 74.2553C19.1775 75.4863 18.7195 76.2592 18.0039 76.6027C17.1451 77.0035 16.1718 76.6027 15.7996 76.431C15.2843 76.6027 14.082 77.2611 12.9369 77.2611ZM11.706 68.8163C11.8205 68.8163 11.9064 68.8735 11.9636 68.9594C12.0209 69.0453 12.0209 69.1884 11.935 69.2743C11.935 69.2743 11.1621 70.3621 11.477 71.3068C11.6488 71.8507 12.164 72.2801 13.0228 72.5664C13.1373 72.595 13.1946 72.7095 13.2232 72.7954C13.2232 72.9099 13.166 73.0244 13.0801 73.0816C13.0515 73.0816 11.5915 73.9691 11.3625 75.0283C11.2766 75.4004 11.3625 75.7439 11.6201 76.0874C12.7652 77.6333 15.542 75.8012 15.5706 75.7726C15.6565 75.7153 15.7996 75.7153 15.8855 75.7726C15.8855 75.7726 16.8874 76.4023 17.689 76.0016C18.2901 75.7153 18.6623 74.971 18.8054 73.7401C18.8054 73.6542 18.8626 73.5683 18.9485 73.5397C19.0344 73.4824 19.1203 73.4824 19.2062 73.5397C19.2634 73.5683 20.8093 74.1981 21.6967 72.7095C21.7826 72.595 21.9257 72.5377 22.0688 72.595C22.0975 72.595 24.0727 73.4252 25.1605 72.7668C25.5899 72.5091 25.8189 72.0511 25.8762 71.3641C25.8762 71.2782 25.9334 71.1923 26.0193 71.135C26.1052 71.0778 26.1911 71.0778 26.2769 71.135C26.2769 71.135 27.4792 71.7076 28.3667 71.2495C28.8533 70.9919 29.1682 70.4194 29.3113 69.5892C29.3686 69.1598 29.5404 68.8449 29.8266 68.6732C30.1415 68.5014 30.5423 68.4728 31.0289 68.6732C31.6301 68.8735 32.174 69.2743 32.6034 69.8468C32.9183 70.2476 33.2904 70.4766 33.7198 70.5339C34.55 70.6198 35.3229 69.9614 35.3229 69.9614C35.3802 69.9041 35.4661 69.8755 35.5519 69.9041C35.6378 69.9041 35.6951 69.9614 35.7523 70.0186C36.2962 70.8202 36.8115 71.1923 37.2409 71.135C37.8134 71.0492 38.2142 70.219 38.3287 69.9041C38.3573 69.8182 38.4146 69.761 38.5005 69.7323C38.5864 69.7037 38.6722 69.7323 38.7581 69.761C39.302 70.1331 39.8173 70.2762 40.2753 70.1904C40.9051 70.0472 41.2486 69.5033 41.2486 69.4747C41.2773 69.3888 41.3631 69.3602 41.449 69.3316C41.5349 69.3029 41.6208 69.3316 41.678 69.3888C42.3078 69.9041 42.8231 70.1331 43.138 69.99C43.4815 69.8468 43.6246 69.2743 43.6246 69.0453C43.6246 68.9594 43.6819 68.8735 43.7391 68.8163C43.825 68.759 43.9109 68.759 43.9968 68.7877C44.7697 69.0453 45.3708 69.0167 45.7716 68.7304C46.43 68.2151 46.3442 67.0414 46.3442 67.0414C46.3442 66.9556 46.3728 66.8697 46.43 66.8124C46.4873 66.7552 46.6018 66.7266 46.6877 66.7552C47.203 66.8697 47.89 66.9269 48.2335 66.5834C48.6057 66.1827 48.4053 65.3811 48.4053 65.3811C48.3766 65.2952 48.4053 65.2093 48.4625 65.1235C48.5198 65.0376 48.6057 65.009 48.6915 65.009C49.5503 65.0376 50.1229 64.8658 50.3805 64.4651C50.8385 63.8066 50.4091 62.7188 50.4091 62.6902C50.3519 62.5471 50.4091 62.4039 50.5236 62.3467C50.6381 62.2894 50.8099 62.3181 50.8958 62.4326C51.8691 63.8066 52.7851 63.5204 52.8424 63.4918C52.9283 63.4631 53.0428 63.4918 53.1 63.549C53.1859 63.6063 53.2145 63.6921 53.2145 63.8066C53.0714 65.6101 53.3577 66.8411 54.0733 67.3563C54.9035 67.9575 56.0199 67.4995 56.0486 67.4708C56.1344 67.4422 56.249 67.4422 56.3348 67.4995C56.4207 67.5567 56.4493 67.6712 56.4493 67.7571C56.3635 68.6159 56.5352 69.2457 57.0219 69.6751C57.5658 70.1331 58.3387 70.1904 58.9971 69.8468C60.1135 69.2457 59.8559 67.7285 59.8559 67.6999C59.8273 67.5567 59.8845 67.4422 60.0277 67.385C60.1422 67.3277 60.2853 67.3563 60.3712 67.4708C61.5449 68.9594 62.2605 68.759 62.2605 68.759C62.2892 68.759 62.3178 68.7304 62.3178 68.7304C62.8331 68.6732 63.2052 68.4728 63.4056 68.1865C63.7491 67.6712 63.606 66.9842 63.606 66.9842C63.5774 66.8697 63.6346 66.7552 63.7205 66.6979C63.8064 66.6407 63.9495 66.612 64.0354 66.6979C65.6098 67.6712 66.4686 66.6693 66.4973 66.6407C66.5831 66.5548 66.6976 66.5262 66.7835 66.5548C66.898 66.5834 66.9839 66.6693 66.9839 66.7838C66.9839 66.8697 67.2702 68.6159 68.9305 68.4728C69.4458 68.4441 69.7893 68.2724 69.9897 67.9575C70.3332 67.385 69.9897 66.5262 69.9897 66.4975C69.9324 66.383 69.9611 66.2685 70.047 66.1826C70.1328 66.0968 70.2473 66.0681 70.3619 66.1254C70.3619 66.1254 71.7359 66.7552 72.652 66.3544C73.0241 66.1826 73.2531 65.8678 73.3963 65.4097C73.9688 63.4631 71.0775 62.5471 71.0489 62.5184C70.9344 62.4898 70.8485 62.3753 70.8485 62.2608C70.8485 62.1463 70.9058 62.0318 71.0203 61.9745C72.4802 61.402 72.1939 59.9421 72.1939 59.8848C72.1653 59.7703 72.2226 59.6558 72.3085 59.5985C72.3943 59.5413 72.5375 59.5413 72.6233 59.5985C73.7112 60.3428 74.799 60.0566 74.8562 60.0566C75.5146 59.8848 75.8868 59.6272 76.0013 59.255C76.173 58.7111 75.6578 57.9668 75.4574 57.7378C75.3715 57.6519 75.3715 57.5088 75.4287 57.3943C75.5146 57.2798 75.6291 57.2512 75.7723 57.2798C77.4612 57.9096 78.6063 57.3084 78.6636 57.3084C78.7494 57.2512 78.8353 57.2512 78.9212 57.3084C79.0071 57.3657 79.0643 57.4229 79.0643 57.5374C79.2075 58.7397 79.5796 59.5127 80.1808 59.7989C80.9823 60.1711 81.9842 59.5699 81.9842 59.5699C82.0701 59.5127 82.2132 59.5127 82.2991 59.5699C82.3278 59.5985 85.0759 61.4306 86.2496 59.8848C86.5072 59.5413 86.5931 59.1978 86.5072 58.8256C86.2782 57.7664 84.7896 56.879 84.7896 56.879C84.7038 56.8218 84.6465 56.7073 84.6465 56.5927C84.6465 56.4782 84.7324 56.3924 84.8469 56.3637C85.6771 56.0775 86.1923 55.6481 86.3927 55.1042C86.7076 54.1595 85.9347 53.1003 85.9347 53.0717C85.8775 52.9858 85.8775 52.8713 85.9061 52.7854C85.9633 52.6995 86.0492 52.6423 86.1351 52.6137C86.1637 52.6137 89.1123 52.356 89.4844 50.4953C89.5703 50.0086 89.513 49.5792 89.2554 49.2644C88.7687 48.6059 87.7095 48.4914 87.7095 48.4914C87.595 48.4914 87.5092 48.4056 87.4805 48.291C87.4519 48.1765 87.4805 48.062 87.5378 48.0048C88.1676 47.375 88.6829 45.9437 88.6829 45.915C88.8546 45.1994 88.7974 44.6268 88.4825 44.1688C87.9099 43.3673 86.7076 43.2241 86.7076 43.2241C86.5645 43.2241 86.4786 43.1096 86.45 42.9951C86.4214 42.8806 86.5072 42.7375 86.6217 42.6802C87.3947 42.3367 88.0244 41.7928 88.2535 41.163C88.4252 40.705 88.3966 40.2184 88.1676 39.7603C88.0244 39.4454 87.8241 39.2451 87.5378 39.1592C86.9366 38.9874 86.221 39.3882 86.221 39.3882C86.1637 39.4168 86.0778 39.4454 85.992 39.4168C85.9061 39.3882 85.8488 39.3309 85.8202 39.2737C84.5606 36.4683 82.5281 36.7545 82.4423 36.7832C82.3564 36.8118 82.2705 36.7832 82.2133 36.7259C82.156 36.6687 82.1274 36.5828 82.1274 36.4969C82.1274 36.4683 82.2132 34.6075 80.7247 33.5484C79.2647 32.5178 77.7761 33.7201 77.7189 33.7774C77.633 33.8633 77.4899 33.8633 77.3754 33.806C77.2608 33.7201 77.2322 33.6056 77.2608 33.4911C77.2895 33.3766 78.1483 30.7716 75.5146 29.3403C74.9994 29.054 73.797 28.9109 73.3963 28.8822C73.2531 28.8822 73.1386 28.7391 73.1386 28.596V9.1299H31.3152V38.7584C31.3152 38.9015 31.2293 39.016 31.0862 39.0447L24.0441 40.5619L22.5268 45.3425C22.4982 45.3998 22.441 45.4856 22.3837 45.5143C19.7501 46.917 20.6089 49.5506 20.6375 49.6651C20.6661 49.7796 20.6375 49.9228 20.523 49.98C20.4085 50.0659 20.2654 50.0373 20.1795 49.9514C20.1222 49.8941 18.6336 48.6918 17.1737 49.7224C15.6851 50.7816 15.771 52.6423 15.771 52.6709C15.771 52.7568 15.7424 52.8427 15.6851 52.8999C15.6278 52.9572 15.542 52.9858 15.4561 52.9572C15.3702 52.9286 13.3377 52.6423 12.0782 55.4477C12.0495 55.5336 11.9923 55.5908 11.9064 55.5908C11.8205 55.6194 11.7346 55.6194 11.6774 55.5622C11.6774 55.5622 10.9617 55.1614 10.3606 55.3332C10.1029 55.4191 9.90253 55.6194 9.73077 55.9343C9.50176 56.421 9.47313 56.879 9.64489 57.337C9.87391 57.9668 10.4751 58.5394 11.2766 58.8542C11.3911 58.9115 11.477 59.026 11.4484 59.1405C11.4197 59.255 11.3339 59.3695 11.2194 59.3982H11.1907C10.2461 59.5699 9.53039 60.1997 9.24412 61.1157C8.95786 62.0318 9.18687 63.0051 9.87391 63.6635C10.0457 63.8353 10.2174 64.007 10.3606 64.1502C10.4464 64.236 10.4464 64.3219 10.4464 64.4364C10.4464 64.5509 10.3319 64.6082 10.2461 64.6368C10.1602 64.6654 8.21357 65.238 8.55708 67.0701C8.87198 68.9308 11.6488 68.8163 11.706 68.8163Z" fill="black" stroke="black" stroke-width="0.5"/>
<path d="M23.8148 17.8896H20.4082V27.1647H23.8148V17.8896Z" fill="#73B7EA" stroke="black" stroke-width="0.5"/>
<path d="M23.8139 27.4796H20.4074C20.2356 27.4796 20.1211 27.3651 20.1211 27.1933V17.8897C20.1211 17.7179 20.2356 17.6034 20.4074 17.6034H23.8139C23.9857 17.6034 24.1002 17.7179 24.1002 17.8897V27.1647C24.1002 27.3364 23.9857 27.4796 23.8139 27.4796ZM20.6936 26.907H23.5277V18.1759H20.6936V26.907Z" fill="black" stroke="black" stroke-width="0.5"/>
<path d="M84.7335 18.8343C84.9912 18.4336 85.1629 17.9469 85.1629 17.4316C85.1629 16.0289 84.0179 14.8839 82.6152 14.8839C82.0713 14.8839 81.5846 15.0556 81.1552 15.3419C80.7258 14.8839 80.1246 14.569 79.4376 14.569C78.1494 14.569 77.1189 15.5995 77.1189 16.8877C77.1189 17.5461 77.4051 18.1473 77.8631 18.5767C77.1475 19.0347 76.6895 19.8076 76.6895 20.7237C76.6895 22.1264 77.8345 23.2714 79.2372 23.2714C80.1819 23.2714 81.0121 22.7562 81.4415 21.9833C81.785 22.9852 82.7297 23.7295 83.8461 23.7295C85.2488 23.7295 86.3939 22.5844 86.3939 21.1817C86.3939 20.1225 85.7068 19.2065 84.7335 18.8343Z" fill="#FEFFFA" stroke="black" stroke-width="0.5"/>
<path d="M83.8453 24.0444C82.8147 24.0444 81.87 23.4719 81.3834 22.5845C80.8395 23.2143 80.0665 23.5864 79.2364 23.5864C77.6905 23.5864 76.4023 22.3268 76.4023 20.7524C76.4023 19.8936 76.7745 19.1207 77.4329 18.5768C77.0608 18.1187 76.8317 17.5462 76.8317 16.9164C76.8317 15.4851 78.0054 14.3114 79.4368 14.3114C80.0952 14.3114 80.725 14.569 81.183 14.9984C81.6124 14.7408 82.099 14.6263 82.5857 14.6263C84.1315 14.6263 85.4197 15.8859 85.4197 17.4603C85.4197 17.8897 85.3052 18.3191 85.1335 18.7199C86.0495 19.2065 86.6507 20.1798 86.6507 21.2104C86.6793 22.7562 85.3911 24.0444 83.8453 24.0444ZM81.4406 21.7257H81.4693C81.5838 21.7257 81.6696 21.8116 81.7269 21.9261C82.0418 22.8421 82.9006 23.4719 83.8739 23.4719C85.1048 23.4719 86.1354 22.47 86.1354 21.2104C86.1354 20.2944 85.5629 19.4356 84.6754 19.1207C84.5896 19.092 84.5323 19.0348 84.5037 18.9489C84.4751 18.863 84.475 18.7771 84.5323 18.6913C84.7613 18.3191 84.9045 17.8897 84.9045 17.4603C84.9045 16.2294 83.9025 15.1988 82.643 15.1988C82.1849 15.1988 81.7269 15.342 81.3548 15.5996C81.2402 15.6855 81.0685 15.6569 80.9826 15.571C80.6105 15.1416 80.0379 14.9126 79.494 14.9126C78.3776 14.9126 77.4615 15.8286 77.4615 16.945C77.4615 17.5176 77.6905 18.0329 78.0913 18.4336C78.1486 18.4909 78.1772 18.5768 78.1772 18.6626C78.1772 18.7485 78.1199 18.8344 78.0341 18.8917C77.3757 19.3211 77.0035 20.0081 77.0035 20.781C77.0035 22.0119 78.0054 23.0425 79.265 23.0425C80.0666 23.0425 80.8108 22.6131 81.2116 21.8974C81.2402 21.7543 81.3261 21.7257 81.4406 21.7257Z" fill="black" stroke="black" stroke-width="0.5"/>
<path d="M31.0876 57.5088L23.8164 53.6443V9.07269L31.0876 5.95239V57.5088Z" fill="#73B7EA" stroke="black" stroke-width="0.5"/>
<path d="M31.0867 57.7951C31.0295 57.7951 31.0008 57.7951 30.9436 57.7664L23.6724 53.9018C23.5866 53.8446 23.5293 53.7587 23.5293 53.6442V9.07264C23.5293 8.95814 23.5866 8.84363 23.7011 8.815L30.9722 5.69471C31.0581 5.66608 31.1726 5.66608 31.2298 5.72333C31.3157 5.78059 31.373 5.86647 31.373 5.95235V57.5374C31.373 57.6519 31.3157 57.7378 31.2298 57.7951C31.1726 57.7951 31.1153 57.7951 31.0867 57.7951ZM24.1018 53.4724L30.8004 57.0508V6.38174L24.1018 9.2444V53.4724Z" fill="black" stroke="black" stroke-width="0.5"/>
<path d="M23.8148 36.0103H20.4082V45.2853H23.8148V36.0103Z" fill="#73B7EA" stroke="black" stroke-width="0.5"/>
<path d="M23.8139 45.5715H20.4074C20.2356 45.5715 20.1211 45.457 20.1211 45.2853V36.0103C20.1211 35.8385 20.2356 35.724 20.4074 35.724H23.8139C23.9857 35.724 24.1002 35.8385 24.1002 36.0103V45.2853C24.1002 45.4284 23.9857 45.5715 23.8139 45.5715ZM20.6936 44.999H23.5277V36.2965H20.6936V44.999Z" fill="black" stroke="black" stroke-width="0.5"/>
<path d="M2.74549 42.4513C2.68824 42.4799 2.45923 41.6498 2.4306 41.5925C1.8867 39.789 4.34858 39.2738 5.37914 40.3902C5.40777 40.4188 5.60815 40.7337 5.69403 40.9914C5.77991 41.1631 5.95167 41.2776 6.15206 41.249C6.61008 41.2204 7.09673 41.249 7.46888 41.5066C8.61394 42.2223 7.86965 43.9685 6.78184 44.312C6.29519 44.4552 5.75128 44.4552 5.26463 44.312C5.26463 44.312 5.06425 44.7701 5.06425 44.7987C4.77798 45.3426 4.2627 45.8006 3.63292 45.9437C3.00313 46.0869 2.34472 45.9151 1.85807 45.4857C1.37142 45.0563 1.08515 44.4265 1.34279 43.7968C1.62906 43.2528 2.20159 42.7948 2.74549 42.4513Z" fill="#FEFFFA" stroke="black" stroke-width="0.5"/>
<path d="M3.2324 46.3159C2.68849 46.3159 2.14459 46.1155 1.71519 45.7147C1.05678 45.1422 0.856391 44.3693 1.14266 43.7109C1.37167 43.1956 1.77244 42.7376 2.40223 42.3368C2.34497 42.1937 2.28772 41.9933 2.20184 41.707V41.6784C1.97283 40.8768 2.23047 40.1898 2.88888 39.789C3.74767 39.3024 4.97862 39.4741 5.63703 40.1898C5.72291 40.2757 5.92329 40.6478 6.00917 40.8768C6.0378 40.9341 6.09505 40.9627 6.18093 40.9627C6.78209 40.9055 7.29737 41.02 7.69814 41.249C8.21342 41.5925 8.47106 42.1364 8.38518 42.7662C8.27067 43.5677 7.66951 44.3406 6.95385 44.5697C6.52445 44.7128 6.00917 44.7128 5.52252 44.6269C5.4939 44.7128 5.43664 44.7987 5.37939 44.9132C5.03587 45.6002 4.43471 46.0582 3.7763 46.2014C3.54729 46.3159 3.37553 46.3159 3.2324 46.3159ZM2.94613 42.2509C2.97476 42.2795 2.97476 42.2795 3.00338 42.3082C3.08926 42.4513 3.03201 42.6231 2.9175 42.7089C2.28772 43.0811 1.85832 43.5105 1.65793 43.9399C1.37167 44.5983 1.91557 45.1422 2.08733 45.314C2.51673 45.6861 3.06064 45.8292 3.60454 45.7147C4.11982 45.6002 4.54922 45.2281 4.83548 44.7128C4.86411 44.6842 4.97862 44.3693 5.03587 44.2834C5.03587 44.2261 5.0645 44.1975 5.09312 44.1689C5.179 44.083 5.29351 44.0544 5.40801 44.083C5.83741 44.2261 6.35269 44.2261 6.75346 44.083C7.26874 43.9113 7.72677 43.3387 7.78402 42.7662C7.81265 42.4799 7.78402 42.0505 7.35462 41.7929C7.06836 41.6211 6.69621 41.5353 6.20956 41.5925C5.89467 41.6211 5.57977 41.4494 5.46527 41.1345C5.37939 40.9055 5.23626 40.6478 5.179 40.5906C4.66372 40.018 3.71905 39.9894 3.14652 40.3043C2.83162 40.4761 2.51673 40.8196 2.71712 41.5353V41.5925C2.86025 42.0219 2.9175 42.1937 2.94613 42.2509Z" fill="black" stroke="black" stroke-width="0.5"/>
<path d="M52.7287 75.8586C52.7287 75.8586 52.9004 74.7994 52.2993 74.2555C51.4118 73.454 49.9805 74.0551 49.8087 75.2288C49.7801 75.3719 49.7801 75.5437 49.7515 75.7441C49.7515 75.7441 48.0911 76.0017 47.5759 77.4617C47.2037 78.4636 47.6904 79.6373 48.6923 80.0667C49.4366 80.3816 50.553 80.5247 51.555 78.893C51.555 78.893 54.9043 80.1239 55.2764 77.7766C55.6486 75.4292 52.7287 75.8586 52.7287 75.8586Z" fill="#FEFFFA" stroke="black" stroke-width="0.5"/>
<path d="M49.6075 80.5819C49.2354 80.5819 48.8919 80.4961 48.6056 80.3529C47.4892 79.8663 46.9166 78.5208 47.346 77.3758C47.804 76.1162 49.0064 75.6582 49.5216 75.515C49.5216 75.4005 49.5503 75.286 49.5503 75.2001C49.6361 74.5131 50.1228 73.9692 50.7526 73.7402C51.3824 73.5112 52.0122 73.6543 52.4988 74.0837C52.9855 74.5131 53.0427 75.1715 53.0427 75.5723C53.5866 75.5437 54.5885 75.6009 55.1897 76.2021C55.5905 76.6028 55.7336 77.1754 55.5905 77.8624C55.476 78.4922 55.1897 78.9502 54.7031 79.2365C53.7297 79.809 52.2698 79.4369 51.6973 79.2651C51.0102 80.267 50.2946 80.5819 49.6075 80.5819ZM51.3537 74.1696C51.2106 74.1696 51.0675 74.1982 50.953 74.2555C50.4949 74.4272 50.1801 74.7994 50.1228 75.2574C50.0942 75.4005 50.0942 75.5723 50.0942 75.744C50.0942 75.8872 49.9797 76.0017 49.8652 76.0303C49.8652 76.0303 48.3766 76.2879 47.9186 77.5761C47.6037 78.4636 48.0331 79.4655 48.8632 79.8376C49.8365 80.267 50.6667 79.9235 51.3537 78.7785C51.411 78.664 51.5828 78.6067 51.6973 78.664C51.7259 78.664 53.4435 79.2937 54.4168 78.7498C54.7603 78.5495 54.9607 78.2346 55.0466 77.7765C55.1325 77.2613 55.0466 76.8891 54.7889 76.6028C54.1878 75.9731 52.8137 76.1734 52.7851 76.1734C52.6992 76.1734 52.6133 76.1448 52.5274 76.0876C52.4702 76.0303 52.4416 75.9158 52.4416 75.8299C52.4416 75.8013 52.5847 74.9139 52.098 74.4845C51.8976 74.2841 51.64 74.1696 51.3537 74.1696Z" fill="black" stroke="black" stroke-width="0.5"/>
<path d="M39.1005 17.632C38.9574 17.632 38.8143 17.5175 38.8143 17.3458C38.8143 16.0862 38.4421 15.1988 37.7837 14.6835C36.6959 13.8533 35.0642 14.2541 35.0356 14.2541C34.8924 14.2827 34.7493 14.2255 34.692 14.0823C34.3485 13.2235 33.8619 12.7369 33.318 12.6224C32.316 12.422 31.2855 13.4812 31.2855 13.4812C31.171 13.5957 30.9992 13.5957 30.8847 13.4812C30.7702 13.3667 30.7702 13.1949 30.8847 13.0804C30.942 13.0231 32.1443 11.8208 33.4325 12.0498C34.1481 12.193 34.7207 12.7083 35.1214 13.6243C35.6653 13.5384 37.068 13.3953 38.0986 14.1968C38.9288 14.8266 39.3582 15.8572 39.3582 17.3171C39.3868 17.4889 39.2723 17.6034 39.1005 17.632Z" fill="black" stroke="black" stroke-width="0.5"/>
<path d="M36.7834 14.2255C36.6975 14.2255 36.583 14.1682 36.5257 14.0823C36.4398 13.9392 36.4971 13.7674 36.6116 13.6816C39.7033 11.7636 38.4437 9.07268 38.3865 8.95817C38.3292 8.81504 38.3865 8.64328 38.5296 8.58603C38.6727 8.52877 38.8445 8.58603 38.9017 8.72916C39.4743 9.8456 39.7605 12.4506 36.9265 14.1968C36.8979 14.2255 36.8406 14.2255 36.7834 14.2255Z" fill="black" stroke="black" stroke-width="0.5"/>
<path d="M31.0851 32.432C30.942 32.432 30.7988 32.3175 30.7988 32.1744C30.7988 32.0026 30.9133 31.8881 31.0565 31.8595C32.6309 31.745 33.6329 31.3728 33.9764 30.7717C34.1768 30.3995 34.1481 29.9129 33.8619 29.3404C33.5756 28.7678 33.5184 28.1094 33.7474 27.5082C33.9477 26.9643 34.3485 26.5349 34.8638 26.2773C35.8657 25.8193 36.839 26.1342 37.2398 26.3059C37.7265 25.9052 37.9555 25.4758 37.9268 25.0464C37.8982 24.0158 36.6386 23.157 36.6386 23.1284C36.5528 23.0711 36.4955 22.9566 36.5241 22.8707C36.5241 22.7562 36.61 22.6704 36.6959 22.6417C37.2684 22.4127 37.5833 21.9833 37.6406 21.3535C37.6692 21.01 37.5833 20.6665 37.3829 20.4089C36.4669 19.2638 34.2626 20.8383 34.234 20.8383C34.1481 20.8955 34.0336 20.8955 33.9477 20.8669C33.8619 20.8096 33.8046 20.7237 33.8046 20.6092C33.8046 19.8936 33.6329 19.4069 33.2893 19.2065C32.6882 18.863 31.629 19.2924 31.2855 19.4928C31.1423 19.5787 30.9706 19.5214 30.8847 19.3783C30.7988 19.2352 30.8561 19.0634 30.9992 18.9775C31.0565 18.9489 32.5737 18.1187 33.5756 18.6913C34.005 18.9489 34.2626 19.4069 34.3485 20.094C35.1501 19.6359 36.8963 18.8344 37.8696 20.0367C38.1559 20.4089 38.299 20.8955 38.2704 21.3822C38.2131 22.0406 37.8982 22.5845 37.3829 22.928C37.841 23.3288 38.5566 24.1017 38.5566 25.0177C38.5852 25.7048 38.2131 26.3346 37.4974 26.8785C37.4116 26.9357 37.2971 26.9643 37.1825 26.9071C37.1825 26.9071 36.152 26.3632 35.1501 26.7926C34.7779 26.9643 34.4917 27.2792 34.3485 27.68C34.2054 28.1094 34.234 28.6247 34.4344 29.0541C34.8065 29.7984 34.8352 30.4854 34.5489 31.0293C34.0336 31.8309 32.8886 32.2889 31.0851 32.432Z" fill="black" stroke="black" stroke-width="0.5"/>
<path d="M34.8076 26.9357C34.6644 26.9357 34.5499 26.8212 34.5213 26.678C34.4068 25.7047 34.0347 25.0463 33.4621 24.7028C32.4888 24.1303 31.2006 24.5883 31.2006 24.6169C31.0575 24.6742 30.8857 24.5883 30.8285 24.4452C30.7712 24.302 30.8571 24.1303 31.0002 24.073C31.0575 24.0444 32.5747 23.5005 33.777 24.2161C34.5213 24.6455 34.9507 25.4757 35.1225 26.6208C35.1511 26.7639 35.0366 26.907 34.8648 26.9357C34.8076 26.9357 34.8076 26.9357 34.8076 26.9357Z" fill="black" stroke="black" stroke-width="0.5"/>
<path d="M33.9774 39.5885C33.8629 39.5885 33.7771 39.5313 33.7198 39.4168C33.6912 39.3595 33.0614 38.2145 31.1148 39.016C30.9717 39.0733 30.7999 39.016 30.7426 38.8729C30.6854 38.7298 30.7426 38.558 30.8858 38.5007C32.5461 37.8137 33.4622 38.3576 33.9202 38.787C34.779 37.4129 36.1244 37.5561 36.5825 37.6706C36.8401 37.4416 37.5271 36.8118 37.6703 35.953C37.7561 35.3804 37.5844 34.8365 37.1836 34.264C36.0099 32.6895 33.8629 34.0636 33.7771 34.1209C33.6625 34.1781 33.548 34.1781 33.4335 34.0922C33.3477 34.0064 33.2904 33.8919 33.3477 33.7774C33.5194 33.348 33.5194 33.0044 33.4049 32.7182C33.2045 32.2888 32.7465 32.117 32.7179 32.117C32.5747 32.0598 32.4889 31.9166 32.5461 31.7449C32.6034 31.5731 32.7465 31.5159 32.9183 31.5731C32.9469 31.5731 33.6339 31.8021 33.9202 32.4605C34.0347 32.7182 34.0919 33.0044 34.0633 33.3193C35.0939 32.8613 36.6397 32.6037 37.6416 33.9205C38.1569 34.6075 38.3573 35.3232 38.2428 36.0389C38.0424 37.3557 36.8687 38.1858 36.8401 38.2145C36.7542 38.2717 36.6683 38.2717 36.5825 38.2431C36.5252 38.2145 35.008 37.7278 34.2351 39.4168C34.2065 39.5313 34.0919 39.5885 33.9774 39.5885Z" fill="black" stroke="black" stroke-width="0.5"/>
<path d="M31.0861 46.0296C31.0575 46.0296 31.0289 46.0296 31.0002 46.001C30.8571 45.9438 30.7712 45.772 30.8285 45.6289C31.0289 45.0563 31.3438 44.6842 31.8018 44.4838C32.3743 44.2548 32.9755 44.3979 33.2331 44.4838C33.6625 44.1975 33.8915 43.9113 33.9202 43.5391C34.006 42.8235 33.2331 42.1078 33.2331 42.0792C33.1759 42.0219 33.1472 41.936 33.1472 41.8502C33.1472 41.7643 33.2045 41.6784 33.2617 41.6211C33.7484 41.2776 34.0347 40.8769 34.0919 40.4761C34.1778 39.9036 33.777 39.4169 33.777 39.4169C33.6625 39.3024 33.6911 39.1306 33.8056 39.0161C33.9202 38.9016 34.0919 38.9303 34.2064 39.0448C34.235 39.0734 34.779 39.7032 34.6644 40.5333C34.6072 41.02 34.3209 41.478 33.8629 41.8788C34.1492 42.2223 34.5786 42.8521 34.4927 43.5678C34.4354 44.1403 34.0633 44.6269 33.4049 44.9991C33.319 45.0563 33.2331 45.0563 33.1472 44.9991C33.1472 44.9991 32.5461 44.7128 32.0308 44.9418C31.7445 45.0563 31.5155 45.3426 31.3724 45.7434C31.3151 45.9438 31.2006 46.0296 31.0861 46.0296Z" fill="black" stroke="black" stroke-width="0.5"/>
<path d="M44.3979 14.34C43.5104 14.34 42.6803 13.9106 42.165 13.5098C41.2489 14.0537 40.4474 14.1682 39.789 13.882C38.7012 13.424 38.3863 12.0499 38.3863 11.9926C38.3577 11.8495 38.4435 11.6777 38.6153 11.6491C38.7584 11.6205 38.9302 11.7064 38.9588 11.8781C38.9588 11.9067 39.2165 13.0232 40.018 13.3667C40.5619 13.5957 41.2489 13.4526 42.0505 12.9087C42.165 12.8514 42.3081 12.8514 42.394 12.9373C42.4799 13.0232 44.3692 14.7122 46.0296 13.0232C47.6899 11.3628 45.6002 9.12997 45.5143 9.01546C45.3998 8.90095 45.3998 8.72919 45.5143 8.61469C45.6288 8.50018 45.8006 8.50018 45.9151 8.61469C46.8025 9.55937 48.0621 11.7636 46.4017 13.424C45.8006 14.111 45.0849 14.34 44.3979 14.34Z" fill="black" stroke="black" stroke-width="0.5"/>
<path d="M41.5643 23.9872C41.507 23.9872 41.4498 23.9585 41.3925 23.9299C41.278 23.844 41.2494 23.6436 41.3353 23.5291C42.1082 22.5272 42.4231 21.7257 42.194 21.239C41.9364 20.6379 40.9917 20.5806 40.9631 20.5806C40.8772 20.5806 40.7913 20.5234 40.7341 20.4375C40.6768 20.3516 40.6768 20.2657 40.7055 20.1798C40.7055 20.1798 41.1062 19.2638 40.7913 18.6054C40.6196 18.2619 40.2761 18.0328 39.7322 17.9183C37.4707 17.4317 36.8981 19.7504 36.8695 19.8363C36.8409 19.9794 36.6691 20.094 36.526 20.0367C36.3829 20.0081 36.2684 19.8363 36.3256 19.6932C36.3256 19.6646 37.0699 16.7446 39.8753 17.3458C40.591 17.4889 41.0776 17.8325 41.3353 18.3191C41.6501 18.9203 41.507 19.6359 41.3925 20.0367C41.8219 20.1226 42.4517 20.3516 42.738 20.9814C43.0528 21.697 42.738 22.6703 41.8219 23.8727C41.736 23.9299 41.6501 23.9872 41.5643 23.9872Z" fill="black" stroke="black" stroke-width="0.5"/>
<path d="M39.6162 33.5198C39.5017 33.5198 39.4158 33.4625 39.3586 33.348C39.3013 33.2049 39.3586 33.0331 39.5017 32.9759C39.5017 32.9759 40.5609 32.4892 40.8758 31.5732C41.0475 31.1151 40.9903 30.5999 40.7327 30.0846C40.475 29.5407 40.1029 29.1972 39.6448 29.0826C38.7574 28.8536 37.8414 29.4262 37.8127 29.4262C37.6982 29.4834 37.5551 29.4834 37.4692 29.3975C37.3833 29.3117 37.3547 29.1685 37.412 29.054C38.1849 27.6227 37.2116 26.9929 37.0971 26.907C36.9539 26.8211 36.9253 26.6494 37.0112 26.5063C37.0971 26.3631 37.2688 26.3345 37.412 26.4204C37.412 26.4204 38.6143 27.1647 38.2135 28.6246C38.6429 28.4815 39.2154 28.367 39.8166 28.5101C40.4464 28.6819 40.933 29.1113 41.2766 29.7983C41.6201 30.4854 41.6773 31.1438 41.4483 31.7449C41.0475 32.89 39.8166 33.4339 39.7593 33.4625C39.7021 33.5198 39.6735 33.5198 39.6162 33.5198Z" fill="black" stroke="black" stroke-width="0.5"/>
<path d="M42.652 21.5825C42.5088 21.5825 42.3943 21.468 42.3657 21.3248C42.3371 21.1817 42.4516 21.0386 42.6233 21.0099C42.9669 20.9527 43.9115 20.7237 44.1406 20.1225C44.3123 19.6931 44.1119 19.092 43.5394 18.3477C43.4535 18.2332 43.4535 18.1187 43.5394 18.0041C43.6253 17.8896 43.7398 17.861 43.8829 17.9183C43.8829 17.9183 44.8848 18.2904 45.5719 17.9183C45.8295 17.7751 46.0299 17.5461 46.1444 17.2026C45.8868 17.0881 45.5146 16.8877 45.2284 16.4583C44.799 15.8285 44.7131 14.9697 44.9707 13.9106C44.9994 13.7674 45.1711 13.6529 45.3142 13.6815C45.4574 13.7102 45.5719 13.8819 45.5433 14.0251C45.3429 14.9125 45.4001 15.6281 45.715 16.1148C46.0299 16.6301 46.5166 16.716 46.5452 16.716C46.6311 16.7446 46.6883 16.7732 46.7169 16.8305C46.7456 16.8877 46.7742 16.9736 46.7742 17.0595C46.6311 17.6893 46.3448 18.1473 45.8581 18.4335C45.4001 18.6912 44.8848 18.6912 44.4554 18.6339C44.8276 19.2923 44.9135 19.8649 44.7131 20.3515C44.3123 21.3821 42.7951 21.5825 42.7379 21.5825C42.652 21.5825 42.652 21.5825 42.652 21.5825Z" fill="black" stroke="black" stroke-width="0.5"/>
<path d="M43.5957 29.5693C43.5384 29.5693 43.4812 29.5693 43.4525 29.5121C43.3094 29.4262 43.2808 29.2544 43.3667 29.1113C43.7388 28.5102 43.8533 28.0235 43.6816 27.6514C43.4239 27.0788 42.6224 26.9357 42.6224 26.9357C42.5365 26.9071 42.4506 26.8498 42.422 26.7639C42.3934 26.6781 42.3934 26.5922 42.4506 26.5063C42.5651 26.3059 42.651 26.0769 42.6796 25.8479C42.7655 25.2467 42.4792 24.6456 41.9353 24.2162C40.0746 22.7562 38.3284 24.3879 38.2425 24.4738C38.128 24.5883 37.9562 24.5883 37.8417 24.4738C37.7272 24.3593 37.7272 24.1875 37.8417 24.073C37.8704 24.0444 40.0174 22.0119 42.2789 23.7868C42.9659 24.3307 43.338 25.1322 43.2522 25.9338C43.2235 26.1342 43.1949 26.3059 43.109 26.4777C43.4812 26.6208 43.9965 26.8784 44.2541 27.4223C44.5117 27.9663 44.3972 28.6533 43.9106 29.3976C43.7674 29.5121 43.6816 29.5693 43.5957 29.5693Z" fill="black" stroke="black" stroke-width="0.5"/>
<path d="M46.6594 17.3171C46.4591 17.3171 46.3445 17.2885 46.3445 17.2885C46.2014 17.2312 46.1155 17.0881 46.1442 16.945C46.2014 16.8019 46.3445 16.716 46.4877 16.7446C46.5163 16.7446 46.8026 16.8305 47.0888 16.6301C47.4324 16.4297 47.6614 15.9717 47.7759 15.2846C47.8045 15.1701 47.8618 15.0843 47.9763 15.0556C48.0908 15.027 48.2053 15.0556 48.2625 15.1415C48.3198 15.1988 49.5793 16.6301 51.0107 15.5709C51.4115 15.2846 51.6691 14.8839 51.7263 14.4545C51.8695 13.6529 51.3542 13.0231 50.2091 12.5937C50.0946 12.5651 50.0087 12.4506 50.0087 12.3075C50.0087 12.1643 50.0946 12.0785 50.2091 12.0498C50.2091 12.0498 51.0966 11.7636 51.3828 11.0193C51.5832 10.4754 51.4401 9.78834 50.9534 8.9868C50.8675 8.84367 50.9248 8.67191 51.0393 8.58603C51.1824 8.50015 51.3542 8.5574 51.4401 8.67191C52.0412 9.64521 52.213 10.504 51.9267 11.2197C51.7263 11.7349 51.3256 12.0785 51.0107 12.3075C52.3275 12.9945 52.3848 13.9964 52.2989 14.5404C52.213 15.1129 51.8695 15.6282 51.3542 16.0003C50.1233 16.8877 48.9209 16.4011 48.2053 15.8572C48.0335 16.4297 47.7472 16.8591 47.3465 17.0881C47.1175 17.2599 46.8598 17.3171 46.6594 17.3171Z" fill="black" stroke="black" stroke-width="0.5"/>
<path d="M45.6281 28.6819C45.027 28.6819 44.483 28.5674 44.0536 28.3098C43.9105 28.2239 43.8819 28.0521 43.9391 27.909C44.025 27.7658 44.1968 27.7372 44.3399 27.7945C45.256 28.3384 47.0594 28.1094 48.1759 27.3078C48.7484 26.907 49.3496 26.22 49.1492 25.1608C49.0347 24.531 48.7484 24.073 48.3476 23.844C47.5747 23.386 46.5155 23.7581 46.5155 23.7581C46.4297 23.7868 46.3152 23.7581 46.2293 23.7009C46.1434 23.6436 46.1148 23.5291 46.1434 23.4146C46.3724 22.5558 46.3152 21.8974 45.943 21.4966C45.3418 20.8096 44.0536 20.9814 44.0536 20.9814C43.8819 21.01 43.7388 20.8955 43.7388 20.7237C43.7101 20.5806 43.8246 20.4088 43.9964 20.4088C44.0537 20.4088 45.5995 20.2084 46.401 21.1245C46.8304 21.6111 46.9449 22.2695 46.8304 23.0997C47.2885 23.0138 48.0328 22.9852 48.6625 23.3574C49.2351 23.6722 49.6072 24.2734 49.7503 25.0749C49.9507 26.1341 49.5213 27.1074 48.548 27.7945C47.6892 28.367 46.6014 28.6819 45.6281 28.6819Z" fill="black" stroke="black" stroke-width="0.5"/>
<path d="M44.9698 37.4416C44.3114 37.4416 43.7675 37.2985 43.7102 37.2699C43.5671 37.2126 43.4812 37.0695 43.5098 36.9264C43.5671 36.7832 43.7102 36.6974 43.8533 36.726C43.882 36.726 45.8572 37.2699 46.2866 36.2393C46.4584 35.7813 46.487 35.3805 46.3152 35.0084C45.9431 34.1782 44.8553 33.7774 44.8553 33.7774C44.7694 33.7488 44.6835 33.6629 44.6835 33.5484C44.6549 33.4625 44.7121 33.348 44.7694 33.2908C45.0557 33.0618 45.4564 32.432 45.4278 31.6877C45.4278 31.1152 45.1415 30.5999 44.6263 30.1705C43.2522 29.0254 41.1052 30.1991 41.1052 30.1991C40.9621 30.285 40.7903 30.2277 40.7044 30.0846C40.6185 29.9415 40.6758 29.7697 40.8189 29.6838C40.9334 29.6266 43.3094 28.3384 44.9984 29.7125C45.6568 30.2277 46.0003 30.9148 46.0003 31.6591C46.0003 32.3461 45.7427 32.9473 45.4278 33.3767C45.8572 33.6057 46.5443 34.0351 46.8305 34.7507C47.0595 35.266 47.0595 35.8386 46.8019 36.4397C46.5156 37.2413 45.6855 37.4416 44.9698 37.4416Z" fill="black" stroke="black" stroke-width="0.5"/>
<path d="M42.4797 39.703C42.3938 39.703 42.3366 39.6744 42.2793 39.6172C42.1648 39.5027 42.1934 39.3309 42.3079 39.2164C42.3366 39.1878 44.2259 37.4416 43.2812 36.2106C42.3652 34.9797 41.077 35.7812 41.0197 35.8098C40.9052 35.8671 40.7621 35.8671 40.6762 35.7812C40.5903 35.6953 40.5617 35.5522 40.619 35.4377C40.6476 35.3804 41.1915 34.3499 40.3041 33.7487C39.2735 33.0331 37.8708 34.5789 37.8422 34.5789C37.7277 34.6934 37.5559 34.6934 37.4414 34.6075C37.3269 34.5216 37.3269 34.3213 37.4128 34.2068C37.47 34.1209 39.159 32.2888 40.619 33.2907C41.3346 33.7774 41.4491 34.493 41.3346 35.0656C42.0503 34.8652 42.995 34.8938 43.7393 35.8957C44.9702 37.5561 42.7946 39.5885 42.6801 39.6744C42.5942 39.7031 42.5369 39.703 42.4797 39.703Z" fill="black" stroke="black" stroke-width="0.5"/>
<path d="M53.9302 14.798C52.871 14.798 51.9836 14.3399 51.9263 14.3113C51.7832 14.2254 51.726 14.0537 51.8118 13.9105C51.8977 13.7674 52.0695 13.7101 52.2126 13.796C52.2412 13.796 53.7298 14.5976 55.0753 13.9678C56.0199 13.5384 56.6784 12.5365 57.0219 10.962C57.0505 10.8761 57.1078 10.8189 57.165 10.7616C57.2509 10.733 57.3368 10.733 57.394 10.7616C57.394 10.7616 58.4532 11.191 59.4551 10.733C60.1422 10.4181 60.6575 9.73105 60.9723 8.72912C61.0296 8.58599 61.1727 8.50011 61.3445 8.55736C61.4876 8.61462 61.5735 8.75775 61.5163 8.92951C61.1441 10.1032 60.5143 10.9047 59.6841 11.2769C58.7967 11.6777 57.9379 11.5345 57.4799 11.3914C57.0505 12.9659 56.3348 14.025 55.2757 14.4831C54.8463 14.7407 54.3882 14.798 53.9302 14.798Z" fill="black" stroke="black" stroke-width="0.5"/>
<path d="M49.2629 24.7886C49.1484 24.7886 49.0339 24.7028 48.9766 24.5883C48.9194 24.4451 49.0053 24.2734 49.177 24.2447C50.2935 23.9012 50.9519 23.4146 51.1809 22.7562C51.4958 21.7542 50.6656 20.6664 50.6656 20.6378C50.6084 20.5519 50.5797 20.4374 50.637 20.3515C50.6942 20.2656 50.7801 20.1798 50.8946 20.1798C51.0091 20.1798 53.3851 20.1225 53.3565 18.2618C53.3565 16.2007 51.4958 15.8858 51.4385 15.8572C51.2954 15.8285 51.1809 15.6854 51.2095 15.5423C51.2381 15.3991 51.3813 15.2846 51.5244 15.3133C51.553 15.3133 53.929 15.7427 53.929 18.2618C53.929 19.9221 52.4691 20.5519 51.3813 20.695C51.6389 21.1817 51.9824 22.0405 51.7248 22.8993C51.4385 23.7581 50.637 24.3879 49.3488 24.76C49.3202 24.7886 49.2915 24.7886 49.2629 24.7886Z" fill="black" stroke="black" stroke-width="0.5"/>
<path d="M65.2669 14.6263C64.8375 14.6263 64.4654 14.5118 64.1219 14.2828C63.5493 13.882 63.2631 13.2236 63.0913 12.737C62.4043 13.4526 61.6314 13.7103 60.8584 13.3954C59.8851 12.9946 59.513 11.8495 59.4844 10.9621C59.4844 10.7904 59.5989 10.6759 59.7706 10.6759C59.9138 10.6759 60.0569 10.7904 60.0569 10.9621C60.0855 11.6778 60.3432 12.5938 61.0588 12.8801C61.9176 13.2236 62.6333 12.4507 63.0054 11.9354C63.0627 11.8495 63.2058 11.7923 63.3203 11.8209C63.4348 11.8495 63.5207 11.9354 63.5493 12.0786C63.5493 12.0786 63.6925 13.3095 64.4654 13.8248C64.8089 14.0824 65.2669 14.1397 65.7822 13.9965C66.2689 13.882 66.641 13.6244 66.8414 13.2809C67.2422 12.5652 66.8986 11.5919 66.8986 11.5633C66.87 11.4774 66.87 11.3915 66.9273 11.3056C66.9845 11.2198 67.0418 11.1911 67.1277 11.1625C67.1277 11.1625 68.5304 10.9907 69.1601 10.1606C69.4464 9.81705 69.5323 9.38766 69.475 8.87238C69.4464 8.72924 69.5609 8.55748 69.7327 8.55748C69.8758 8.52886 70.0476 8.64336 70.0476 8.81512C70.1334 9.47354 69.9903 10.0461 69.6182 10.5327C69.0456 11.277 68.0437 11.5919 67.5284 11.6778C67.6143 12.1072 67.7002 12.8801 67.3567 13.5099C67.0704 14.0252 66.6124 14.3401 65.9253 14.5118C65.6677 14.5977 65.4673 14.6263 65.2669 14.6263Z" fill="black" stroke="black" stroke-width="0.5"/>
<path d="M59.2832 20.1512C58.682 20.1512 58.224 19.9508 57.9377 19.5501C57.537 19.0348 57.5656 18.3191 57.6228 17.8897C56.5637 17.8611 55.7907 17.5462 55.3327 16.9164C54.5025 15.8 55.0751 14.1396 55.1037 14.0824C55.161 13.9393 55.3327 13.8534 55.4759 13.9106C55.619 13.9679 55.7049 14.1396 55.6476 14.2828C55.6476 14.2828 55.161 15.7141 55.8194 16.6015C56.1915 17.1168 56.9358 17.3744 57.9664 17.3458C58.0522 17.3458 58.1381 17.3744 58.1954 17.4603C58.2526 17.5176 58.2813 17.6321 58.2526 17.718C58.2526 17.718 57.995 18.6913 58.4244 19.2352C58.5962 19.4642 58.911 19.6073 59.3118 19.6073C59.4836 19.6073 59.5981 19.7505 59.5981 19.8936C59.5695 20.0367 59.4263 20.1512 59.2832 20.1512Z" fill="black" stroke="black" stroke-width="0.5"/>
<path d="M70.7622 15.8C70.0752 15.8 69.4454 15.6282 68.8728 15.3134C67.5274 14.5977 66.9549 13.3095 66.9262 13.2522C66.869 13.1091 66.9262 12.9373 67.0694 12.8801C67.2125 12.8228 67.3843 12.8801 67.4415 13.0232C67.4415 13.0232 67.9854 14.1683 69.1305 14.7981C70.2755 15.4279 71.6496 15.3134 73.1668 14.5404C73.31 14.4546 73.4817 14.5118 73.539 14.6549C73.6249 14.7981 73.5676 14.9698 73.4245 15.0271C72.4798 15.571 71.5924 15.8 70.7622 15.8Z" fill="black" stroke="black" stroke-width="0.5"/>
<path d="M70.3053 24.8746C70.019 24.8746 69.7327 24.846 69.4465 24.8174C67.9579 24.5883 66.8701 23.8154 66.4121 22.6131C66.0399 21.6684 66.0399 20.8096 66.3834 20.0653C66.7556 19.2924 67.414 18.8058 67.872 18.5768C66.7842 17.6607 65.7823 17.3172 64.8662 17.4889C63.349 17.7752 62.5188 19.5214 62.5188 19.5214C62.4616 19.6359 62.3185 19.7218 62.204 19.6932C61.0303 19.4069 60.1715 19.5214 59.6848 20.0081C58.8546 20.8383 59.2554 22.5272 59.2554 22.5559C59.284 22.6704 59.2268 22.7849 59.1409 22.8421C59.055 22.8994 58.9119 22.928 58.826 22.8707C56.8794 21.7257 55.2191 23.2715 55.1618 23.3288C55.1046 23.386 55.0187 23.4147 54.9328 23.4147C54.8469 23.4147 54.761 23.3574 54.7324 23.3001C53.7591 21.9261 51.698 22.5845 51.6694 22.6131C51.5262 22.6704 51.3545 22.5845 51.2972 22.4413C51.24 22.2982 51.3259 22.1265 51.469 22.0692C51.5549 22.0406 53.7305 21.3249 54.9901 22.7276C55.534 22.3268 56.9367 21.468 58.597 22.1265C58.5398 21.4394 58.5398 20.323 59.2554 19.6073C59.8566 19.0062 60.8299 18.8058 62.0894 19.092C62.3757 18.5768 63.2631 17.2313 64.7517 16.945C65.954 16.716 67.2422 17.2313 68.5877 18.4623C68.6736 18.5195 68.7022 18.634 68.6736 18.7199C68.6449 18.8058 68.5877 18.8917 68.4732 18.9203C68.4732 18.9203 67.3567 19.3211 66.8987 20.2944C66.6124 20.8955 66.6411 21.5825 66.956 22.3841C67.4426 23.6723 68.6449 24.1017 69.561 24.2162C71.0496 24.4452 72.6813 23.9586 73.1107 23.4147C73.1966 23.3001 73.3969 23.2715 73.5114 23.3574C73.626 23.4433 73.6546 23.6437 73.5687 23.7582C73.0248 24.4452 71.6507 24.8746 70.3053 24.8746Z" fill="black" stroke="black" stroke-width="0.5"/>
<path d="M67.4698 18.2332C67.3553 18.2332 67.2408 18.1473 67.1836 18.0328C66.9259 17.2027 66.9832 16.487 67.3267 15.9145C67.842 15.027 68.8725 14.798 68.9012 14.798C69.0443 14.7694 69.2161 14.8553 69.2447 15.027C69.2733 15.1702 69.1874 15.3419 69.0157 15.3706C69.0157 15.3706 68.1855 15.5709 67.8133 16.2294C67.5557 16.6588 67.5271 17.2313 67.7275 17.8897C67.7847 18.0328 67.6988 18.2046 67.5271 18.2332C67.5271 18.2332 67.4984 18.2332 67.4698 18.2332Z" fill="black" stroke="black" stroke-width="0.5"/>
<path d="M61.0293 31.2296C60.8862 31.2296 60.7717 31.1151 60.7431 30.972C60.7144 30.8289 60.8289 30.6571 60.9721 30.6571C62.0026 30.514 62.6897 29.8556 62.9473 28.7678C63.1191 28.1093 63.0332 27.4223 62.7183 26.8498C61.745 24.989 59.4262 25.5043 59.3404 25.533C59.2258 25.5616 59.1113 25.5043 59.0541 25.4184C58.9968 25.3326 58.9968 25.1894 59.0541 25.1036C59.369 24.6169 59.5121 24.1589 59.3976 23.7581C59.2831 23.2142 58.7964 22.9279 58.7964 22.9279C58.6533 22.8421 58.6247 22.6703 58.6819 22.5272C58.7678 22.384 58.9396 22.3554 59.0827 22.4127C59.1113 22.4413 59.7698 22.8134 59.9701 23.615C60.056 24.0157 59.9988 24.4451 59.827 24.8745C60.7144 24.8173 62.432 24.9604 63.2622 26.5635C63.6343 27.2792 63.7202 28.0807 63.5198 28.8823C63.2049 30.1991 62.3461 31.0293 61.0866 31.2296C61.0579 31.2296 61.0293 31.2296 61.0293 31.2296Z" fill="black" stroke="black" stroke-width="0.5"/>
<path d="M48.148 33.4626C47.232 33.4626 46.2873 33.1763 45.4857 32.661C45.3426 32.5751 45.314 32.4034 45.3999 32.2602C45.4858 32.1171 45.6575 32.0885 45.8006 32.1744C47.003 32.9759 48.5774 33.119 49.8084 32.5179C50.7817 32.0312 51.3542 31.2011 51.4114 30.1705C51.5832 27.68 49.0641 27.2792 48.9496 27.2506C48.8064 27.222 48.6919 27.0788 48.7205 26.9357C48.7492 26.7926 48.8923 26.6781 49.0354 26.7067C49.0641 26.7067 52.1844 27.1933 51.984 30.2278C51.8981 31.4587 51.2111 32.4893 50.066 33.0618C49.4648 33.3194 48.8064 33.4626 48.148 33.4626Z" fill="black" stroke="black" stroke-width="0.5"/>
<path d="M52.3847 30.514C51.984 30.514 51.6977 30.4853 51.6405 30.4853C51.4973 30.4567 51.3828 30.3136 51.3828 30.1705C51.3828 30.0273 51.5546 29.9128 51.6977 29.9128C51.7263 29.9128 54.9325 30.285 55.6196 28.3097C55.7913 27.7945 55.7913 27.3364 55.5623 26.9643C55.1329 26.22 53.9878 26.0196 53.9878 26.0196C53.8733 25.991 53.7874 25.9051 53.7588 25.7906C53.7302 25.6761 53.7874 25.5616 53.902 25.5043C53.902 25.5043 54.8466 24.989 54.9898 24.302C55.047 23.9871 54.9611 23.6722 54.6749 23.3573C54.5604 23.2428 54.589 23.0424 54.7035 22.9566C54.818 22.8421 55.0184 22.8707 55.1043 22.9852C55.505 23.4432 55.6482 23.9299 55.5337 24.4165C55.4192 24.9604 55.0184 25.3898 54.6749 25.6761C55.1329 25.8478 55.7054 26.1627 56.0203 26.7353C56.3352 27.2505 56.3638 27.8803 56.1062 28.5674C55.5623 30.2563 53.5012 30.514 52.3847 30.514Z" fill="black" stroke="black" stroke-width="0.5"/>
<path d="M68.7875 35.266C68.673 35.266 68.5871 35.2088 68.5298 35.0942C68.4726 34.9511 68.5298 34.7794 68.673 34.7221C68.7875 34.6649 71.6215 33.3194 70.7341 31.0293C69.8467 28.7678 67.5565 29.5979 67.442 29.6266C67.3561 29.6552 67.2703 29.6552 67.213 29.6266C67.1271 29.5979 67.0985 29.5121 67.0699 29.4548C66.8409 28.5674 66.4401 27.9662 65.8389 27.7372C64.7798 27.3078 63.4629 28.0807 63.4343 28.0807C63.2912 28.1666 63.1194 28.1094 63.0335 27.9949C62.9477 27.8517 63.0049 27.68 63.1194 27.5941C63.1767 27.5655 64.6939 26.678 66.0107 27.2219C66.6977 27.5082 67.1844 28.1094 67.4993 29.054C68.2722 28.8537 70.3333 28.596 71.2207 30.8575C72.1081 33.0904 70.0757 34.7221 68.8733 35.266C68.8733 35.266 68.8161 35.266 68.7875 35.266Z" fill="black" stroke="black" stroke-width="0.5"/>
<path d="M65.4668 27.6226C65.3237 27.6226 65.1805 27.5081 65.1805 27.365C64.9515 24.1874 67.9287 23.7867 67.9573 23.758C68.1004 23.7294 68.2436 23.8439 68.2722 24.0157C68.3008 24.1588 68.1863 24.302 68.0146 24.3306C67.9001 24.3306 65.5527 24.6741 65.7531 27.3077C65.7817 27.4795 65.6672 27.6226 65.4668 27.6226C65.4954 27.6226 65.4954 27.6226 65.4668 27.6226Z" fill="black"/>
<path d="M65.4668 27.6226C65.3237 27.6226 65.1805 27.5081 65.1805 27.365C64.9515 24.1874 67.9287 23.7867 67.9573 23.758C68.1004 23.7294 68.2436 23.8439 68.2722 24.0157C68.3008 24.1588 68.1863 24.302 68.0146 24.3306C67.9001 24.3306 65.5527 24.6741 65.7531 27.3077C65.7817 27.4795 65.6672 27.6226 65.4668 27.6226ZM65.4668 27.6226C65.4954 27.6226 65.4954 27.6226 65.4668 27.6226Z" stroke="black" stroke-width="0.5"/>
<path d="M70.6774 30.6285C70.6488 30.6285 70.6488 30.6285 70.6201 30.6285C70.477 30.5999 70.3625 30.4281 70.3911 30.285C70.7347 28.7105 73.1107 28.1666 73.2252 28.138C73.3683 28.1094 73.5401 28.1952 73.5687 28.367C73.5973 28.5101 73.5114 28.6819 73.3397 28.7105C73.311 28.7105 71.2213 29.1972 70.935 30.4281C70.935 30.5426 70.8205 30.6285 70.6774 30.6285Z" fill="black" stroke="black" stroke-width="0.5"/>
<path d="M52.241 37.413C52.0978 37.413 51.9833 37.3271 51.9547 37.184C51.9261 37.0409 52.012 36.8691 52.1551 36.8405C53.1856 36.5829 53.8441 36.2107 54.0158 35.6954C54.2162 35.1229 53.8154 34.5504 53.8154 34.5217C53.7296 34.4072 53.7296 34.2927 53.8154 34.1782C53.9013 34.0637 54.0158 34.0351 54.1303 34.0637C54.1303 34.0637 55.0178 34.35 55.7334 33.9206C56.1628 33.6629 56.4777 33.2049 56.6495 32.5465C57.1647 30.3709 55.2181 29.6266 55.1323 29.598C54.9891 29.5407 54.9032 29.369 54.9605 29.2258C55.0178 29.0827 55.1895 28.9968 55.3326 29.0541C55.3613 29.0541 57.8518 29.9987 57.222 32.6896C57.0216 33.5198 56.6208 34.0923 56.0483 34.4359C55.533 34.7221 54.9891 34.7508 54.5884 34.7221C54.7029 35.037 54.7601 35.4378 54.5884 35.8672C54.3307 36.5829 53.5578 37.0695 52.3269 37.3844C52.2982 37.413 52.2696 37.413 52.241 37.413Z" fill="black" stroke="black" stroke-width="0.5"/>
<path d="M61.7744 34.035C61.7458 34.035 61.7458 34.035 61.7744 34.035C61.6026 34.035 61.4881 33.8919 61.4881 33.7201C61.6026 32.4033 61.345 31.5445 60.7152 31.1151C59.4556 30.2563 57.1083 31.3728 57.0796 31.4014C56.9365 31.4586 56.7647 31.4014 56.7075 31.2583C56.6502 31.1151 56.7075 30.9434 56.8506 30.8861C56.9651 30.8289 59.5415 29.5979 61.0587 30.6571C61.8603 31.201 62.2038 32.2602 62.0893 33.7774C62.032 33.9205 61.9175 34.035 61.7744 34.035Z" fill="black" stroke="black" stroke-width="0.5"/>
<path d="M60.4863 38.1C60.3431 38.1 60.2286 38.0142 60.2 37.871C60.1714 37.7851 59.6561 35.495 60.5435 34.2355C60.8584 33.7774 61.3164 33.5198 61.889 33.4339C62.3756 33.3767 62.8909 33.4625 63.3775 33.7488C63.7211 33.9206 63.9787 34.1496 64.1791 34.3786C64.6085 33.8061 65.4959 32.8328 66.7555 32.9473C67.4425 33.0045 68.0151 33.3194 68.3872 33.8347C69.3605 35.0942 68.9884 37.2412 68.9884 37.3557C68.9597 37.4989 68.8166 37.6134 68.6448 37.5848C68.5017 37.5561 68.3872 37.413 68.4158 37.2412C68.4158 37.2126 68.7593 35.2374 67.9292 34.1782C67.6429 33.7774 67.2135 33.577 66.6982 33.5198C65.3242 33.3767 64.4367 35.037 64.4081 35.0656C64.3509 35.1801 64.2363 35.2374 64.1218 35.2088C64.0073 35.2088 63.9215 35.1229 63.8642 35.0084C63.7497 34.6362 63.3775 34.3786 63.0913 34.2355C62.7191 34.0351 62.3184 33.9492 61.9462 34.0064C61.5168 34.0637 61.2306 34.2355 61.0015 34.579C60.2573 35.6382 60.7439 37.7565 60.7439 37.7565C60.7725 37.8997 60.6866 38.0714 60.5149 38.1C60.5149 38.1 60.5149 38.1 60.4863 38.1Z" fill="black" stroke="black" stroke-width="0.5"/>
<path d="M49.95 39.5313C49.5492 39.5313 49.0912 39.4741 48.6045 39.3882C48.4614 39.3596 48.3469 39.2164 48.3755 39.0447C48.4041 38.8729 48.5473 38.787 48.719 38.8157C49.8927 39.0733 50.7801 38.9874 51.3527 38.6153C51.6676 38.3863 51.868 38.0714 51.9538 37.6706C52.1542 36.5828 50.637 35.8671 50.6084 35.8671C50.5225 35.8385 50.4653 35.7526 50.4653 35.6954C50.4366 35.6095 50.4652 35.5236 50.4939 35.4664C50.8946 34.8366 51.0378 34.2927 50.9233 33.806C50.7515 33.1762 50.179 32.8614 50.179 32.8614C50.0359 32.7755 49.9786 32.6037 50.0645 32.4892C50.1504 32.3461 50.3221 32.2888 50.4366 32.3747C50.4653 32.4033 51.2382 32.8041 51.4672 33.6629C51.6103 34.2354 51.4958 34.8652 51.1237 35.5236C51.6389 35.8385 52.7267 36.6401 52.4977 37.8137C52.3832 38.3863 52.097 38.8443 51.6389 39.1306C51.2382 39.3596 50.6656 39.5313 49.95 39.5313Z" fill="black" stroke="black" stroke-width="0.5"/>
<path d="M23.0424 60.6865C22.8706 60.6865 22.6703 60.6578 22.4985 60.6006C21.697 60.3716 20.924 59.6273 20.2943 58.4249C20.2084 58.2818 20.2656 58.11 20.4088 58.0242C20.5519 57.9383 20.7237 57.9955 20.8095 58.1387C21.3821 59.1979 22.0118 59.8276 22.6703 60.028C23.0424 60.1425 23.4146 60.0853 23.7867 59.8849C24.7314 59.341 24.302 57.7093 24.302 57.7093C24.2733 57.6234 24.302 57.5375 24.3306 57.4803C24.3879 57.423 24.4451 57.3658 24.531 57.3658C25.2753 57.2799 25.7906 57.0222 26.0768 56.5928C26.449 56.0489 26.3058 55.4191 26.3058 55.4191C26.2772 55.276 26.3631 55.1042 26.5348 55.0756C26.678 55.047 26.8497 55.1329 26.8784 55.3046C26.8784 55.3333 27.0788 56.1921 26.5348 56.9364C26.1913 57.423 25.6474 57.7379 24.9031 57.881C24.989 58.4822 25.0749 59.8276 24.0443 60.4002C23.7294 60.5719 23.3859 60.6865 23.0424 60.6865Z" fill="black" stroke="black" stroke-width="0.5"/>
<path d="M46.7737 41.7929C46.1439 41.7929 45.6 41.6211 45.5427 41.6211C45.4855 41.6211 45.4568 41.5925 45.4282 41.5353C45.3996 41.5066 44.3977 40.562 43.0236 41.478C42.9377 41.5353 42.7946 41.5353 42.7087 41.478C42.6228 41.4208 42.5656 41.2776 42.5942 41.1631C42.5942 41.1631 42.7946 40.3616 42.451 39.8749C42.2507 39.6173 41.9358 39.5028 41.4491 39.5028C40.1037 39.5028 39.9605 40.6192 39.9319 40.6478C39.9033 40.791 39.7601 40.9341 39.617 40.9055C39.4739 40.8768 39.3594 40.7337 39.3594 40.5906C39.4166 40.0181 39.9319 38.9302 41.4205 38.9302C42.0789 38.9302 42.5656 39.1306 42.8804 39.5314C43.1667 39.9036 43.224 40.3329 43.1953 40.7051C44.5122 40.1326 45.4855 40.8482 45.7431 41.0486C46.0007 41.1059 47.1172 41.3921 47.8042 40.9055C48.1477 40.6765 48.3195 40.3043 48.3481 39.7604C48.4912 37.5562 46.4588 36.5829 46.4301 36.5829C46.287 36.5256 46.2297 36.3539 46.287 36.2107C46.3443 36.0676 46.516 36.0103 46.6591 36.0676C46.6878 36.0676 49.0638 37.2127 48.892 39.8177C48.8348 40.5333 48.5771 41.0772 48.0905 41.3921C47.747 41.707 47.2317 41.7929 46.7737 41.7929Z" fill="black" stroke="black" stroke-width="0.5"/>
<path d="M34.9796 46.917C34.8079 46.917 34.6934 46.8025 34.6934 46.6307C34.6934 46.4589 34.8079 46.3444 34.9796 46.3444C36.7258 46.3444 37.8423 46.0009 38.1858 45.3139C38.5866 44.5696 37.9568 43.5963 37.9568 43.5963C37.8995 43.5104 37.8995 43.3673 37.9568 43.2814C38.014 43.1955 38.1572 43.1383 38.2717 43.1669C38.2717 43.1669 39.016 43.3673 39.474 43.0238C39.7316 42.8234 39.8748 42.4798 39.9034 41.9932C39.932 41.5924 39.8175 41.2775 39.5599 41.0485C38.9301 40.4474 37.6133 40.5905 37.6133 40.6191C37.4988 40.6191 37.3843 40.5905 37.327 40.476C37.2697 40.3901 37.2697 40.2756 37.327 40.1611C37.5846 39.7317 37.6419 39.3596 37.5274 39.0447C37.327 38.4721 36.5541 38.2431 36.5541 38.2431C36.411 38.1859 36.3251 38.0427 36.3537 37.8996C36.411 37.7565 36.5541 37.6706 36.6972 37.6992C36.7258 37.6992 37.7278 38.0141 38.0427 38.8443C38.1858 39.1878 38.1572 39.5886 38.014 40.018C38.5579 40.018 39.3881 40.1325 39.9034 40.6191C40.2755 40.9626 40.4473 41.4207 40.4187 42.0218C40.39 42.7089 40.161 43.1955 39.7316 43.5104C39.3595 43.768 38.9301 43.8253 38.6152 43.8253C38.787 44.2833 38.9587 44.9704 38.6152 45.6001C38.243 46.4589 36.9835 46.917 34.9796 46.917Z" fill="black" stroke="black" stroke-width="0.5"/>
<path d="M35.4372 70.3908C35.3799 70.3908 35.3227 70.3621 35.2654 70.3335C35.1509 70.2476 35.1223 70.0473 35.2368 69.9328C35.5517 69.532 35.6948 69.1312 35.6376 68.7304C35.5231 67.9003 34.607 67.2991 34.607 67.2991C34.4925 67.2419 34.4639 67.0987 34.4925 66.9842C34.5212 66.8697 34.6357 66.7838 34.7502 66.7838C35.2368 66.7838 35.8666 66.6407 36.067 66.0682C36.296 65.3811 35.838 64.3792 35.0078 63.7208C33.6624 62.6616 32.231 63.7208 32.2024 63.7208C32.1165 63.778 31.9734 63.8067 31.8875 63.7208C31.8016 63.6635 31.7444 63.549 31.773 63.4345C31.773 63.4059 32.1165 61.6883 31.2291 60.715C30.7424 60.1711 29.9123 59.9707 28.7958 60.1139C28.6527 60.1425 28.5096 60.028 28.4809 59.8562C28.4523 59.6845 28.5668 59.5699 28.7386 59.5413C30.0268 59.3696 31.0287 59.6558 31.6585 60.3142C32.4028 61.1158 32.46 62.2608 32.4028 62.9479C33.0612 62.6616 34.2349 62.3467 35.3799 63.2341C36.4105 64.0357 36.9258 65.2953 36.6109 66.2113C36.4964 66.5262 36.2101 67.0415 35.4372 67.2419C35.7521 67.5567 36.0956 68.0434 36.2101 68.6159C36.296 69.1885 36.1242 69.7324 35.6948 70.2763C35.609 70.3335 35.5231 70.3908 35.4372 70.3908Z" fill="black" stroke="black" stroke-width="0.5"/>
<path d="M35.1791 63.7494C35.0932 63.7494 35.0073 63.7208 34.9501 63.6349C34.8356 63.5204 34.8642 63.32 34.9787 63.2342C35.6085 62.7189 35.8948 62.1463 35.8948 61.5452C35.8948 60.3715 34.7211 59.3696 34.7211 59.3696C34.6352 59.3123 34.6066 59.1978 34.6066 59.1119C34.6066 59.0261 34.6924 58.9402 34.7783 58.8829C34.8642 58.8543 36.6677 57.9669 36.0951 56.6787C35.952 56.3352 35.723 56.1061 35.4654 56.0203C35.0073 55.8771 34.5207 56.1348 34.4921 56.1634C34.3776 56.2207 34.2058 56.192 34.1199 56.0775C34.034 55.963 34.034 55.8199 34.1485 55.7054C34.1485 55.7054 35.265 54.5317 35.036 53.358C34.9215 52.671 34.4062 52.0984 33.4615 51.6404C33.3184 51.5832 33.2611 51.4114 33.347 51.2683C33.4042 51.1251 33.576 51.0679 33.7191 51.1538C34.807 51.6977 35.4367 52.4133 35.5799 53.2721C35.723 54.1023 35.3795 54.9038 35.0646 55.4191C35.2364 55.4191 35.4367 55.4191 35.6085 55.4764C36.0379 55.6195 36.3528 55.9344 36.5818 56.4497C37.1257 57.7092 36.1524 58.7112 35.3222 59.1978C35.723 59.6272 36.41 60.486 36.41 61.5166C36.41 62.2895 36.0379 63.0051 35.265 63.6349C35.2936 63.7208 35.2364 63.7494 35.1791 63.7494Z" fill="black" stroke="black" stroke-width="0.5"/>
<path d="M35.3805 53.6729C35.3519 53.6729 35.3519 53.6729 35.3233 53.6729C35.1801 53.6443 35.0656 53.4725 35.0943 53.3294C35.5237 51.4401 37.6993 50.4668 39.4741 50.6099C39.8749 50.6385 40.2184 50.7816 40.5333 50.982C40.5619 50.982 40.5906 51.0393 40.6478 51.0965C40.6764 51.1252 40.7051 51.1538 40.7337 51.1824C41.1917 51.0965 42.8521 50.6671 42.9093 49.5221C42.9666 48.2339 41.478 47.9762 41.4207 47.9476C41.3062 47.919 41.2203 47.8331 41.1917 47.7186C41.1631 47.6041 41.2203 47.4896 41.3062 47.4323C41.3348 47.4037 41.3921 47.3751 41.4207 47.3464C41.7642 47.0888 41.9074 46.688 41.8215 46.23C41.7356 45.7434 41.3921 45.3426 40.9341 45.1995C40.018 44.8846 38.9016 45.2853 38.873 45.2853C38.7298 45.3426 38.5581 45.2567 38.5008 45.1136C38.4436 44.9704 38.5294 44.7987 38.6726 44.7414C38.7298 44.7128 39.9894 44.2548 41.1058 44.6555C41.7642 44.8846 42.2509 45.4571 42.3654 46.1441C42.4513 46.6594 42.3081 47.1461 41.9933 47.5468C42.6803 47.8331 43.4818 48.4343 43.4246 49.5507C43.3387 51.2969 40.7909 51.7549 40.6764 51.7549C40.5047 51.7836 40.4188 51.6977 40.2184 51.4973C40.1898 51.4687 40.1612 51.4401 40.1612 51.4401C39.9321 51.2969 39.6745 51.1824 39.3596 51.1538C37.8138 51.0107 35.9244 51.8981 35.5809 53.4153C35.6382 53.5871 35.5237 53.6729 35.3805 53.6729Z" fill="black" stroke="black" stroke-width="0.5"/>
<path d="M41.7066 58.9688C41.0482 58.9688 40.3898 58.7111 39.9604 58.4535C39.5882 58.6539 38.6722 59.026 37.7561 58.6825C37.0118 58.3963 36.4393 57.7092 36.0958 56.65C36.0385 56.5069 36.1244 56.3351 36.2962 56.2779C36.4393 56.2206 36.6111 56.3065 36.6683 56.4783C36.9546 57.3657 37.384 57.9382 37.9565 58.1386C38.8439 58.4821 39.8172 57.881 39.8172 57.881C39.9031 57.8237 40.0463 57.8237 40.1321 57.881C40.1608 57.881 41.8211 58.9688 42.7944 57.9382C43.0807 57.6233 43.1952 57.3371 43.1666 57.0508C43.1093 56.5642 42.5654 56.2493 42.5654 56.2493C42.4509 56.1634 42.3936 56.0202 42.4509 55.8771C42.5081 55.734 42.6513 55.6767 42.7944 55.734C42.7944 55.734 43.1952 55.8485 43.596 55.6195C43.9681 55.3905 44.2257 54.9324 44.3402 54.2454C44.7696 52.0984 42.365 51.0678 42.3364 51.0678C42.1933 51.0106 42.1074 50.8388 42.1933 50.6957C42.2791 50.5526 42.4223 50.4667 42.5654 50.5526C42.594 50.5526 45.4281 51.7549 44.9128 54.3599C44.741 55.2187 44.3975 55.8199 43.8822 56.1348C43.7391 56.2206 43.596 56.2779 43.4528 56.3065C43.596 56.4783 43.7105 56.7073 43.7391 56.9649C43.7963 57.4229 43.6532 57.881 43.2238 58.3104C42.7944 58.797 42.2505 58.9688 41.7066 58.9688Z" fill="black" stroke="black" stroke-width="0.5"/>
<path d="M41.3915 69.8183C41.3629 69.8183 41.3629 69.8183 41.3343 69.8183C41.1911 69.7896 41.0766 69.6465 41.1053 69.4747C41.3915 68.1007 40.2751 67.6426 40.2178 67.614C40.1033 67.5568 40.0461 67.4709 40.0461 67.3564C40.0461 67.2419 40.132 67.1274 40.2465 67.0987C40.2465 67.0987 40.819 66.8697 41.0194 66.4117C41.1339 66.1254 41.1053 65.8105 40.9621 65.4384C40.7617 65.009 40.5041 64.7227 40.1892 64.6369C39.5594 64.4651 38.8438 64.9517 38.8151 64.9804C38.7293 65.0376 38.6148 65.0376 38.5289 65.009C38.443 64.9804 38.3857 64.8659 38.3857 64.7514C38.4144 63.8353 38.1854 63.1769 37.756 62.8334C37.1262 62.3467 36.2101 62.633 36.1815 62.633C36.0384 62.6902 35.8666 62.6044 35.838 62.4326C35.7807 62.2895 35.8666 62.1177 36.0384 62.0891C36.0956 62.0605 37.2407 61.7456 38.0995 62.404C38.6148 62.8047 38.901 63.4345 38.9583 64.2933C39.3018 64.1216 39.8457 63.9784 40.361 64.1216C40.8763 64.2647 41.2484 64.6368 41.506 65.238C41.735 65.7533 41.7637 66.2399 41.5633 66.6693C41.4202 67.0129 41.1625 67.2419 40.9335 67.4136C41.4202 67.8144 41.9354 68.5301 41.7064 69.6465C41.6492 69.7324 41.5347 69.8183 41.3915 69.8183Z" fill="black" stroke="black" stroke-width="0.5"/>
<path d="M40.8199 64.9804C40.7054 64.9804 40.5909 64.8945 40.5336 64.78C40.4764 64.6368 40.5909 64.4651 40.734 64.4365C40.7627 64.4365 42.6234 63.8925 42.6806 62.6044C42.7379 61.2589 41.2493 60.5146 40.4764 60.4574C40.3333 60.4574 40.2188 60.3429 40.2188 60.1997C40.2188 60.0566 40.3046 59.9421 40.4191 59.8848C40.4478 59.8848 41.3066 59.5986 41.2779 58.6825C41.2779 58.5107 41.3924 58.3962 41.5642 58.3962C41.7073 58.3962 41.8505 58.5107 41.8505 58.6825C41.8791 59.3409 41.5928 59.7703 41.2493 60.0852C42.2799 60.4574 43.2818 61.3734 43.2245 62.6616C43.1387 64.3506 40.963 64.9804 40.8772 65.009C40.8772 64.9804 40.8485 64.9804 40.8199 64.9804Z" fill="black" stroke="black" stroke-width="0.5"/>
<path d="M46.516 67.2418C46.4015 67.2418 46.287 67.1846 46.2584 67.0701C46.2297 67.0414 45.8862 66.2113 44.8843 66.0109C44.7698 65.9823 44.6839 65.8964 44.6553 65.7533C44.6553 65.6387 44.7125 65.5242 44.827 65.467C44.9702 65.4097 46.1152 64.8372 45.6572 63.778C45.4282 63.2341 44.8843 62.862 44.2831 62.7761C43.8537 62.7188 43.4243 62.7761 43.0522 62.8906C42.9091 62.9478 42.7373 62.862 42.68 62.7188C42.6228 62.5757 42.7087 62.4039 42.8518 62.3467C43.3098 62.1749 43.8251 62.1463 44.3404 62.2036C45.1706 62.2894 45.8576 62.8047 46.1725 63.5204C46.6019 64.4651 46.1152 65.2093 45.6 65.6387C46.4301 66.0681 46.745 66.7838 46.7736 66.8411C46.8309 66.9842 46.7736 67.156 46.6305 67.2132C46.6019 67.2132 46.5733 67.2418 46.516 67.2418Z" fill="black" stroke="black" stroke-width="0.5"/>
<path d="M45.1702 63.0623C45.0844 63.0623 45.0271 63.0337 44.9698 62.9765C44.8553 62.862 44.8553 62.6902 44.9698 62.5757C44.9698 62.5757 46.2867 61.2302 45.9718 59.9134C45.7714 59.026 44.884 58.3103 43.3381 57.7664C43.195 57.7092 43.1091 57.5374 43.1664 57.3943C43.2236 57.2512 43.3954 57.1653 43.5385 57.2225C45.2847 57.8237 46.2867 58.6825 46.5443 59.7989C46.9165 61.4306 45.4565 62.9192 45.3992 63.0051C45.3134 63.0337 45.2275 63.0623 45.1702 63.0623Z" fill="black" stroke="black" stroke-width="0.5"/>
<path d="M48.7769 60.0852C48.6624 60.0852 48.5193 59.9994 48.4907 59.8562C48.462 59.7131 48.5479 59.5413 48.691 59.5127C48.691 59.5127 49.464 59.3123 49.7789 58.6825C49.9792 58.3104 49.9792 57.8237 49.7789 57.2798C49.1777 55.5622 47.1738 55.963 47.088 55.9916C46.9448 56.0203 46.8303 55.963 46.7731 55.8199C46.7158 55.7054 46.7444 55.5622 46.8589 55.4764C46.9734 55.3905 47.2597 55.1042 47.2597 54.8466C47.2597 54.6748 47.1166 54.4744 46.8589 54.3027C45.9715 53.7015 44.7119 54.7321 44.7119 54.7321C44.5974 54.8466 44.3971 54.8179 44.3112 54.7034C44.1967 54.5889 44.2253 54.3885 44.3398 54.3027C44.3971 54.2454 45.9429 52.9572 47.2025 53.8446C47.6319 54.1309 47.8322 54.4744 47.8322 54.8752C47.8322 55.0756 47.775 55.2473 47.6891 55.3905C48.6338 55.3905 49.8361 55.7626 50.2941 57.1367C50.5518 57.8524 50.5231 58.4821 50.2369 58.9974C49.7789 59.8276 48.8055 60.0852 48.7769 60.0852C48.8055 60.0852 48.8342 60.0852 48.7769 60.0852Z" fill="black"/>
<path d="M48.7769 60.0852C48.6624 60.0852 48.5193 59.9994 48.4907 59.8562C48.462 59.7131 48.5479 59.5413 48.691 59.5127C48.691 59.5127 49.464 59.3123 49.7789 58.6825C49.9792 58.3104 49.9792 57.8237 49.7789 57.2798C49.1777 55.5622 47.1738 55.963 47.088 55.9916C46.9448 56.0203 46.8303 55.963 46.7731 55.8199C46.7158 55.7054 46.7444 55.5622 46.8589 55.4764C46.9734 55.3905 47.2597 55.1042 47.2597 54.8466C47.2597 54.6748 47.1166 54.4744 46.8589 54.3027C45.9715 53.7015 44.7119 54.7321 44.7119 54.7321C44.5974 54.8466 44.3971 54.8179 44.3112 54.7034C44.1967 54.5889 44.2253 54.3885 44.3398 54.3027C44.3971 54.2454 45.9429 52.9572 47.2025 53.8446C47.6319 54.1309 47.8322 54.4744 47.8322 54.8752C47.8322 55.0756 47.775 55.2473 47.6891 55.3905C48.6338 55.3905 49.8361 55.7626 50.2941 57.1367C50.5518 57.8524 50.5231 58.4821 50.2369 58.9974C49.7789 59.8276 48.8055 60.0852 48.7769 60.0852C48.8342 60.0852 48.8055 60.0852 48.7769 60.0852Z" stroke="black" stroke-width="0.5"/>
<path d="M32.5738 52.0699C31.715 52.0699 31.0852 51.4973 31.0566 51.4687C30.9421 51.3542 30.9135 51.1824 31.028 51.0679C31.1425 50.9534 31.3142 50.9248 31.4287 51.0393C31.4287 51.0393 32.0299 51.5546 32.7169 51.4687C33.1463 51.4115 33.5471 51.1538 33.8906 50.6958C34.9784 49.2072 33.4899 47.8045 33.4326 47.7472C33.3467 47.6614 33.3181 47.5182 33.3753 47.4037C33.4326 47.2892 33.5757 47.232 33.7189 47.2892C33.862 47.3465 34.2341 47.4037 34.4632 47.2606C34.6063 47.1461 34.6922 46.9457 34.6922 46.6308C34.6922 45.543 33.1177 45.1136 33.1177 45.1136C32.9746 45.085 32.8887 44.9132 32.9173 44.7701C32.946 44.6269 33.1177 44.5411 33.2608 44.5697C33.3467 44.5983 35.2647 45.1422 35.2647 46.6594C35.2647 47.1747 35.0929 47.5469 34.778 47.7759C34.6063 47.8904 34.4345 47.9476 34.2628 47.9763C34.778 48.7492 35.1788 49.9515 34.32 51.1252C33.862 51.7263 33.3467 52.0699 32.7456 52.1271C32.7169 52.0699 32.6311 52.0699 32.5738 52.0699Z" fill="black" stroke="black" stroke-width="0.5"/>
<path d="M50.5815 62.7761C50.4384 62.7761 50.3239 62.6903 50.2953 62.5471C50.009 61.3162 49.4937 60.5146 48.7494 60.1711C47.6616 59.6845 46.4307 60.3429 46.4021 60.3429C46.2589 60.4288 46.0872 60.3715 46.0013 60.2284C45.9154 60.0852 45.9727 59.9135 46.1158 59.8276C46.173 59.799 47.633 59.0261 48.9785 59.6272C49.8945 60.028 50.5243 60.9727 50.8392 62.3754C50.8678 62.5185 50.7819 62.6903 50.6102 62.7189C50.6102 62.7761 50.5815 62.7761 50.5815 62.7761Z" fill="black" stroke="black" stroke-width="0.5"/>
<path d="M47.0878 54.3313C47.0019 54.3313 46.9447 54.3027 46.8874 54.2455C46.7729 54.131 46.7729 53.9592 46.8874 53.8447C47.3741 53.3867 47.6031 52.9286 47.6317 52.4134C47.6317 51.6118 47.0305 51.0107 47.0019 51.0107C46.9447 50.9534 46.916 50.8389 46.916 50.753C46.916 50.6671 47.0019 50.5813 47.0878 50.5526C47.1451 50.524 48.5764 49.8656 48.1756 48.606C48.0039 48.1194 47.7462 47.8045 47.3741 47.6327C46.5153 47.2606 45.3702 47.8045 45.3702 47.8045C45.2557 47.8617 45.1126 47.8331 45.0267 47.7186C44.9408 47.6041 44.9408 47.461 45.0267 47.3751C45.0267 47.3751 45.5992 46.6594 45.4847 46.0296C45.4561 45.8006 45.313 45.6002 45.0839 45.4285C43.7385 44.5124 42.4789 46.3445 42.4217 46.4304C42.3358 46.5735 42.164 46.6022 42.0209 46.5163C41.8778 46.4304 41.8491 46.2587 41.935 46.1155C42.4789 45.2854 43.9389 43.9972 45.3988 44.9705C45.771 45.2281 46 45.543 46.0572 45.9438C46.1145 46.3159 46 46.7167 45.8855 47.0316C46.3721 46.9171 47.0305 46.8598 47.6031 47.0888C48.147 47.3178 48.5191 47.7472 48.7481 48.4056C49.1489 49.608 48.3474 50.4668 47.689 50.8675C47.918 51.1824 48.2329 51.7263 48.2329 52.3847C48.2329 53.0432 47.918 53.6729 47.3168 54.2168C47.2023 54.3313 47.1451 54.3313 47.0878 54.3313Z" fill="black" stroke="black" stroke-width="0.5"/>
<path d="M44.9977 45.3711C44.9118 45.3711 44.8259 45.3425 44.7687 45.2566C44.6828 45.1421 44.7114 44.9417 44.8259 44.8558C44.9118 44.7986 46.658 43.4531 45.3985 41.4779C45.3126 41.3348 45.3412 41.163 45.4844 41.0771C45.6275 40.9912 45.7992 41.0199 45.8851 41.163C47.4596 43.5963 45.1981 45.2852 45.1695 45.3138C45.1122 45.3711 45.055 45.3711 44.9977 45.3711Z" fill="black" stroke="black" stroke-width="0.5"/>
<path d="M48.4333 48.8064C48.2901 48.8064 48.1756 48.7205 48.147 48.5773C48.1184 48.4342 48.2329 48.2624 48.376 48.2338C49.7215 48.0048 50.5516 47.5468 50.752 46.9743C51.0096 46.1441 50.065 45.1422 50.0363 45.1422C49.9505 45.0563 49.9218 44.9418 49.9791 44.8273C50.0363 44.7128 50.1222 44.6555 50.2367 44.6555C50.3226 44.6555 52.3265 44.6841 52.8131 42.5944C53.2998 40.3901 51.3245 39.2451 51.2387 39.1878C51.0955 39.1019 51.0669 38.9302 51.1242 38.787C51.21 38.6439 51.3818 38.6153 51.5249 38.6725C51.5535 38.6725 53.9582 40.1039 53.357 42.7089C52.9562 44.4837 51.5822 44.999 50.7806 45.1422C51.1242 45.6002 51.5249 46.3731 51.2673 47.146C51.0096 47.9762 50.065 48.5201 48.4619 48.8064H48.4333Z" fill="black" stroke="black" stroke-width="0.5"/>
<path d="M53.8435 43.2242C53.3569 43.2242 53.0133 43.1669 52.9561 43.1669C52.813 43.1383 52.6984 42.9951 52.7271 42.852C52.7557 42.7089 52.8988 42.5944 53.042 42.623C53.0706 42.623 55.189 42.9379 56.334 41.9646C56.7921 41.5638 57.0497 40.9913 57.0497 40.247C57.0783 37.2126 54.2729 36.2965 54.1584 36.2679C54.0153 36.2106 53.9294 36.0675 53.958 35.9244C54.0153 35.7812 54.1584 35.6954 54.3015 35.724C54.3302 35.724 57.6222 36.7832 57.6222 40.247C57.6222 41.163 57.3073 41.8787 56.7062 42.394C55.876 43.081 54.6737 43.2242 53.8435 43.2242Z" fill="black" stroke="black" stroke-width="0.5"/>
<path d="M50.008 57.2512C49.8935 57.2512 49.779 57.1653 49.7504 57.0508C49.6931 56.9076 49.779 56.7359 49.9221 56.6786C51.7542 56.0775 51.4393 54.8465 51.4107 54.8179C51.3821 54.7034 51.4107 54.5889 51.4966 54.5316C51.5825 54.4744 51.697 54.4458 51.7828 54.4744C52.384 54.7034 52.8993 54.7893 53.3573 54.7893C53.9871 54.7893 54.5024 54.3312 54.5596 53.7301C54.5882 53.4724 54.5024 53.2434 54.3592 53.043C53.7867 52.356 52.3267 52.2415 52.2981 52.2415C52.155 52.2415 52.0405 52.127 52.0405 51.9839C52.0119 51.8407 52.0977 51.7262 52.2409 51.669H52.2695C52.7561 51.4972 53.071 51.0964 53.1855 50.6098C53.3 50.0945 53.1283 49.5506 52.7561 49.1498C51.8401 48.2624 50.2656 48.1765 50.2656 48.1765C50.0939 48.1765 49.9794 48.0334 49.9794 47.8903C49.9794 47.7185 50.1225 47.604 50.2656 47.604C50.3515 47.604 52.0691 47.6899 53.1569 48.7204C53.6722 49.2357 53.9012 49.98 53.7581 50.6957C53.6722 51.1251 53.4432 51.4972 53.1569 51.7549C53.7008 51.898 54.4165 52.1556 54.8173 52.6423C55.0749 52.9572 55.1894 53.3293 55.1608 53.7587C55.0749 54.6461 54.302 55.3332 53.4146 55.3332C53.0138 55.3332 52.5558 55.2759 52.0405 55.1042C52.0119 55.6767 51.7256 56.65 50.1225 57.1939C50.0652 57.2512 50.0366 57.2512 50.008 57.2512Z" fill="black" stroke="black" stroke-width="0.5"/>
<path d="M53.4723 50.2377C53.3292 50.2377 53.2147 50.1232 53.186 49.98C53.1574 49.8369 53.2719 49.6938 53.4437 49.6651C53.4437 49.6651 54.8464 49.4934 55.3616 48.6632C55.5907 48.2624 55.5907 47.7758 55.3616 47.1746C55.333 47.0601 55.333 46.9456 55.4189 46.8884C55.5048 46.8025 55.6193 46.7739 55.7052 46.8025C55.7052 46.8025 56.4781 47.0029 57.1079 46.6594C57.48 46.459 57.709 46.0868 57.8522 45.6002C58.3388 43.8826 56.1918 42.5944 56.1918 42.5658C56.0487 42.4799 56.0201 42.3081 56.0773 42.165C56.1632 42.0218 56.3349 41.9932 56.4781 42.0505C56.5926 42.1077 58.9972 43.5677 58.4247 45.7147C58.2529 46.3731 57.9094 46.8311 57.3941 47.1174C56.9361 47.375 56.4208 47.4036 56.0487 47.375C56.1918 47.9475 56.1346 48.4628 55.8769 48.8922C55.2471 49.98 53.6154 50.1518 53.5295 50.1518C53.5009 50.2377 53.4723 50.2377 53.4723 50.2377Z" fill="black" stroke="black" stroke-width="0.5"/>
<path d="M59.3974 47.9762C59.0825 47.9762 58.739 47.919 58.4528 47.8045C57.9089 47.6041 57.5081 47.2892 57.2504 46.8598C57.1646 46.7167 57.2218 46.5449 57.3363 46.459C57.4508 46.3732 57.6512 46.4304 57.7371 46.5449C57.9089 46.8598 58.2237 47.0888 58.6531 47.2319C59.197 47.4323 59.7982 47.4037 60.2849 47.1747C61.7162 46.4877 61.2868 44.4838 61.2868 44.4552C61.2582 44.3693 61.2868 44.2548 61.344 44.1975C61.4013 44.1403 61.5158 44.083 61.6017 44.1117C61.6017 44.1117 62.7754 44.2834 63.4338 43.7395C63.72 43.4819 63.8632 43.1383 63.8918 42.6517C63.9204 41.0486 61.5444 40.791 61.5158 40.7623C61.4013 40.7623 61.3154 40.6765 61.2868 40.5906C61.2582 40.4761 61.2582 40.3616 61.344 40.3043C61.344 40.3043 61.6303 39.9894 61.5731 39.56C61.5444 39.1593 61.2868 38.7871 60.8288 38.3863C59.4261 37.2413 57.4222 39.1593 57.4222 39.1879C57.3077 39.3024 57.1359 39.3024 57.0214 39.1879C56.9069 39.0734 56.9069 38.9016 57.0214 38.7871C57.1073 38.7012 59.4261 36.497 61.2009 37.9569C61.8021 38.4436 62.117 38.9875 62.1742 39.5314C62.2028 39.8463 62.117 40.1039 62.0311 40.3043C63.0616 40.5333 64.493 41.2204 64.4643 42.6803C64.4643 43.3387 64.2353 43.8254 63.8059 44.1975C63.2048 44.6842 62.3746 44.7414 61.8879 44.7414C61.9738 45.6575 61.8021 47.1174 60.5139 47.7186C60.1703 47.919 59.7696 47.9762 59.3974 47.9762Z" fill="black" stroke="black" stroke-width="0.5"/>
<path d="M24.4448 68.4157C23.7863 68.4157 23.1279 68.158 22.6413 67.6714C22.2119 67.2706 21.9542 66.8126 21.897 66.3545C21.8684 66.2114 21.9829 66.0396 22.126 66.0396C22.2691 66.011 22.4409 66.1255 22.4409 66.2687C22.4982 66.6122 22.6985 66.9557 23.0134 67.2706C23.4428 67.6714 23.9867 67.8717 24.5306 67.8431C26.1337 67.7572 26.5059 65.7534 26.5059 65.7248C26.5345 65.6389 26.5918 65.553 26.6776 65.5244C26.7635 65.4957 26.878 65.4957 26.9353 65.553C26.9353 65.553 27.9658 66.1828 28.7674 65.9251C29.1395 65.8106 29.3972 65.553 29.5975 65.095C30.256 63.635 28.1662 62.4613 28.1376 62.4613C28.0517 62.4041 27.9945 62.3182 27.9945 62.2037C27.9945 62.0892 28.0517 62.0033 28.1662 61.946C28.1662 61.946 28.5384 61.7743 28.6815 61.3449C28.796 60.9727 28.7388 60.5147 28.4525 59.9708C27.6223 58.3677 25.0173 59.3697 24.9887 59.3697C24.8455 59.4269 24.6738 59.341 24.6165 59.1979C24.5593 59.0548 24.6451 58.883 24.7883 58.8257C24.9028 58.7685 27.88 57.6521 28.9678 59.6845C29.3399 60.3716 29.4258 60.9727 29.254 61.5166C29.1681 61.8029 28.9964 62.0319 28.8246 62.1751C29.6834 62.7762 30.7426 63.9785 30.1415 65.324C29.8838 65.9251 29.483 66.2973 28.9391 66.469C28.1948 66.6981 27.4219 66.4118 26.9639 66.2114C26.7063 67.0988 25.962 68.3584 24.5593 68.4157C24.5306 68.4157 24.502 68.4157 24.4448 68.4157Z" fill="black" stroke="black" stroke-width="0.5"/>
<path d="M69.5323 49.5506C69.4464 49.5506 69.3606 49.522 69.3033 49.4361C69.2174 49.3216 69.2461 49.1212 69.3606 49.0353C69.3892 49.0067 71.6221 47.375 71.0782 45.0562C70.5629 42.7947 67.7002 43.2241 67.5857 43.2241C67.4712 43.2527 67.3567 43.1955 67.2995 43.081C67.2422 42.9665 67.2708 42.852 67.3281 42.7661C67.3281 42.7661 68.1296 41.8787 68.0151 41.1057C67.9865 40.8195 67.8147 40.5618 67.4998 40.3615C66.0685 39.4168 64.1505 41.9645 64.1505 41.9932C64.0647 42.1077 63.8643 42.1363 63.7498 42.0504C63.6353 41.9645 63.6066 41.7642 63.6925 41.6497C63.7784 41.5351 65.9254 38.6439 67.8147 39.8748C68.2728 40.1611 68.5304 40.5618 68.5877 41.0199C68.6735 41.621 68.3873 42.2222 68.1296 42.623C69.4178 42.5943 71.1927 43.0524 71.6221 44.9417C72.2518 47.6326 69.79 49.4361 69.6755 49.522C69.6468 49.522 69.5896 49.5506 69.5323 49.5506Z" fill="black" stroke="black" stroke-width="0.5"/>
<path d="M57.3089 58.4249C56.765 58.4249 56.2497 58.2532 55.8203 57.9383C54.4749 56.9364 54.1314 54.7894 54.1314 54.7035C54.1027 54.5604 54.2172 54.3886 54.3604 54.3886C54.5321 54.36 54.6753 54.4745 54.6753 54.6176C54.6753 54.6462 54.9902 56.6215 56.1352 57.4803C56.5646 57.7952 57.0799 57.9097 57.6524 57.8238C58.1677 57.7379 58.5112 57.5375 58.7116 57.1654C59.37 55.9917 58.3681 53.7016 58.3681 53.6729C58.3395 53.587 58.3395 53.4725 58.3967 53.3867C58.454 53.3008 58.5399 53.2722 58.6544 53.2722C59.8853 53.358 60.7155 53.129 61.0304 52.6137C61.4884 51.8695 60.8586 50.6385 60.83 50.6385C60.7727 50.5526 60.7727 50.4381 60.8586 50.3236C60.9159 50.2377 61.0304 50.1805 61.1449 50.2091C61.288 50.2377 62.4331 50.3522 62.6907 48.9495C62.977 47.461 61.3739 46.6594 61.288 46.6022C61.1449 46.5449 61.0876 46.3731 61.1449 46.23C61.2021 46.0869 61.3739 46.0296 61.517 46.0869C62.2327 46.4304 63.5209 47.4896 63.2346 49.0354C63.0056 50.2664 62.1754 50.6958 61.517 50.753C61.7174 51.2683 61.9464 52.1843 61.4884 52.8714C61.0876 53.5012 60.2575 53.8447 59.0265 53.8161C59.3128 54.589 59.7994 56.2779 59.1983 57.3944C58.912 57.9097 58.4254 58.2532 57.7383 58.3391C57.6238 58.4249 57.452 58.4249 57.3089 58.4249Z" fill="black" stroke="black" stroke-width="0.5"/>
<path d="M52.8415 63.9499C52.6983 63.9499 52.5838 63.864 52.5552 63.7209C52.5266 63.5777 52.6411 63.406 52.7842 63.3773C52.7842 63.3773 53.4426 63.2628 53.643 62.7476C53.8434 62.3182 53.6716 61.6598 53.185 60.8868C53.1277 60.801 53.1277 60.6578 53.185 60.5719C53.2422 60.4861 53.3567 60.4288 53.4712 60.4574C53.4712 60.4574 54.6449 60.6006 55.4179 59.9422C55.9045 59.5128 56.1621 58.8544 56.1621 57.9669C56.1621 57.8238 56.3053 57.6807 56.4484 57.6807C56.6202 57.6807 56.7347 57.8238 56.7347 57.9669C56.7347 59.0261 56.3912 59.8563 55.7614 60.3716C55.1602 60.8868 54.4159 61.03 53.9006 61.03C54.3014 61.8029 54.3587 62.4327 54.1297 62.9766C53.7861 63.7495 52.8701 63.9212 52.8415 63.9499C52.8415 63.9499 52.8701 63.9499 52.8415 63.9499Z" fill="black"/>
<path d="M52.8415 63.9499C52.6983 63.9499 52.5838 63.864 52.5552 63.7209C52.5266 63.5777 52.6411 63.406 52.7842 63.3773C52.7842 63.3773 53.4426 63.2628 53.643 62.7476C53.8434 62.3182 53.6716 61.6598 53.185 60.8868C53.1277 60.801 53.1277 60.6578 53.185 60.5719C53.2422 60.4861 53.3567 60.4288 53.4712 60.4574C53.4712 60.4574 54.6449 60.6006 55.4179 59.9422C55.9045 59.5128 56.1621 58.8544 56.1621 57.9669C56.1621 57.8238 56.3053 57.6807 56.4484 57.6807C56.6202 57.6807 56.7347 57.8238 56.7347 57.9669C56.7347 59.0261 56.3912 59.8563 55.7614 60.3716C55.1602 60.8868 54.4159 61.03 53.9006 61.03C54.3014 61.8029 54.3587 62.4327 54.1297 62.9766C53.7861 63.7495 52.8701 63.9212 52.8415 63.9499C52.8701 63.9499 52.8415 63.9499 52.8415 63.9499Z" stroke="black" stroke-width="0.5"/>
<path d="M57.509 62.6044C57.4517 62.6044 57.4231 62.6044 57.3658 62.6044C56.4784 62.5472 55.6483 61.8888 54.8753 60.6292C54.7895 60.4861 54.8467 60.3143 54.9612 60.2284C55.1043 60.1426 55.2761 60.1998 55.362 60.3143C56.0204 61.3735 56.7074 61.946 57.3945 62.0033C58.1101 62.0605 58.6254 61.488 58.6254 61.488C58.6827 61.4021 58.7972 61.3735 58.9117 61.4021C58.9117 61.4021 59.8277 61.6311 60.4003 61.2017C60.6865 61.0013 60.8297 60.6865 60.8583 60.2284C61.0014 58.5395 58.7686 57.7093 58.7399 57.7093C58.5968 57.652 58.5109 57.4803 58.5682 57.3372C58.6254 57.194 58.7972 57.1081 58.9403 57.1654C59.0548 57.194 61.6026 58.1387 61.4308 60.2571C61.3736 60.8868 61.1446 61.3449 60.7152 61.6311C60.114 62.0605 59.2838 62.0033 58.9403 61.946C58.7399 62.2037 58.2246 62.6044 57.509 62.6044Z" fill="black" stroke="black" stroke-width="0.5"/>
<path d="M60.0271 67.843C59.8839 67.843 59.7694 67.7285 59.7408 67.5854C59.7408 67.5568 59.3973 64.1216 57.7656 62.4613C57.6511 62.3468 57.6511 62.175 57.7656 62.0605C57.8801 61.946 58.0518 61.946 58.1663 62.0605C59.9698 63.864 60.3133 67.385 60.3133 67.5281C60.3419 67.6713 60.2274 67.8144 60.0271 67.843C60.0557 67.843 60.0271 67.843 60.0271 67.843Z" fill="black"/>
<path d="M60.0271 67.843C59.8839 67.843 59.7694 67.7285 59.7408 67.5854C59.7408 67.5568 59.3973 64.1216 57.7656 62.4613C57.6511 62.3468 57.6511 62.175 57.7656 62.0605C57.8801 61.946 58.0518 61.946 58.1663 62.0605C59.9698 63.864 60.3133 67.385 60.3133 67.5281C60.3419 67.6713 60.2274 67.8144 60.0271 67.843ZM60.0271 67.843C60.0557 67.843 60.0271 67.843 60.0271 67.843Z" stroke="black" stroke-width="0.5"/>
<path d="M66.6126 66.9842C66.584 66.9842 66.5554 66.9842 66.5267 66.9555C66.3836 66.8983 66.2977 66.7265 66.355 66.5834C66.6985 65.696 66.6985 64.9231 66.355 64.2933C65.8397 63.3486 64.6946 63.0623 64.6946 63.0623C64.6087 63.0337 64.5229 62.9765 64.4942 62.8906C64.4656 62.8047 64.4656 62.6902 64.5515 62.6329C64.6087 62.5757 65.6393 61.173 64.2939 59.6271C62.977 58.1099 61.2594 59.484 61.2022 59.5413C61.0877 59.6271 60.8873 59.6271 60.8014 59.5126C60.6869 59.3981 60.7155 59.1977 60.83 59.1119C61.5743 58.4821 63.3778 57.7092 64.7233 59.255C65.9542 60.6863 65.4962 62.0318 65.1813 62.6616C65.6393 62.8333 66.4122 63.2627 66.8416 64.0643C67.2424 64.8372 67.271 65.7532 66.8702 66.8124C66.8416 66.9269 66.7271 66.9842 66.6126 66.9842Z" fill="black" stroke="black" stroke-width="0.5"/>
<path d="M64.4938 59.7132C64.3507 59.7132 64.2076 59.5986 64.2076 59.4555C64.2076 59.2838 64.3221 59.1692 64.4652 59.1692C64.5511 59.1692 66.5836 59.0261 66.6981 57.2799C66.8126 55.5337 64.5225 55.1902 64.4366 55.1615C64.3221 55.1329 64.2362 55.0756 64.2076 54.9611C64.1789 54.8466 64.2076 54.7321 64.3221 54.6749C64.3221 54.6749 64.7515 54.3314 64.8087 53.7874C64.8374 53.4153 64.6656 53.0432 64.2935 52.6424C63.3774 51.6691 61.5739 52.6138 61.5739 52.6424C61.4308 52.7283 61.259 52.671 61.1732 52.5279C61.0873 52.3847 61.1445 52.213 61.2877 52.1271C61.3736 52.0699 63.4919 50.9534 64.6942 52.2416C65.1809 52.7569 65.4099 53.2722 65.3526 53.8161C65.324 54.1882 65.1809 54.4745 65.0377 54.7035C66.0397 54.9898 67.3851 55.7627 67.2706 57.3085C67.1847 59.112 65.4385 59.6845 64.4938 59.7132C64.5225 59.7132 64.5225 59.7132 64.4938 59.7132Z" fill="black"/>
<path d="M64.4938 59.7132C64.3507 59.7132 64.2076 59.5986 64.2076 59.4555C64.2076 59.2838 64.3221 59.1692 64.4652 59.1692C64.5511 59.1692 66.5836 59.0261 66.6981 57.2799C66.8126 55.5337 64.5225 55.1902 64.4366 55.1615C64.3221 55.1329 64.2362 55.0756 64.2076 54.9611C64.1789 54.8466 64.2076 54.7321 64.3221 54.6749C64.3221 54.6749 64.7515 54.3314 64.8087 53.7874C64.8374 53.4153 64.6656 53.0432 64.2935 52.6424C63.3774 51.6691 61.5739 52.6138 61.5739 52.6424C61.4308 52.7283 61.259 52.671 61.1732 52.5279C61.0873 52.3847 61.1445 52.213 61.2877 52.1271C61.3736 52.0699 63.4919 50.9534 64.6942 52.2416C65.1809 52.7569 65.4099 53.2722 65.3526 53.8161C65.324 54.1882 65.1809 54.4745 65.0377 54.7035C66.0397 54.9898 67.3851 55.7627 67.2706 57.3085C67.1847 59.112 65.4385 59.6845 64.4938 59.7132ZM64.4938 59.7132C64.5225 59.7132 64.5225 59.7132 64.4938 59.7132Z" stroke="black" stroke-width="0.5"/>
<path d="M72.3932 60.028C72.2787 60.028 72.1642 59.9421 72.1069 59.8276C71.7634 58.568 70.8187 57.8237 69.3301 57.5661C68.1564 57.3657 67.0686 57.5661 67.0686 57.5661C66.9255 57.5947 66.7537 57.4802 66.7251 57.3371C66.6965 57.1939 66.811 57.0222 66.9541 56.9936C67.0114 56.9936 71.7061 56.1348 72.6794 59.6558C72.7081 59.7989 72.6222 59.9707 72.4791 59.9993C72.4504 60.028 72.4218 60.028 72.3932 60.028Z" fill="black" stroke="black" stroke-width="0.5"/>
<path d="M70.5618 57.9095C70.4759 57.9095 70.4187 57.8809 70.3614 57.8236C70.2469 57.7091 70.2756 57.5374 70.3901 57.4229C71.163 56.7358 71.4779 56.0488 71.392 55.3618C71.1916 53.9591 69.2164 53.0144 69.2164 53.0144C69.1019 52.9571 69.0446 52.8426 69.0446 52.6995C69.0732 52.585 69.1878 52.4705 69.3023 52.4705H69.3595C70.1897 52.3846 70.5618 51.7548 70.6191 51.2109C70.6763 50.6956 70.5046 50.0086 69.7603 49.7223C68.7584 49.3502 67.4415 49.7223 67.4129 49.7223C67.2984 49.751 67.1553 49.6937 67.098 49.5792C67.0408 49.4647 67.0408 49.3216 67.1553 49.2357C67.1553 49.2357 67.7278 48.6632 67.6419 48.1192C67.5847 47.833 67.3557 47.5467 66.9263 47.3463C65.4663 46.602 63.2621 48.6059 63.2334 48.6345C63.1189 48.749 62.9472 48.7204 62.8327 48.6059C62.7182 48.4914 62.7468 48.3196 62.8613 48.2051C62.9758 48.1192 65.3804 45.915 67.2125 46.8311C67.8137 47.1459 68.1572 47.5467 68.2431 48.0334C68.3003 48.4055 68.1858 48.749 68.0427 49.0353C68.5866 48.978 69.3309 48.9494 70.0179 49.2071C71.0199 49.5792 71.3634 50.5239 71.2489 51.2968C71.163 51.8979 70.7908 52.5564 70.1324 52.8713C70.8195 53.3293 71.85 54.1594 72.0218 55.3045C72.1649 56.1633 71.7641 57.0221 70.8481 57.8523C70.705 57.8809 70.6191 57.9095 70.5618 57.9095Z" fill="black" stroke="black" stroke-width="0.5"/>
<path d="M71.4204 45.6861C71.3059 45.6861 71.22 45.6288 71.1628 45.5143C71.1055 45.3712 71.1628 45.1994 71.3059 45.1422C72.5082 44.541 73.4529 44.5696 73.9968 44.6842C73.7392 43.4532 73.8823 42.5085 74.3976 41.8788C74.9129 41.249 75.6571 41.1345 75.972 41.1058C76.6877 40.2757 76.8595 38.7585 76.4301 37.413C76.0293 36.1821 75.1991 35.3233 74.1399 35.1229C73.5102 35.0084 72.9662 35.0942 72.5082 35.4091C71.4777 36.1534 71.2773 37.8424 71.2773 37.8424C71.2773 37.9569 71.1914 38.0428 71.1055 38.0714C70.991 38.1 70.8765 38.0714 70.8193 38.0142C70.2181 37.4416 69.3593 37.2985 68.615 37.642C67.8707 37.9855 67.4127 38.7012 67.4127 39.5314C67.4127 39.7031 67.4127 39.8176 67.4127 39.8463C67.4127 39.9894 67.2982 40.1325 67.155 40.1612C66.9833 40.1612 66.8688 40.0466 66.8402 39.9035C66.8402 39.9035 66.8402 39.7604 66.8115 39.56C66.7829 38.5008 67.3841 37.5848 68.3574 37.1554C69.1875 36.7832 70.075 36.8691 70.7906 37.3271C70.9338 36.6973 71.3059 35.5809 72.1647 34.9797C72.7372 34.5503 73.4529 34.4358 74.2258 34.579C75.4854 34.8366 76.4873 35.8099 76.9453 37.2699C77.4606 38.873 77.203 40.6478 76.2869 41.6211C76.2297 41.6784 76.1438 41.707 76.0579 41.707C76.0579 41.707 75.285 41.6784 74.7983 42.2795C74.3403 42.8234 74.2831 43.7967 74.6266 45.0849C74.6552 45.1994 74.6266 45.3139 74.5121 45.3998C74.4262 45.4571 74.2831 45.4857 74.1972 45.4284C74.1686 45.3998 73.1953 44.8845 71.5063 45.7147C71.5063 45.6861 71.4777 45.6861 71.4204 45.6861Z" fill="black" stroke="black" stroke-width="0.5"/>
<path d="M75.6282 35.8958C75.5995 35.8958 75.5709 35.8958 75.5709 35.8958C75.4278 35.8672 75.3133 35.6954 75.3705 35.5523C75.3992 35.495 75.7713 33.9492 77.2885 33.1477C77.4316 33.0618 77.6034 33.119 77.6606 33.2622C77.7465 33.4053 77.6893 33.577 77.5461 33.6343C76.2579 34.2927 75.9144 35.6382 75.9144 35.6668C75.8858 35.8099 75.7713 35.8958 75.6282 35.8958Z" fill="black" stroke="black" stroke-width="0.5"/>
<path d="M70.9059 51.3542C70.82 51.3542 70.7341 51.3255 70.6769 51.2397C70.591 51.0965 70.6196 50.9248 70.7341 50.8389C72.3086 49.7511 73.7686 49.3217 75.0854 49.5507C76.0587 49.7225 76.6885 50.2377 77.032 50.5813C77.3183 50.2377 77.8335 49.9801 78.1484 49.837C77.5186 48.5774 77.3755 47.4896 77.7477 46.5449C78.1484 45.5144 79.0645 44.9991 79.5511 44.7701C78.3202 42.1078 76.0587 41.6784 76.0587 41.6784C75.9156 41.6498 75.801 41.5066 75.8297 41.3349C75.8583 41.1917 76.0014 41.0772 76.1732 41.1059C76.2877 41.1345 78.8927 41.6498 80.2095 44.7987C80.2382 44.8846 80.2382 44.9704 80.2095 45.0277C80.1809 45.085 80.1237 45.1422 80.0378 45.1708C80.0378 45.1708 78.7496 45.5716 78.2916 46.7167C77.948 47.5468 78.1198 48.606 78.8068 49.8083C78.8355 49.8942 78.8641 49.9801 78.8355 50.066C78.8068 50.1519 78.7496 50.2091 78.6637 50.2377C78.177 50.3809 77.4614 50.753 77.3755 51.0965C77.3469 51.211 77.261 51.2969 77.1465 51.3255C77.032 51.3542 76.9175 51.2969 76.8602 51.211C76.8602 51.211 76.2304 50.3236 74.9995 50.0946C73.8544 49.8942 72.5376 50.295 71.1063 51.2969C71.0204 51.3255 70.9632 51.3542 70.9059 51.3542Z" fill="black" stroke="black" stroke-width="0.5"/>
<path d="M83.6727 45.9437C83.5868 45.9437 83.5009 45.9151 83.4437 45.8292C83.3864 45.7719 82.2986 44.541 79.9799 45.1994C79.8367 45.228 79.665 45.1422 79.6363 44.999C79.6077 44.8559 79.6936 44.6841 79.8367 44.6555C81.7547 44.1116 82.957 44.7414 83.5295 45.1422C84.5601 42.3368 86.564 42.5085 86.6498 42.5085C86.793 42.5371 86.9075 42.6516 86.9075 42.8234C86.8789 42.9665 86.7644 43.081 86.5926 43.081C86.5067 43.081 84.7605 42.9379 83.9303 45.7147C83.9017 45.8292 83.8158 45.8865 83.7013 45.9151C83.7013 45.9437 83.7013 45.9437 83.6727 45.9437Z" fill="black" stroke="black" stroke-width="0.5"/>
<path d="M78.7207 57.7378C78.6349 57.7378 78.5776 57.7092 78.5203 57.652C78.4058 57.5374 78.4058 57.3657 78.5203 57.2512C78.5203 57.2512 79.4078 56.3924 79.2074 55.5622C79.0643 54.9611 78.3486 54.4744 77.1463 54.1309C77.0604 54.1023 76.9745 54.0164 76.9459 53.9305C76.9173 53.816 76.9459 53.7301 77.0318 53.6442C77.1463 53.5583 78.0337 52.6423 76.86 51.2682C76.7455 51.1537 76.7741 50.9533 76.8886 50.8674C77.0031 50.7529 77.2035 50.7816 77.2894 50.8961C78.3486 52.1556 78.0051 53.1862 77.6902 53.7015C78.8925 54.1023 79.5795 54.7034 79.7513 55.4477C80.0376 56.5928 78.9498 57.652 78.8925 57.6806C78.8639 57.7092 78.778 57.7378 78.7207 57.7378Z" fill="black" stroke="black" stroke-width="0.5"/>
<path d="M86.0773 53.0431C85.9914 53.0431 85.9055 53.0145 85.8483 52.9286C84.3597 50.982 82.0123 52.7282 81.8978 52.8141C81.8119 52.8713 81.6974 52.9 81.6115 52.8427C81.5257 52.7855 81.4398 52.6996 81.4398 52.6137C81.3825 51.7835 81.0963 51.1824 80.6096 50.7816C79.7794 50.1232 78.5771 50.2663 78.5771 50.2663C78.434 50.2949 78.2622 50.1804 78.2622 50.0373C78.2336 49.8942 78.3481 49.7224 78.4912 49.7224C78.5485 49.7224 79.9226 49.522 80.9531 50.3522C81.4684 50.753 81.8119 51.3541 81.9264 52.1271C83.0429 51.4686 84.9608 50.9247 86.249 52.6137C86.3349 52.7282 86.3349 52.9286 86.1918 53.0145C86.1918 53.0145 86.1345 53.0431 86.0773 53.0431Z" fill="black" stroke="black" stroke-width="0.5"/>
<path d="M78.5481 43.2242C78.5195 43.2242 78.4908 43.2242 78.4908 43.2242C78.3477 43.1955 78.2332 43.0238 78.2904 42.8806C78.3191 42.7948 78.8057 40.934 80.1512 40.3615C80.4947 40.2184 80.8668 40.1611 81.2676 40.2184C80.8382 39.6458 80.4374 38.9015 80.5233 38.1C80.6092 37.2985 81.1817 36.6114 82.1837 36.0961C82.3268 36.0103 82.4986 36.0675 82.5558 36.2106C82.6417 36.3538 82.5845 36.5255 82.4413 36.5828C81.6111 37.0122 81.1531 37.5561 81.0672 38.1573C80.9241 39.4168 82.4699 40.6764 82.4699 40.6764C82.5845 40.7623 82.6131 40.934 82.5272 41.0485C82.4413 41.163 82.2696 41.2203 82.1551 41.1344C81.468 40.7336 80.8669 40.6478 80.3516 40.8481C79.2638 41.3062 78.8344 42.9665 78.8344 42.9665C78.7771 43.1383 78.6626 43.2242 78.5481 43.2242Z" fill="black" stroke="black" stroke-width="0.5"/>
<path d="M11.8492 64.9517C11.3053 64.9517 10.7041 64.8658 10.0457 64.6941C9.90258 64.6654 9.8167 64.4937 9.84533 64.3506C9.87396 64.2074 10.0457 64.1215 10.1888 64.1502C11.7633 64.5796 12.9656 64.4651 13.7385 63.778C15.084 62.6043 14.7977 60.1138 14.7977 60.0852C14.7977 59.9707 14.8264 59.8562 14.9409 59.7989C15.0267 59.7417 15.1699 59.7417 15.2557 59.7989C16.1432 60.4001 17.9466 60.2856 19.1203 59.5413C19.6929 59.1978 20.3799 58.5394 20.2368 57.4802C20.1509 56.8504 19.9219 56.3924 19.5211 56.1061C18.7768 55.6194 17.7176 55.8771 17.689 55.9057C17.5745 55.9343 17.4886 55.9057 17.4027 55.8198C17.3169 55.734 17.3169 55.6194 17.3455 55.5336C17.6318 54.6748 17.6031 54.045 17.2882 53.6156C16.7157 52.8999 15.4275 52.9572 15.4275 52.9572C15.2844 52.9572 15.1412 52.8427 15.1126 52.6995C15.1126 52.5278 15.2271 52.4133 15.3703 52.3846C15.4275 52.3846 16.9733 52.2701 17.7176 53.2434C18.0898 53.7301 18.2043 54.4171 18.0039 55.2473C18.4619 55.1901 19.2062 55.2187 19.8074 55.6195C20.3513 55.9916 20.6948 56.5928 20.7807 57.3943C20.9238 58.4535 20.4085 59.3982 19.4066 60.0279C18.2329 60.7436 16.5153 60.944 15.3989 60.5146C15.4275 61.402 15.2844 63.1769 14.1107 64.1788C13.5382 64.6941 12.7939 64.9517 11.8492 64.9517Z" fill="black" stroke="black" stroke-width="0.5"/>
<path d="M12.9074 73.1103C12.7356 73.1103 12.6211 72.9672 12.6211 72.8241C12.6211 72.6523 12.7356 72.5378 12.9074 72.5378C12.9646 72.5378 16.6002 72.5092 17.001 70.4195C17.0868 70.0187 17.001 69.5607 16.8006 69.1313C16.5429 68.616 15.999 67.7858 15.3692 67.8431C15.2547 67.8431 15.1116 67.7858 15.083 67.6713C15.0257 67.5568 15.083 67.4137 15.1689 67.3278C15.1975 67.3278 16.6861 66.1541 16.5716 64.8945C16.4857 64.1502 15.8559 63.4918 14.6822 62.9193C14.5391 62.862 14.4818 62.6903 14.5391 62.5472C14.5963 62.404 14.7681 62.3468 14.9112 62.404C16.2853 63.0624 17.0296 63.864 17.1155 64.8373C17.23 65.8965 16.4857 66.8698 15.9704 67.385C16.5716 67.6427 17.0296 68.3011 17.3158 68.8736C17.5735 69.3889 17.688 69.9901 17.5735 70.5053C17.0868 73.0531 13.1364 73.1103 12.9074 73.1103Z" fill="black" stroke="black" stroke-width="0.5"/>
<path d="M19.0622 74.0836C19.005 74.0836 18.9764 74.0836 18.9191 74.0549C18.776 73.969 18.7187 73.7973 18.8046 73.6542C18.8046 73.6542 19.1195 73.053 18.8905 72.3373C18.6901 71.7075 18.0889 71.1636 17.1729 70.7342C17.0298 70.677 16.9725 70.5052 17.0298 70.3621C17.087 70.219 17.2588 70.1617 17.4019 70.219C18.4897 70.7342 19.1767 71.3927 19.4344 72.1942C19.7493 73.1389 19.3199 73.9118 19.2912 73.969C19.2626 74.0263 19.1481 74.0836 19.0622 74.0836Z" fill="black" stroke="black" stroke-width="0.5"/>
<path d="M17.3166 69.7038C17.2021 69.7038 17.0876 69.6179 17.0589 69.5034C17.0017 69.3603 17.0876 69.1885 17.2307 69.1313C19.0628 68.5301 18.7479 67.2992 18.7193 67.2705C18.6907 67.156 18.7193 67.0415 18.8052 66.9843C18.891 66.8984 19.0056 66.8984 19.0914 66.927C19.6926 67.156 20.2079 67.2419 20.6659 67.2419C21.2957 67.2419 21.811 66.7839 21.8682 66.1827C21.8968 65.9251 21.811 65.6961 21.6678 65.4957C21.0953 64.8086 19.6353 64.6941 19.6067 64.6941C19.4636 64.6941 19.3777 64.5796 19.3491 64.4365C19.3204 64.2934 19.4063 64.1789 19.5495 64.1216H19.5781C20.0647 63.9498 20.3796 63.5491 20.4941 63.0624C20.6086 62.5471 20.4369 62.0032 20.0647 61.6025C19.1487 60.715 17.5742 60.6292 17.5742 60.6292C17.4025 60.6292 17.288 60.486 17.288 60.3429C17.288 60.1711 17.4311 60.0566 17.5742 60.0566C17.6601 60.0566 19.3777 60.1425 20.4655 61.1731C20.9808 61.6884 21.2098 62.4326 21.0667 63.1483C20.9808 63.5777 20.7518 63.9498 20.4655 64.2075C21.0094 64.3506 21.7251 64.6083 22.1258 65.0949C22.3835 65.4098 22.498 65.7819 22.4694 66.2113C22.3835 67.0988 21.6106 67.7858 20.7231 67.7858C20.3224 67.7858 19.8644 67.7285 19.3491 67.5568C19.3204 68.1293 19.0342 69.1026 17.4311 69.6465C17.4025 69.7038 17.3738 69.7038 17.3166 69.7038Z" fill="black" stroke="black" stroke-width="0.5"/>
<path d="M26.1054 71.3355C26.1054 71.3355 27.2791 68.9595 25.1035 68.0148L26.1054 71.3355Z" fill="#FEFFFA"/>
<path d="M26.1054 71.3355C26.1054 71.3355 27.2791 68.9595 25.1035 68.0148" stroke="black" stroke-width="0.5"/>
<path d="M26.1044 71.6218C26.0472 71.6218 26.0186 71.6218 25.9899 71.5931C25.8468 71.5359 25.7896 71.3641 25.8754 71.221C25.8754 71.221 26.3907 70.1904 26.0472 69.303C25.8754 68.845 25.5319 68.5015 25.0166 68.2724C24.8735 68.2152 24.8162 68.0434 24.8735 67.9003C24.9308 67.7572 25.1025 67.6999 25.2456 67.7572C25.9327 68.0434 26.3907 68.5015 26.5911 69.1026C26.9919 70.2191 26.4193 71.4214 26.3907 71.45C26.3048 71.5645 26.219 71.6218 26.1044 71.6218Z" fill="black" stroke="black" stroke-width="0.5"/>
</svg>
