<svg width="89" height="80" viewBox="0 0 89 80" fill="none" xmlns="http://www.w3.org/2000/svg">
<g clip-path="url(#clip0)">
<path d="M79.2396 0.286255H12.4824V60.4307H79.2396V0.286255Z" fill="#73B7EA" stroke="black" stroke-width="0.5"/>
<path d="M79.2387 60.7169H12.4816C12.3098 60.7169 12.1953 60.6024 12.1953 60.4307V0.286266C12.1953 0.114506 12.3098 0 12.4816 0H79.2387C79.4105 0 79.525 0.114506 79.525 0.286266V60.4307C79.525 60.5738 79.3818 60.7169 79.2387 60.7169ZM12.7678 60.1444H78.9524V0.572531H12.7678V60.1444Z" fill="black" stroke="black" stroke-width="0.5"/>
<path d="M22.8153 39.3042L30.0292 37.7584V7.84363H72.3106V22.6149V25.1627V27.4242C72.3106 27.4242 73.8279 27.5387 74.5435 27.9109C77.4348 29.4567 76.4329 32.4052 76.4329 32.4052C76.4329 32.4052 78.1218 31.0025 79.7822 32.1762C81.4425 33.3499 81.328 35.3824 81.328 35.3824C81.328 35.3824 83.6181 34.9816 85.0208 38.0447C85.0208 38.0447 86.6812 37.0714 87.3682 38.5313C88.0553 39.9913 86.9961 41.2795 85.6792 41.852C85.6792 41.852 88.6278 42.1383 87.9121 44.915C87.9121 44.915 87.3968 46.4036 86.7098 47.0907C86.7098 47.0907 89.1431 47.3197 88.7423 49.438C88.3415 51.5278 85.1353 51.7854 85.1353 51.7854C85.1353 51.7854 87.082 54.4477 83.933 55.5069C83.933 55.5069 86.7957 57.1672 85.4789 58.9421C84.1334 60.7169 81.1562 58.713 81.1562 58.713C81.1562 58.713 78.2936 60.5451 77.8069 56.4802C77.8069 56.4802 76.5474 57.1672 74.6866 56.4802C74.6866 56.4802 76.5474 58.5699 73.971 59.2569C73.971 59.2569 72.7114 59.6291 71.5091 58.7703C71.5091 58.7703 71.8812 60.5165 70.1637 61.2036C70.1637 61.2036 73.3698 62.2055 72.7114 64.4384C72.053 66.6712 69.2762 65.3258 69.2762 65.3258C69.2762 65.3258 70.135 67.5014 67.988 67.6732C66.0414 67.8449 65.7265 65.7266 65.7265 65.7266C65.7265 65.7266 64.7246 66.9861 62.8925 65.8411C62.8925 65.8411 63.3505 67.7018 61.3467 67.9308C61.3467 67.9308 60.4879 68.3029 59.1138 66.5567C59.1138 66.5567 59.4287 68.2743 58.1119 68.99C57.3676 69.3908 56.4515 69.3335 55.8217 68.7896C55.3923 68.4174 55.0202 67.759 55.1347 66.614C55.1347 66.614 51.4419 68.1598 51.8999 62.6635C51.8999 62.6635 50.7548 63.0643 49.6384 61.4898C49.6384 61.4898 50.7835 64.3238 47.6345 64.2093C47.6345 64.2093 48.3216 66.5567 45.6021 65.9556C45.6021 65.9556 45.8311 68.99 42.8825 68.0167C42.8825 68.0167 42.7108 70.3927 40.4493 68.532C40.4493 68.532 39.4473 70.2209 37.558 68.9041C37.558 68.9041 36.4988 72.0244 34.4949 69.1045C34.4949 69.1045 32.6915 70.6503 31.3746 68.9613C31.0025 68.4747 30.5158 68.1026 29.9433 67.9022C29.3422 67.7018 28.7124 67.7018 28.5979 68.5892C28.1112 71.7954 25.1627 70.3641 25.1627 70.3641C24.9337 73.5416 20.9546 71.8526 20.9546 71.8526C19.924 73.5989 18.1205 72.8259 18.1205 72.8259C17.6339 76.8623 14.7712 75.0588 14.7712 75.0588C14.7712 75.0588 11.7654 77.0913 10.4486 75.2878C9.10317 73.513 11.9945 71.8526 11.9945 71.8526C8.84553 70.7934 10.7921 68.1312 10.7921 68.1312C10.7921 68.1312 7.72909 68.3029 7.32832 66.1846C6.92755 64.0662 9.21768 63.4364 9.21768 63.4364C9.07454 63.2933 8.90278 63.1215 8.73102 62.9498C7.09931 61.3467 7.95811 58.5699 10.191 58.1978C10.2196 58.1978 10.2196 58.1978 10.2196 58.1978C8.87416 57.6252 7.8436 56.337 8.53064 54.8771C9.21768 53.4171 10.878 54.3904 10.878 54.3904C12.2521 51.3274 14.5708 51.7282 14.5708 51.7282C14.5708 51.7282 14.4563 49.6957 16.1167 48.522C17.777 47.3483 19.466 48.751 19.466 48.751C19.466 48.751 18.4641 45.8025 21.3553 44.2566L22.8153 39.3042Z" fill="#FEF1BE" stroke="black" stroke-width="0.5"/>
<path d="M11.9369 76.2611C11.2785 76.2611 10.6488 76.0321 10.1621 75.4023C9.81858 74.9157 9.67545 74.4004 9.78996 73.8851C9.96172 72.9977 10.7919 72.2534 11.3072 71.8526C10.5915 71.5091 10.1335 71.0511 9.93309 70.4213C9.67545 69.6198 9.96172 68.8182 10.2194 68.3316C9.27468 68.2743 7.29945 67.9594 6.95593 66.156C6.64103 64.5815 7.72884 63.6368 8.61627 63.236C8.55901 63.1788 8.50176 63.1215 8.44451 63.0643C7.61434 62.2341 7.32807 61.0604 7.67159 59.944C7.95786 59.0566 8.55901 58.3695 9.38918 58.026C8.78803 57.6252 8.33 57.11 8.10099 56.5374C7.87198 55.9363 7.9006 55.3065 8.18687 54.6767C8.41588 54.2187 8.73077 53.9038 9.16017 53.7893C9.7327 53.6175 10.3052 53.7893 10.6488 53.9324C11.7938 51.6137 13.4828 51.356 14.1698 51.356C14.1984 50.6976 14.4561 49.209 15.8302 48.2357C17.0325 47.3769 18.2348 47.7491 18.9505 48.1212C18.836 47.1193 18.9218 45.2013 21.0116 44.0276L22.5574 39.1897C22.586 39.1038 22.6719 39.018 22.7578 38.9893L29.7427 37.5008V7.84364C29.7427 7.67188 29.8572 7.55737 30.0289 7.55737H72.3104C72.4821 7.55737 72.5966 7.67188 72.5966 7.84364V27.1666C73.0833 27.2238 74.1139 27.367 74.6864 27.6532C76.8906 28.8269 76.9765 30.7735 76.862 31.8041C77.549 31.4606 78.78 31.0884 79.9823 31.9186C81.3564 32.8919 81.5854 34.3805 81.6427 35.0389C82.3583 35.0389 84.0187 35.2965 85.1637 37.6153C85.5072 37.4721 86.1084 37.3004 86.6523 37.4721C87.0817 37.6153 87.3966 37.9015 87.6256 38.3596C87.9119 38.9607 87.9405 39.6191 87.7115 40.2203C87.4825 40.7928 87.0531 41.3081 86.4519 41.7089C86.9099 41.8806 87.4825 42.1669 87.8832 42.7108C88.3126 43.312 88.3985 44.0562 88.1695 44.9437C88.1409 45.0295 87.7687 46.0887 87.1962 46.8616C87.6256 46.9762 88.2554 47.2338 88.6562 47.7777C88.9997 48.2357 89.1142 48.8083 88.971 49.4667C88.6275 51.2701 86.5092 51.814 85.5645 51.9858C85.8221 52.4725 86.137 53.3026 85.8794 54.1328C85.679 54.734 85.221 55.2206 84.5053 55.5641C85.0492 55.9649 85.8508 56.6806 86.0225 57.5966C86.137 58.1405 85.9939 58.6558 85.6504 59.1138C84.3335 60.86 81.7572 59.4287 81.0987 59.0279C80.7266 59.2283 79.7819 59.6291 78.8945 59.1997C78.1788 58.8562 77.7208 58.0833 77.5204 56.8523C77.091 56.9955 76.3181 57.1386 75.3162 56.9382C75.5166 57.339 75.6597 57.8256 75.5166 58.3409C75.3448 58.9134 74.8295 59.3142 73.9994 59.5146C73.9421 59.5146 72.9115 59.8295 71.7951 59.2856C71.7665 59.8867 71.5375 60.631 70.8218 61.1463C71.9955 61.6902 73.4554 62.8353 72.9688 64.4956C72.797 65.1254 72.4249 65.5548 71.9096 65.8124C71.1653 66.1559 70.2493 65.9556 69.6767 65.7838C69.734 66.1846 69.7626 66.7285 69.4764 67.1865C69.1901 67.6445 68.7034 67.9022 67.9878 67.9594C66.5278 68.0739 65.8122 67.072 65.5259 66.2418C65.0965 66.5281 64.2949 66.843 63.1785 66.3563C63.1785 66.6712 63.0926 67.072 62.835 67.4441C62.5201 67.8735 62.0334 68.1598 61.375 68.2457C61.1746 68.3029 60.459 68.4174 59.3998 67.3869C59.3425 68.0167 59.0849 68.8182 58.2261 69.3049C57.3673 69.7629 56.3081 69.677 55.6211 69.0759C55.2203 68.7323 54.7909 68.1312 54.8195 67.1006C54.3043 67.2151 53.4455 67.301 52.7298 66.7857C51.871 66.1846 51.4989 64.925 51.6134 63.0929C51.2699 63.0929 50.7259 63.007 50.1534 62.549C50.182 62.9498 50.0962 63.4078 49.8385 63.8086C49.495 64.3238 48.8652 64.5815 48.0064 64.6101C48.0637 64.9823 48.0351 65.5834 47.6343 66.0128C47.2621 66.385 46.6896 66.5281 45.9167 66.4136C45.8881 66.9002 45.7449 67.759 45.1151 68.2457C44.6285 68.6178 43.9701 68.7037 43.1399 68.5033C43.054 68.8469 42.8536 69.3621 42.367 69.5625C41.8803 69.7629 41.2792 69.5911 40.5349 69.0472C40.3345 69.3049 39.9337 69.6484 39.3898 69.7629C38.8746 69.8774 38.302 69.7629 37.7295 69.4194C37.5291 69.8774 37.0711 70.6217 36.3268 70.7076C35.7256 70.7935 35.0958 70.4213 34.4661 69.5911C34.1225 69.8202 33.4355 70.1923 32.6912 70.1064C32.1187 70.0492 31.6034 69.7629 31.174 69.219C30.8019 68.761 30.3725 68.4174 29.8572 68.2457C29.6282 68.1598 29.3133 68.1026 29.1415 68.2171C29.027 68.3029 28.9411 68.4461 28.8839 68.7037C28.7407 69.7343 28.3113 70.4499 27.6529 70.7935C26.8514 71.2229 25.9353 70.9938 25.4201 70.8221C25.3056 71.5091 24.9907 71.9958 24.4754 72.3107C23.359 72.9977 21.6986 72.4824 21.0975 72.2534C20.3245 73.3985 19.1222 73.4271 18.3779 73.2553C18.1775 74.4863 17.7195 75.2592 17.0039 75.6027C16.1451 76.0035 15.1718 75.6027 14.7996 75.431C14.2843 75.6027 13.082 76.2611 11.9369 76.2611ZM10.706 67.8163C10.8205 67.8163 10.9064 67.8735 10.9636 67.9594C11.0209 68.0453 11.0209 68.1884 10.935 68.2743C10.935 68.2743 10.1621 69.3621 10.477 70.3068C10.6488 70.8507 11.164 71.2801 12.0228 71.5664C12.1373 71.595 12.1946 71.7095 12.2232 71.7954C12.2232 71.9099 12.166 72.0244 12.0801 72.0816C12.0515 72.0816 10.5915 72.9691 10.3625 74.0283C10.2766 74.4004 10.3625 74.7439 10.6201 75.0874C11.7652 76.6333 14.542 74.8012 14.5706 74.7726C14.6565 74.7153 14.7996 74.7153 14.8855 74.7726C14.8855 74.7726 15.8874 75.4023 16.689 75.0016C17.2901 74.7153 17.6623 73.971 17.8054 72.7401C17.8054 72.6542 17.8626 72.5683 17.9485 72.5397C18.0344 72.4824 18.1203 72.4824 18.2062 72.5397C18.2634 72.5683 19.8093 73.1981 20.6967 71.7095C20.7826 71.595 20.9257 71.5377 21.0688 71.595C21.0975 71.595 23.0727 72.4252 24.1605 71.7668C24.5899 71.5091 24.8189 71.0511 24.8762 70.3641C24.8762 70.2782 24.9334 70.1923 25.0193 70.135C25.1052 70.0778 25.1911 70.0778 25.2769 70.135C25.2769 70.135 26.4792 70.7076 27.3667 70.2495C27.8533 69.9919 28.1682 69.4194 28.3113 68.5892C28.3686 68.1598 28.5404 67.8449 28.8266 67.6732C29.1415 67.5014 29.5423 67.4728 30.0289 67.6732C30.6301 67.8735 31.174 68.2743 31.6034 68.8468C31.9183 69.2476 32.2904 69.4766 32.7198 69.5339C33.55 69.6198 34.3229 68.9614 34.3229 68.9614C34.3802 68.9041 34.4661 68.8755 34.5519 68.9041C34.6378 68.9041 34.6951 68.9614 34.7523 69.0186C35.2962 69.8202 35.8115 70.1923 36.2409 70.135C36.8134 70.0492 37.2142 69.219 37.3287 68.9041C37.3573 68.8182 37.4146 68.761 37.5005 68.7323C37.5864 68.7037 37.6722 68.7323 37.7581 68.761C38.302 69.1331 38.8173 69.2762 39.2753 69.1904C39.9051 69.0472 40.2486 68.5033 40.2486 68.4747C40.2773 68.3888 40.3631 68.3602 40.449 68.3316C40.5349 68.3029 40.6208 68.3316 40.678 68.3888C41.3078 68.9041 41.8231 69.1331 42.138 68.99C42.4815 68.8468 42.6246 68.2743 42.6246 68.0453C42.6246 67.9594 42.6819 67.8735 42.7391 67.8163C42.825 67.759 42.9109 67.759 42.9968 67.7877C43.7697 68.0453 44.3708 68.0167 44.7716 67.7304C45.43 67.2151 45.3442 66.0414 45.3442 66.0414C45.3442 65.9556 45.3728 65.8697 45.43 65.8124C45.4873 65.7552 45.6018 65.7266 45.6877 65.7552C46.203 65.8697 46.89 65.9269 47.2335 65.5834C47.6057 65.1827 47.4053 64.3811 47.4053 64.3811C47.3766 64.2952 47.4053 64.2093 47.4625 64.1235C47.5198 64.0376 47.6057 64.009 47.6915 64.009C48.5503 64.0376 49.1229 63.8658 49.3805 63.4651C49.8385 62.8066 49.4091 61.7188 49.4091 61.6902C49.3519 61.5471 49.4091 61.4039 49.5236 61.3467C49.6381 61.2894 49.8099 61.3181 49.8958 61.4326C50.8691 62.8066 51.7851 62.5204 51.8424 62.4918C51.9283 62.4631 52.0428 62.4918 52.1 62.549C52.1859 62.6063 52.2145 62.6921 52.2145 62.8066C52.0714 64.6101 52.3577 65.8411 53.0733 66.3563C53.9035 66.9575 55.0199 66.4995 55.0486 66.4708C55.1344 66.4422 55.249 66.4422 55.3348 66.4995C55.4207 66.5567 55.4493 66.6712 55.4493 66.7571C55.3635 67.6159 55.5352 68.2457 56.0219 68.6751C56.5658 69.1331 57.3387 69.1904 57.9971 68.8468C59.1135 68.2457 58.8559 66.7285 58.8559 66.6999C58.8273 66.5567 58.8845 66.4422 59.0277 66.385C59.1422 66.3277 59.2853 66.3563 59.3712 66.4708C60.5449 67.9594 61.2605 67.759 61.2605 67.759C61.2892 67.759 61.3178 67.7304 61.3178 67.7304C61.8331 67.6732 62.2052 67.4728 62.4056 67.1865C62.7491 66.6712 62.606 65.9842 62.606 65.9842C62.5774 65.8697 62.6346 65.7552 62.7205 65.6979C62.8064 65.6407 62.9495 65.612 63.0354 65.6979C64.6098 66.6712 65.4686 65.6693 65.4973 65.6407C65.5831 65.5548 65.6976 65.5262 65.7835 65.5548C65.898 65.5834 65.9839 65.6693 65.9839 65.7838C65.9839 65.8697 66.2702 67.6159 67.9305 67.4728C68.4458 67.4441 68.7893 67.2724 68.9897 66.9575C69.3332 66.385 68.9897 65.5262 68.9897 65.4975C68.9324 65.383 68.9611 65.2685 69.047 65.1826C69.1328 65.0968 69.2473 65.0681 69.3619 65.1254C69.3619 65.1254 70.7359 65.7552 71.652 65.3544C72.0241 65.1826 72.2531 64.8678 72.3963 64.4097C72.9688 62.4631 70.0775 61.5471 70.0489 61.5184C69.9344 61.4898 69.8485 61.3753 69.8485 61.2608C69.8485 61.1463 69.9058 61.0318 70.0203 60.9745C71.4802 60.402 71.1939 58.9421 71.1939 58.8848C71.1653 58.7703 71.2226 58.6558 71.3085 58.5985C71.3943 58.5413 71.5375 58.5413 71.6233 58.5985C72.7112 59.3428 73.799 59.0566 73.8562 59.0566C74.5146 58.8848 74.8868 58.6272 75.0013 58.255C75.173 57.7111 74.6578 56.9668 74.4574 56.7378C74.3715 56.6519 74.3715 56.5088 74.4287 56.3943C74.5146 56.2798 74.6291 56.2512 74.7723 56.2798C76.4612 56.9096 77.6063 56.3084 77.6636 56.3084C77.7494 56.2512 77.8353 56.2512 77.9212 56.3084C78.0071 56.3657 78.0643 56.4229 78.0643 56.5374C78.2075 57.7397 78.5796 58.5127 79.1808 58.7989C79.9823 59.1711 80.9842 58.5699 80.9842 58.5699C81.0701 58.5127 81.2132 58.5127 81.2991 58.5699C81.3278 58.5985 84.0759 60.4306 85.2496 58.8848C85.5072 58.5413 85.5931 58.1978 85.5072 57.8256C85.2782 56.7664 83.7896 55.879 83.7896 55.879C83.7038 55.8218 83.6465 55.7073 83.6465 55.5927C83.6465 55.4782 83.7324 55.3924 83.8469 55.3637C84.6771 55.0775 85.1923 54.6481 85.3927 54.1042C85.7076 53.1595 84.9347 52.1003 84.9347 52.0717C84.8775 51.9858 84.8775 51.8713 84.9061 51.7854C84.9633 51.6995 85.0492 51.6423 85.1351 51.6137C85.1637 51.6137 88.1123 51.356 88.4844 49.4953C88.5703 49.0086 88.513 48.5792 88.2554 48.2644C87.7687 47.6059 86.7095 47.4914 86.7095 47.4914C86.595 47.4914 86.5092 47.4056 86.4805 47.291C86.4519 47.1765 86.4805 47.062 86.5378 47.0048C87.1676 46.375 87.6829 44.9437 87.6829 44.915C87.8546 44.1994 87.7974 43.6268 87.4825 43.1688C86.9099 42.3673 85.7076 42.2241 85.7076 42.2241C85.5645 42.2241 85.4786 42.1096 85.45 41.9951C85.4214 41.8806 85.5072 41.7375 85.6217 41.6802C86.3947 41.3367 87.0244 40.7928 87.2535 40.163C87.4252 39.705 87.3966 39.2184 87.1676 38.7603C87.0244 38.4454 86.8241 38.2451 86.5378 38.1592C85.9366 37.9874 85.221 38.3882 85.221 38.3882C85.1637 38.4168 85.0778 38.4454 84.992 38.4168C84.9061 38.3882 84.8488 38.3309 84.8202 38.2737C83.5606 35.4683 81.5281 35.7545 81.4423 35.7832C81.3564 35.8118 81.2705 35.7832 81.2133 35.7259C81.156 35.6687 81.1274 35.5828 81.1274 35.4969C81.1274 35.4683 81.2132 33.6075 79.7247 32.5484C78.2647 31.5178 76.7761 32.7201 76.7189 32.7774C76.633 32.8633 76.4899 32.8633 76.3754 32.806C76.2608 32.7201 76.2322 32.6056 76.2608 32.4911C76.2895 32.3766 77.1483 29.7716 74.5146 28.3403C73.9994 28.054 72.797 27.9109 72.3963 27.8822C72.2531 27.8822 72.1386 27.7391 72.1386 27.596V8.1299H30.3152V37.7584C30.3152 37.9015 30.2293 38.016 30.0862 38.0447L23.0441 39.5619L21.5268 44.3425C21.4982 44.3998 21.441 44.4856 21.3837 44.5143C18.7501 45.917 19.6089 48.5506 19.6375 48.6651C19.6661 48.7796 19.6375 48.9228 19.523 48.98C19.4085 49.0659 19.2654 49.0373 19.1795 48.9514C19.1222 48.8941 17.6336 47.6918 16.1737 48.7224C14.6851 49.7816 14.771 51.6423 14.771 51.6709C14.771 51.7568 14.7424 51.8427 14.6851 51.8999C14.6278 51.9572 14.542 51.9858 14.4561 51.9572C14.3702 51.9286 12.3377 51.6423 11.0782 54.4477C11.0495 54.5336 10.9923 54.5908 10.9064 54.5908C10.8205 54.6194 10.7346 54.6194 10.6774 54.5622C10.6774 54.5622 9.96172 54.1614 9.36056 54.3332C9.10292 54.4191 8.90253 54.6194 8.73077 54.9343C8.50176 55.421 8.47313 55.879 8.64489 56.337C8.87391 56.9668 9.47506 57.5394 10.2766 57.8542C10.3911 57.9115 10.477 58.026 10.4484 58.1405C10.4197 58.255 10.3339 58.3695 10.2194 58.3982H10.1907C9.24605 58.5699 8.53039 59.1997 8.24412 60.1157C7.95786 61.0318 8.18687 62.0051 8.87391 62.6635C9.04567 62.8353 9.21743 63.007 9.36056 63.1502C9.44644 63.236 9.44644 63.3219 9.44644 63.4364C9.44644 63.5509 9.33193 63.6082 9.24605 63.6368C9.16017 63.6654 7.21357 64.238 7.55708 66.0701C7.87198 67.9308 10.6488 67.8163 10.706 67.8163Z" fill="black" stroke="black" stroke-width="0.5"/>
<path d="M22.8148 16.8896H19.4082V26.1647H22.8148V16.8896Z" fill="#73B7EA" stroke="black" stroke-width="0.5"/>
<path d="M22.8139 26.4796H19.4074C19.2356 26.4796 19.1211 26.3651 19.1211 26.1933V16.8897C19.1211 16.7179 19.2356 16.6034 19.4074 16.6034H22.8139C22.9857 16.6034 23.1002 16.7179 23.1002 16.8897V26.1647C23.1002 26.3364 22.9857 26.4796 22.8139 26.4796ZM19.6936 25.907H22.5277V17.1759H19.6936V25.907Z" fill="black" stroke="black" stroke-width="0.5"/>
<path d="M83.7335 17.8343C83.9912 17.4336 84.1629 16.9469 84.1629 16.4316C84.1629 15.0289 83.0179 13.8839 81.6152 13.8839C81.0713 13.8839 80.5846 14.0556 80.1552 14.3419C79.7258 13.8839 79.1246 13.569 78.4376 13.569C77.1494 13.569 76.1189 14.5995 76.1189 15.8877C76.1189 16.5461 76.4051 17.1473 76.8631 17.5767C76.1475 18.0347 75.6895 18.8076 75.6895 19.7237C75.6895 21.1264 76.8345 22.2714 78.2372 22.2714C79.1819 22.2714 80.0121 21.7562 80.4415 20.9833C80.785 21.9852 81.7297 22.7295 82.8461 22.7295C84.2488 22.7295 85.3939 21.5844 85.3939 20.1817C85.3939 19.1225 84.7068 18.2065 83.7335 17.8343Z" fill="#FEF1BE" stroke="black" stroke-width="0.5"/>
<path d="M82.8453 23.0444C81.8147 23.0444 80.87 22.4719 80.3834 21.5845C79.8395 22.2143 79.0665 22.5864 78.2364 22.5864C76.6905 22.5864 75.4023 21.3268 75.4023 19.7524C75.4023 18.8936 75.7745 18.1207 76.4329 17.5768C76.0608 17.1187 75.8317 16.5462 75.8317 15.9164C75.8317 14.4851 77.0054 13.3114 78.4368 13.3114C79.0952 13.3114 79.725 13.569 80.183 13.9984C80.6124 13.7408 81.099 13.6263 81.5857 13.6263C83.1315 13.6263 84.4197 14.8859 84.4197 16.4603C84.4197 16.8897 84.3052 17.3191 84.1335 17.7199C85.0495 18.2065 85.6507 19.1798 85.6507 20.2104C85.6793 21.7562 84.3911 23.0444 82.8453 23.0444ZM80.4406 20.7257H80.4693C80.5838 20.7257 80.6696 20.8116 80.7269 20.9261C81.0418 21.8421 81.9006 22.4719 82.8739 22.4719C84.1048 22.4719 85.1354 21.47 85.1354 20.2104C85.1354 19.2944 84.5629 18.4356 83.6754 18.1207C83.5896 18.092 83.5323 18.0348 83.5037 17.9489C83.4751 17.863 83.475 17.7771 83.5323 17.6913C83.7613 17.3191 83.9045 16.8897 83.9045 16.4603C83.9045 15.2294 82.9025 14.1988 81.643 14.1988C81.1849 14.1988 80.7269 14.342 80.3548 14.5996C80.2402 14.6855 80.0685 14.6569 79.9826 14.571C79.6105 14.1416 79.0379 13.9126 78.494 13.9126C77.3776 13.9126 76.4615 14.8286 76.4615 15.945C76.4615 16.5176 76.6905 17.0329 77.0913 17.4336C77.1486 17.4909 77.1772 17.5768 77.1772 17.6626C77.1772 17.7485 77.1199 17.8344 77.0341 17.8917C76.3757 18.3211 76.0035 19.0081 76.0035 19.781C76.0035 21.0119 77.0054 22.0425 78.265 22.0425C79.0666 22.0425 79.8108 21.6131 80.2116 20.8974C80.2402 20.7543 80.3261 20.7257 80.4406 20.7257Z" fill="black" stroke="black" stroke-width="0.5"/>
<path d="M30.0876 56.5088L22.8164 52.6443V8.07269L30.0876 4.95239V56.5088Z" fill="#73B7EA" stroke="black" stroke-width="0.5"/>
<path d="M30.0867 56.7951C30.0295 56.7951 30.0008 56.7951 29.9436 56.7664L22.6724 52.9018C22.5866 52.8446 22.5293 52.7587 22.5293 52.6442V8.07264C22.5293 7.95814 22.5866 7.84363 22.7011 7.815L29.9722 4.69471C30.0581 4.66608 30.1726 4.66608 30.2298 4.72333C30.3157 4.78059 30.373 4.86647 30.373 4.95235V56.5374C30.373 56.6519 30.3157 56.7378 30.2298 56.7951C30.1726 56.7951 30.1153 56.7951 30.0867 56.7951ZM23.1018 52.4724L29.8004 56.0508V5.38174L23.1018 8.2444V52.4724Z" fill="black" stroke="black" stroke-width="0.5"/>
<path d="M22.8148 35.0103H19.4082V44.2853H22.8148V35.0103Z" fill="#73B7EA" stroke="black" stroke-width="0.5"/>
<path d="M22.8139 44.5715H19.4074C19.2356 44.5715 19.1211 44.457 19.1211 44.2853V35.0103C19.1211 34.8385 19.2356 34.724 19.4074 34.724H22.8139C22.9857 34.724 23.1002 34.8385 23.1002 35.0103V44.2853C23.1002 44.4284 22.9857 44.5715 22.8139 44.5715ZM19.6936 43.999H22.5277V35.2965H19.6936V43.999Z" fill="black" stroke="black" stroke-width="0.5"/>
<path d="M1.74549 41.4513C1.68824 41.4799 1.45923 40.6498 1.4306 40.5925C0.886697 38.789 3.34858 38.2738 4.37914 39.3902C4.40777 39.4188 4.60815 39.7337 4.69403 39.9914C4.77991 40.1631 4.95167 40.2776 5.15206 40.249C5.61008 40.2204 6.09673 40.249 6.46888 40.5066C7.61394 41.2223 6.86965 42.9685 5.78184 43.312C5.29519 43.4552 4.75128 43.4552 4.26463 43.312C4.26463 43.312 4.06425 43.7701 4.06425 43.7987C3.77798 44.3426 3.2627 44.8006 2.63292 44.9437C2.00313 45.0869 1.34472 44.9151 0.858071 44.4857C0.371419 44.0563 0.0851533 43.4265 0.342792 42.7968C0.629058 42.2528 1.20159 41.7948 1.74549 41.4513Z" fill="#FEF1BE" stroke="black" stroke-width="0.5"/>
<path d="M2.2324 45.3159C1.68849 45.3159 1.14459 45.1155 0.715188 44.7147C0.056777 44.1422 -0.143609 43.3693 0.142657 42.7109C0.371669 42.1956 0.772441 41.7376 1.40223 41.3368C1.34497 41.1937 1.28772 40.9933 1.20184 40.707V40.6784C0.972827 39.8768 1.23047 39.1898 1.88888 38.789C2.74767 38.3024 3.97862 38.4741 4.63703 39.1898C4.72291 39.2757 4.92329 39.6478 5.00917 39.8768C5.0378 39.9341 5.09505 39.9627 5.18093 39.9627C5.78209 39.9055 6.29737 40.02 6.69814 40.249C7.21342 40.5925 7.47106 41.1364 7.38518 41.7662C7.27067 42.5677 6.66951 43.3406 5.95385 43.5697C5.52445 43.7128 5.00917 43.7128 4.52252 43.6269C4.4939 43.7128 4.43664 43.7987 4.37939 43.9132C4.03587 44.6002 3.43471 45.0582 2.7763 45.2014C2.54729 45.3159 2.37553 45.3159 2.2324 45.3159ZM1.94613 41.2509C1.97476 41.2795 1.97476 41.2795 2.00338 41.3082C2.08926 41.4513 2.03201 41.6231 1.9175 41.7089C1.28772 42.0811 0.858321 42.5105 0.657935 42.9399C0.371669 43.5983 0.915574 44.1422 1.08733 44.314C1.51673 44.6861 2.06064 44.8292 2.60454 44.7147C3.11982 44.6002 3.54922 44.2281 3.83548 43.7128C3.86411 43.6842 3.97862 43.3693 4.03587 43.2834C4.03587 43.2261 4.0645 43.1975 4.09312 43.1689C4.179 43.083 4.29351 43.0544 4.40801 43.083C4.83741 43.2261 5.35269 43.2261 5.75346 43.083C6.26874 42.9113 6.72677 42.3387 6.78402 41.7662C6.81265 41.4799 6.78402 41.0505 6.35462 40.7929C6.06836 40.6211 5.69621 40.5353 5.20956 40.5925C4.89467 40.6211 4.57977 40.4494 4.46527 40.1345C4.37939 39.9055 4.23626 39.6478 4.179 39.5906C3.66372 39.018 2.71905 38.9894 2.14652 39.3043C1.83162 39.4761 1.51673 39.8196 1.71712 40.5353V40.5925C1.86025 41.0219 1.9175 41.1937 1.94613 41.2509Z" fill="black" stroke="black" stroke-width="0.5"/>
<path d="M51.7287 74.8586C51.7287 74.8586 51.9004 73.7994 51.2993 73.2555C50.4118 72.454 48.9805 73.0551 48.8087 74.2288C48.7801 74.3719 48.7801 74.5437 48.7515 74.7441C48.7515 74.7441 47.0911 75.0017 46.5759 76.4617C46.2037 77.4636 46.6904 78.6373 47.6923 79.0667C48.4366 79.3816 49.553 79.5247 50.555 77.893C50.555 77.893 53.9043 79.1239 54.2764 76.7766C54.6486 74.4292 51.7287 74.8586 51.7287 74.8586Z" fill="#FEF1BE" stroke="black" stroke-width="0.5"/>
<path d="M48.6075 79.5819C48.2354 79.5819 47.8919 79.4961 47.6056 79.3529C46.4892 78.8663 45.9166 77.5208 46.346 76.3758C46.804 75.1162 48.0064 74.6582 48.5216 74.515C48.5216 74.4005 48.5503 74.286 48.5503 74.2001C48.6361 73.5131 49.1228 72.9692 49.7526 72.7402C50.3824 72.5112 51.0122 72.6543 51.4988 73.0837C51.9855 73.5131 52.0427 74.1715 52.0427 74.5723C52.5866 74.5437 53.5885 74.6009 54.1897 75.2021C54.5905 75.6028 54.7336 76.1754 54.5905 76.8624C54.476 77.4922 54.1897 77.9502 53.7031 78.2365C52.7297 78.809 51.2698 78.4369 50.6973 78.2651C50.0102 79.267 49.2946 79.5819 48.6075 79.5819ZM50.3537 73.1696C50.2106 73.1696 50.0675 73.1982 49.953 73.2555C49.4949 73.4272 49.1801 73.7994 49.1228 74.2574C49.0942 74.4005 49.0942 74.5723 49.0942 74.744C49.0942 74.8872 48.9797 75.0017 48.8652 75.0303C48.8652 75.0303 47.3766 75.2879 46.9186 76.5761C46.6037 77.4636 47.0331 78.4655 47.8632 78.8376C48.8365 79.267 49.6667 78.9235 50.3537 77.7785C50.411 77.664 50.5828 77.6067 50.6973 77.664C50.7259 77.664 52.4435 78.2937 53.4168 77.7498C53.7603 77.5495 53.9607 77.2346 54.0466 76.7765C54.1325 76.2613 54.0466 75.8891 53.7889 75.6028C53.1878 74.9731 51.8137 75.1734 51.7851 75.1734C51.6992 75.1734 51.6133 75.1448 51.5274 75.0876C51.4702 75.0303 51.4416 74.9158 51.4416 74.8299C51.4416 74.8013 51.5847 73.9139 51.098 73.4845C50.8976 73.2841 50.64 73.1696 50.3537 73.1696Z" fill="black" stroke="black" stroke-width="0.5"/>
<path d="M38.1005 16.632C37.9574 16.632 37.8143 16.5175 37.8143 16.3458C37.8143 15.0862 37.4421 14.1988 36.7837 13.6835C35.6959 12.8533 34.0642 13.2541 34.0356 13.2541C33.8924 13.2827 33.7493 13.2255 33.692 13.0823C33.3485 12.2235 32.8619 11.7369 32.318 11.6224C31.316 11.422 30.2855 12.4812 30.2855 12.4812C30.171 12.5957 29.9992 12.5957 29.8847 12.4812C29.7702 12.3667 29.7702 12.1949 29.8847 12.0804C29.942 12.0231 31.1443 10.8208 32.4325 11.0498C33.1481 11.193 33.7207 11.7083 34.1214 12.6243C34.6653 12.5384 36.068 12.3953 37.0986 13.1968C37.9288 13.8266 38.3582 14.8572 38.3582 16.3171C38.3868 16.4889 38.2723 16.6034 38.1005 16.632Z" fill="black" stroke="black" stroke-width="0.5"/>
<path d="M35.7834 13.2255C35.6975 13.2255 35.583 13.1682 35.5257 13.0823C35.4398 12.9392 35.4971 12.7674 35.6116 12.6816C38.7033 10.7636 37.4437 8.07268 37.3865 7.95817C37.3292 7.81504 37.3865 7.64328 37.5296 7.58603C37.6727 7.52877 37.8445 7.58603 37.9017 7.72916C38.4743 8.8456 38.7605 11.4506 35.9265 13.1968C35.8979 13.2255 35.8406 13.2255 35.7834 13.2255Z" fill="black" stroke="black" stroke-width="0.5"/>
<path d="M30.0851 31.432C29.942 31.432 29.7988 31.3175 29.7988 31.1744C29.7988 31.0026 29.9133 30.8881 30.0565 30.8595C31.6309 30.745 32.6329 30.3728 32.9764 29.7717C33.1768 29.3995 33.1481 28.9129 32.8619 28.3404C32.5756 27.7678 32.5184 27.1094 32.7474 26.5082C32.9477 25.9643 33.3485 25.5349 33.8638 25.2773C34.8657 24.8193 35.839 25.1342 36.2398 25.3059C36.7265 24.9052 36.9555 24.4758 36.9268 24.0464C36.8982 23.0158 35.6386 22.157 35.6386 22.1284C35.5528 22.0711 35.4955 21.9566 35.5241 21.8707C35.5241 21.7562 35.61 21.6704 35.6959 21.6417C36.2684 21.4127 36.5833 20.9833 36.6406 20.3535C36.6692 20.01 36.5833 19.6665 36.3829 19.4089C35.4669 18.2638 33.2626 19.8383 33.234 19.8383C33.1481 19.8955 33.0336 19.8955 32.9477 19.8669C32.8619 19.8096 32.8046 19.7237 32.8046 19.6092C32.8046 18.8936 32.6329 18.4069 32.2893 18.2065C31.6882 17.863 30.629 18.2924 30.2855 18.4928C30.1423 18.5787 29.9706 18.5214 29.8847 18.3783C29.7988 18.2352 29.8561 18.0634 29.9992 17.9775C30.0565 17.9489 31.5737 17.1187 32.5756 17.6913C33.005 17.9489 33.2626 18.4069 33.3485 19.094C34.1501 18.6359 35.8963 17.8344 36.8696 19.0367C37.1559 19.4089 37.299 19.8955 37.2704 20.3822C37.2131 21.0406 36.8982 21.5845 36.3829 21.928C36.841 22.3288 37.5566 23.1017 37.5566 24.0177C37.5852 24.7048 37.2131 25.3346 36.4974 25.8785C36.4116 25.9357 36.2971 25.9643 36.1825 25.9071C36.1825 25.9071 35.152 25.3632 34.1501 25.7926C33.7779 25.9643 33.4917 26.2792 33.3485 26.68C33.2054 27.1094 33.234 27.6247 33.4344 28.0541C33.8065 28.7984 33.8352 29.4854 33.5489 30.0293C33.0336 30.8309 31.8886 31.2889 30.0851 31.432Z" fill="black" stroke="black" stroke-width="0.5"/>
<path d="M33.8076 25.9357C33.6644 25.9357 33.5499 25.8212 33.5213 25.678C33.4068 24.7047 33.0347 24.0463 32.4621 23.7028C31.4888 23.1303 30.2006 23.5883 30.2006 23.6169C30.0575 23.6742 29.8857 23.5883 29.8285 23.4452C29.7712 23.302 29.8571 23.1303 30.0002 23.073C30.0575 23.0444 31.5747 22.5005 32.777 23.2161C33.5213 23.6455 33.9507 24.4757 34.1225 25.6208C34.1511 25.7639 34.0366 25.907 33.8648 25.9357C33.8076 25.9357 33.8076 25.9357 33.8076 25.9357Z" fill="black" stroke="black" stroke-width="0.5"/>
<path d="M32.9774 38.5885C32.8629 38.5885 32.7771 38.5313 32.7198 38.4168C32.6912 38.3595 32.0614 37.2145 30.1148 38.016C29.9717 38.0733 29.7999 38.016 29.7426 37.8729C29.6854 37.7298 29.7426 37.558 29.8858 37.5007C31.5461 36.8137 32.4622 37.3576 32.9202 37.787C33.779 36.4129 35.1244 36.5561 35.5825 36.6706C35.8401 36.4416 36.5271 35.8118 36.6703 34.953C36.7561 34.3804 36.5844 33.8365 36.1836 33.264C35.0099 31.6895 32.8629 33.0636 32.7771 33.1209C32.6625 33.1781 32.548 33.1781 32.4335 33.0922C32.3477 33.0064 32.2904 32.8919 32.3477 32.7774C32.5194 32.348 32.5194 32.0044 32.4049 31.7182C32.2045 31.2888 31.7465 31.117 31.7179 31.117C31.5747 31.0598 31.4889 30.9166 31.5461 30.7449C31.6034 30.5731 31.7465 30.5159 31.9183 30.5731C31.9469 30.5731 32.6339 30.8021 32.9202 31.4605C33.0347 31.7182 33.0919 32.0044 33.0633 32.3193C34.0939 31.8613 35.6397 31.6037 36.6416 32.9205C37.1569 33.6075 37.3573 34.3232 37.2428 35.0389C37.0424 36.3557 35.8687 37.1858 35.8401 37.2145C35.7542 37.2717 35.6683 37.2717 35.5825 37.2431C35.5252 37.2145 34.008 36.7278 33.2351 38.4168C33.2065 38.5313 33.0919 38.5885 32.9774 38.5885Z" fill="black" stroke="black" stroke-width="0.5"/>
<path d="M30.0861 45.0296C30.0575 45.0296 30.0289 45.0296 30.0002 45.001C29.8571 44.9438 29.7712 44.772 29.8285 44.6289C30.0289 44.0563 30.3438 43.6842 30.8018 43.4838C31.3743 43.2548 31.9755 43.3979 32.2331 43.4838C32.6625 43.1975 32.8915 42.9113 32.9202 42.5391C33.006 41.8235 32.2331 41.1078 32.2331 41.0792C32.1759 41.0219 32.1472 40.936 32.1472 40.8502C32.1472 40.7643 32.2045 40.6784 32.2617 40.6211C32.7484 40.2776 33.0347 39.8769 33.0919 39.4761C33.1778 38.9036 32.777 38.4169 32.777 38.4169C32.6625 38.3024 32.6911 38.1306 32.8056 38.0161C32.9202 37.9016 33.0919 37.9303 33.2064 38.0448C33.235 38.0734 33.779 38.7032 33.6644 39.5333C33.6072 40.02 33.3209 40.478 32.8629 40.8788C33.1492 41.2223 33.5786 41.8521 33.4927 42.5678C33.4354 43.1403 33.0633 43.6269 32.4049 43.9991C32.319 44.0563 32.2331 44.0563 32.1472 43.9991C32.1472 43.9991 31.5461 43.7128 31.0308 43.9418C30.7445 44.0563 30.5155 44.3426 30.3724 44.7434C30.3151 44.9438 30.2006 45.0296 30.0861 45.0296Z" fill="black" stroke="black" stroke-width="0.5"/>
<path d="M43.3979 13.34C42.5104 13.34 41.6803 12.9106 41.165 12.5098C40.2489 13.0537 39.4474 13.1682 38.789 12.882C37.7012 12.424 37.3863 11.0499 37.3863 10.9926C37.3577 10.8495 37.4435 10.6777 37.6153 10.6491C37.7584 10.6205 37.9302 10.7064 37.9588 10.8781C37.9588 10.9067 38.2165 12.0232 39.018 12.3667C39.5619 12.5957 40.2489 12.4526 41.0505 11.9087C41.165 11.8514 41.3081 11.8514 41.394 11.9373C41.4799 12.0232 43.3692 13.7122 45.0296 12.0232C46.6899 10.3628 44.6002 8.12997 44.5143 8.01546C44.3998 7.90095 44.3998 7.72919 44.5143 7.61469C44.6288 7.50018 44.8006 7.50018 44.9151 7.61469C45.8025 8.55937 47.0621 10.7636 45.4017 12.424C44.8006 13.111 44.0849 13.34 43.3979 13.34Z" fill="black" stroke="black" stroke-width="0.5"/>
<path d="M40.5643 22.9872C40.507 22.9872 40.4498 22.9585 40.3925 22.9299C40.278 22.844 40.2494 22.6436 40.3353 22.5291C41.1082 21.5272 41.4231 20.7257 41.194 20.239C40.9364 19.6379 39.9917 19.5806 39.9631 19.5806C39.8772 19.5806 39.7913 19.5234 39.7341 19.4375C39.6768 19.3516 39.6768 19.2657 39.7055 19.1798C39.7055 19.1798 40.1062 18.2638 39.7913 17.6054C39.6196 17.2619 39.2761 17.0328 38.7322 16.9183C36.4707 16.4317 35.8981 18.7504 35.8695 18.8363C35.8409 18.9794 35.6691 19.094 35.526 19.0367C35.3829 19.0081 35.2684 18.8363 35.3256 18.6932C35.3256 18.6646 36.0699 15.7446 38.8753 16.3458C39.591 16.4889 40.0776 16.8325 40.3353 17.3191C40.6501 17.9203 40.507 18.6359 40.3925 19.0367C40.8219 19.1226 41.4517 19.3516 41.738 19.9814C42.0528 20.697 41.738 21.6703 40.8219 22.8727C40.736 22.9299 40.6501 22.9872 40.5643 22.9872Z" fill="black" stroke="black" stroke-width="0.5"/>
<path d="M38.6162 32.5198C38.5017 32.5198 38.4158 32.4625 38.3586 32.348C38.3013 32.2049 38.3586 32.0331 38.5017 31.9759C38.5017 31.9759 39.5609 31.4892 39.8758 30.5732C40.0475 30.1151 39.9903 29.5999 39.7327 29.0846C39.475 28.5407 39.1029 28.1972 38.6448 28.0826C37.7574 27.8536 36.8414 28.4262 36.8127 28.4262C36.6982 28.4834 36.5551 28.4834 36.4692 28.3975C36.3833 28.3117 36.3547 28.1685 36.412 28.054C37.1849 26.6227 36.2116 25.9929 36.0971 25.907C35.9539 25.8211 35.9253 25.6494 36.0112 25.5063C36.0971 25.3631 36.2688 25.3345 36.412 25.4204C36.412 25.4204 37.6143 26.1647 37.2135 27.6246C37.6429 27.4815 38.2154 27.367 38.8166 27.5101C39.4464 27.6819 39.933 28.1113 40.2766 28.7983C40.6201 29.4854 40.6773 30.1438 40.4483 30.7449C40.0475 31.89 38.8166 32.4339 38.7593 32.4625C38.7021 32.5198 38.6735 32.5198 38.6162 32.5198Z" fill="black" stroke="black" stroke-width="0.5"/>
<path d="M41.652 20.5825C41.5088 20.5825 41.3943 20.468 41.3657 20.3248C41.3371 20.1817 41.4516 20.0386 41.6233 20.0099C41.9669 19.9527 42.9115 19.7237 43.1406 19.1225C43.3123 18.6931 43.1119 18.092 42.5394 17.3477C42.4535 17.2332 42.4535 17.1187 42.5394 17.0041C42.6253 16.8896 42.7398 16.861 42.8829 16.9183C42.8829 16.9183 43.8848 17.2904 44.5719 16.9183C44.8295 16.7751 45.0299 16.5461 45.1444 16.2026C44.8868 16.0881 44.5146 15.8877 44.2284 15.4583C43.799 14.8285 43.7131 13.9697 43.9707 12.9106C43.9994 12.7674 44.1711 12.6529 44.3142 12.6815C44.4574 12.7102 44.5719 12.8819 44.5433 13.0251C44.3429 13.9125 44.4001 14.6281 44.715 15.1148C45.0299 15.6301 45.5166 15.716 45.5452 15.716C45.6311 15.7446 45.6883 15.7732 45.7169 15.8305C45.7456 15.8877 45.7742 15.9736 45.7742 16.0595C45.6311 16.6893 45.3448 17.1473 44.8581 17.4335C44.4001 17.6912 43.8848 17.6912 43.4554 17.6339C43.8276 18.2923 43.9135 18.8649 43.7131 19.3515C43.3123 20.3821 41.7951 20.5825 41.7379 20.5825C41.652 20.5825 41.652 20.5825 41.652 20.5825Z" fill="black" stroke="black" stroke-width="0.5"/>
<path d="M42.5957 28.5693C42.5384 28.5693 42.4812 28.5693 42.4525 28.5121C42.3094 28.4262 42.2808 28.2544 42.3667 28.1113C42.7388 27.5102 42.8533 27.0235 42.6816 26.6514C42.4239 26.0788 41.6224 25.9357 41.6224 25.9357C41.5365 25.9071 41.4506 25.8498 41.422 25.7639C41.3934 25.6781 41.3934 25.5922 41.4506 25.5063C41.5651 25.3059 41.651 25.0769 41.6796 24.8479C41.7655 24.2467 41.4792 23.6456 40.9353 23.2162C39.0746 21.7562 37.3284 23.3879 37.2425 23.4738C37.128 23.5883 36.9562 23.5883 36.8417 23.4738C36.7272 23.3593 36.7272 23.1875 36.8417 23.073C36.8704 23.0444 39.0174 21.0119 41.2789 22.7868C41.9659 23.3307 42.338 24.1322 42.2522 24.9338C42.2235 25.1342 42.1949 25.3059 42.109 25.4777C42.4812 25.6208 42.9965 25.8784 43.2541 26.4223C43.5117 26.9663 43.3972 27.6533 42.9106 28.3976C42.7674 28.5121 42.6816 28.5693 42.5957 28.5693Z" fill="black" stroke="black" stroke-width="0.5"/>
<path d="M45.6594 16.3171C45.4591 16.3171 45.3445 16.2885 45.3445 16.2885C45.2014 16.2312 45.1155 16.0881 45.1442 15.945C45.2014 15.8019 45.3445 15.716 45.4877 15.7446C45.5163 15.7446 45.8026 15.8305 46.0888 15.6301C46.4324 15.4297 46.6614 14.9717 46.7759 14.2846C46.8045 14.1701 46.8618 14.0843 46.9763 14.0556C47.0908 14.027 47.2053 14.0556 47.2625 14.1415C47.3198 14.1988 48.5793 15.6301 50.0107 14.5709C50.4115 14.2846 50.6691 13.8839 50.7263 13.4545C50.8695 12.6529 50.3542 12.0231 49.2091 11.5937C49.0946 11.5651 49.0087 11.4506 49.0087 11.3075C49.0087 11.1643 49.0946 11.0785 49.2091 11.0498C49.2091 11.0498 50.0966 10.7636 50.3828 10.0193C50.5832 9.47538 50.4401 8.78834 49.9534 7.9868C49.8675 7.84367 49.9248 7.67191 50.0393 7.58603C50.1824 7.50015 50.3542 7.5574 50.4401 7.67191C51.0412 8.64521 51.213 9.50401 50.9267 10.2197C50.7263 10.7349 50.3256 11.0785 50.0107 11.3075C51.3275 11.9945 51.3848 12.9964 51.2989 13.5404C51.213 14.1129 50.8695 14.6282 50.3542 15.0003C49.1233 15.8877 47.9209 15.4011 47.2053 14.8572C47.0335 15.4297 46.7472 15.8591 46.3465 16.0881C46.1175 16.2599 45.8598 16.3171 45.6594 16.3171Z" fill="black" stroke="black" stroke-width="0.5"/>
<path d="M44.6281 27.6819C44.027 27.6819 43.483 27.5674 43.0536 27.3098C42.9105 27.2239 42.8819 27.0521 42.9391 26.909C43.025 26.7658 43.1968 26.7372 43.3399 26.7945C44.256 27.3384 46.0594 27.1094 47.1759 26.3078C47.7484 25.907 48.3496 25.22 48.1492 24.1608C48.0347 23.531 47.7484 23.073 47.3476 22.844C46.5747 22.386 45.5155 22.7581 45.5155 22.7581C45.4297 22.7868 45.3152 22.7581 45.2293 22.7009C45.1434 22.6436 45.1148 22.5291 45.1434 22.4146C45.3724 21.5558 45.3152 20.8974 44.943 20.4966C44.3418 19.8096 43.0536 19.9814 43.0536 19.9814C42.8819 20.01 42.7388 19.8955 42.7388 19.7237C42.7101 19.5806 42.8246 19.4088 42.9964 19.4088C43.0537 19.4088 44.5995 19.2084 45.401 20.1245C45.8304 20.6111 45.9449 21.2695 45.8304 22.0997C46.2885 22.0138 47.0328 21.9852 47.6625 22.3574C48.2351 22.6722 48.6072 23.2734 48.7503 24.0749C48.9507 25.1341 48.5213 26.1074 47.548 26.7945C46.6892 27.367 45.6014 27.6819 44.6281 27.6819Z" fill="black" stroke="black" stroke-width="0.5"/>
<path d="M43.9698 36.4416C43.3114 36.4416 42.7675 36.2985 42.7102 36.2699C42.5671 36.2126 42.4812 36.0695 42.5098 35.9264C42.5671 35.7832 42.7102 35.6974 42.8533 35.726C42.882 35.726 44.8572 36.2699 45.2866 35.2393C45.4584 34.7813 45.487 34.3805 45.3152 34.0084C44.9431 33.1782 43.8553 32.7774 43.8553 32.7774C43.7694 32.7488 43.6835 32.6629 43.6835 32.5484C43.6549 32.4625 43.7121 32.348 43.7694 32.2908C44.0557 32.0618 44.4564 31.432 44.4278 30.6877C44.4278 30.1152 44.1415 29.5999 43.6263 29.1705C42.2522 28.0254 40.1052 29.1991 40.1052 29.1991C39.9621 29.285 39.7903 29.2277 39.7044 29.0846C39.6185 28.9415 39.6758 28.7697 39.8189 28.6838C39.9334 28.6266 42.3094 27.3384 43.9984 28.7125C44.6568 29.2277 45.0003 29.9148 45.0003 30.6591C45.0003 31.3461 44.7427 31.9473 44.4278 32.3767C44.8572 32.6057 45.5443 33.0351 45.8305 33.7507C46.0595 34.266 46.0595 34.8386 45.8019 35.4397C45.5156 36.2413 44.6855 36.4416 43.9698 36.4416Z" fill="black" stroke="black" stroke-width="0.5"/>
<path d="M41.4797 38.703C41.3938 38.703 41.3366 38.6744 41.2793 38.6172C41.1648 38.5027 41.1934 38.3309 41.3079 38.2164C41.3366 38.1878 43.2259 36.4416 42.2812 35.2106C41.3652 33.9797 40.077 34.7812 40.0197 34.8098C39.9052 34.8671 39.7621 34.8671 39.6762 34.7812C39.5903 34.6953 39.5617 34.5522 39.619 34.4377C39.6476 34.3804 40.1915 33.3499 39.3041 32.7487C38.2735 32.0331 36.8708 33.5789 36.8422 33.5789C36.7277 33.6934 36.5559 33.6934 36.4414 33.6075C36.3269 33.5216 36.3269 33.3213 36.4128 33.2068C36.47 33.1209 38.159 31.2888 39.619 32.2907C40.3346 32.7774 40.4491 33.493 40.3346 34.0656C41.0503 33.8652 41.995 33.8938 42.7393 34.8957C43.9702 36.5561 41.7946 38.5885 41.6801 38.6744C41.5942 38.7031 41.5369 38.703 41.4797 38.703Z" fill="black" stroke="black" stroke-width="0.5"/>
<path d="M52.9302 13.798C51.871 13.798 50.9836 13.3399 50.9263 13.3113C50.7832 13.2254 50.726 13.0537 50.8118 12.9105C50.8977 12.7674 51.0695 12.7101 51.2126 12.796C51.2412 12.796 52.7298 13.5976 54.0753 12.9678C55.0199 12.5384 55.6784 11.5365 56.0219 9.96199C56.0505 9.87611 56.1078 9.81886 56.165 9.76161C56.2509 9.73298 56.3368 9.73298 56.394 9.76161C56.394 9.76161 57.4532 10.191 58.4551 9.73298C59.1422 9.41809 59.6575 8.73105 59.9723 7.72912C60.0296 7.58599 60.1727 7.50011 60.3445 7.55736C60.4876 7.61462 60.5735 7.75775 60.5163 7.92951C60.1441 9.1032 59.5143 9.90474 58.6841 10.2769C57.7967 10.6777 56.9379 10.5345 56.4799 10.3914C56.0505 11.9659 55.3348 13.025 54.2757 13.4831C53.8463 13.7407 53.3882 13.798 52.9302 13.798Z" fill="black" stroke="black" stroke-width="0.5"/>
<path d="M48.2629 23.7886C48.1484 23.7886 48.0339 23.7028 47.9766 23.5883C47.9194 23.4451 48.0053 23.2734 48.177 23.2447C49.2935 22.9012 49.9519 22.4146 50.1809 21.7562C50.4958 20.7542 49.6656 19.6664 49.6656 19.6378C49.6084 19.5519 49.5797 19.4374 49.637 19.3515C49.6942 19.2656 49.7801 19.1798 49.8946 19.1798C50.0091 19.1798 52.3851 19.1225 52.3565 17.2618C52.3565 15.2007 50.4958 14.8858 50.4385 14.8572C50.2954 14.8285 50.1809 14.6854 50.2095 14.5423C50.2381 14.3991 50.3813 14.2846 50.5244 14.3133C50.553 14.3133 52.929 14.7427 52.929 17.2618C52.929 18.9221 51.4691 19.5519 50.3813 19.695C50.6389 20.1817 50.9824 21.0405 50.7248 21.8993C50.4385 22.7581 49.637 23.3879 48.3488 23.76C48.3202 23.7886 48.2915 23.7886 48.2629 23.7886Z" fill="black" stroke="black" stroke-width="0.5"/>
<path d="M64.2669 13.6263C63.8375 13.6263 63.4654 13.5118 63.1219 13.2828C62.5493 12.882 62.2631 12.2236 62.0913 11.737C61.4043 12.4526 60.6314 12.7103 59.8584 12.3954C58.8851 11.9946 58.513 10.8495 58.4844 9.96212C58.4844 9.79036 58.5989 9.67585 58.7706 9.67585C58.9138 9.67585 59.0569 9.79036 59.0569 9.96212C59.0855 10.6778 59.3432 11.5938 60.0588 11.8801C60.9176 12.2236 61.6333 11.4507 62.0054 10.9354C62.0627 10.8495 62.2058 10.7923 62.3203 10.8209C62.4348 10.8495 62.5207 10.9354 62.5493 11.0786C62.5493 11.0786 62.6925 12.3095 63.4654 12.8248C63.8089 13.0824 64.2669 13.1397 64.7822 12.9965C65.2689 12.882 65.641 12.6244 65.8414 12.2809C66.2422 11.5652 65.8986 10.5919 65.8986 10.5633C65.87 10.4774 65.87 10.3915 65.9273 10.3056C65.9845 10.2198 66.0418 10.1911 66.1277 10.1625C66.1277 10.1625 67.5304 9.99074 68.1601 9.16057C68.4464 8.81705 68.5323 8.38766 68.475 7.87238C68.4464 7.72924 68.5609 7.55748 68.7327 7.55748C68.8758 7.52886 69.0476 7.64336 69.0476 7.81512C69.1334 8.47354 68.9903 9.04607 68.6182 9.53272C68.0456 10.277 67.0437 10.5919 66.5284 10.6778C66.6143 11.1072 66.7002 11.8801 66.3567 12.5099C66.0704 13.0252 65.6124 13.3401 64.9253 13.5118C64.6677 13.5977 64.4673 13.6263 64.2669 13.6263Z" fill="black" stroke="black" stroke-width="0.5"/>
<path d="M58.2832 19.1512C57.682 19.1512 57.224 18.9508 56.9377 18.5501C56.537 18.0348 56.5656 17.3191 56.6228 16.8897C55.5637 16.8611 54.7907 16.5462 54.3327 15.9164C53.5025 14.8 54.0751 13.1396 54.1037 13.0824C54.161 12.9393 54.3327 12.8534 54.4759 12.9106C54.619 12.9679 54.7049 13.1396 54.6476 13.2828C54.6476 13.2828 54.161 14.7141 54.8194 15.6015C55.1915 16.1168 55.9358 16.3744 56.9664 16.3458C57.0522 16.3458 57.1381 16.3744 57.1954 16.4603C57.2526 16.5176 57.2813 16.6321 57.2526 16.718C57.2526 16.718 56.995 17.6913 57.4244 18.2352C57.5962 18.4642 57.911 18.6073 58.3118 18.6073C58.4836 18.6073 58.5981 18.7505 58.5981 18.8936C58.5695 19.0367 58.4263 19.1512 58.2832 19.1512Z" fill="black" stroke="black" stroke-width="0.5"/>
<path d="M69.7622 14.8C69.0752 14.8 68.4454 14.6282 67.8728 14.3134C66.5274 13.5977 65.9549 12.3095 65.9262 12.2522C65.869 12.1091 65.9262 11.9373 66.0694 11.8801C66.2125 11.8228 66.3843 11.8801 66.4415 12.0232C66.4415 12.0232 66.9854 13.1683 68.1305 13.7981C69.2755 14.4279 70.6496 14.3134 72.1668 13.5404C72.31 13.4546 72.4817 13.5118 72.539 13.6549C72.6249 13.7981 72.5676 13.9698 72.4245 14.0271C71.4798 14.571 70.5924 14.8 69.7622 14.8Z" fill="black" stroke="black" stroke-width="0.5"/>
<path d="M69.3053 23.8746C69.019 23.8746 68.7327 23.846 68.4465 23.8174C66.9579 23.5883 65.8701 22.8154 65.4121 21.6131C65.0399 20.6684 65.0399 19.8096 65.3834 19.0653C65.7556 18.2924 66.414 17.8058 66.872 17.5768C65.7842 16.6607 64.7823 16.3172 63.8662 16.4889C62.349 16.7752 61.5188 18.5214 61.5188 18.5214C61.4616 18.6359 61.3185 18.7218 61.204 18.6932C60.0303 18.4069 59.1715 18.5214 58.6848 19.0081C57.8546 19.8383 58.2554 21.5272 58.2554 21.5559C58.284 21.6704 58.2268 21.7849 58.1409 21.8421C58.055 21.8994 57.9119 21.928 57.826 21.8707C55.8794 20.7257 54.2191 22.2715 54.1618 22.3288C54.1046 22.386 54.0187 22.4147 53.9328 22.4147C53.8469 22.4147 53.761 22.3574 53.7324 22.3001C52.7591 20.9261 50.698 21.5845 50.6694 21.6131C50.5262 21.6704 50.3545 21.5845 50.2972 21.4413C50.24 21.2982 50.3259 21.1265 50.469 21.0692C50.5549 21.0406 52.7305 20.3249 53.9901 21.7276C54.534 21.3268 55.9367 20.468 57.597 21.1265C57.5398 20.4394 57.5398 19.323 58.2554 18.6073C58.8566 18.0062 59.8299 17.8058 61.0894 18.092C61.3757 17.5768 62.2631 16.2313 63.7517 15.945C64.954 15.716 66.2422 16.2313 67.5877 17.4623C67.6736 17.5195 67.7022 17.634 67.6736 17.7199C67.6449 17.8058 67.5877 17.8917 67.4732 17.9203C67.4732 17.9203 66.3567 18.3211 65.8987 19.2944C65.6124 19.8955 65.6411 20.5825 65.956 21.3841C66.4426 22.6723 67.6449 23.1017 68.561 23.2162C70.0496 23.4452 71.6813 22.9586 72.1107 22.4147C72.1966 22.3001 72.3969 22.2715 72.5114 22.3574C72.626 22.4433 72.6546 22.6437 72.5687 22.7582C72.0248 23.4452 70.6507 23.8746 69.3053 23.8746Z" fill="black" stroke="black" stroke-width="0.5"/>
<path d="M66.4698 17.2332C66.3553 17.2332 66.2408 17.1473 66.1836 17.0328C65.9259 16.2027 65.9832 15.487 66.3267 14.9145C66.842 14.027 67.8725 13.798 67.9012 13.798C68.0443 13.7694 68.2161 13.8553 68.2447 14.027C68.2733 14.1702 68.1874 14.3419 68.0157 14.3706C68.0157 14.3706 67.1855 14.5709 66.8133 15.2294C66.5557 15.6588 66.5271 16.2313 66.7275 16.8897C66.7847 17.0328 66.6988 17.2046 66.5271 17.2332C66.5271 17.2332 66.4984 17.2332 66.4698 17.2332Z" fill="black" stroke="black" stroke-width="0.5"/>
<path d="M60.0293 30.2296C59.8862 30.2296 59.7717 30.1151 59.7431 29.972C59.7144 29.8289 59.8289 29.6571 59.9721 29.6571C61.0026 29.514 61.6897 28.8556 61.9473 27.7678C62.1191 27.1093 62.0332 26.4223 61.7183 25.8498C60.745 23.989 58.4262 24.5043 58.3404 24.533C58.2258 24.5616 58.1113 24.5043 58.0541 24.4184C57.9968 24.3326 57.9968 24.1894 58.0541 24.1036C58.369 23.6169 58.5121 23.1589 58.3976 22.7581C58.2831 22.2142 57.7964 21.9279 57.7964 21.9279C57.6533 21.8421 57.6247 21.6703 57.6819 21.5272C57.7678 21.384 57.9396 21.3554 58.0827 21.4127C58.1113 21.4413 58.7698 21.8134 58.9701 22.615C59.056 23.0157 58.9988 23.4451 58.827 23.8745C59.7144 23.8173 61.432 23.9604 62.2622 25.5635C62.6343 26.2792 62.7202 27.0807 62.5198 27.8823C62.2049 29.1991 61.3461 30.0293 60.0866 30.2296C60.0579 30.2296 60.0293 30.2296 60.0293 30.2296Z" fill="black" stroke="black" stroke-width="0.5"/>
<path d="M47.148 32.4626C46.232 32.4626 45.2873 32.1763 44.4857 31.661C44.3426 31.5751 44.314 31.4034 44.3999 31.2602C44.4858 31.1171 44.6575 31.0885 44.8006 31.1744C46.003 31.9759 47.5774 32.119 48.8084 31.5179C49.7817 31.0312 50.3542 30.2011 50.4114 29.1705C50.5832 26.68 48.0641 26.2792 47.9496 26.2506C47.8064 26.222 47.6919 26.0788 47.7205 25.9357C47.7492 25.7926 47.8923 25.6781 48.0354 25.7067C48.0641 25.7067 51.1844 26.1933 50.984 29.2278C50.8981 30.4587 50.2111 31.4893 49.066 32.0618C48.4648 32.3194 47.8064 32.4626 47.148 32.4626Z" fill="black" stroke="black" stroke-width="0.5"/>
<path d="M51.3847 29.514C50.984 29.514 50.6977 29.4853 50.6405 29.4853C50.4973 29.4567 50.3828 29.3136 50.3828 29.1705C50.3828 29.0273 50.5546 28.9128 50.6977 28.9128C50.7263 28.9128 53.9325 29.285 54.6196 27.3097C54.7913 26.7945 54.7913 26.3364 54.5623 25.9643C54.1329 25.22 52.9878 25.0196 52.9878 25.0196C52.8733 24.991 52.7874 24.9051 52.7588 24.7906C52.7302 24.6761 52.7874 24.5616 52.902 24.5043C52.902 24.5043 53.8466 23.989 53.9898 23.302C54.047 22.9871 53.9611 22.6722 53.6749 22.3573C53.5604 22.2428 53.589 22.0424 53.7035 21.9566C53.818 21.8421 54.0184 21.8707 54.1043 21.9852C54.505 22.4432 54.6482 22.9299 54.5337 23.4165C54.4192 23.9604 54.0184 24.3898 53.6749 24.6761C54.1329 24.8478 54.7054 25.1627 55.0203 25.7353C55.3352 26.2505 55.3638 26.8803 55.1062 27.5674C54.5623 29.2563 52.5012 29.514 51.3847 29.514Z" fill="black" stroke="black" stroke-width="0.5"/>
<path d="M67.7875 34.266C67.673 34.266 67.5871 34.2088 67.5298 34.0942C67.4726 33.9511 67.5298 33.7794 67.673 33.7221C67.7875 33.6649 70.6215 32.3194 69.7341 30.0293C68.8467 27.7678 66.5565 28.5979 66.442 28.6266C66.3561 28.6552 66.2703 28.6552 66.213 28.6266C66.1271 28.5979 66.0985 28.5121 66.0699 28.4548C65.8409 27.5674 65.4401 26.9662 64.8389 26.7372C63.7798 26.3078 62.4629 27.0807 62.4343 27.0807C62.2912 27.1666 62.1194 27.1094 62.0335 26.9949C61.9477 26.8517 62.0049 26.68 62.1194 26.5941C62.1767 26.5655 63.6939 25.678 65.0107 26.2219C65.6977 26.5082 66.1844 27.1094 66.4993 28.054C67.2722 27.8537 69.3333 27.596 70.2207 29.8575C71.1081 32.0904 69.0757 33.7221 67.8733 34.266C67.8733 34.266 67.8161 34.266 67.7875 34.266Z" fill="black" stroke="black" stroke-width="0.5"/>
<path d="M64.4668 26.6226C64.3237 26.6226 64.1805 26.5081 64.1805 26.365C63.9515 23.1874 66.9287 22.7867 66.9573 22.758C67.1004 22.7294 67.2436 22.8439 67.2722 23.0157C67.3008 23.1588 67.1863 23.302 67.0146 23.3306C66.9001 23.3306 64.5527 23.6741 64.7531 26.3077C64.7817 26.4795 64.6672 26.6226 64.4668 26.6226C64.4954 26.6226 64.4954 26.6226 64.4668 26.6226Z" fill="black"/>
<path d="M64.4668 26.6226C64.3237 26.6226 64.1805 26.5081 64.1805 26.365C63.9515 23.1874 66.9287 22.7867 66.9573 22.758C67.1004 22.7294 67.2436 22.8439 67.2722 23.0157C67.3008 23.1588 67.1863 23.302 67.0146 23.3306C66.9001 23.3306 64.5527 23.6741 64.7531 26.3077C64.7817 26.4795 64.6672 26.6226 64.4668 26.6226ZM64.4668 26.6226C64.4954 26.6226 64.4954 26.6226 64.4668 26.6226Z" stroke="black" stroke-width="0.5"/>
<path d="M69.6774 29.6285C69.6488 29.6285 69.6488 29.6285 69.6201 29.6285C69.477 29.5999 69.3625 29.4281 69.3911 29.285C69.7347 27.7105 72.1107 27.1666 72.2252 27.138C72.3683 27.1094 72.5401 27.1952 72.5687 27.367C72.5973 27.5101 72.5114 27.6819 72.3397 27.7105C72.311 27.7105 70.2213 28.1972 69.935 29.4281C69.935 29.5426 69.8205 29.6285 69.6774 29.6285Z" fill="black" stroke="black" stroke-width="0.5"/>
<path d="M51.241 36.413C51.0978 36.413 50.9833 36.3271 50.9547 36.184C50.9261 36.0409 51.012 35.8691 51.1551 35.8405C52.1856 35.5829 52.8441 35.2107 53.0158 34.6954C53.2162 34.1229 52.8154 33.5504 52.8154 33.5217C52.7296 33.4072 52.7296 33.2927 52.8154 33.1782C52.9013 33.0637 53.0158 33.0351 53.1303 33.0637C53.1303 33.0637 54.0178 33.35 54.7334 32.9206C55.1628 32.6629 55.4777 32.2049 55.6495 31.5465C56.1647 29.3709 54.2181 28.6266 54.1323 28.598C53.9891 28.5407 53.9032 28.369 53.9605 28.2258C54.0178 28.0827 54.1895 27.9968 54.3326 28.0541C54.3613 28.0541 56.8518 28.9987 56.222 31.6896C56.0216 32.5198 55.6208 33.0923 55.0483 33.4359C54.533 33.7221 53.9891 33.7508 53.5884 33.7221C53.7029 34.037 53.7601 34.4378 53.5884 34.8672C53.3307 35.5829 52.5578 36.0695 51.3269 36.3844C51.2982 36.413 51.2696 36.413 51.241 36.413Z" fill="black" stroke="black" stroke-width="0.5"/>
<path d="M60.7744 33.035C60.7458 33.035 60.7458 33.035 60.7744 33.035C60.6026 33.035 60.4881 32.8919 60.4881 32.7201C60.6026 31.4033 60.345 30.5445 59.7152 30.1151C58.4556 29.2563 56.1083 30.3728 56.0796 30.4014C55.9365 30.4586 55.7647 30.4014 55.7075 30.2583C55.6502 30.1151 55.7075 29.9434 55.8506 29.8861C55.9651 29.8289 58.5415 28.5979 60.0587 29.6571C60.8603 30.201 61.2038 31.2602 61.0893 32.7774C61.032 32.9205 60.9175 33.035 60.7744 33.035Z" fill="black" stroke="black" stroke-width="0.5"/>
<path d="M59.4863 37.1C59.3431 37.1 59.2286 37.0142 59.2 36.871C59.1714 36.7851 58.6561 34.495 59.5435 33.2355C59.8584 32.7774 60.3164 32.5198 60.889 32.4339C61.3756 32.3767 61.8909 32.4625 62.3775 32.7488C62.7211 32.9206 62.9787 33.1496 63.1791 33.3786C63.6085 32.8061 64.4959 31.8328 65.7555 31.9473C66.4425 32.0045 67.0151 32.3194 67.3872 32.8347C68.3605 34.0942 67.9884 36.2412 67.9884 36.3557C67.9597 36.4989 67.8166 36.6134 67.6448 36.5848C67.5017 36.5561 67.3872 36.413 67.4158 36.2412C67.4158 36.2126 67.7593 34.2374 66.9292 33.1782C66.6429 32.7774 66.2135 32.577 65.6982 32.5198C64.3242 32.3767 63.4367 34.037 63.4081 34.0656C63.3509 34.1801 63.2363 34.2374 63.1218 34.2088C63.0073 34.2088 62.9215 34.1229 62.8642 34.0084C62.7497 33.6362 62.3775 33.3786 62.0913 33.2355C61.7191 33.0351 61.3184 32.9492 60.9462 33.0064C60.5168 33.0637 60.2306 33.2355 60.0015 33.579C59.2573 34.6382 59.7439 36.7565 59.7439 36.7565C59.7725 36.8997 59.6866 37.0714 59.5149 37.1C59.5149 37.1 59.5149 37.1 59.4863 37.1Z" fill="black" stroke="black" stroke-width="0.5"/>
<path d="M48.95 38.5313C48.5492 38.5313 48.0912 38.4741 47.6045 38.3882C47.4614 38.3596 47.3469 38.2164 47.3755 38.0447C47.4041 37.8729 47.5473 37.787 47.719 37.8157C48.8927 38.0733 49.7801 37.9874 50.3527 37.6153C50.6676 37.3863 50.868 37.0714 50.9538 36.6706C51.1542 35.5828 49.637 34.8671 49.6084 34.8671C49.5225 34.8385 49.4653 34.7526 49.4653 34.6954C49.4366 34.6095 49.4652 34.5236 49.4939 34.4664C49.8946 33.8366 50.0378 33.2927 49.9233 32.806C49.7515 32.1762 49.179 31.8614 49.179 31.8614C49.0359 31.7755 48.9786 31.6037 49.0645 31.4892C49.1504 31.3461 49.3221 31.2888 49.4366 31.3747C49.4653 31.4033 50.2382 31.8041 50.4672 32.6629C50.6103 33.2354 50.4958 33.8652 50.1237 34.5236C50.6389 34.8385 51.7267 35.6401 51.4977 36.8137C51.3832 37.3863 51.097 37.8443 50.6389 38.1306C50.2382 38.3596 49.6656 38.5313 48.95 38.5313Z" fill="black" stroke="black" stroke-width="0.5"/>
<path d="M22.0424 59.6865C21.8706 59.6865 21.6703 59.6578 21.4985 59.6006C20.697 59.3716 19.924 58.6273 19.2943 57.4249C19.2084 57.2818 19.2656 57.11 19.4088 57.0242C19.5519 56.9383 19.7237 56.9955 19.8095 57.1387C20.3821 58.1979 21.0118 58.8276 21.6703 59.028C22.0424 59.1425 22.4146 59.0853 22.7867 58.8849C23.7314 58.341 23.302 56.7093 23.302 56.7093C23.2733 56.6234 23.302 56.5375 23.3306 56.4803C23.3879 56.423 23.4451 56.3658 23.531 56.3658C24.2753 56.2799 24.7906 56.0222 25.0768 55.5928C25.449 55.0489 25.3058 54.4191 25.3058 54.4191C25.2772 54.276 25.3631 54.1042 25.5348 54.0756C25.678 54.047 25.8497 54.1329 25.8784 54.3046C25.8784 54.3333 26.0788 55.1921 25.5348 55.9364C25.1913 56.423 24.6474 56.7379 23.9031 56.881C23.989 57.4822 24.0749 58.8276 23.0443 59.4002C22.7294 59.5719 22.3859 59.6865 22.0424 59.6865Z" fill="black" stroke="black" stroke-width="0.5"/>
<path d="M45.7737 40.7929C45.1439 40.7929 44.6 40.6211 44.5427 40.6211C44.4855 40.6211 44.4568 40.5925 44.4282 40.5353C44.3996 40.5066 43.3977 39.562 42.0236 40.478C41.9377 40.5353 41.7946 40.5353 41.7087 40.478C41.6228 40.4208 41.5656 40.2776 41.5942 40.1631C41.5942 40.1631 41.7946 39.3616 41.451 38.8749C41.2507 38.6173 40.9358 38.5028 40.4491 38.5028C39.1037 38.5028 38.9605 39.6192 38.9319 39.6478C38.9033 39.791 38.7601 39.9341 38.617 39.9055C38.4739 39.8768 38.3594 39.7337 38.3594 39.5906C38.4166 39.0181 38.9319 37.9302 40.4205 37.9302C41.0789 37.9302 41.5656 38.1306 41.8804 38.5314C42.1667 38.9036 42.224 39.3329 42.1953 39.7051C43.5122 39.1326 44.4855 39.8482 44.7431 40.0486C45.0007 40.1059 46.1172 40.3921 46.8042 39.9055C47.1477 39.6765 47.3195 39.3043 47.3481 38.7604C47.4912 36.5562 45.4588 35.5829 45.4301 35.5829C45.287 35.5256 45.2297 35.3539 45.287 35.2107C45.3443 35.0676 45.516 35.0103 45.6591 35.0676C45.6878 35.0676 48.0638 36.2127 47.892 38.8177C47.8348 39.5333 47.5771 40.0772 47.0905 40.3921C46.747 40.707 46.2317 40.7929 45.7737 40.7929Z" fill="black" stroke="black" stroke-width="0.5"/>
<path d="M33.9796 45.917C33.8079 45.917 33.6934 45.8025 33.6934 45.6307C33.6934 45.4589 33.8079 45.3444 33.9796 45.3444C35.7258 45.3444 36.8423 45.0009 37.1858 44.3139C37.5866 43.5696 36.9568 42.5963 36.9568 42.5963C36.8995 42.5104 36.8995 42.3673 36.9568 42.2814C37.014 42.1955 37.1572 42.1383 37.2717 42.1669C37.2717 42.1669 38.016 42.3673 38.474 42.0238C38.7316 41.8234 38.8748 41.4798 38.9034 40.9932C38.932 40.5924 38.8175 40.2775 38.5599 40.0485C37.9301 39.4474 36.6133 39.5905 36.6133 39.6191C36.4988 39.6191 36.3843 39.5905 36.327 39.476C36.2697 39.3901 36.2697 39.2756 36.327 39.1611C36.5846 38.7317 36.6419 38.3596 36.5274 38.0447C36.327 37.4721 35.5541 37.2431 35.5541 37.2431C35.411 37.1859 35.3251 37.0427 35.3537 36.8996C35.411 36.7565 35.5541 36.6706 35.6972 36.6992C35.7258 36.6992 36.7278 37.0141 37.0427 37.8443C37.1858 38.1878 37.1572 38.5886 37.014 39.018C37.5579 39.018 38.3881 39.1325 38.9034 39.6191C39.2755 39.9626 39.4473 40.4207 39.4187 41.0218C39.39 41.7089 39.161 42.1955 38.7316 42.5104C38.3595 42.768 37.9301 42.8253 37.6152 42.8253C37.787 43.2833 37.9587 43.9704 37.6152 44.6001C37.243 45.4589 35.9835 45.917 33.9796 45.917Z" fill="black" stroke="black" stroke-width="0.5"/>
<path d="M34.4372 69.3908C34.3799 69.3908 34.3227 69.3621 34.2654 69.3335C34.1509 69.2476 34.1223 69.0473 34.2368 68.9328C34.5517 68.532 34.6948 68.1312 34.6376 67.7304C34.5231 66.9003 33.607 66.2991 33.607 66.2991C33.4925 66.2419 33.4639 66.0987 33.4925 65.9842C33.5212 65.8697 33.6357 65.7838 33.7502 65.7838C34.2368 65.7838 34.8666 65.6407 35.067 65.0682C35.296 64.3811 34.838 63.3792 34.0078 62.7208C32.6624 61.6616 31.231 62.7208 31.2024 62.7208C31.1165 62.778 30.9734 62.8067 30.8875 62.7208C30.8016 62.6635 30.7444 62.549 30.773 62.4345C30.773 62.4059 31.1165 60.6883 30.2291 59.715C29.7424 59.1711 28.9123 58.9707 27.7958 59.1139C27.6527 59.1425 27.5096 59.028 27.4809 58.8562C27.4523 58.6845 27.5668 58.5699 27.7386 58.5413C29.0268 58.3696 30.0287 58.6558 30.6585 59.3142C31.4028 60.1158 31.46 61.2608 31.4028 61.9479C32.0612 61.6616 33.2349 61.3467 34.3799 62.2341C35.4105 63.0357 35.9258 64.2953 35.6109 65.2113C35.4964 65.5262 35.2101 66.0415 34.4372 66.2419C34.7521 66.5567 35.0956 67.0434 35.2101 67.6159C35.296 68.1885 35.1242 68.7324 34.6948 69.2763C34.609 69.3335 34.5231 69.3908 34.4372 69.3908Z" fill="black" stroke="black" stroke-width="0.5"/>
<path d="M34.1791 62.7494C34.0932 62.7494 34.0073 62.7208 33.9501 62.6349C33.8356 62.5204 33.8642 62.32 33.9787 62.2342C34.6085 61.7189 34.8948 61.1463 34.8948 60.5452C34.8948 59.3715 33.7211 58.3696 33.7211 58.3696C33.6352 58.3123 33.6066 58.1978 33.6066 58.1119C33.6066 58.0261 33.6924 57.9402 33.7783 57.8829C33.8642 57.8543 35.6677 56.9669 35.0951 55.6787C34.952 55.3352 34.723 55.1061 34.4654 55.0203C34.0073 54.8771 33.5207 55.1348 33.4921 55.1634C33.3776 55.2207 33.2058 55.192 33.1199 55.0775C33.034 54.963 33.034 54.8199 33.1485 54.7054C33.1485 54.7054 34.265 53.5317 34.036 52.358C33.9215 51.671 33.4062 51.0984 32.4615 50.6404C32.3184 50.5832 32.2611 50.4114 32.347 50.2683C32.4042 50.1251 32.576 50.0679 32.7191 50.1538C33.807 50.6977 34.4367 51.4133 34.5799 52.2721C34.723 53.1023 34.3795 53.9038 34.0646 54.4191C34.2364 54.4191 34.4367 54.4191 34.6085 54.4764C35.0379 54.6195 35.3528 54.9344 35.5818 55.4497C36.1257 56.7092 35.1524 57.7112 34.3222 58.1978C34.723 58.6272 35.41 59.486 35.41 60.5166C35.41 61.2895 35.0379 62.0051 34.265 62.6349C34.2936 62.7208 34.2364 62.7494 34.1791 62.7494Z" fill="black" stroke="black" stroke-width="0.5"/>
<path d="M34.3805 52.6729C34.3519 52.6729 34.3519 52.6729 34.3233 52.6729C34.1801 52.6443 34.0656 52.4725 34.0943 52.3294C34.5237 50.4401 36.6993 49.4668 38.4741 49.6099C38.8749 49.6385 39.2184 49.7816 39.5333 49.982C39.5619 49.982 39.5906 50.0393 39.6478 50.0965C39.6764 50.1252 39.7051 50.1538 39.7337 50.1824C40.1917 50.0965 41.8521 49.6671 41.9093 48.5221C41.9666 47.2339 40.478 46.9762 40.4207 46.9476C40.3062 46.919 40.2203 46.8331 40.1917 46.7186C40.1631 46.6041 40.2203 46.4896 40.3062 46.4323C40.3348 46.4037 40.3921 46.3751 40.4207 46.3464C40.7642 46.0888 40.9074 45.688 40.8215 45.23C40.7356 44.7434 40.3921 44.3426 39.9341 44.1995C39.018 43.8846 37.9016 44.2853 37.873 44.2853C37.7298 44.3426 37.5581 44.2567 37.5008 44.1136C37.4436 43.9704 37.5294 43.7987 37.6726 43.7414C37.7298 43.7128 38.9894 43.2548 40.1058 43.6555C40.7642 43.8846 41.2509 44.4571 41.3654 45.1441C41.4513 45.6594 41.3081 46.1461 40.9933 46.5468C41.6803 46.8331 42.4818 47.4343 42.4246 48.5507C42.3387 50.2969 39.7909 50.7549 39.6764 50.7549C39.5047 50.7836 39.4188 50.6977 39.2184 50.4973C39.1898 50.4687 39.1612 50.4401 39.1612 50.4401C38.9321 50.2969 38.6745 50.1824 38.3596 50.1538C36.8138 50.0107 34.9244 50.8981 34.5809 52.4153C34.6382 52.5871 34.5237 52.6729 34.3805 52.6729Z" fill="black" stroke="black" stroke-width="0.5"/>
<path d="M40.7066 57.9688C40.0482 57.9688 39.3898 57.7111 38.9604 57.4535C38.5882 57.6539 37.6722 58.026 36.7561 57.6825C36.0118 57.3963 35.4393 56.7092 35.0958 55.65C35.0385 55.5069 35.1244 55.3351 35.2962 55.2779C35.4393 55.2206 35.6111 55.3065 35.6683 55.4783C35.9546 56.3657 36.384 56.9382 36.9565 57.1386C37.8439 57.4821 38.8172 56.881 38.8172 56.881C38.9031 56.8237 39.0463 56.8237 39.1321 56.881C39.1608 56.881 40.8211 57.9688 41.7944 56.9382C42.0807 56.6233 42.1952 56.3371 42.1666 56.0508C42.1093 55.5642 41.5654 55.2493 41.5654 55.2493C41.4509 55.1634 41.3936 55.0202 41.4509 54.8771C41.5081 54.734 41.6513 54.6767 41.7944 54.734C41.7944 54.734 42.1952 54.8485 42.596 54.6195C42.9681 54.3905 43.2257 53.9324 43.3402 53.2454C43.7696 51.0984 41.365 50.0678 41.3364 50.0678C41.1933 50.0106 41.1074 49.8388 41.1933 49.6957C41.2791 49.5526 41.4223 49.4667 41.5654 49.5526C41.594 49.5526 44.4281 50.7549 43.9128 53.3599C43.741 54.2187 43.3975 54.8199 42.8822 55.1348C42.7391 55.2206 42.596 55.2779 42.4528 55.3065C42.596 55.4783 42.7105 55.7073 42.7391 55.9649C42.7963 56.4229 42.6532 56.881 42.2238 57.3104C41.7944 57.797 41.2505 57.9688 40.7066 57.9688Z" fill="black" stroke="black" stroke-width="0.5"/>
<path d="M40.3915 68.8183C40.3629 68.8183 40.3629 68.8183 40.3343 68.8183C40.1911 68.7896 40.0766 68.6465 40.1053 68.4747C40.3915 67.1007 39.2751 66.6426 39.2178 66.614C39.1033 66.5568 39.0461 66.4709 39.0461 66.3564C39.0461 66.2419 39.132 66.1274 39.2465 66.0987C39.2465 66.0987 39.819 65.8697 40.0194 65.4117C40.1339 65.1254 40.1053 64.8105 39.9621 64.4384C39.7617 64.009 39.5041 63.7227 39.1892 63.6369C38.5594 63.4651 37.8438 63.9517 37.8151 63.9804C37.7293 64.0376 37.6148 64.0376 37.5289 64.009C37.443 63.9804 37.3857 63.8659 37.3857 63.7514C37.4144 62.8353 37.1854 62.1769 36.756 61.8334C36.1262 61.3467 35.2101 61.633 35.1815 61.633C35.0384 61.6902 34.8666 61.6044 34.838 61.4326C34.7807 61.2895 34.8666 61.1177 35.0384 61.0891C35.0956 61.0605 36.2407 60.7456 37.0995 61.404C37.6148 61.8047 37.901 62.4345 37.9583 63.2933C38.3018 63.1216 38.8457 62.9784 39.361 63.1216C39.8763 63.2647 40.2484 63.6368 40.506 64.238C40.735 64.7533 40.7637 65.2399 40.5633 65.6693C40.4202 66.0129 40.1625 66.2419 39.9335 66.4136C40.4202 66.8144 40.9354 67.5301 40.7064 68.6465C40.6492 68.7324 40.5347 68.8183 40.3915 68.8183Z" fill="black" stroke="black" stroke-width="0.5"/>
<path d="M39.8199 63.9804C39.7054 63.9804 39.5909 63.8945 39.5336 63.78C39.4764 63.6368 39.5909 63.4651 39.734 63.4365C39.7627 63.4365 41.6234 62.8925 41.6806 61.6044C41.7379 60.2589 40.2493 59.5146 39.4764 59.4574C39.3333 59.4574 39.2188 59.3429 39.2188 59.1997C39.2188 59.0566 39.3046 58.9421 39.4191 58.8848C39.4478 58.8848 40.3066 58.5986 40.2779 57.6825C40.2779 57.5107 40.3924 57.3962 40.5642 57.3962C40.7073 57.3962 40.8505 57.5107 40.8505 57.6825C40.8791 58.3409 40.5928 58.7703 40.2493 59.0852C41.2799 59.4574 42.2818 60.3734 42.2245 61.6616C42.1387 63.3506 39.963 63.9804 39.8772 64.009C39.8772 63.9804 39.8485 63.9804 39.8199 63.9804Z" fill="black" stroke="black" stroke-width="0.5"/>
<path d="M45.516 66.2418C45.4015 66.2418 45.287 66.1846 45.2584 66.0701C45.2297 66.0414 44.8862 65.2113 43.8843 65.0109C43.7698 64.9823 43.6839 64.8964 43.6553 64.7533C43.6553 64.6387 43.7125 64.5242 43.827 64.467C43.9702 64.4097 45.1152 63.8372 44.6572 62.778C44.4282 62.2341 43.8843 61.862 43.2831 61.7761C42.8537 61.7188 42.4243 61.7761 42.0522 61.8906C41.9091 61.9478 41.7373 61.862 41.68 61.7188C41.6228 61.5757 41.7087 61.4039 41.8518 61.3467C42.3098 61.1749 42.8251 61.1463 43.3404 61.2036C44.1706 61.2894 44.8576 61.8047 45.1725 62.5204C45.6019 63.4651 45.1152 64.2093 44.6 64.6387C45.4301 65.0681 45.745 65.7838 45.7736 65.8411C45.8309 65.9842 45.7736 66.156 45.6305 66.2132C45.6019 66.2132 45.5733 66.2418 45.516 66.2418Z" fill="black" stroke="black" stroke-width="0.5"/>
<path d="M44.1702 62.0623C44.0844 62.0623 44.0271 62.0337 43.9698 61.9765C43.8553 61.862 43.8553 61.6902 43.9698 61.5757C43.9698 61.5757 45.2867 60.2302 44.9718 58.9134C44.7714 58.026 43.884 57.3103 42.3381 56.7664C42.195 56.7092 42.1091 56.5374 42.1664 56.3943C42.2236 56.2512 42.3954 56.1653 42.5385 56.2225C44.2847 56.8237 45.2867 57.6825 45.5443 58.7989C45.9165 60.4306 44.4565 61.9192 44.3992 62.0051C44.3134 62.0337 44.2275 62.0623 44.1702 62.0623Z" fill="black" stroke="black" stroke-width="0.5"/>
<path d="M47.7769 59.0852C47.6624 59.0852 47.5193 58.9994 47.4907 58.8562C47.462 58.7131 47.5479 58.5413 47.691 58.5127C47.691 58.5127 48.464 58.3123 48.7789 57.6825C48.9792 57.3104 48.9792 56.8237 48.7789 56.2798C48.1777 54.5622 46.1738 54.963 46.088 54.9916C45.9448 55.0203 45.8303 54.963 45.7731 54.8199C45.7158 54.7054 45.7444 54.5622 45.8589 54.4764C45.9734 54.3905 46.2597 54.1042 46.2597 53.8466C46.2597 53.6748 46.1166 53.4744 45.8589 53.3027C44.9715 52.7015 43.7119 53.7321 43.7119 53.7321C43.5974 53.8466 43.3971 53.8179 43.3112 53.7034C43.1967 53.5889 43.2253 53.3885 43.3398 53.3027C43.3971 53.2454 44.9429 51.9572 46.2025 52.8446C46.6319 53.1309 46.8322 53.4744 46.8322 53.8752C46.8322 54.0756 46.775 54.2473 46.6891 54.3905C47.6338 54.3905 48.8361 54.7626 49.2941 56.1367C49.5518 56.8524 49.5231 57.4821 49.2369 57.9974C48.7789 58.8276 47.8055 59.0852 47.7769 59.0852C47.8055 59.0852 47.8342 59.0852 47.7769 59.0852Z" fill="black"/>
<path d="M47.7769 59.0852C47.6624 59.0852 47.5193 58.9994 47.4907 58.8562C47.462 58.7131 47.5479 58.5413 47.691 58.5127C47.691 58.5127 48.464 58.3123 48.7789 57.6825C48.9792 57.3104 48.9792 56.8237 48.7789 56.2798C48.1777 54.5622 46.1738 54.963 46.088 54.9916C45.9448 55.0203 45.8303 54.963 45.7731 54.8199C45.7158 54.7054 45.7444 54.5622 45.8589 54.4764C45.9734 54.3905 46.2597 54.1042 46.2597 53.8466C46.2597 53.6748 46.1166 53.4744 45.8589 53.3027C44.9715 52.7015 43.7119 53.7321 43.7119 53.7321C43.5974 53.8466 43.3971 53.8179 43.3112 53.7034C43.1967 53.5889 43.2253 53.3885 43.3398 53.3027C43.3971 53.2454 44.9429 51.9572 46.2025 52.8446C46.6319 53.1309 46.8322 53.4744 46.8322 53.8752C46.8322 54.0756 46.775 54.2473 46.6891 54.3905C47.6338 54.3905 48.8361 54.7626 49.2941 56.1367C49.5518 56.8524 49.5231 57.4821 49.2369 57.9974C48.7789 58.8276 47.8055 59.0852 47.7769 59.0852C47.8342 59.0852 47.8055 59.0852 47.7769 59.0852Z" stroke="black" stroke-width="0.5"/>
<path d="M31.5738 51.0699C30.715 51.0699 30.0852 50.4973 30.0566 50.4687C29.9421 50.3542 29.9135 50.1824 30.028 50.0679C30.1425 49.9534 30.3142 49.9248 30.4287 50.0393C30.4287 50.0393 31.0299 50.5546 31.7169 50.4687C32.1463 50.4115 32.5471 50.1538 32.8906 49.6958C33.9784 48.2072 32.4899 46.8045 32.4326 46.7472C32.3467 46.6614 32.3181 46.5182 32.3753 46.4037C32.4326 46.2892 32.5757 46.232 32.7189 46.2892C32.862 46.3465 33.2341 46.4037 33.4632 46.2606C33.6063 46.1461 33.6922 45.9457 33.6922 45.6308C33.6922 44.543 32.1177 44.1136 32.1177 44.1136C31.9746 44.085 31.8887 43.9132 31.9173 43.7701C31.946 43.6269 32.1177 43.5411 32.2608 43.5697C32.3467 43.5983 34.2647 44.1422 34.2647 45.6594C34.2647 46.1747 34.0929 46.5469 33.778 46.7759C33.6063 46.8904 33.4345 46.9476 33.2628 46.9763C33.778 47.7492 34.1788 48.9515 33.32 50.1252C32.862 50.7263 32.3467 51.0699 31.7456 51.1271C31.7169 51.0699 31.6311 51.0699 31.5738 51.0699Z" fill="black" stroke="black" stroke-width="0.5"/>
<path d="M49.5815 61.7761C49.4384 61.7761 49.3239 61.6903 49.2953 61.5471C49.009 60.3162 48.4937 59.5146 47.7494 59.1711C46.6616 58.6845 45.4307 59.3429 45.4021 59.3429C45.2589 59.4288 45.0872 59.3715 45.0013 59.2284C44.9154 59.0852 44.9727 58.9135 45.1158 58.8276C45.173 58.799 46.633 58.0261 47.9785 58.6272C48.8945 59.028 49.5243 59.9727 49.8392 61.3754C49.8678 61.5185 49.7819 61.6903 49.6102 61.7189C49.6102 61.7761 49.5815 61.7761 49.5815 61.7761Z" fill="black" stroke="black" stroke-width="0.5"/>
<path d="M46.0878 53.3313C46.0019 53.3313 45.9447 53.3027 45.8874 53.2455C45.7729 53.131 45.7729 52.9592 45.8874 52.8447C46.3741 52.3867 46.6031 51.9286 46.6317 51.4134C46.6317 50.6118 46.0305 50.0107 46.0019 50.0107C45.9447 49.9534 45.916 49.8389 45.916 49.753C45.916 49.6671 46.0019 49.5813 46.0878 49.5526C46.1451 49.524 47.5764 48.8656 47.1756 47.606C47.0039 47.1194 46.7462 46.8045 46.3741 46.6327C45.5153 46.2606 44.3702 46.8045 44.3702 46.8045C44.2557 46.8617 44.1126 46.8331 44.0267 46.7186C43.9408 46.6041 43.9408 46.461 44.0267 46.3751C44.0267 46.3751 44.5992 45.6594 44.4847 45.0296C44.4561 44.8006 44.313 44.6002 44.0839 44.4285C42.7385 43.5124 41.4789 45.3445 41.4217 45.4304C41.3358 45.5735 41.164 45.6022 41.0209 45.5163C40.8778 45.4304 40.8491 45.2587 40.935 45.1155C41.4789 44.2854 42.9389 42.9972 44.3988 43.9705C44.771 44.2281 45 44.543 45.0572 44.9438C45.1145 45.3159 45 45.7167 44.8855 46.0316C45.3721 45.9171 46.0305 45.8598 46.6031 46.0888C47.147 46.3178 47.5191 46.7472 47.7481 47.4056C48.1489 48.608 47.3474 49.4668 46.689 49.8675C46.918 50.1824 47.2329 50.7263 47.2329 51.3847C47.2329 52.0432 46.918 52.6729 46.3168 53.2168C46.2023 53.3313 46.1451 53.3313 46.0878 53.3313Z" fill="black" stroke="black" stroke-width="0.5"/>
<path d="M43.9977 44.3711C43.9118 44.3711 43.8259 44.3425 43.7687 44.2566C43.6828 44.1421 43.7114 43.9417 43.8259 43.8558C43.9118 43.7986 45.658 42.4531 44.3985 40.4779C44.3126 40.3348 44.3412 40.163 44.4844 40.0771C44.6275 39.9912 44.7992 40.0199 44.8851 40.163C46.4596 42.5963 44.1981 44.2852 44.1695 44.3138C44.1122 44.3711 44.055 44.3711 43.9977 44.3711Z" fill="black" stroke="black" stroke-width="0.5"/>
<path d="M47.4333 47.8064C47.2901 47.8064 47.1756 47.7205 47.147 47.5773C47.1184 47.4342 47.2329 47.2624 47.376 47.2338C48.7215 47.0048 49.5516 46.5468 49.752 45.9743C50.0096 45.1441 49.065 44.1422 49.0363 44.1422C48.9505 44.0563 48.9218 43.9418 48.9791 43.8273C49.0363 43.7128 49.1222 43.6555 49.2367 43.6555C49.3226 43.6555 51.3265 43.6841 51.8131 41.5944C52.2998 39.3901 50.3245 38.2451 50.2387 38.1878C50.0955 38.1019 50.0669 37.9302 50.1242 37.787C50.21 37.6439 50.3818 37.6153 50.5249 37.6725C50.5535 37.6725 52.9582 39.1039 52.357 41.7089C51.9562 43.4837 50.5822 43.999 49.7806 44.1422C50.1242 44.6002 50.5249 45.3731 50.2673 46.146C50.0096 46.9762 49.065 47.5201 47.4619 47.8064H47.4333Z" fill="black" stroke="black" stroke-width="0.5"/>
<path d="M52.8435 42.2242C52.3569 42.2242 52.0133 42.1669 51.9561 42.1669C51.813 42.1383 51.6984 41.9951 51.7271 41.852C51.7557 41.7089 51.8988 41.5944 52.042 41.623C52.0706 41.623 54.189 41.9379 55.334 40.9646C55.7921 40.5638 56.0497 39.9913 56.0497 39.247C56.0783 36.2126 53.2729 35.2965 53.1584 35.2679C53.0153 35.2106 52.9294 35.0675 52.958 34.9244C53.0153 34.7812 53.1584 34.6954 53.3015 34.724C53.3302 34.724 56.6222 35.7832 56.6222 39.247C56.6222 40.163 56.3073 40.8787 55.7062 41.394C54.876 42.081 53.6737 42.2242 52.8435 42.2242Z" fill="black" stroke="black" stroke-width="0.5"/>
<path d="M49.008 56.2512C48.8935 56.2512 48.779 56.1653 48.7504 56.0508C48.6931 55.9076 48.779 55.7359 48.9221 55.6786C50.7542 55.0775 50.4393 53.8465 50.4107 53.8179C50.3821 53.7034 50.4107 53.5889 50.4966 53.5316C50.5825 53.4744 50.697 53.4458 50.7828 53.4744C51.384 53.7034 51.8993 53.7893 52.3573 53.7893C52.9871 53.7893 53.5024 53.3312 53.5596 52.7301C53.5882 52.4724 53.5024 52.2434 53.3592 52.043C52.7867 51.356 51.3267 51.2415 51.2981 51.2415C51.155 51.2415 51.0405 51.127 51.0405 50.9839C51.0119 50.8407 51.0977 50.7262 51.2409 50.669H51.2695C51.7561 50.4972 52.071 50.0964 52.1855 49.6098C52.3 49.0945 52.1283 48.5506 51.7561 48.1498C50.8401 47.2624 49.2656 47.1765 49.2656 47.1765C49.0939 47.1765 48.9794 47.0334 48.9794 46.8903C48.9794 46.7185 49.1225 46.604 49.2656 46.604C49.3515 46.604 51.0691 46.6899 52.1569 47.7204C52.6722 48.2357 52.9012 48.98 52.7581 49.6957C52.6722 50.1251 52.4432 50.4972 52.1569 50.7549C52.7008 50.898 53.4165 51.1556 53.8173 51.6423C54.0749 51.9572 54.1894 52.3293 54.1608 52.7587C54.0749 53.6461 53.302 54.3332 52.4146 54.3332C52.0138 54.3332 51.5558 54.2759 51.0405 54.1042C51.0119 54.6767 50.7256 55.65 49.1225 56.1939C49.0652 56.2512 49.0366 56.2512 49.008 56.2512Z" fill="black" stroke="black" stroke-width="0.5"/>
<path d="M52.4723 49.2377C52.3292 49.2377 52.2147 49.1232 52.186 48.98C52.1574 48.8369 52.2719 48.6938 52.4437 48.6651C52.4437 48.6651 53.8464 48.4934 54.3616 47.6632C54.5907 47.2624 54.5907 46.7758 54.3616 46.1746C54.333 46.0601 54.333 45.9456 54.4189 45.8884C54.5048 45.8025 54.6193 45.7739 54.7052 45.8025C54.7052 45.8025 55.4781 46.0029 56.1079 45.6594C56.48 45.459 56.709 45.0868 56.8522 44.6002C57.3388 42.8826 55.1918 41.5944 55.1918 41.5658C55.0487 41.4799 55.0201 41.3081 55.0773 41.165C55.1632 41.0218 55.3349 40.9932 55.4781 41.0505C55.5926 41.1077 57.9972 42.5677 57.4247 44.7147C57.2529 45.3731 56.9094 45.8311 56.3941 46.1174C55.9361 46.375 55.4208 46.4036 55.0487 46.375C55.1918 46.9475 55.1346 47.4628 54.8769 47.8922C54.2471 48.98 52.6154 49.1518 52.5295 49.1518C52.5009 49.2377 52.4723 49.2377 52.4723 49.2377Z" fill="black" stroke="black" stroke-width="0.5"/>
<path d="M58.3974 46.9762C58.0825 46.9762 57.739 46.919 57.4528 46.8045C56.9089 46.6041 56.5081 46.2892 56.2504 45.8598C56.1646 45.7167 56.2218 45.5449 56.3363 45.459C56.4508 45.3732 56.6512 45.4304 56.7371 45.5449C56.9089 45.8598 57.2237 46.0888 57.6531 46.2319C58.197 46.4323 58.7982 46.4037 59.2849 46.1747C60.7162 45.4877 60.2868 43.4838 60.2868 43.4552C60.2582 43.3693 60.2868 43.2548 60.344 43.1975C60.4013 43.1403 60.5158 43.083 60.6017 43.1117C60.6017 43.1117 61.7754 43.2834 62.4338 42.7395C62.72 42.4819 62.8632 42.1383 62.8918 41.6517C62.9204 40.0486 60.5444 39.791 60.5158 39.7623C60.4013 39.7623 60.3154 39.6765 60.2868 39.5906C60.2582 39.4761 60.2582 39.3616 60.344 39.3043C60.344 39.3043 60.6303 38.9894 60.5731 38.56C60.5444 38.1593 60.2868 37.7871 59.8288 37.3863C58.4261 36.2413 56.4222 38.1593 56.4222 38.1879C56.3077 38.3024 56.1359 38.3024 56.0214 38.1879C55.9069 38.0734 55.9069 37.9016 56.0214 37.7871C56.1073 37.7012 58.4261 35.497 60.2009 36.9569C60.8021 37.4436 61.117 37.9875 61.1742 38.5314C61.2028 38.8463 61.117 39.1039 61.0311 39.3043C62.0616 39.5333 63.493 40.2204 63.4643 41.6803C63.4643 42.3387 63.2353 42.8254 62.8059 43.1975C62.2048 43.6842 61.3746 43.7414 60.8879 43.7414C60.9738 44.6575 60.8021 46.1174 59.5139 46.7186C59.1703 46.919 58.7696 46.9762 58.3974 46.9762Z" fill="black" stroke="black" stroke-width="0.5"/>
<path d="M23.4448 67.4157C22.7863 67.4157 22.1279 67.158 21.6413 66.6714C21.2119 66.2706 20.9542 65.8126 20.897 65.3545C20.8684 65.2114 20.9829 65.0396 21.126 65.0396C21.2691 65.011 21.4409 65.1255 21.4409 65.2687C21.4982 65.6122 21.6985 65.9557 22.0134 66.2706C22.4428 66.6714 22.9867 66.8717 23.5306 66.8431C25.1337 66.7572 25.5059 64.7534 25.5059 64.7248C25.5345 64.6389 25.5918 64.553 25.6776 64.5244C25.7635 64.4957 25.878 64.4957 25.9353 64.553C25.9353 64.553 26.9658 65.1828 27.7674 64.9251C28.1395 64.8106 28.3972 64.553 28.5975 64.095C29.256 62.635 27.1662 61.4613 27.1376 61.4613C27.0517 61.4041 26.9945 61.3182 26.9945 61.2037C26.9945 61.0892 27.0517 61.0033 27.1662 60.946C27.1662 60.946 27.5384 60.7743 27.6815 60.3449C27.796 59.9727 27.7388 59.5147 27.4525 58.9708C26.6223 57.3677 24.0173 58.3697 23.9887 58.3697C23.8455 58.4269 23.6738 58.341 23.6165 58.1979C23.5593 58.0548 23.6451 57.883 23.7883 57.8257C23.9028 57.7685 26.88 56.6521 27.9678 58.6845C28.3399 59.3716 28.4258 59.9727 28.254 60.5166C28.1681 60.8029 27.9964 61.0319 27.8246 61.1751C28.6834 61.7762 29.7426 62.9785 29.1415 64.324C28.8838 64.9251 28.483 65.2973 27.9391 65.469C27.1948 65.6981 26.4219 65.4118 25.9639 65.2114C25.7063 66.0988 24.962 67.3584 23.5593 67.4157C23.5306 67.4157 23.502 67.4157 23.4448 67.4157Z" fill="black" stroke="black" stroke-width="0.5"/>
<path d="M68.5323 48.5506C68.4464 48.5506 68.3606 48.522 68.3033 48.4361C68.2174 48.3216 68.2461 48.1212 68.3606 48.0353C68.3892 48.0067 70.6221 46.375 70.0782 44.0562C69.5629 41.7947 66.7002 42.2241 66.5857 42.2241C66.4712 42.2527 66.3567 42.1955 66.2995 42.081C66.2422 41.9665 66.2708 41.852 66.3281 41.7661C66.3281 41.7661 67.1296 40.8787 67.0151 40.1057C66.9865 39.8195 66.8147 39.5618 66.4998 39.3615C65.0685 38.4168 63.1505 40.9645 63.1505 40.9932C63.0647 41.1077 62.8643 41.1363 62.7498 41.0504C62.6353 40.9645 62.6066 40.7642 62.6925 40.6497C62.7784 40.5351 64.9254 37.6439 66.8147 38.8748C67.2728 39.1611 67.5304 39.5618 67.5877 40.0199C67.6735 40.621 67.3873 41.2222 67.1296 41.623C68.4178 41.5943 70.1927 42.0524 70.6221 43.9417C71.2518 46.6326 68.79 48.4361 68.6755 48.522C68.6468 48.522 68.5896 48.5506 68.5323 48.5506Z" fill="black" stroke="black" stroke-width="0.5"/>
<path d="M56.3089 57.4249C55.765 57.4249 55.2497 57.2532 54.8203 56.9383C53.4749 55.9364 53.1314 53.7894 53.1314 53.7035C53.1027 53.5604 53.2172 53.3886 53.3604 53.3886C53.5321 53.36 53.6753 53.4745 53.6753 53.6176C53.6753 53.6462 53.9902 55.6215 55.1352 56.4803C55.5646 56.7952 56.0799 56.9097 56.6524 56.8238C57.1677 56.7379 57.5112 56.5375 57.7116 56.1654C58.37 54.9917 57.3681 52.7016 57.3681 52.6729C57.3395 52.587 57.3395 52.4725 57.3967 52.3867C57.454 52.3008 57.5399 52.2722 57.6544 52.2722C58.8853 52.358 59.7155 52.129 60.0304 51.6137C60.4884 50.8695 59.8586 49.6385 59.83 49.6385C59.7727 49.5526 59.7727 49.4381 59.8586 49.3236C59.9159 49.2377 60.0304 49.1805 60.1449 49.2091C60.288 49.2377 61.4331 49.3522 61.6907 47.9495C61.977 46.461 60.3739 45.6594 60.288 45.6022C60.1449 45.5449 60.0876 45.3731 60.1449 45.23C60.2021 45.0869 60.3739 45.0296 60.517 45.0869C61.2327 45.4304 62.5209 46.4896 62.2346 48.0354C62.0056 49.2664 61.1754 49.6958 60.517 49.753C60.7174 50.2683 60.9464 51.1843 60.4884 51.8714C60.0876 52.5012 59.2575 52.8447 58.0265 52.8161C58.3128 53.589 58.7994 55.2779 58.1983 56.3944C57.912 56.9097 57.4254 57.2532 56.7383 57.3391C56.6238 57.4249 56.452 57.4249 56.3089 57.4249Z" fill="black" stroke="black" stroke-width="0.5"/>
<path d="M51.8415 62.9499C51.6983 62.9499 51.5838 62.864 51.5552 62.7209C51.5266 62.5777 51.6411 62.406 51.7842 62.3773C51.7842 62.3773 52.4426 62.2628 52.643 61.7476C52.8434 61.3182 52.6716 60.6598 52.185 59.8868C52.1277 59.801 52.1277 59.6578 52.185 59.5719C52.2422 59.4861 52.3567 59.4288 52.4712 59.4574C52.4712 59.4574 53.6449 59.6006 54.4179 58.9422C54.9045 58.5128 55.1621 57.8544 55.1621 56.9669C55.1621 56.8238 55.3053 56.6807 55.4484 56.6807C55.6202 56.6807 55.7347 56.8238 55.7347 56.9669C55.7347 58.0261 55.3912 58.8563 54.7614 59.3716C54.1602 59.8868 53.4159 60.03 52.9006 60.03C53.3014 60.8029 53.3587 61.4327 53.1297 61.9766C52.7861 62.7495 51.8701 62.9212 51.8415 62.9499C51.8415 62.9499 51.8701 62.9499 51.8415 62.9499Z" fill="black"/>
<path d="M51.8415 62.9499C51.6983 62.9499 51.5838 62.864 51.5552 62.7209C51.5266 62.5777 51.6411 62.406 51.7842 62.3773C51.7842 62.3773 52.4426 62.2628 52.643 61.7476C52.8434 61.3182 52.6716 60.6598 52.185 59.8868C52.1277 59.801 52.1277 59.6578 52.185 59.5719C52.2422 59.4861 52.3567 59.4288 52.4712 59.4574C52.4712 59.4574 53.6449 59.6006 54.4179 58.9422C54.9045 58.5128 55.1621 57.8544 55.1621 56.9669C55.1621 56.8238 55.3053 56.6807 55.4484 56.6807C55.6202 56.6807 55.7347 56.8238 55.7347 56.9669C55.7347 58.0261 55.3912 58.8563 54.7614 59.3716C54.1602 59.8868 53.4159 60.03 52.9006 60.03C53.3014 60.8029 53.3587 61.4327 53.1297 61.9766C52.7861 62.7495 51.8701 62.9212 51.8415 62.9499C51.8701 62.9499 51.8415 62.9499 51.8415 62.9499Z" stroke="black" stroke-width="0.5"/>
<path d="M56.509 61.6044C56.4517 61.6044 56.4231 61.6044 56.3658 61.6044C55.4784 61.5472 54.6483 60.8888 53.8753 59.6292C53.7895 59.4861 53.8467 59.3143 53.9612 59.2284C54.1043 59.1426 54.2761 59.1998 54.362 59.3143C55.0204 60.3735 55.7074 60.946 56.3945 61.0033C57.1101 61.0605 57.6254 60.488 57.6254 60.488C57.6827 60.4021 57.7972 60.3735 57.9117 60.4021C57.9117 60.4021 58.8277 60.6311 59.4003 60.2017C59.6865 60.0013 59.8297 59.6865 59.8583 59.2284C60.0014 57.5395 57.7686 56.7093 57.7399 56.7093C57.5968 56.652 57.5109 56.4803 57.5682 56.3372C57.6254 56.194 57.7972 56.1081 57.9403 56.1654C58.0548 56.194 60.6026 57.1387 60.4308 59.2571C60.3736 59.8868 60.1446 60.3449 59.7152 60.6311C59.114 61.0605 58.2838 61.0033 57.9403 60.946C57.7399 61.2037 57.2246 61.6044 56.509 61.6044Z" fill="black" stroke="black" stroke-width="0.5"/>
<path d="M59.0271 66.843C58.8839 66.843 58.7694 66.7285 58.7408 66.5854C58.7408 66.5568 58.3973 63.1216 56.7656 61.4613C56.6511 61.3468 56.6511 61.175 56.7656 61.0605C56.8801 60.946 57.0518 60.946 57.1663 61.0605C58.9698 62.864 59.3133 66.385 59.3133 66.5281C59.3419 66.6713 59.2274 66.8144 59.0271 66.843C59.0557 66.843 59.0271 66.843 59.0271 66.843Z" fill="black"/>
<path d="M59.0271 66.843C58.8839 66.843 58.7694 66.7285 58.7408 66.5854C58.7408 66.5568 58.3973 63.1216 56.7656 61.4613C56.6511 61.3468 56.6511 61.175 56.7656 61.0605C56.8801 60.946 57.0518 60.946 57.1663 61.0605C58.9698 62.864 59.3133 66.385 59.3133 66.5281C59.3419 66.6713 59.2274 66.8144 59.0271 66.843ZM59.0271 66.843C59.0557 66.843 59.0271 66.843 59.0271 66.843Z" stroke="black" stroke-width="0.5"/>
<path d="M65.6126 65.9842C65.584 65.9842 65.5554 65.9842 65.5267 65.9555C65.3836 65.8983 65.2977 65.7265 65.355 65.5834C65.6985 64.696 65.6985 63.9231 65.355 63.2933C64.8397 62.3486 63.6946 62.0623 63.6946 62.0623C63.6087 62.0337 63.5229 61.9765 63.4942 61.8906C63.4656 61.8047 63.4656 61.6902 63.5515 61.6329C63.6087 61.5757 64.6393 60.173 63.2939 58.6271C61.977 57.1099 60.2594 58.484 60.2022 58.5413C60.0877 58.6271 59.8873 58.6271 59.8014 58.5126C59.6869 58.3981 59.7155 58.1977 59.83 58.1119C60.5743 57.4821 62.3778 56.7092 63.7233 58.255C64.9542 59.6863 64.4962 61.0318 64.1813 61.6616C64.6393 61.8333 65.4122 62.2627 65.8416 63.0643C66.2424 63.8372 66.271 64.7532 65.8702 65.8124C65.8416 65.9269 65.7271 65.9842 65.6126 65.9842Z" fill="black" stroke="black" stroke-width="0.5"/>
<path d="M63.4938 58.7132C63.3507 58.7132 63.2076 58.5986 63.2076 58.4555C63.2076 58.2838 63.3221 58.1692 63.4652 58.1692C63.5511 58.1692 65.5836 58.0261 65.6981 56.2799C65.8126 54.5337 63.5225 54.1902 63.4366 54.1615C63.3221 54.1329 63.2362 54.0756 63.2076 53.9611C63.1789 53.8466 63.2076 53.7321 63.3221 53.6749C63.3221 53.6749 63.7515 53.3314 63.8087 52.7874C63.8374 52.4153 63.6656 52.0432 63.2935 51.6424C62.3774 50.6691 60.5739 51.6138 60.5739 51.6424C60.4308 51.7283 60.259 51.671 60.1732 51.5279C60.0873 51.3847 60.1445 51.213 60.2877 51.1271C60.3736 51.0699 62.4919 49.9534 63.6942 51.2416C64.1809 51.7569 64.4099 52.2722 64.3526 52.8161C64.324 53.1882 64.1809 53.4745 64.0377 53.7035C65.0397 53.9898 66.3851 54.7627 66.2706 56.3085C66.1847 58.112 64.4385 58.6845 63.4938 58.7132C63.5225 58.7132 63.5225 58.7132 63.4938 58.7132Z" fill="black"/>
<path d="M63.4938 58.7132C63.3507 58.7132 63.2076 58.5986 63.2076 58.4555C63.2076 58.2838 63.3221 58.1692 63.4652 58.1692C63.5511 58.1692 65.5836 58.0261 65.6981 56.2799C65.8126 54.5337 63.5225 54.1902 63.4366 54.1615C63.3221 54.1329 63.2362 54.0756 63.2076 53.9611C63.1789 53.8466 63.2076 53.7321 63.3221 53.6749C63.3221 53.6749 63.7515 53.3314 63.8087 52.7874C63.8374 52.4153 63.6656 52.0432 63.2935 51.6424C62.3774 50.6691 60.5739 51.6138 60.5739 51.6424C60.4308 51.7283 60.259 51.671 60.1732 51.5279C60.0873 51.3847 60.1445 51.213 60.2877 51.1271C60.3736 51.0699 62.4919 49.9534 63.6942 51.2416C64.1809 51.7569 64.4099 52.2722 64.3526 52.8161C64.324 53.1882 64.1809 53.4745 64.0377 53.7035C65.0397 53.9898 66.3851 54.7627 66.2706 56.3085C66.1847 58.112 64.4385 58.6845 63.4938 58.7132ZM63.4938 58.7132C63.5225 58.7132 63.5225 58.7132 63.4938 58.7132Z" stroke="black" stroke-width="0.5"/>
<path d="M71.3932 59.028C71.2787 59.028 71.1642 58.9421 71.1069 58.8276C70.7634 57.568 69.8187 56.8237 68.3301 56.5661C67.1564 56.3657 66.0686 56.5661 66.0686 56.5661C65.9255 56.5947 65.7537 56.4802 65.7251 56.3371C65.6965 56.1939 65.811 56.0222 65.9541 55.9936C66.0114 55.9936 70.7061 55.1348 71.6794 58.6558C71.7081 58.7989 71.6222 58.9707 71.4791 58.9993C71.4504 59.028 71.4218 59.028 71.3932 59.028Z" fill="black" stroke="black" stroke-width="0.5"/>
<path d="M69.5618 56.9095C69.4759 56.9095 69.4187 56.8809 69.3614 56.8236C69.2469 56.7091 69.2756 56.5374 69.3901 56.4229C70.163 55.7358 70.4779 55.0488 70.392 54.3618C70.1916 52.9591 68.2164 52.0144 68.2164 52.0144C68.1019 51.9571 68.0446 51.8426 68.0446 51.6995C68.0732 51.585 68.1878 51.4705 68.3023 51.4705H68.3595C69.1897 51.3846 69.5618 50.7548 69.6191 50.2109C69.6763 49.6956 69.5046 49.0086 68.7603 48.7223C67.7584 48.3502 66.4415 48.7223 66.4129 48.7223C66.2984 48.751 66.1553 48.6937 66.098 48.5792C66.0408 48.4647 66.0408 48.3216 66.1553 48.2357C66.1553 48.2357 66.7278 47.6632 66.6419 47.1192C66.5847 46.833 66.3557 46.5467 65.9263 46.3463C64.4663 45.602 62.2621 47.6059 62.2334 47.6345C62.1189 47.749 61.9472 47.7204 61.8327 47.6059C61.7182 47.4914 61.7468 47.3196 61.8613 47.2051C61.9758 47.1192 64.3804 44.915 66.2125 45.8311C66.8137 46.1459 67.1572 46.5467 67.2431 47.0334C67.3003 47.4055 67.1858 47.749 67.0427 48.0353C67.5866 47.978 68.3309 47.9494 69.0179 48.2071C70.0199 48.5792 70.3634 49.5239 70.2489 50.2968C70.163 50.8979 69.7908 51.5564 69.1324 51.8713C69.8195 52.3293 70.85 53.1594 71.0218 54.3045C71.1649 55.1633 70.7641 56.0221 69.8481 56.8523C69.705 56.8809 69.6191 56.9095 69.5618 56.9095Z" fill="black" stroke="black" stroke-width="0.5"/>
<path d="M70.4204 44.6861C70.3059 44.6861 70.22 44.6288 70.1628 44.5143C70.1055 44.3712 70.1628 44.1994 70.3059 44.1422C71.5082 43.541 72.4529 43.5696 72.9968 43.6842C72.7392 42.4532 72.8823 41.5085 73.3976 40.8788C73.9129 40.249 74.6571 40.1345 74.972 40.1058C75.6877 39.2757 75.8595 37.7585 75.4301 36.413C75.0293 35.1821 74.1991 34.3233 73.1399 34.1229C72.5102 34.0084 71.9662 34.0942 71.5082 34.4091C70.4777 35.1534 70.2773 36.8424 70.2773 36.8424C70.2773 36.9569 70.1914 37.0428 70.1055 37.0714C69.991 37.1 69.8765 37.0714 69.8193 37.0142C69.2181 36.4416 68.3593 36.2985 67.615 36.642C66.8707 36.9855 66.4127 37.7012 66.4127 38.5314C66.4127 38.7031 66.4127 38.8176 66.4127 38.8463C66.4127 38.9894 66.2982 39.1325 66.155 39.1612C65.9833 39.1612 65.8688 39.0466 65.8402 38.9035C65.8402 38.9035 65.8402 38.7604 65.8115 38.56C65.7829 37.5008 66.3841 36.5848 67.3574 36.1554C68.1875 35.7832 69.075 35.8691 69.7906 36.3271C69.9338 35.6973 70.3059 34.5809 71.1647 33.9797C71.7372 33.5503 72.4529 33.4358 73.2258 33.579C74.4854 33.8366 75.4873 34.8099 75.9453 36.2699C76.4606 37.873 76.203 39.6478 75.2869 40.6211C75.2297 40.6784 75.1438 40.707 75.0579 40.707C75.0579 40.707 74.285 40.6784 73.7983 41.2795C73.3403 41.8234 73.2831 42.7967 73.6266 44.0849C73.6552 44.1994 73.6266 44.3139 73.5121 44.3998C73.4262 44.4571 73.2831 44.4857 73.1972 44.4284C73.1686 44.3998 72.1953 43.8845 70.5063 44.7147C70.5063 44.6861 70.4777 44.6861 70.4204 44.6861Z" fill="black" stroke="black" stroke-width="0.5"/>
<path d="M74.6282 34.8958C74.5995 34.8958 74.5709 34.8958 74.5709 34.8958C74.4278 34.8672 74.3133 34.6954 74.3705 34.5523C74.3992 34.495 74.7713 32.9492 76.2885 32.1477C76.4316 32.0618 76.6034 32.119 76.6606 32.2622C76.7465 32.4053 76.6893 32.577 76.5461 32.6343C75.2579 33.2927 74.9144 34.6382 74.9144 34.6668C74.8858 34.8099 74.7713 34.8958 74.6282 34.8958Z" fill="black" stroke="black" stroke-width="0.5"/>
<path d="M69.9059 50.3542C69.82 50.3542 69.7341 50.3255 69.6769 50.2397C69.591 50.0965 69.6196 49.9248 69.7341 49.8389C71.3086 48.7511 72.7686 48.3217 74.0854 48.5507C75.0587 48.7225 75.6885 49.2377 76.032 49.5813C76.3183 49.2377 76.8335 48.9801 77.1484 48.837C76.5186 47.5774 76.3755 46.4896 76.7477 45.5449C77.1484 44.5144 78.0645 43.9991 78.5511 43.7701C77.3202 41.1078 75.0587 40.6784 75.0587 40.6784C74.9156 40.6498 74.801 40.5066 74.8297 40.3349C74.8583 40.1917 75.0014 40.0772 75.1732 40.1059C75.2877 40.1345 77.8927 40.6498 79.2095 43.7987C79.2382 43.8846 79.2382 43.9704 79.2095 44.0277C79.1809 44.085 79.1237 44.1422 79.0378 44.1708C79.0378 44.1708 77.7496 44.5716 77.2916 45.7167C76.948 46.5468 77.1198 47.606 77.8068 48.8083C77.8355 48.8942 77.8641 48.9801 77.8355 49.066C77.8068 49.1519 77.7496 49.2091 77.6637 49.2377C77.177 49.3809 76.4614 49.753 76.3755 50.0965C76.3469 50.211 76.261 50.2969 76.1465 50.3255C76.032 50.3542 75.9175 50.2969 75.8602 50.211C75.8602 50.211 75.2304 49.3236 73.9995 49.0946C72.8544 48.8942 71.5376 49.295 70.1063 50.2969C70.0204 50.3255 69.9632 50.3542 69.9059 50.3542Z" fill="black" stroke="black" stroke-width="0.5"/>
<path d="M82.6727 44.9437C82.5868 44.9437 82.5009 44.9151 82.4437 44.8292C82.3864 44.7719 81.2986 43.541 78.9799 44.1994C78.8367 44.228 78.665 44.1422 78.6363 43.999C78.6077 43.8559 78.6936 43.6841 78.8367 43.6555C80.7547 43.1116 81.957 43.7414 82.5295 44.1422C83.5601 41.3368 85.564 41.5085 85.6498 41.5085C85.793 41.5371 85.9075 41.6516 85.9075 41.8234C85.8789 41.9665 85.7644 42.081 85.5926 42.081C85.5067 42.081 83.7605 41.9379 82.9303 44.7147C82.9017 44.8292 82.8158 44.8865 82.7013 44.9151C82.7013 44.9437 82.7013 44.9437 82.6727 44.9437Z" fill="black" stroke="black" stroke-width="0.5"/>
<path d="M77.7207 56.7378C77.6349 56.7378 77.5776 56.7092 77.5203 56.652C77.4058 56.5374 77.4058 56.3657 77.5203 56.2512C77.5203 56.2512 78.4078 55.3924 78.2074 54.5622C78.0643 53.9611 77.3486 53.4744 76.1463 53.1309C76.0604 53.1023 75.9745 53.0164 75.9459 52.9305C75.9173 52.816 75.9459 52.7301 76.0318 52.6442C76.1463 52.5583 77.0337 51.6423 75.86 50.2682C75.7455 50.1537 75.7741 49.9533 75.8886 49.8674C76.0031 49.7529 76.2035 49.7816 76.2894 49.8961C77.3486 51.1556 77.0051 52.1862 76.6902 52.7015C77.8925 53.1023 78.5795 53.7034 78.7513 54.4477C79.0376 55.5928 77.9498 56.652 77.8925 56.6806C77.8639 56.7092 77.778 56.7378 77.7207 56.7378Z" fill="black" stroke="black" stroke-width="0.5"/>
<path d="M85.0773 52.0431C84.9914 52.0431 84.9055 52.0145 84.8483 51.9286C83.3597 49.982 81.0123 51.7282 80.8978 51.8141C80.8119 51.8713 80.6974 51.9 80.6115 51.8427C80.5257 51.7855 80.4398 51.6996 80.4398 51.6137C80.3825 50.7835 80.0963 50.1824 79.6096 49.7816C78.7794 49.1232 77.5771 49.2663 77.5771 49.2663C77.434 49.2949 77.2622 49.1804 77.2622 49.0373C77.2336 48.8942 77.3481 48.7224 77.4912 48.7224C77.5485 48.7224 78.9226 48.522 79.9531 49.3522C80.4684 49.753 80.8119 50.3541 80.9264 51.1271C82.0429 50.4686 83.9608 49.9247 85.249 51.6137C85.3349 51.7282 85.3349 51.9286 85.1918 52.0145C85.1918 52.0145 85.1345 52.0431 85.0773 52.0431Z" fill="black" stroke="black" stroke-width="0.5"/>
<path d="M77.5481 42.2242C77.5195 42.2242 77.4908 42.2242 77.4908 42.2242C77.3477 42.1955 77.2332 42.0238 77.2904 41.8806C77.3191 41.7948 77.8057 39.934 79.1512 39.3615C79.4947 39.2184 79.8668 39.1611 80.2676 39.2184C79.8382 38.6458 79.4374 37.9015 79.5233 37.1C79.6092 36.2985 80.1817 35.6114 81.1837 35.0961C81.3268 35.0103 81.4986 35.0675 81.5558 35.2106C81.6417 35.3538 81.5845 35.5255 81.4413 35.5828C80.6111 36.0122 80.1531 36.5561 80.0672 37.1573C79.9241 38.4168 81.4699 39.6764 81.4699 39.6764C81.5845 39.7623 81.6131 39.934 81.5272 40.0485C81.4413 40.163 81.2696 40.2203 81.1551 40.1344C80.468 39.7336 79.8669 39.6478 79.3516 39.8481C78.2638 40.3062 77.8344 41.9665 77.8344 41.9665C77.7771 42.1383 77.6626 42.2242 77.5481 42.2242Z" fill="black" stroke="black" stroke-width="0.5"/>
<path d="M10.8492 63.9517C10.3053 63.9517 9.70413 63.8658 9.04571 63.6941C8.90258 63.6654 8.8167 63.4937 8.84533 63.3506C8.87396 63.2074 9.04571 63.1215 9.18885 63.1502C10.7633 63.5796 11.9656 63.4651 12.7385 62.778C14.084 61.6043 13.7977 59.1138 13.7977 59.0852C13.7977 58.9707 13.8264 58.8562 13.9409 58.7989C14.0267 58.7417 14.1699 58.7417 14.2557 58.7989C15.1432 59.4001 16.9466 59.2856 18.1203 58.5413C18.6929 58.1978 19.3799 57.5394 19.2368 56.4802C19.1509 55.8504 18.9219 55.3924 18.5211 55.1061C17.7768 54.6194 16.7176 54.8771 16.689 54.9057C16.5745 54.9343 16.4886 54.9057 16.4027 54.8198C16.3169 54.734 16.3169 54.6194 16.3455 54.5336C16.6318 53.6748 16.6031 53.045 16.2882 52.6156C15.7157 51.8999 14.4275 51.9572 14.4275 51.9572C14.2844 51.9572 14.1412 51.8427 14.1126 51.6995C14.1126 51.5278 14.2271 51.4133 14.3703 51.3846C14.4275 51.3846 15.9733 51.2701 16.7176 52.2434C17.0898 52.7301 17.2043 53.4171 17.0039 54.2473C17.4619 54.1901 18.2062 54.2187 18.8074 54.6195C19.3513 54.9916 19.6948 55.5928 19.7807 56.3943C19.9238 57.4535 19.4085 58.3982 18.4066 59.0279C17.2329 59.7436 15.5153 59.944 14.3989 59.5146C14.4275 60.402 14.2844 62.1769 13.1107 63.1788C12.5382 63.6941 11.7939 63.9517 10.8492 63.9517Z" fill="black" stroke="black" stroke-width="0.5"/>
<path d="M11.9074 72.1103C11.7356 72.1103 11.6211 71.9672 11.6211 71.8241C11.6211 71.6523 11.7356 71.5378 11.9074 71.5378C11.9646 71.5378 15.6002 71.5092 16.001 69.4195C16.0868 69.0187 16.001 68.5607 15.8006 68.1313C15.5429 67.616 14.999 66.7858 14.3692 66.8431C14.2547 66.8431 14.1116 66.7858 14.083 66.6713C14.0257 66.5568 14.083 66.4137 14.1689 66.3278C14.1975 66.3278 15.6861 65.1541 15.5716 63.8945C15.4857 63.1502 14.8559 62.4918 13.6822 61.9193C13.5391 61.862 13.4818 61.6903 13.5391 61.5472C13.5963 61.404 13.7681 61.3468 13.9112 61.404C15.2853 62.0624 16.0296 62.864 16.1155 63.8373C16.23 64.8965 15.4857 65.8698 14.9704 66.385C15.5716 66.6427 16.0296 67.3011 16.3158 67.8736C16.5735 68.3889 16.688 68.9901 16.5735 69.5053C16.0868 72.0531 12.1364 72.1103 11.9074 72.1103Z" fill="black" stroke="black" stroke-width="0.5"/>
<path d="M18.0622 73.0836C18.005 73.0836 17.9764 73.0836 17.9191 73.0549C17.776 72.969 17.7187 72.7973 17.8046 72.6542C17.8046 72.6542 18.1195 72.053 17.8905 71.3373C17.6901 70.7075 17.0889 70.1636 16.1729 69.7342C16.0298 69.677 15.9725 69.5052 16.0298 69.3621C16.087 69.219 16.2588 69.1617 16.4019 69.219C17.4897 69.7342 18.1767 70.3927 18.4344 71.1942C18.7493 72.1389 18.3199 72.9118 18.2912 72.969C18.2626 73.0263 18.1481 73.0836 18.0622 73.0836Z" fill="black" stroke="black" stroke-width="0.5"/>
<path d="M16.3166 68.7038C16.2021 68.7038 16.0876 68.6179 16.0589 68.5034C16.0017 68.3603 16.0876 68.1885 16.2307 68.1313C18.0628 67.5301 17.7479 66.2992 17.7193 66.2705C17.6907 66.156 17.7193 66.0415 17.8052 65.9843C17.891 65.8984 18.0056 65.8984 18.0914 65.927C18.6926 66.156 19.2079 66.2419 19.6659 66.2419C20.2957 66.2419 20.811 65.7839 20.8682 65.1827C20.8968 64.9251 20.811 64.6961 20.6678 64.4957C20.0953 63.8086 18.6353 63.6941 18.6067 63.6941C18.4636 63.6941 18.3777 63.5796 18.3491 63.4365C18.3204 63.2934 18.4063 63.1789 18.5495 63.1216H18.5781C19.0647 62.9498 19.3796 62.5491 19.4941 62.0624C19.6086 61.5471 19.4369 61.0032 19.0647 60.6025C18.1487 59.715 16.5742 59.6292 16.5742 59.6292C16.4025 59.6292 16.288 59.486 16.288 59.3429C16.288 59.1711 16.4311 59.0566 16.5742 59.0566C16.6601 59.0566 18.3777 59.1425 19.4655 60.1731C19.9808 60.6884 20.2098 61.4326 20.0667 62.1483C19.9808 62.5777 19.7518 62.9498 19.4655 63.2075C20.0094 63.3506 20.7251 63.6083 21.1258 64.0949C21.3835 64.4098 21.498 64.7819 21.4694 65.2113C21.3835 66.0988 20.6106 66.7858 19.7231 66.7858C19.3224 66.7858 18.8644 66.7285 18.3491 66.5568C18.3204 67.1293 18.0342 68.1026 16.4311 68.6465C16.4025 68.7038 16.3738 68.7038 16.3166 68.7038Z" fill="black" stroke="black" stroke-width="0.5"/>
<path d="M25.1054 70.3355C25.1054 70.3355 26.2791 67.9595 24.1035 67.0148L25.1054 70.3355Z" fill="#FEF1BE"/>
<path d="M25.1054 70.3355C25.1054 70.3355 26.2791 67.9595 24.1035 67.0148" stroke="black" stroke-width="0.5"/>
<path d="M25.1044 70.6218C25.0472 70.6218 25.0186 70.6218 24.9899 70.5931C24.8468 70.5359 24.7896 70.3641 24.8754 70.221C24.8754 70.221 25.3907 69.1904 25.0472 68.303C24.8754 67.845 24.5319 67.5015 24.0166 67.2724C23.8735 67.2152 23.8162 67.0434 23.8735 66.9003C23.9308 66.7572 24.1025 66.6999 24.2456 66.7572C24.9327 67.0434 25.3907 67.5015 25.5911 68.1026C25.9919 69.2191 25.4193 70.4214 25.3907 70.45C25.3048 70.5645 25.219 70.6218 25.1044 70.6218Z" fill="black" stroke="black" stroke-width="0.5"/>
</g>
<defs>
<clipPath id="clip0">
<rect width="89" height="79.5819" fill="white"/>
</clipPath>
</defs>
</svg>
