<svg width="751" height="675" viewBox="0 0 751 675" fill="none" xmlns="http://www.w3.org/2000/svg">
<path d="M427.299 61.6002C472.167 55.2624 513.338 87.4199 518.054 132.487L551.997 456.831C556.006 495.143 532.144 530.872 495.219 541.844L159.635 641.563C111.852 655.762 62.8588 623.276 57.3399 573.734L15.5049 198.189C10.7146 155.187 40.9815 116.17 83.8237 110.118L427.299 61.6002Z" fill="#FFF7D9"/>
<path d="M164.041 57.2944C174.099 23.3141 205.314 0 240.751 0H590.053C628.574 0 661.625 27.4518 668.694 65.3182L735.194 421.514C743.542 466.23 712.973 508.9 667.947 515.38L123.525 593.724C65.7961 602.032 18.8667 547.76 35.4203 491.834L164.041 57.2944Z" fill="#FDEAA7"/>
<path d="M277.024 193.4H370.124C370.124 193.4 371.124 170.6 351.624 170.1C351.624 170.1 349.224 138.7 323.624 136.8C298.024 134.9 300.324 172.2 300.324 172.2C300.324 172.2 276.124 168.7 277.024 193.4Z" fill="#ADF0E7" stroke="#2E1E00" stroke-width="4" stroke-miterlimit="10" stroke-linecap="round" stroke-linejoin="round"/>
<path d="M425.058 140H607C607 140 601.444 83.431 561.564 99.1115C561.564 99.1115 562.556 35 509.581 35C456.605 35 463.153 95.3403 463.153 95.3403C463.153 95.3403 423.273 96.5312 425.058 140Z" fill="#ADF0E7" stroke="#2E1E00" stroke-width="4" stroke-miterlimit="10" stroke-linecap="round" stroke-linejoin="round"/>
<path d="M607.002 219H675.744C675.744 219 678.876 203.687 663.219 203.46C663.219 203.46 663.964 180 643.163 180C622.361 180 626.238 203.159 626.238 203.159C626.238 203.159 606.778 201.122 607.002 219Z" fill="#ADF0E7" stroke="#2E1E00" stroke-width="4" stroke-miterlimit="10" stroke-linecap="round" stroke-linejoin="round"/>
<path d="M491.154 133.856L496.954 146.856" stroke="#2E1E00" stroke-width="4" stroke-miterlimit="10" stroke-linecap="round" stroke-linejoin="round"/>
<path d="M330.456 379.457C330.056 387.657 324.056 393.957 316.656 394.557C315.956 394.557 315.356 394.557 314.656 394.557L245.156 389.656C244.856 388.256 244.556 386.757 244.256 385.357C242.256 376.457 239.956 366.756 237.256 356.656L316.356 362.257C324.556 362.857 330.956 370.557 330.456 379.457Z" fill="#FA6456" stroke="#2E1E00" stroke-width="4" stroke-miterlimit="10" stroke-linecap="round" stroke-linejoin="round"/>
<path d="M482.454 515.656L450.554 522.756C449.354 523.056 448.254 523.156 447.054 523.156C439.754 523.156 433.154 518.156 431.554 510.656C429.654 502.056 435.054 493.556 443.654 491.656L480.754 483.356C481.054 486.856 481.254 489.756 481.154 491.756C480.854 500.656 481.554 508.856 482.454 515.656Z" fill="#73B7EA" stroke="#2E1E00" stroke-width="4" stroke-miterlimit="10" stroke-linecap="round" stroke-linejoin="round"/>
<path d="M636.355 668.156C621.855 668.056 594.455 668.056 562.755 668.256C521.455 668.556 538.155 587.556 538.155 587.556H504.955C506.855 627.656 503.655 648.756 499.955 659.856C497.455 667.156 490.555 672.156 482.855 672.056C465.855 671.956 453.655 671.556 445.155 671.156C441.155 670.956 438.055 669.256 435.855 666.656C429.455 659.256 434.055 647.556 443.655 645.856L457.555 643.356L464.355 563.956C463.155 563.956 462.055 564.056 460.955 564.056C447.255 564.056 437.855 561.756 437.255 561.556C428.755 559.456 423.555 550.756 425.655 542.256C427.755 533.756 436.455 528.556 444.955 530.656C445.455 530.756 461.355 534.456 479.955 530.056C481.655 529.656 483.355 529.156 485.055 528.656C484.255 525.356 483.255 520.956 482.555 515.656C481.555 508.856 480.955 500.656 481.255 491.756C481.355 489.756 481.155 486.856 480.855 483.356C477.255 444.956 451.455 327.856 451.455 327.856L475.755 348.156C484.055 337.456 509.955 337.256 509.955 337.256L526.955 308.056C597.455 408.956 584.255 631.456 584.255 631.456L637.055 633.156C645.855 633.456 653.255 640.156 654.055 648.856C654.055 649.056 654.055 649.156 654.055 649.356C654.955 659.856 646.755 668.256 636.355 668.156Z" fill="#73B7EA" stroke="#2E1E00" stroke-width="4" stroke-miterlimit="10" stroke-linecap="round" stroke-linejoin="round"/>
<path d="M538.154 587.557H555.354" stroke="#2E1E00" stroke-width="4" stroke-miterlimit="10" stroke-linecap="round" stroke-linejoin="round"/>
<path d="M532.555 537.156H555.355" stroke="#2E1E00" stroke-width="4" stroke-miterlimit="10" stroke-linecap="round" stroke-linejoin="round"/>
<path d="M476.756 451.256C476.756 451.256 529.356 469.256 569.856 416.356" stroke="#FEFFFA" stroke-width="4" stroke-miterlimit="10" stroke-linecap="round" stroke-linejoin="round"/>
<path d="M288.954 635.257L292.254 663.457C282.254 659.657 276.154 654.357 276.154 648.657C276.254 643.657 280.954 638.957 288.954 635.257Z" fill="#2E1E00" stroke="#2E1E00" stroke-width="4" stroke-miterlimit="10" stroke-linecap="round" stroke-linejoin="round"/>
<path d="M392.856 648.657C392.856 658.657 374.356 667.057 349.256 669.457L358.056 629.057C378.556 632.357 392.856 639.857 392.856 648.657Z" fill="#2E1E00" stroke="#2E1E00" stroke-width="4" stroke-miterlimit="10" stroke-linecap="round" stroke-linejoin="round"/>
<path d="M359.555 621.956L358.055 628.956L349.255 669.356C344.555 669.856 339.655 670.056 334.555 670.056C317.955 670.056 302.955 667.456 292.355 663.356L289.055 635.156L285.455 605.056L311.255 611.256L322.455 341.556L346.755 345.156L332.255 615.556L359.555 621.956Z" fill="#FEFFFA" stroke="#2E1E00" stroke-width="4" stroke-miterlimit="10" stroke-linecap="round" stroke-linejoin="round"/>
<path d="M425.155 580.556L383.755 613.256L425.155 596.856L438.355 629.356L447.755 589.956L489.355 610.556L461.155 580.556L457.555 296.656C457.555 296.656 512.255 281.356 517.555 201.356L509.355 197.756C509.355 197.756 505.155 254.756 457.455 278.756C457.455 278.756 447.755 249.656 470.955 197.756C494.155 145.856 492.455 112.056 492.455 112.056H481.455C481.455 112.056 471.755 163.956 454.455 194.356C437.155 224.756 437.955 270.356 437.955 270.356L428.655 120.956L417.255 121.356L418.055 206.556L395.255 153.856L385.955 161.456L409.155 218.856L428.255 291.956C428.255 291.956 401.755 294.656 381.855 207.556L371.855 217.556C371.855 217.556 376.455 291.556 430.555 308.856L425.155 580.556Z" fill="#FEFFFA" stroke="#2E1E00" stroke-width="4" stroke-miterlimit="10" stroke-linecap="round" stroke-linejoin="round"/>
<path d="M554.355 363.456L533.555 388.856L560.355 381.656L554.355 363.456Z" fill="#2E1E00" stroke="#2E1E00" stroke-width="4" stroke-miterlimit="10" stroke-linecap="round" stroke-linejoin="round"/>
<path d="M561.555 392.257L548.955 402.957H566.055L561.555 392.257Z" fill="#2E1E00" stroke="#2E1E00" stroke-width="4" stroke-miterlimit="10" stroke-linecap="round" stroke-linejoin="round"/>
<path d="M509.625 378.511C510.798 375.53 507.292 371.359 501.793 369.194C496.295 367.03 490.886 367.691 489.712 370.672C488.539 373.652 492.046 377.823 497.544 379.988C503.043 382.153 508.452 381.491 509.625 378.511Z" fill="#2E1E00"/>
<path d="M466.681 386.138C471.872 383.312 474.837 378.74 473.305 375.927C471.774 373.113 466.324 373.124 461.134 375.949C455.944 378.775 452.978 383.347 454.51 386.16C456.042 388.974 461.491 388.964 466.681 386.138Z" fill="#2E1E00"/>
<path d="M478.454 415.056C480.829 415.056 482.754 413.131 482.754 410.756C482.754 408.381 480.829 406.456 478.454 406.456C476.079 406.456 474.154 408.381 474.154 410.756C474.154 413.131 476.079 415.056 478.454 415.056Z" fill="#2E1E00"/>
<path d="M492.655 395.556C494.754 395.556 496.455 393.855 496.455 391.756C496.455 389.658 494.754 387.956 492.655 387.956C490.557 387.956 488.855 389.658 488.855 391.756C488.855 393.855 490.557 395.556 492.655 395.556Z" fill="#2E1E00"/>
<path d="M469.654 397.056C471.587 397.056 473.154 395.489 473.154 393.556C473.154 391.623 471.587 390.056 469.654 390.056C467.721 390.056 466.154 391.623 466.154 393.556C466.154 395.489 467.721 397.056 469.654 397.056Z" fill="#2E1E00"/>
<path d="M490.256 419.856C490.256 419.856 503.856 418.856 499.656 401.556" stroke="#2E1E00" stroke-width="4" stroke-miterlimit="10" stroke-linecap="round" stroke-linejoin="round"/>
<path d="M508.156 173.856C508.156 173.856 481.956 152.356 499.256 147.156C513.856 142.856 508.156 173.856 508.156 173.856Z" stroke="#2E1E00" stroke-width="4" stroke-miterlimit="10" stroke-linecap="round" stroke-linejoin="round"/>
<path d="M378.556 252.257L368.756 262.657" stroke="#2E1E00" stroke-width="4" stroke-miterlimit="10" stroke-linecap="round" stroke-linejoin="round"/>
<path d="M351.855 287.456C351.855 287.456 382.155 272.256 366.455 263.356C353.255 255.956 351.855 287.456 351.855 287.456Z" stroke="#2E1E00" stroke-width="4" stroke-miterlimit="10" stroke-linecap="round" stroke-linejoin="round"/>
<path d="M142.356 508.556C140.856 508.356 139.456 507.956 138.056 507.356C105.156 492.556 84.0558 471.356 75.3558 444.356C61.7558 402.156 84.2558 362.256 85.2558 360.556C89.3558 353.356 98.5558 350.956 105.756 355.056C112.956 359.156 115.356 368.356 111.256 375.456C110.956 376.056 94.3558 406.056 103.956 435.256C109.356 451.756 122.356 465.456 142.556 476.056C142.756 486.956 142.656 497.756 142.356 508.556Z" fill="#FA6456" stroke="#2E1E00" stroke-width="4" stroke-miterlimit="10" stroke-linecap="round" stroke-linejoin="round"/>
<path d="M351.655 422.057C351.655 432.057 343.555 440.156 333.555 440.156H253.455C256.855 484.257 268.755 668.156 232.955 670.156C202.255 671.857 208.555 517.357 208.555 517.357C200.255 521.656 191.555 516.957 191.555 516.957C191.555 516.957 190.555 670.156 158.955 670.156C132.155 670.156 140.855 600.957 141.455 586.257C142.355 560.357 143.855 534.457 144.455 508.557C144.655 497.757 144.755 486.956 144.555 476.156C144.555 474.456 144.455 472.657 144.455 470.957C144.155 460.757 143.655 450.457 142.855 440.257C141.855 428.157 140.455 416.057 138.655 404.057C135.855 386.057 132.155 368.157 127.355 350.557C121.055 327.257 113.255 303.356 101.455 282.156L134.055 293.557C145.955 272.457 173.055 273.757 173.055 273.757V246.156C203.355 256.656 223.955 308.156 236.655 354.156C236.855 355.056 237.155 355.957 237.355 356.757C240.055 366.757 242.355 376.557 244.355 385.457C244.655 386.957 244.955 388.357 245.255 389.757C246.355 394.857 247.355 399.657 248.155 404.057H333.555C343.555 403.957 351.655 412.057 351.655 422.057Z" fill="#FA6456" stroke="#2E1E00" stroke-width="4" stroke-miterlimit="10" stroke-linecap="round" stroke-linejoin="round"/>
<path d="M248.155 403.956H182.555" stroke="#2E1E00" stroke-width="4" stroke-miterlimit="10" stroke-linecap="round" stroke-linejoin="round"/>
<path d="M253.456 440.156H185.256" stroke="#2E1E00" stroke-width="4" stroke-miterlimit="10" stroke-linecap="round" stroke-linejoin="round"/>
<path d="M135.154 384.357C135.154 384.357 202.954 397.457 238.754 362.257" stroke="#FEFFFA" stroke-width="4" stroke-miterlimit="10" stroke-linecap="round" stroke-linejoin="round"/>
<path d="M124.756 341.556L147.356 344.456L128.956 356.656L124.756 341.556Z" fill="#2E1E00" stroke="#2E1E00" stroke-width="4" stroke-miterlimit="10" stroke-linecap="round" stroke-linejoin="round"/>
<path d="M131.055 365.457L160.655 361.656L136.055 380.257L131.055 365.457Z" fill="#2E1E00" stroke="#2E1E00" stroke-width="4" stroke-miterlimit="10" stroke-linecap="round" stroke-linejoin="round"/>
<path d="M189.555 323.056C189.555 323.056 193.255 334.556 204.455 332.356" stroke="#2E1E00" stroke-width="4" stroke-miterlimit="10" stroke-linecap="round" stroke-linejoin="round"/>
<path d="M121.555 330.756L158.955 318.056" stroke="#2E1E00" stroke-width="4" stroke-miterlimit="10" stroke-linecap="round" stroke-linejoin="round"/>
<path d="M150.055 313.757L185.255 299.757C185.255 299.757 197.455 318.357 180.955 323.057C164.555 327.757 150.055 313.757 150.055 313.757Z" fill="#2E1E00" stroke="#2E1E00" stroke-width="4" stroke-miterlimit="10" stroke-linecap="round" stroke-linejoin="round"/>
<path d="M185.255 299.757C185.255 299.757 197.455 318.357 180.955 323.057C164.455 327.757 150.055 313.757 150.055 313.757" fill="#2E1E00"/>
<path d="M185.255 299.757C185.255 299.757 197.455 318.357 180.955 323.057C164.455 327.757 150.055 313.757 150.055 313.757" stroke="#2E1E00" stroke-width="4" stroke-miterlimit="10" stroke-linecap="round" stroke-linejoin="round"/>
<path d="M202.256 293.956C202.256 293.956 208.456 314.456 221.756 307.256C235.056 300.056 233.556 281.356 233.556 281.356L202.256 293.956Z" fill="#2E1E00" stroke="#2E1E00" stroke-width="4" stroke-miterlimit="10" stroke-linecap="round" stroke-linejoin="round"/>
<path d="M186.955 306.857L208.755 298.757" stroke="#2E1E00" stroke-width="4" stroke-miterlimit="10" stroke-linecap="round" stroke-linejoin="round"/>
<path d="M165.619 299.634C169.563 295.69 171.02 290.751 168.872 288.603C166.724 286.456 161.785 287.912 157.841 291.856C153.897 295.8 152.44 300.739 154.588 302.887C156.736 305.035 161.675 303.578 165.619 299.634Z" fill="#2E1E00"/>
<path d="M212.324 281.77C212.592 278.744 208.304 275.893 202.748 275.402C197.192 274.911 192.471 276.965 192.203 279.991C191.936 283.017 196.223 285.868 201.779 286.359C207.336 286.85 212.057 284.795 212.324 281.77Z" fill="#2E1E00"/>
<path d="M206.356 324.457C208.62 324.457 210.456 322.621 210.456 320.357C210.456 318.092 208.62 316.257 206.356 316.257C204.092 316.257 202.256 318.092 202.256 320.357C202.256 322.621 204.092 324.457 206.356 324.457Z" fill="#2E1E00"/>
<path d="M351.355 392.156C362.622 392.156 371.755 384.769 371.755 375.656C371.755 366.544 362.622 359.156 351.355 359.156C340.088 359.156 330.955 366.544 330.955 375.656C330.955 384.769 340.088 392.156 351.355 392.156Z" fill="#FA6456" stroke="#2E1E00" stroke-width="4" stroke-miterlimit="10" stroke-linecap="round" stroke-linejoin="round"/>
<path d="M561.556 493.557C542.856 539.957 509.956 556.157 485.656 561.557C478.056 563.257 470.756 563.957 464.256 564.157C463.056 564.157 461.956 564.257 460.856 564.257C447.156 564.257 437.756 561.957 437.156 561.757C428.656 559.657 423.456 550.957 425.556 542.457C427.656 533.957 436.356 528.757 444.856 530.857C445.356 530.957 461.256 534.657 479.856 530.257C481.556 529.857 483.256 529.357 484.956 528.857C506.256 522.157 522.056 506.357 531.956 481.757" fill="#73B7EA"/>
<path d="M561.556 493.557C542.856 539.957 509.956 556.157 485.656 561.557C478.056 563.257 470.756 563.957 464.256 564.157C463.056 564.157 461.956 564.257 460.856 564.257C447.156 564.257 437.756 561.957 437.156 561.757C428.656 559.657 423.456 550.957 425.556 542.457C427.656 533.957 436.356 528.757 444.856 530.857C445.356 530.957 461.256 534.657 479.856 530.257C481.556 529.857 483.256 529.357 484.956 528.857C506.256 522.157 522.056 506.357 531.956 481.757" stroke="#2E1E00" stroke-width="4" stroke-miterlimit="10" stroke-linecap="round" stroke-linejoin="round"/>
<path d="M429.255 524.656C440.135 524.656 448.955 517.538 448.955 508.756C448.955 499.975 440.135 492.856 429.255 492.856C418.375 492.856 409.555 499.975 409.555 508.756C409.555 517.538 418.375 524.656 429.255 524.656Z" fill="#73B7EA" stroke="#2E1E00" stroke-width="4" stroke-miterlimit="10" stroke-linecap="round" stroke-linejoin="round"/>
<path d="M584.256 631.456L571.756 639.156" stroke="#2E1E00" stroke-width="4" stroke-miterlimit="10" stroke-linecap="round" stroke-linejoin="round"/>
<path d="M226.855 388.656L221.855 376.456" stroke="#FEFFFA" stroke-width="4" stroke-miterlimit="10" stroke-linecap="round" stroke-linejoin="round"/>
<path d="M240.454 394.156C243.654 394.656 245.854 397.556 245.354 400.756C244.954 403.556 242.454 405.656 239.754 405.656C239.954 406.356 239.954 407.056 239.854 407.856C239.354 411.056 236.454 413.256 233.254 412.756C231.354 412.456 229.854 411.356 229.054 409.756C228.754 410.056 228.454 410.356 228.154 410.656C225.554 412.556 221.954 412.056 220.054 409.456C218.154 406.856 218.754 403.256 221.254 401.356C221.754 401.056 222.254 400.756 222.754 400.556C219.754 399.956 217.754 397.056 218.154 393.956C218.654 390.756 221.554 388.556 224.754 389.056C226.154 389.256 227.354 389.956 228.154 390.856C228.754 387.756 231.654 385.656 234.754 386.156C237.954 386.656 240.154 389.656 239.654 392.756C239.554 393.156 239.454 393.656 239.354 394.056C239.654 394.056 240.054 394.056 240.454 394.156Z" fill="#FEFFFA" stroke="#2E1E00" stroke-width="4" stroke-miterlimit="10" stroke-linecap="round" stroke-linejoin="round"/>
<path d="M501.355 467.157L499.355 454.057" stroke="#FEFFFA" stroke-width="4" stroke-miterlimit="10" stroke-linecap="round" stroke-linejoin="round"/>
<path d="M513.255 475.657C516.255 476.857 517.655 480.257 516.455 483.257C515.355 485.957 512.555 487.357 509.755 486.757C509.755 487.457 509.555 488.157 509.355 488.857C508.155 491.857 504.755 493.257 501.755 492.057C499.955 491.357 498.755 489.857 498.355 488.157C498.055 488.357 497.655 488.657 497.255 488.757C494.255 489.957 490.855 488.557 489.655 485.657C488.455 482.657 489.855 479.257 492.755 478.057C493.255 477.857 493.855 477.657 494.355 477.657C491.555 476.357 490.255 473.057 491.455 470.157C492.655 467.157 496.055 465.757 499.055 466.957C500.355 467.457 501.355 468.457 501.955 469.557C503.255 466.657 506.555 465.357 509.455 466.557C512.455 467.757 513.855 471.157 512.655 474.157C512.455 474.557 512.255 474.957 512.055 475.357C512.355 475.357 512.855 475.457 513.255 475.657Z" fill="#FEFFFA" stroke="#2E1E00" stroke-width="4" stroke-miterlimit="10" stroke-linecap="round" stroke-linejoin="round"/>
<path d="M467.756 206.956L475.256 219.156" stroke="#2E1E00" stroke-width="4" stroke-miterlimit="10" stroke-linecap="round" stroke-linejoin="round"/>
<path d="M486.156 246.356C486.156 246.356 459.656 225.256 476.856 219.756C491.356 215.256 486.156 246.356 486.156 246.356Z" fill="#FDEAA7" stroke="#2E1E00" stroke-width="4" stroke-miterlimit="10" stroke-linecap="round" stroke-linejoin="round"/>
<path d="M467.154 207.956L463.354 221.756" stroke="#2E1E00" stroke-width="4" stroke-miterlimit="10" stroke-linecap="round" stroke-linejoin="round"/>
<path d="M451.154 248.456C451.154 248.456 448.254 214.656 464.054 223.456C477.354 230.756 451.154 248.456 451.154 248.456Z" fill="#FDEAA7" stroke="#2E1E00" stroke-width="4" stroke-miterlimit="10" stroke-linecap="round" stroke-linejoin="round"/>
<path d="M398.055 191.456L401.355 205.356" stroke="#2E1E00" stroke-width="4" stroke-miterlimit="10" stroke-linecap="round" stroke-linejoin="round"/>
<path d="M403.454 234.656C403.454 234.656 384.754 206.356 402.754 206.456C417.954 206.656 403.454 234.656 403.454 234.656Z" fill="#FDEAA7" stroke="#2E1E00" stroke-width="4" stroke-miterlimit="10" stroke-linecap="round" stroke-linejoin="round"/>
<path d="M396.455 187.456L393.355 201.356" stroke="#2E1E00" stroke-width="4" stroke-miterlimit="10" stroke-linecap="round" stroke-linejoin="round"/>
<path d="M382.355 228.556C382.355 228.556 377.855 194.956 394.055 202.956C407.655 209.656 382.355 228.556 382.355 228.556Z" fill="#FDEAA7" stroke="#2E1E00" stroke-width="4" stroke-miterlimit="10" stroke-linecap="round" stroke-linejoin="round"/>
<path d="M412.656 237.757L407.256 250.957" stroke="#2E1E00" stroke-width="4" stroke-miterlimit="10" stroke-linecap="round" stroke-linejoin="round"/>
<path d="M391.955 275.957C391.955 275.957 393.155 242.057 407.755 252.657C420.055 261.557 391.955 275.957 391.955 275.957Z" fill="#FDEAA7" stroke="#2E1E00" stroke-width="4" stroke-miterlimit="10" stroke-linecap="round" stroke-linejoin="round"/>
<path d="M386.454 270.056L381.754 283.556" stroke="#2E1E00" stroke-width="4" stroke-miterlimit="10" stroke-linecap="round" stroke-linejoin="round"/>
<path d="M367.855 309.356C367.855 309.356 367.255 275.456 382.355 285.256C395.055 293.456 367.855 309.356 367.855 309.356Z" fill="#FDEAA7" stroke="#2E1E00" stroke-width="4" stroke-miterlimit="10" stroke-linecap="round" stroke-linejoin="round"/>
<path d="M504.154 257.456L513.754 268.056" stroke="#2E1E00" stroke-width="4" stroke-miterlimit="10" stroke-linecap="round" stroke-linejoin="round"/>
<path d="M529.554 292.656C529.554 292.656 499.554 276.856 515.454 268.256C528.754 261.156 529.554 292.656 529.554 292.656Z" fill="#FDEAA7" stroke="#2E1E00" stroke-width="4" stroke-miterlimit="10" stroke-linecap="round" stroke-linejoin="round"/>
<path d="M503.055 258.757L501.455 272.957" stroke="#2E1E00" stroke-width="4" stroke-miterlimit="10" stroke-linecap="round" stroke-linejoin="round"/>
<path d="M493.555 301.157C493.555 301.157 485.456 268.157 502.356 274.357C516.656 279.657 493.555 301.157 493.555 301.157Z" fill="#FDEAA7" stroke="#2E1E00" stroke-width="4" stroke-miterlimit="10" stroke-linecap="round" stroke-linejoin="round"/>
<path d="M509.555 245.656L522.855 250.857" stroke="#2E1E00" stroke-width="4" stroke-miterlimit="10" stroke-linecap="round" stroke-linejoin="round"/>
<path d="M548.055 265.857C548.055 265.857 514.155 265.057 524.555 250.357C533.355 237.957 548.055 265.857 548.055 265.857Z" fill="#FDEAA7" stroke="#2E1E00" stroke-width="4" stroke-miterlimit="10" stroke-linecap="round" stroke-linejoin="round"/>
<path d="M472.456 147.757L462.256 157.757" stroke="#2E1E00" stroke-width="4" stroke-miterlimit="10" stroke-linecap="round" stroke-linejoin="round"/>
<path d="M438.355 174.657C438.355 174.657 452.855 143.957 462.055 159.457C469.755 172.557 438.355 174.657 438.355 174.657Z" fill="#FDEAA7" stroke="#2E1E00" stroke-width="4" stroke-miterlimit="10" stroke-linecap="round" stroke-linejoin="round"/>
</svg>
