<svg width="751" height="671" viewBox="0 0 751 671" fill="none" xmlns="http://www.w3.org/2000/svg">
<path d="M427.299 62.5438C472.167 56.206 513.338 88.3635 518.054 133.431L551.997 457.775C556.006 496.087 532.144 531.815 495.219 542.788L159.635 642.506C111.852 656.705 62.8588 624.22 57.3399 574.677L15.5049 199.132C10.7146 156.131 40.9815 117.113 83.8237 111.062L427.299 62.5438Z" fill="#FFF7D9"/>
<path d="M164.041 58.238C174.099 24.2577 205.314 0.943604 240.751 0.943604H590.053C628.574 0.943604 661.625 28.3954 668.694 66.2618L735.194 422.457C743.542 467.174 712.973 509.844 667.947 516.323L123.525 594.668C65.7961 602.975 18.8667 548.703 35.4203 492.778L164.041 58.238Z" fill="#FDEAA7"/>
<path d="M473.976 149.393C473.223 149.393 472.564 149.017 472.281 148.263L466.818 135.925C466.441 134.983 466.818 133.853 467.76 133.476C468.702 133.099 469.832 133.476 470.209 134.418L475.672 146.756C476.048 147.698 475.672 148.828 474.73 149.205C474.447 149.299 474.259 149.393 473.976 149.393Z" fill="#2E1E00"/>
<path d="M317.254 366.587C316.878 374.311 311.226 380.244 304.257 380.809C303.597 380.809 303.032 380.809 302.373 380.809L236.913 376.194C236.631 374.876 236.348 373.463 236.066 372.144C234.182 363.762 232.016 354.626 229.473 345.113L303.974 350.387C311.697 350.952 317.631 358.11 317.254 366.587Z" fill="#FA6456"/>
<path d="M303.313 382.693C302.937 382.693 302.56 382.693 302.183 382.693L236.724 378.078C235.876 377.983 235.217 377.418 235.028 376.571C234.746 375.44 234.557 374.216 234.275 373.086L234.181 372.521C232.109 363.102 229.848 354.06 227.588 345.583C227.399 345.018 227.588 344.359 227.964 343.888C228.341 343.417 228.906 343.135 229.565 343.229L304.067 348.503C312.826 349.163 319.608 357.263 319.137 366.681C318.666 375.252 312.355 382.128 304.349 382.693C303.973 382.693 303.69 382.693 303.313 382.693ZM238.419 374.404L302.466 378.925C303.031 378.925 303.502 378.925 304.067 378.925C310.189 378.454 314.992 373.18 315.369 366.493C315.746 359.146 310.566 352.742 303.784 352.271L231.92 347.185C233.992 355.002 235.97 363.196 237.854 371.673L237.948 372.238C238.136 372.897 238.325 373.651 238.419 374.404Z" fill="#2E1E00"/>
<path d="M460.414 494.775L430.369 501.462C429.239 501.744 428.203 501.839 427.072 501.839C420.197 501.839 413.981 497.129 412.474 490.065C410.684 481.965 415.77 473.96 423.87 472.17L458.813 464.353C459.096 467.649 459.284 470.38 459.19 472.264C458.907 480.741 459.473 488.37 460.414 494.775Z" fill="#ADF0E7"/>
<path d="M427.074 503.723C419.257 503.723 412.287 498.166 410.592 490.536C409.65 486.11 410.403 481.589 412.852 477.821C415.301 474.054 419.068 471.417 423.401 470.381L458.344 462.563C458.909 462.469 459.38 462.563 459.851 462.846C460.322 463.128 460.605 463.693 460.605 464.164C460.887 467.649 461.076 470.381 460.981 472.359C460.699 479.611 461.075 487.052 462.206 494.492C462.3 495.434 461.735 496.376 460.793 496.564L430.748 503.252C429.617 503.628 428.299 503.723 427.074 503.723ZM457.12 466.707L424.249 474.054C420.858 474.807 417.938 476.879 416.054 479.799C414.171 482.719 413.606 486.298 414.359 489.689C415.678 495.623 421.046 499.955 427.168 499.955C428.11 499.955 429.052 499.861 429.994 499.673L458.344 493.362C457.402 486.204 457.12 479.14 457.308 472.264C457.402 470.852 457.308 468.968 457.12 466.707Z" fill="#2E1E00"/>
<path d="M605.368 638.408C591.711 638.314 565.904 638.314 536.047 638.502C497.148 638.785 512.877 562.494 512.877 562.494H481.607C483.396 600.263 480.383 620.136 476.898 630.591C474.543 637.466 468.044 642.176 460.792 642.081C444.78 641.987 433.289 641.611 425.284 641.234C421.516 641.045 418.596 639.444 416.524 636.995C410.496 630.026 414.829 619.006 423.871 617.405L436.963 615.05L443.367 540.266C442.237 540.266 441.201 540.36 440.165 540.36C427.261 540.36 418.408 538.194 417.843 538.006C409.837 536.028 404.939 527.834 406.917 519.828C408.895 511.822 417.089 506.924 425.095 508.902C425.566 508.996 440.542 512.481 458.06 508.337C459.662 507.96 461.263 507.489 462.864 507.018C462.11 503.91 461.169 499.766 460.509 494.774C459.567 488.369 459.002 480.646 459.285 472.264C459.379 470.38 459.191 467.649 458.908 464.352C455.517 428.184 431.217 317.892 431.217 317.892L454.105 337.012C461.922 326.934 486.316 326.746 486.316 326.746L502.328 299.243C568.729 394.277 556.297 603.842 556.297 603.842L606.027 605.443C614.315 605.726 621.285 612.036 622.039 620.23C622.039 620.419 622.039 620.513 622.039 620.701C622.792 630.591 615.069 638.502 605.368 638.408Z" fill="#ADF0E7"/>
<path d="M460.792 643.965H460.698C446.946 643.871 434.985 643.589 425.095 643.118C421.139 642.929 417.466 641.234 415.017 638.22C411.815 634.547 410.967 629.461 412.568 624.846C414.264 620.042 418.502 616.463 423.4 615.615L435.079 613.543L441.201 542.339C440.824 542.339 440.448 542.339 440.071 542.339C427.167 542.339 418.22 540.172 417.278 539.984C408.236 537.723 402.773 528.493 405.033 519.451C407.294 510.504 416.43 504.947 425.472 507.207C426.979 507.584 441.107 510.504 457.589 506.642C458.625 506.359 459.661 506.171 460.603 505.888C459.85 502.404 459.096 498.824 458.625 495.151C457.495 487.428 457.119 479.799 457.401 472.358C457.495 470.569 457.307 468.026 457.024 464.729C453.634 429.127 429.616 319.588 429.334 318.458C429.145 317.704 429.522 316.857 430.181 316.48C430.841 316.103 431.782 316.103 432.347 316.668L453.916 334.658C462.11 326.464 480.477 325.333 485.186 325.145L500.727 298.584C501.009 298.019 501.669 297.643 502.234 297.643C502.893 297.643 503.458 297.925 503.835 298.49C538.401 347.938 551.305 428.467 556.108 487.334C560.723 544.128 558.84 592.257 558.275 602.335L606.121 603.936C615.446 604.219 623.075 611.377 624.017 620.513V621.078C624.393 626.258 622.698 631.156 619.213 634.829C615.728 638.503 610.736 640.669 605.556 640.669H605.462C591.146 640.575 565.339 640.575 536.141 640.763C536.047 640.763 535.952 640.763 535.858 640.763C528.135 640.763 521.919 637.938 517.304 632.286C502.799 614.674 508.827 574.739 510.616 564.661H483.585C484.903 595.271 483.208 617.782 478.687 631.439C476.05 638.879 468.892 643.965 460.792 643.965ZM443.273 538.571C443.744 538.571 444.309 538.759 444.592 539.136C444.968 539.513 445.157 540.078 445.063 540.549L438.658 615.333C438.564 616.181 437.905 616.84 437.151 617.028L424.059 619.383C420.386 620.042 417.372 622.585 416.053 626.164C414.829 629.555 415.488 633.134 417.749 635.866C419.067 637.372 421.422 639.256 425.189 639.445C434.985 639.915 446.946 640.198 460.603 640.292H460.698C467.196 640.292 472.848 636.148 474.92 630.026C478.028 620.701 481.324 601.487 479.535 562.683C479.535 562.212 479.723 561.647 480.1 561.27C480.477 560.893 480.948 560.705 481.419 560.705H512.688C513.254 560.705 513.819 560.987 514.195 561.364C514.572 561.741 514.666 562.4 514.572 562.965C514.478 563.436 504.871 611.189 520.035 629.649C523.991 634.453 529.171 636.807 535.858 636.713C565.15 636.525 590.863 636.525 605.273 636.619H605.368C609.606 636.619 613.468 634.924 616.293 632.004C619.025 629.084 620.438 625.128 620.155 621.078V620.89C620.155 620.796 620.155 620.701 620.155 620.607C619.496 613.449 613.374 607.798 605.933 607.515L556.108 605.914C555.637 605.914 555.166 605.632 554.79 605.255C554.413 604.878 554.225 604.407 554.319 603.842C554.319 603.277 557.333 550.815 552.247 487.428C547.632 429.974 535.199 351.8 502.328 302.917L487.823 327.782C487.446 328.347 486.881 328.724 486.222 328.724C486.034 328.724 462.675 329.101 455.517 338.237C455.235 338.614 454.764 338.896 454.199 338.99C453.728 339.085 453.163 338.896 452.786 338.519L434.137 322.884C439.035 345.489 457.778 432.988 460.698 464.258C460.98 467.743 461.168 470.474 461.074 472.452C460.792 479.705 461.169 487.145 462.299 494.586C462.864 498.73 463.712 502.874 464.653 506.736C464.936 507.678 464.371 508.714 463.429 508.997C461.828 509.467 460.227 509.938 458.437 510.409C441.201 514.459 426.32 511.351 424.624 510.975C417.56 509.185 410.496 513.518 408.707 520.487C406.917 527.551 411.25 534.615 418.22 536.405C419.161 536.593 427.732 538.665 440.071 538.665C441.107 538.571 442.143 538.571 443.273 538.571Z" fill="#2E1E00"/>
<path d="M529.078 564.379H512.878C511.842 564.379 510.994 563.531 510.994 562.495C510.994 561.459 511.842 560.611 512.878 560.611H529.078C530.114 560.611 530.962 561.459 530.962 562.495C530.962 563.531 530.114 564.379 529.078 564.379Z" fill="#2E1E00"/>
<path d="M529.077 516.909H507.509C506.473 516.909 505.625 516.061 505.625 515.025C505.625 513.989 506.473 513.141 507.509 513.141H529.077C530.113 513.141 530.961 513.989 530.961 515.025C530.961 516.061 530.113 516.909 529.077 516.909Z" fill="#2E1E00"/>
<path d="M475.296 438.827C463.052 438.827 454.858 436.096 454.387 435.908C453.445 435.531 452.88 434.495 453.257 433.553C453.633 432.611 454.669 432.046 455.611 432.423C455.706 432.423 467.95 436.567 484.527 434.589C499.785 432.799 522.013 425.359 541.227 400.211C541.886 399.363 543.016 399.269 543.864 399.834C544.712 400.494 544.806 401.624 544.241 402.471C524.085 428.749 500.821 436.473 484.809 438.356C481.418 438.639 478.216 438.827 475.296 438.827Z" fill="#FEFFFA"/>
<path d="M278.07 607.515L281.178 634.075C271.759 630.496 266.014 625.504 266.014 620.136C266.108 615.332 270.629 610.905 278.07 607.515Z" fill="#2E1E00"/>
<path d="M281.272 635.865C281.084 635.865 280.801 635.865 280.613 635.771C270.064 631.721 264.318 626.164 264.318 620.042C264.318 614.579 268.839 609.681 277.41 605.725C277.975 605.443 278.635 605.537 279.106 605.819C279.671 606.102 279.953 606.667 280.047 607.232L283.25 633.793C283.344 634.452 283.061 635.111 282.496 635.488C282.12 635.771 281.649 635.865 281.272 635.865ZM276.563 610.34C271.006 613.354 267.992 616.745 267.992 620.042C267.992 623.903 271.947 627.765 279.011 630.967L276.563 610.34Z" fill="#2E1E00"/>
<path d="M375.927 620.043C375.927 629.461 358.502 637.373 334.861 639.633L343.15 601.582C362.458 604.69 375.927 611.848 375.927 620.043Z" fill="#2E1E00"/>
<path d="M334.863 641.517C334.298 641.517 333.827 641.329 333.45 640.858C333.073 640.387 332.885 639.822 332.979 639.163L341.268 601.112C341.456 600.17 342.398 599.51 343.434 599.699C364.626 603.184 377.812 610.907 377.812 620.043C377.812 632.005 356.337 639.445 335.051 641.517C334.957 641.517 334.957 641.517 334.863 641.517ZM344.564 603.749L337.217 637.562C358.409 635.113 374.044 627.766 374.044 620.137C374.044 613.356 362.271 606.857 344.564 603.749Z" fill="#2E1E00"/>
<path d="M344.566 594.895L343.153 601.488L334.864 639.539C330.438 640.01 325.822 640.198 321.019 640.198C305.384 640.198 291.256 637.749 281.272 633.888L278.164 607.327L274.773 578.977L299.073 584.817L309.622 330.608L332.51 333.999L318.853 588.678L344.566 594.895Z" fill="#FEFFFA"/>
<path d="M321.019 642.175C305.572 642.175 291.256 639.915 280.519 635.771C279.859 635.488 279.388 634.923 279.294 634.264L272.795 579.447C272.701 578.788 272.984 578.223 273.455 577.846C273.926 577.47 274.585 577.281 275.15 577.469L297.284 582.838L307.738 330.701C307.738 330.136 308.021 329.665 308.398 329.289C308.775 328.912 309.34 328.818 309.905 328.912L332.792 332.303C333.734 332.397 334.487 333.339 334.393 334.281L320.83 587.453L344.942 593.104C345.978 593.293 346.543 594.329 346.355 595.365L336.654 640.103C336.465 640.857 335.806 641.516 334.958 641.61C330.532 641.987 325.822 642.175 321.019 642.175ZM282.967 632.663C292.951 636.336 306.797 638.408 321.019 638.408C325.163 638.408 329.307 638.22 333.263 637.937L342.305 596.401L318.476 590.75C317.628 590.561 316.969 589.714 317.063 588.772L330.626 335.788L311.506 332.962L301.051 585.099C301.051 585.664 300.769 586.229 300.298 586.511C299.827 586.794 299.262 586.982 298.697 586.794L277.034 581.614L282.967 632.663Z" fill="#2E1E00"/>
<path d="M406.351 555.995L367.358 586.794L406.351 571.348L418.784 601.958L427.637 564.849L466.819 584.251L440.258 555.995L436.962 288.6C436.962 288.6 488.482 274.19 493.474 198.841L485.75 195.45C485.75 195.45 481.794 249.136 436.868 271.741C436.868 271.741 427.732 244.333 449.583 195.45C471.434 146.567 469.833 114.732 469.833 114.732H459.472C459.472 114.732 450.336 163.615 434.042 192.248C417.748 220.88 418.501 263.829 418.501 263.829L409.742 123.115L399.005 123.492L399.758 203.738L378.284 154.102L369.524 161.26L391.376 215.323L409.365 284.174C409.365 284.174 384.406 286.717 365.663 204.68L356.244 214.099C356.244 214.099 360.577 283.797 411.532 300.091L406.351 555.995Z" fill="#FEFFFA"/>
<path d="M418.877 603.843C418.123 603.843 417.464 603.372 417.087 602.712L405.314 573.891L368.016 588.584C367.168 588.961 366.132 588.584 365.661 587.737C365.19 586.889 365.379 585.853 366.132 585.288L404.466 555.054L409.74 301.505C389.019 294.346 372.914 277.205 363.118 251.774C355.678 232.278 354.547 215.042 354.453 214.288C354.453 213.723 354.641 213.252 355.018 212.875L364.437 203.457C364.908 202.986 365.661 202.797 366.321 202.986C366.98 203.174 367.451 203.739 367.639 204.399C377.246 246.406 388.454 265.431 396.083 274.096C400.793 279.371 404.654 281.349 406.915 282.008L389.679 215.983L367.828 162.015C367.545 161.261 367.733 160.413 368.393 159.848L377.152 152.69C377.623 152.313 378.188 152.219 378.753 152.313C379.318 152.408 379.789 152.879 380.072 153.444L397.873 194.509L397.214 123.587C397.214 122.551 397.967 121.703 399.003 121.703L409.74 121.326C410.776 121.326 411.624 122.08 411.718 123.116L418.688 235.668C420.666 221.729 424.622 205.058 432.439 191.401C448.357 163.427 457.587 114.922 457.681 114.451C457.87 113.603 458.623 112.944 459.565 112.944H469.925C470.962 112.944 471.715 113.697 471.809 114.733C471.903 116.052 473.128 147.51 451.371 196.298C433.57 236.139 436.678 261.758 438.185 269.104C479.627 246.594 483.865 195.922 483.959 195.451C483.959 194.886 484.336 194.321 484.901 193.944C485.466 193.661 486.031 193.567 486.596 193.85L494.32 197.24C495.073 197.523 495.544 198.276 495.45 199.124C492.813 238.588 477.366 261.381 464.745 273.437C453.443 284.268 442.706 288.789 438.938 290.108L442.329 555.337L468.419 583.027C469.078 583.687 469.078 584.723 468.513 585.476C467.948 586.23 467.006 586.418 466.158 586.041L429.143 567.675L420.854 602.524C420.666 603.277 420.007 603.937 419.159 603.937C418.971 603.843 418.877 603.843 418.877 603.843ZM406.35 569.465C407.103 569.465 407.763 569.935 408.139 570.595L418.406 595.743L425.94 564.284C426.035 563.719 426.411 563.248 426.977 563.06C427.542 562.777 428.107 562.777 428.578 563.06L458.341 577.847L438.938 557.22C438.656 556.844 438.467 556.467 438.467 555.996L435.077 288.601C435.077 287.753 435.642 287 436.489 286.717C436.584 286.717 449.204 283.044 462.202 270.423C474.07 258.932 488.763 237.364 491.494 199.972L487.35 198.182C486.691 202.892 484.901 213.535 479.909 225.779C473.787 240.943 461.449 261.475 437.714 273.437C437.243 273.72 436.678 273.72 436.113 273.531C435.547 273.343 435.171 272.872 435.077 272.401C434.7 271.271 425.94 243.674 447.886 194.697C464.18 158.341 468.136 128.861 468.042 116.711H461.072C459.377 125.282 450.335 167.572 435.736 193.284C419.913 221.164 420.478 263.453 420.478 263.83C420.478 264.866 419.724 265.714 418.688 265.714C417.652 265.714 416.804 264.96 416.71 263.924L408.045 125.094L400.981 125.376L401.735 203.833C401.735 204.775 401.075 205.529 400.228 205.717C399.38 205.905 398.438 205.435 398.061 204.587L377.623 157.211L371.878 161.92L393.258 214.665C393.258 214.759 393.352 214.853 393.352 214.853L411.342 283.703C411.436 284.268 411.342 284.834 411.059 285.21C410.776 285.681 410.211 285.964 409.74 285.964C408.704 286.058 383.651 287.659 364.814 208.354L358.409 214.759C359.162 222.576 366.132 283.515 412.283 298.208C413.037 298.491 413.602 299.244 413.602 299.998L408.328 555.808C408.328 556.373 408.045 556.938 407.574 557.22L378.565 580.296L405.69 569.559C405.879 569.559 406.161 569.465 406.35 569.465Z" fill="#2E1E00"/>
<path d="M528.136 351.423L508.451 375.347L533.693 368.565L528.136 351.423Z" fill="#2E1E00"/>
<path d="M508.448 377.231C507.789 377.231 507.223 376.948 506.847 376.383C506.376 375.724 506.47 374.782 506.941 374.122L526.626 350.199C527.097 349.634 527.756 349.446 528.415 349.54C529.075 349.634 529.64 350.199 529.828 350.764L535.385 367.906C535.574 368.377 535.479 368.942 535.291 369.413C535.008 369.884 534.632 370.167 534.161 370.355L508.919 377.136C508.73 377.23 508.636 377.231 508.448 377.231ZM527.379 355.285L513.628 372.05L531.241 367.247L527.379 355.285Z" fill="#2E1E00"/>
<path d="M534.909 378.548L522.947 388.72H539.147L534.909 378.548Z" fill="#2E1E00"/>
<path d="M539.151 390.604H523.046C522.292 390.604 521.539 390.133 521.256 389.379C520.974 388.626 521.162 387.778 521.821 387.307L533.689 377.135C534.16 376.758 534.725 376.57 535.384 376.758C535.949 376.853 536.42 377.324 536.703 377.889L540.941 388.061C541.224 388.626 541.129 389.285 540.753 389.85C540.282 390.227 539.717 390.604 539.151 390.604ZM528.132 386.836H536.326L534.16 381.656L528.132 386.836Z" fill="#2E1E00"/>
<path d="M485.945 365.574C487.051 362.767 483.748 358.838 478.569 356.8C473.39 354.761 468.296 355.384 467.19 358.191C466.085 360.999 469.388 364.927 474.567 366.966C479.746 369.005 484.84 368.382 485.945 365.574Z" fill="#2E1E00"/>
<path d="M445.539 372.763C450.428 370.102 453.221 365.796 451.778 363.146C450.335 360.496 445.203 360.506 440.314 363.167C435.426 365.829 432.632 370.135 434.075 372.785C435.518 375.434 440.65 375.425 445.539 372.763Z" fill="#2E1E00"/>
<path d="M456.552 400.023C458.789 400.023 460.602 398.21 460.602 395.973C460.602 393.736 458.789 391.923 456.552 391.923C454.315 391.923 452.502 393.736 452.502 395.973C452.502 398.21 454.315 400.023 456.552 400.023Z" fill="#2E1E00"/>
<path d="M470.022 381.656C471.999 381.656 473.602 380.054 473.602 378.077C473.602 376.101 471.999 374.498 470.022 374.498C468.046 374.498 466.443 376.101 466.443 378.077C466.443 380.054 468.046 381.656 470.022 381.656Z" fill="#2E1E00"/>
<path d="M448.357 383.164C450.178 383.164 451.654 381.688 451.654 379.867C451.654 378.047 450.178 376.571 448.357 376.571C446.536 376.571 445.061 378.047 445.061 379.867C445.061 381.688 446.536 383.164 448.357 383.164Z" fill="#2E1E00"/>
<path d="M467.759 406.521C466.817 406.521 465.969 405.768 465.875 404.826C465.781 403.79 466.534 402.848 467.57 402.848C467.665 402.848 471.526 402.471 473.693 399.363C475.576 396.726 475.953 392.864 474.729 387.967C474.446 386.931 475.105 385.895 476.141 385.706C477.177 385.424 478.214 386.083 478.402 387.119C479.909 393.241 479.344 398.139 476.707 401.718C473.41 406.239 468.041 406.71 467.853 406.71C467.853 406.521 467.759 406.521 467.759 406.521Z" fill="#2E1E00"/>
<path d="M484.621 174.824C484.15 174.824 483.773 174.635 483.396 174.353C481.701 172.94 467.196 160.696 468.891 152.125C469.457 149.205 471.717 147.039 475.673 145.908C479.629 144.778 482.078 146.003 483.49 147.227C489.895 152.972 486.881 171.15 486.504 173.222C486.41 173.882 485.939 174.447 485.28 174.635C485.091 174.729 484.809 174.824 484.621 174.824ZM478.687 149.205C478.122 149.205 477.557 149.299 476.803 149.488C473.13 150.618 472.753 152.313 472.659 152.784C471.811 156.928 478.028 164.181 483.302 169.078C484.15 162.109 484.15 152.784 480.947 149.958C480.476 149.676 479.817 149.205 478.687 149.205Z" fill="#2E1E00"/>
<path d="M353.324 258.367C352.853 258.367 352.382 258.178 352.005 257.896C351.252 257.142 351.252 256.012 351.911 255.259L361.141 245.463C361.895 244.71 363.025 244.71 363.778 245.369C364.532 246.123 364.532 247.253 363.873 248.006L354.642 257.802C354.266 258.178 353.795 258.367 353.324 258.367Z" fill="#2E1E00"/>
<path d="M337.409 281.819C337.032 281.819 336.656 281.725 336.373 281.537C335.808 281.16 335.525 280.501 335.525 279.841C335.62 277.769 336.656 259.403 344.191 255.164C345.792 254.223 348.523 253.563 352.102 255.635C355.587 257.613 357.377 260.156 357.282 263.17C357.094 271.93 340.141 280.689 338.163 281.631C337.974 281.725 337.692 281.819 337.409 281.819ZM347.581 257.99C346.922 257.99 346.357 258.178 345.98 258.367C342.307 260.439 340.235 269.481 339.481 276.545C345.792 272.966 353.421 267.22 353.515 262.982C353.515 262.417 353.609 260.721 350.218 258.838C349.088 258.273 348.241 257.99 347.581 257.99Z" fill="#2E1E00"/>
<path d="M140.088 488.086C138.675 487.898 137.357 487.521 136.038 486.956C105.051 473.017 85.1776 453.049 76.9834 427.619C64.1741 387.872 85.366 350.292 86.3079 348.691C90.1695 341.909 98.8347 339.649 105.616 343.51C112.397 347.372 114.658 356.037 110.796 362.724C110.514 363.289 94.8789 391.545 103.921 419.048C109.007 434.589 121.251 447.492 140.277 457.476C140.371 467.742 140.277 477.914 140.088 488.086Z" fill="#FA6456"/>
<path d="M140.087 489.97C139.993 489.97 139.899 489.97 139.899 489.97C138.298 489.782 136.791 489.311 135.284 488.652C103.825 474.524 83.5754 454.179 75.1929 428.184C62.101 387.59 83.7638 349.35 84.7056 347.749C86.8719 344.076 90.2626 341.438 94.4068 340.308C98.551 339.178 102.884 339.743 106.557 341.909C114.186 346.336 116.823 356.131 112.491 363.761C111.831 364.891 97.1383 392.205 105.803 418.577C110.701 433.553 122.663 446.174 141.217 455.969C141.783 456.251 142.253 456.911 142.253 457.57C142.442 466.989 142.348 476.972 142.159 488.181C142.159 488.746 141.877 489.217 141.5 489.593C140.935 489.782 140.558 489.97 140.087 489.97ZM98.4568 343.51C97.4208 343.51 96.2906 343.605 95.2545 343.981C92.0522 344.829 89.415 346.901 87.8138 349.727C86.8719 351.234 66.0567 388.155 78.6777 427.148C86.7777 452.107 106.274 471.698 136.696 485.355C137.167 485.543 137.638 485.732 138.203 485.92C138.392 476.125 138.392 467.271 138.298 458.889C119.366 448.717 107.216 435.625 102.036 419.896C92.8999 392.016 108.441 363.29 109.1 362.065C112.491 356.226 110.418 348.691 104.579 345.394C102.695 344.076 100.623 343.51 98.4568 343.51Z" fill="#2E1E00"/>
<path d="M337.127 406.617C337.127 416.035 329.498 423.664 320.079 423.664H244.636C247.838 465.2 259.046 638.409 225.328 640.293C196.412 641.894 202.346 496.376 202.346 496.376C194.529 500.426 186.335 495.999 186.335 495.999C186.335 495.999 185.393 640.293 155.63 640.293C130.388 640.293 138.582 575.116 139.147 561.27C139.995 536.876 141.408 512.482 141.973 488.088C142.161 477.916 142.255 467.743 142.067 457.571C142.067 455.97 141.973 454.275 141.973 452.674C141.69 443.067 141.219 433.365 140.466 423.758C139.524 412.362 138.205 400.965 136.51 389.663C133.873 372.709 130.388 355.85 125.867 339.273C119.933 317.328 112.587 294.817 101.473 274.85L132.083 285.587C143.291 265.714 168.816 266.938 168.816 266.938V240.943C197.354 250.832 216.757 299.338 228.718 342.664C228.907 343.512 229.189 344.359 229.378 345.113C231.921 354.532 234.087 363.762 235.971 372.144C236.253 373.557 236.536 374.876 236.818 376.194C237.854 380.998 238.796 385.519 239.55 389.663H319.985C329.498 389.569 337.127 397.198 337.127 406.617Z" fill="#FA6456"/>
<path d="M224.856 642.176C222.03 642.176 219.393 640.952 217.038 638.691C197.448 619.383 199.802 518.227 200.462 499.201C195.658 500.708 191.043 499.672 188.312 498.73C188.123 507.866 187.464 538.289 184.167 568.24C178.705 617.876 169.38 642.082 155.723 642.082C151.485 642.082 147.906 640.481 144.986 637.372C132.836 624.375 135.567 586.512 136.886 568.334C137.074 565.226 137.263 562.871 137.357 561.176C137.734 551.946 138.11 542.527 138.487 533.391C139.146 518.509 139.806 503.063 140.182 487.993C140.465 476.879 140.465 466.895 140.277 457.571C140.277 455.97 140.182 454.274 140.182 452.673C139.9 443.066 139.429 433.365 138.675 423.852C137.734 412.456 136.415 400.965 134.72 389.851C132.082 372.897 128.598 355.944 124.171 339.65C119.085 321.001 111.738 296.795 99.9649 275.603C99.5881 274.944 99.6823 274.096 100.153 273.437C100.624 272.872 101.472 272.589 102.225 272.872L131.423 283.044C141.595 266.749 160.903 264.96 167.12 264.772V240.66C167.12 240.095 167.402 239.435 167.873 239.153C168.344 238.776 169.003 238.682 169.569 238.87C193.586 247.159 214.119 281.819 230.695 341.91C230.884 342.758 231.166 343.605 231.355 344.453C233.709 352.93 235.876 362.066 237.948 371.485L238.042 372.05C238.324 373.274 238.607 374.404 238.795 375.629C239.643 379.396 240.397 383.258 241.244 387.59H320.172C330.627 387.59 339.104 396.067 339.104 406.522C339.104 416.977 330.627 425.453 320.172 425.453H246.707C250.098 470.945 258.292 610.153 234.745 637.09C232.014 640.198 228.906 641.893 225.515 642.082C225.327 642.176 225.138 642.176 224.856 642.176ZM202.44 494.492C202.816 494.492 203.099 494.586 203.476 494.774C204.041 495.151 204.417 495.81 204.323 496.47C204.229 497.694 199.708 616.275 219.676 636.054C221.465 637.749 223.255 638.597 225.233 638.503C227.587 638.409 229.754 637.184 231.826 634.829C250.098 614.014 249.438 512.199 242.751 423.946C242.751 423.381 242.845 422.91 243.222 422.534C243.599 422.157 244.07 421.968 244.635 421.968H320.078C328.461 421.968 335.242 415.187 335.242 406.804C335.242 398.422 328.461 391.64 320.078 391.64H239.643C238.701 391.64 237.948 390.981 237.759 390.133C236.818 385.236 235.876 380.903 235.028 376.759C234.745 375.629 234.557 374.404 234.274 373.18L234.18 372.615C232.108 363.196 229.848 354.154 227.587 345.678C227.399 344.83 227.116 343.982 226.928 343.229C216.097 304.047 197.636 255.541 170.699 243.768V267.032C170.699 267.503 170.51 268.068 170.134 268.351C169.757 268.633 169.286 268.916 168.721 268.822C168.532 268.822 144.232 267.88 133.684 286.529C133.213 287.282 132.271 287.659 131.423 287.376L105.334 278.24C115.977 298.679 122.758 321.189 127.561 338.802C131.988 355.19 135.567 372.238 138.204 389.38C139.9 400.588 141.313 412.079 142.254 423.57C143.008 433.082 143.573 442.878 143.762 452.579C143.762 454.274 143.856 455.876 143.856 457.571C144.044 466.99 143.95 476.973 143.762 488.181C143.385 503.345 142.725 518.792 142.066 533.673C141.689 542.809 141.218 552.134 140.936 561.458C140.842 563.154 140.653 565.697 140.465 568.805C139.241 586.418 136.509 623.15 147.529 635.018C149.789 637.372 152.332 638.597 155.535 638.597C166.46 638.597 175.22 613.543 180.212 568.146C184.073 532.543 184.356 496.564 184.356 496.187C184.356 495.528 184.733 494.869 185.298 494.586C185.863 494.209 186.616 494.209 187.181 494.586C187.276 494.586 194.622 498.542 201.404 494.963C201.78 494.586 202.157 494.492 202.44 494.492Z" fill="#2E1E00"/>
<path d="M239.642 391.452H177.95C176.914 391.452 176.066 390.604 176.066 389.568C176.066 388.532 176.914 387.685 177.95 387.685H239.642C240.678 387.685 241.526 388.532 241.526 389.568C241.526 390.604 240.678 391.452 239.642 391.452Z" fill="#2E1E00"/>
<path d="M244.726 425.547H180.491C179.455 425.547 178.607 424.7 178.607 423.664C178.607 422.628 179.455 421.78 180.491 421.78H244.726C245.762 421.78 246.61 422.628 246.61 423.664C246.61 424.7 245.762 425.547 244.726 425.547Z" fill="#2E1E00"/>
<path d="M160.713 375.252C144.889 375.252 133.493 373.086 132.928 372.991C131.892 372.803 131.232 371.767 131.421 370.825C131.609 369.883 132.645 369.13 133.587 369.318C134.246 369.412 196.88 380.997 229.469 349.068C230.222 348.315 231.447 348.315 232.106 349.068C232.859 349.822 232.859 351.046 232.106 351.705C214.305 369.224 188.215 374.027 169.472 375.063C166.458 375.158 163.538 375.252 160.713 375.252Z" fill="#FEFFFA"/>
<path d="M123.51 330.797L144.702 333.622L127.371 345.113L123.51 330.797Z" fill="#2E1E00"/>
<path d="M127.372 346.997C127.183 346.997 126.901 346.997 126.712 346.902C126.147 346.714 125.676 346.243 125.582 345.678L121.72 331.362C121.532 330.797 121.72 330.137 122.097 329.666C122.474 329.195 123.133 328.913 123.792 329.007L145.079 331.833C145.832 331.927 146.491 332.492 146.68 333.245C146.868 333.999 146.586 334.847 145.926 335.223L128.596 346.714C128.125 346.902 127.748 346.997 127.372 346.997ZM126.053 333.057L128.502 342.099L139.522 334.847L126.053 333.057Z" fill="#2E1E00"/>
<path d="M129.441 353.305L157.321 349.82L134.151 367.339L129.441 353.305Z" fill="#2E1E00"/>
<path d="M134.154 369.224C133.965 369.224 133.777 369.224 133.588 369.13C133.023 368.941 132.552 368.47 132.364 367.905L127.655 353.871C127.466 353.306 127.56 352.741 127.843 352.27C128.126 351.799 128.597 351.517 129.162 351.423L157.041 347.938C157.888 347.844 158.736 348.314 159.019 349.068C159.301 349.821 159.113 350.763 158.454 351.234L135.284 368.753C134.907 369.035 134.53 369.224 134.154 369.224ZM131.893 354.908L135.001 364.232L150.448 352.553L131.893 354.908Z" fill="#2E1E00"/>
<path d="M195.937 324.297C188.213 324.297 183.975 317.799 182.751 313.937C182.468 312.901 182.939 311.865 183.975 311.582C184.917 311.3 186.047 311.771 186.33 312.807C186.424 313.183 189.438 322.037 198.197 320.342C199.233 320.153 200.175 320.812 200.458 321.848C200.646 322.885 199.987 323.826 198.951 324.109C197.915 324.203 196.879 324.297 195.937 324.297Z" fill="#2E1E00"/>
<path d="M120.402 322.602C119.648 322.602 118.895 322.131 118.612 321.283C118.235 320.341 118.801 319.211 119.742 318.929L154.968 306.967C155.91 306.59 157.04 307.155 157.323 308.097C157.699 309.039 157.134 310.169 156.192 310.452L120.967 322.413C120.873 322.508 120.684 322.602 120.402 322.602Z" fill="#2E1E00"/>
<path d="M147.336 304.612L180.49 291.426C180.49 291.426 191.98 308.944 176.44 313.371C160.899 317.798 147.336 304.612 147.336 304.612Z" fill="#2E1E00"/>
<path d="M169.848 316.197C156.756 316.197 146.489 306.496 146.018 305.931C145.547 305.46 145.359 304.8 145.453 304.235C145.547 303.67 146.018 303.105 146.583 302.822L179.737 289.636C180.585 289.354 181.527 289.636 181.998 290.39C182.28 290.767 188.496 300.373 185.671 307.908C184.352 311.393 181.432 313.842 176.911 315.161C174.557 315.914 172.108 316.197 169.848 316.197ZM150.916 305.177C155.249 308.474 165.232 314.596 175.875 311.582C179.172 310.64 181.244 309.039 182.186 306.684C183.787 302.257 181.056 296.418 179.643 293.875L150.916 305.177Z" fill="#2E1E00"/>
<path d="M180.491 291.426C180.491 291.426 191.982 308.944 176.441 313.371C160.901 317.798 147.338 304.612 147.338 304.612" fill="#2E1E00"/>
<path d="M169.851 316.198C156.759 316.198 146.493 306.497 146.022 305.932C145.269 305.178 145.269 304.048 146.022 303.294C146.776 302.541 147.906 302.541 148.659 303.294C148.754 303.389 161.657 315.727 175.973 311.583C179.27 310.641 181.342 309.04 182.284 306.685C184.45 300.94 179.082 292.557 178.987 292.557C178.422 291.71 178.705 290.485 179.552 289.92C180.4 289.355 181.625 289.637 182.19 290.485C182.472 290.862 188.689 300.469 185.863 308.004C184.544 311.489 181.625 313.937 177.104 315.256C174.561 315.915 172.112 316.198 169.851 316.198Z" fill="#2E1E00"/>
<path d="M196.506 286.058C196.506 286.058 202.345 305.366 214.872 298.585C227.399 291.804 225.986 274.191 225.986 274.191L196.506 286.058Z" fill="#2E1E00"/>
<path d="M209.69 301.881C208.278 301.881 206.959 301.599 205.64 301.034C198.2 297.926 194.809 287 194.62 286.529C194.338 285.587 194.809 284.645 195.751 284.269L225.137 272.401C225.702 272.213 226.361 272.213 226.832 272.589C227.303 272.872 227.68 273.437 227.68 274.002C227.68 274.191 228.057 278.806 226.832 284.269C225.137 291.709 221.275 297.266 215.624 300.28C213.646 301.316 211.668 301.881 209.69 301.881ZM198.859 287.094C199.989 289.92 202.721 295.759 207.053 297.549C209.125 298.396 211.386 298.208 213.929 296.89C222.5 292.274 223.912 281.82 224.007 276.922L198.859 287.094Z" fill="#2E1E00"/>
<path d="M181.998 300.092C181.245 300.092 180.492 299.621 180.209 298.867C179.832 297.925 180.303 296.795 181.339 296.418L201.872 288.789C202.814 288.413 203.944 288.883 204.321 289.92C204.697 290.861 204.226 291.992 203.19 292.368L182.658 299.997C182.469 299.997 182.281 300.092 181.998 300.092Z" fill="#2E1E00"/>
<path d="M161.894 291.351C165.609 287.636 166.981 282.985 164.958 280.962C162.935 278.939 158.283 280.311 154.568 284.025C150.853 287.74 149.482 292.392 151.505 294.415C153.528 296.438 158.179 295.066 161.894 291.351Z" fill="#2E1E00"/>
<path d="M205.912 274.463C206.163 271.613 202.125 268.928 196.892 268.465C191.659 268.003 187.212 269.938 186.96 272.788C186.708 275.638 190.746 278.323 195.98 278.785C201.213 279.248 205.66 277.313 205.912 274.463Z" fill="#2E1E00"/>
<path d="M200.272 314.691C202.405 314.691 204.133 312.962 204.133 310.829C204.133 308.696 202.405 306.968 200.272 306.968C198.139 306.968 196.41 308.696 196.41 310.829C196.41 312.962 198.139 314.691 200.272 314.691Z" fill="#2E1E00"/>
<path d="M336.845 378.455C347.456 378.455 356.059 371.497 356.059 362.914C356.059 354.331 347.456 347.373 336.845 347.373C326.233 347.373 317.631 354.331 317.631 362.914C317.631 371.497 326.233 378.455 336.845 378.455Z" fill="#FA6456"/>
<path d="M336.842 380.338C325.163 380.338 315.744 372.521 315.744 362.914C315.744 353.307 325.257 345.489 336.842 345.489C348.427 345.489 357.94 353.307 357.94 362.914C357.94 372.521 348.521 380.338 336.842 380.338ZM336.842 349.351C327.329 349.351 319.512 355.473 319.512 363.008C319.512 370.543 327.329 376.665 336.842 376.665C346.355 376.665 354.172 370.543 354.172 363.008C354.172 355.473 346.449 349.351 336.842 349.351Z" fill="#2E1E00"/>
<path d="M534.915 473.959C517.302 517.661 486.315 532.919 463.427 538.005C456.269 539.607 449.394 540.266 443.272 540.454C442.141 540.454 441.105 540.548 440.069 540.548C427.166 540.548 418.312 538.382 417.747 538.194C409.741 536.216 404.844 528.022 406.821 520.016C408.799 512.01 416.994 507.112 424.999 509.09C425.47 509.184 440.446 512.669 457.965 508.525C459.566 508.148 461.167 507.677 462.768 507.206C482.83 500.896 497.711 486.015 507.036 462.845" fill="#ADF0E7"/>
<path d="M440.071 542.338C427.167 542.338 418.22 540.172 417.278 539.983C408.236 537.723 402.773 528.493 405.033 519.451C407.294 510.503 416.43 504.946 425.472 507.207C426.979 507.583 441.107 510.503 457.589 506.641C459.191 506.265 460.792 505.794 462.299 505.323C481.795 499.201 496.3 484.696 505.436 462.091C505.813 461.15 506.943 460.679 507.885 461.055C508.827 461.432 509.298 462.562 508.921 463.504C499.408 487.239 484.056 502.497 463.429 508.902C461.828 509.373 460.227 509.844 458.531 510.315C441.295 514.365 426.414 511.257 424.718 510.88C417.654 509.09 410.59 513.423 408.801 520.393C407.011 527.457 411.344 534.521 418.314 536.31C419.256 536.499 427.827 538.571 440.165 538.571C441.201 538.571 442.237 538.571 443.273 538.476C450.055 538.288 456.648 537.44 463.052 536.122C485.469 531.13 515.891 516.248 533.221 473.205C533.598 472.263 534.728 471.793 535.67 472.169C536.612 472.546 537.083 473.676 536.706 474.618C518.811 519.074 487.164 534.615 463.9 539.795C457.307 541.208 450.431 542.056 443.462 542.244C442.237 542.338 441.107 542.338 440.071 542.338Z" fill="#2E1E00"/>
<path d="M410.213 503.251C420.46 503.251 428.768 496.546 428.768 488.275C428.768 480.005 420.46 473.3 410.213 473.3C399.965 473.3 391.658 480.005 391.658 488.275C391.658 496.546 399.965 503.251 410.213 503.251Z" fill="#ADF0E7"/>
<path d="M410.214 505.135C398.911 505.135 389.775 497.6 389.775 488.276C389.775 478.951 398.911 471.417 410.214 471.417C421.516 471.417 430.652 478.951 430.652 488.276C430.652 497.6 421.516 505.135 410.214 505.135ZM410.214 475.278C400.984 475.278 393.543 481.118 393.543 488.37C393.543 495.622 400.984 501.462 410.214 501.462C419.444 501.462 426.885 495.622 426.885 488.37C426.885 481.118 419.444 475.278 410.214 475.278Z" fill="#2E1E00"/>
<path d="M544.426 612.978C543.767 612.978 543.202 612.695 542.825 612.036C542.26 611.188 542.543 609.964 543.484 609.399L555.258 602.146C556.105 601.581 557.33 601.864 557.895 602.806C558.46 603.653 558.177 604.878 557.236 605.443L545.462 612.695C545.18 612.884 544.803 612.978 544.426 612.978Z" fill="#2E1E00"/>
<path d="M149.561 644.013L720.959 638.776" stroke="black" stroke-width="3" stroke-linecap="round"/>
</svg>
