<svg width="79" height="86" viewBox="0 0 79 86" fill="none" xmlns="http://www.w3.org/2000/svg">
<path d="M39.5006 33.1251C48.2878 33.1251 55.4113 26.0069 55.4113 17.2261C55.4113 8.44535 48.2878 1.32715 39.5006 1.32715C30.7133 1.32715 23.5898 8.44535 23.5898 17.2261C23.5898 26.0069 30.7133 33.1251 39.5006 33.1251Z" fill="#FEF1BE" stroke="black"/>
<path d="M39.4998 33.4522C30.5296 33.4522 23.2617 26.1897 23.2617 17.2261C23.2617 8.2952 30.5296 1 39.4998 1C48.47 1 55.7379 8.2952 55.7379 17.2261C55.7379 26.1897 48.47 33.4522 39.4998 33.4522ZM39.4998 1.65428C30.8897 1.65428 23.9165 8.65505 23.9165 17.2261C23.9165 25.8298 30.9224 32.7979 39.4998 32.7979C48.0772 32.7979 55.0831 25.7971 55.0831 17.2261C55.0831 8.65505 48.1099 1.65428 39.4998 1.65428Z" fill="black" stroke="black"/>
<path d="M77.6734 16.4409H1.32812V85.1728H77.6734V16.4409Z" fill="#ADF0E7" stroke="black"/>
<path d="M77.6726 85.4999H1.32738C1.13095 85.4999 1 85.3691 1 85.1728V16.4409C1 16.2446 1.13095 16.1138 1.32738 16.1138H77.6726C77.869 16.1138 78 16.2446 78 16.4409V85.1728C78 85.3691 77.869 85.4999 77.6726 85.4999ZM1.65476 84.8457H77.3452V16.768H1.65476V84.8457Z" fill="black" stroke="black"/>
<path d="M67.819 25.3391H11.2148V76.2747H67.819V25.3391Z" fill="#ADF0E7" stroke="black"/>
<path d="M67.7855 76.6018H11.2141C11.0177 76.6018 10.8867 76.4709 10.8867 76.2746V25.3391C10.8867 25.1428 11.0177 25.012 11.2141 25.012H67.7855C67.982 25.012 68.1129 25.1428 68.1129 25.3391V76.2746C68.1129 76.4709 67.982 76.6018 67.7855 76.6018ZM11.5415 75.9475H67.4581V25.6662H11.5415V75.9475Z" fill="black" stroke="black"/>
<path d="M39.4997 61.4226C45.3579 61.4226 50.1069 56.6771 50.1069 50.8233C50.1069 44.9695 45.3579 40.224 39.4997 40.224C33.6416 40.224 28.8926 44.9695 28.8926 50.8233C28.8926 56.6771 33.6416 61.4226 39.4997 61.4226Z" fill="#ADF0E7" stroke="black"/>
<path d="M28.0645 50.8233C28.0645 57.1191 33.1994 62.2497 39.499 62.2497C45.7986 62.2497 50.9335 57.1191 50.9335 50.8233C50.9335 44.5274 45.7986 39.3969 39.499 39.3969C33.1994 39.3969 28.0645 44.5274 28.0645 50.8233ZM29.7192 50.7906C29.7192 45.4076 34.1111 41.0184 39.499 41.0184C44.8869 41.0184 49.2787 45.4076 49.2787 50.7906C49.2787 56.1736 44.8869 60.5628 39.499 60.5628C34.1111 60.5628 29.7192 56.1736 29.7192 50.7906Z" fill="black" stroke="black"/>
<path d="M11.2142 35.4478H7.31836V46.0471H11.2142V35.4478Z" fill="#ADF0E7" stroke="black"/>
<path d="M11.2135 46.3742H7.31762C7.12119 46.3742 6.99023 46.2433 6.99023 46.0471V35.4477C6.99023 35.2515 7.12119 35.1206 7.31762 35.1206H11.2135C11.4099 35.1206 11.5408 35.2515 11.5408 35.4477V46.0471C11.5408 46.2433 11.3771 46.3742 11.2135 46.3742ZM7.645 45.7199H10.8861V35.7749H7.645V45.7199Z" fill="black" stroke="black"/>
<path d="M11.2142 56.1229H7.31836V66.7222H11.2142V56.1229Z" fill="#ADF0E7" stroke="black"/>
<path d="M11.2135 67.0494H7.31762C7.12119 67.0494 6.99023 66.9185 6.99023 66.7222V56.1229C6.99023 55.9266 7.12119 55.7958 7.31762 55.7958H11.2135C11.4099 55.7958 11.5408 55.9266 11.5408 56.1229V66.7222C11.5408 66.9185 11.3771 67.0494 11.2135 67.0494ZM7.645 66.3951H10.8861V56.4501H7.645V66.3951Z" fill="black" stroke="black"/>
</svg>
