<svg width="77" height="85" viewBox="0 0 77 85" fill="none" xmlns="http://www.w3.org/2000/svg">
<g clip-path="url(#clip0)">
<path d="M38.5006 32.1251C47.2878 32.1251 54.4113 25.0069 54.4113 16.2261C54.4113 7.44535 47.2878 0.327148 38.5006 0.327148C29.7133 0.327148 22.5898 7.44535 22.5898 16.2261C22.5898 25.0069 29.7133 32.1251 38.5006 32.1251Z" fill="#FEF1BE" stroke="black"/>
<path d="M38.4998 32.4522C29.5296 32.4522 22.2617 25.1897 22.2617 16.2261C22.2617 7.2952 29.5296 0 38.4998 0C47.47 0 54.7379 7.2952 54.7379 16.2261C54.7379 25.1897 47.47 32.4522 38.4998 32.4522ZM38.4998 0.654278C29.8897 0.654278 22.9165 7.65505 22.9165 16.2261C22.9165 24.8298 29.9224 31.7979 38.4998 31.7979C47.0772 31.7979 54.0831 24.7971 54.0831 16.2261C54.0831 7.65505 47.1099 0.654278 38.4998 0.654278Z" fill="black" stroke="black"/>
<path d="M76.6734 15.4409H0.328125V84.1728H76.6734V15.4409Z" fill="#ADF0E7" stroke="black"/>
<path d="M76.6726 84.4999H0.327381C0.130952 84.4999 0 84.3691 0 84.1728V15.4409C0 15.2446 0.130952 15.1138 0.327381 15.1138H76.6726C76.869 15.1138 77 15.2446 77 15.4409V84.1728C77 84.3691 76.869 84.4999 76.6726 84.4999ZM0.654762 83.8457H76.3452V15.768H0.654762V83.8457Z" fill="black" stroke="black"/>
<path d="M66.819 24.3391H10.2148V75.2747H66.819V24.3391Z" fill="#ADF0E7" stroke="black"/>
<path d="M66.7855 75.6018H10.2141C10.0177 75.6018 9.88672 75.4709 9.88672 75.2746V24.3391C9.88672 24.1428 10.0177 24.012 10.2141 24.012H66.7855C66.982 24.012 67.1129 24.1428 67.1129 24.3391V75.2746C67.1129 75.4709 66.982 75.6018 66.7855 75.6018ZM10.5415 74.9475H66.4581V24.6662H10.5415V74.9475Z" fill="black" stroke="black"/>
<path d="M38.4997 60.4226C44.3579 60.4226 49.1069 55.6771 49.1069 49.8233C49.1069 43.9695 44.3579 39.224 38.4997 39.224C32.6416 39.224 27.8926 43.9695 27.8926 49.8233C27.8926 55.6771 32.6416 60.4226 38.4997 60.4226Z" fill="#ADF0E7" stroke="black"/>
<path d="M27.0645 49.8233C27.0645 56.1191 32.1994 61.2497 38.499 61.2497C44.7986 61.2497 49.9335 56.1191 49.9335 49.8233C49.9335 43.5274 44.7986 38.3969 38.499 38.3969C32.1994 38.3969 27.0645 43.5274 27.0645 49.8233ZM28.7192 49.7906C28.7192 44.4076 33.1111 40.0184 38.499 40.0184C43.8869 40.0184 48.2787 44.4076 48.2787 49.7906C48.2787 55.1736 43.8869 59.5628 38.499 59.5628C33.1111 59.5628 28.7192 55.1736 28.7192 49.7906Z" fill="black" stroke="black"/>
<path d="M10.2142 34.4478H6.31836V45.0471H10.2142V34.4478Z" fill="#ADF0E7" stroke="black"/>
<path d="M10.2135 45.3742H6.31762C6.12119 45.3742 5.99023 45.2433 5.99023 45.0471V34.4477C5.99023 34.2515 6.12119 34.1206 6.31762 34.1206H10.2135C10.4099 34.1206 10.5408 34.2515 10.5408 34.4477V45.0471C10.5408 45.2433 10.3771 45.3742 10.2135 45.3742ZM6.645 44.7199H9.88607V34.7749H6.645V44.7199Z" fill="black" stroke="black"/>
<path d="M10.2142 55.1229H6.31836V65.7222H10.2142V55.1229Z" fill="#ADF0E7" stroke="black"/>
<path d="M10.2135 66.0494H6.31762C6.12119 66.0494 5.99023 65.9185 5.99023 65.7222V55.1229C5.99023 54.9266 6.12119 54.7958 6.31762 54.7958H10.2135C10.4099 54.7958 10.5408 54.9266 10.5408 55.1229V65.7222C10.5408 65.9185 10.3771 66.0494 10.2135 66.0494ZM6.645 65.3951H9.88607V55.4501H6.645V65.3951Z" fill="black" stroke="black"/>
</g>
<defs>
<clipPath id="clip0">
<rect width="77" height="84.5" fill="white"/>
</clipPath>
</defs>
</svg>
